<svg width="283" height="243" viewBox="0 0 283 243" fill="none" xmlns="http://www.w3.org/2000/svg">
<rect x="0.833328" y="0.5" width="55" height="242" rx="7.5" fill="#A9DFFD" fill-opacity="0.24"/>
<rect x="0.833328" y="0.5" width="55" height="242" rx="7.5" stroke="#A9DFFD"/>
<rect x="16.3333" y="40" width="24" height="24" rx="6" transform="rotate(-90 16.3333 40)" fill="#1F5473"/>
<path d="M32.3333 30.8863H30.7733C30.4133 30.8863 30.1053 30.8343 29.8493 30.7303C29.5853 30.6183 29.3493 30.4343 29.1413 30.1783C28.9333 29.9223 28.7333 29.5783 28.5413 29.1463L27.8333 27.5863C27.6573 27.1943 27.4373 26.8943 27.1733 26.6863C26.9013 26.4703 26.5533 26.3623 26.1293 26.3623C25.6413 26.3623 25.2573 26.5023 24.9773 26.7823C24.6893 27.0623 24.5453 27.4623 24.5453 27.9823C24.5453 28.4943 24.6893 28.8943 24.9773 29.1823C25.2573 29.4623 25.6493 29.6023 26.1533 29.6023V30.9943C25.6333 30.9943 25.1613 30.8863 24.7373 30.6703C24.3053 30.4463 23.9613 30.1103 23.7053 29.6623C23.4493 29.2143 23.3213 28.6543 23.3213 27.9823C23.3213 27.3103 23.4493 26.7543 23.7053 26.3143C23.9533 25.8663 24.2853 25.5343 24.7013 25.3183C25.1093 25.0943 25.5573 24.9823 26.0453 24.9823H26.2133C26.8533 24.9823 27.3933 25.1663 27.8333 25.5343C28.2653 25.8943 28.6293 26.4063 28.9253 27.0703L29.6333 28.6423C29.7773 28.9623 29.9253 29.1823 30.0773 29.3023C30.2293 29.4223 30.4293 29.4823 30.6773 29.4823H31.6133L31.1093 29.8423V24.8983H32.3333V30.8863Z" fill="white"/>
<path d="M33.5993 137.938C33.5993 138.862 33.436 139.665 33.1093 140.346C32.7827 141.018 32.358 141.578 31.8353 142.026C31.3033 142.465 30.734 142.796 30.1273 143.02C29.5113 143.235 28.9187 143.342 28.3493 143.342H28.0413C27.416 143.342 26.7953 143.23 26.1793 143.006C25.554 142.782 24.9893 142.446 24.4853 141.998C23.9813 141.541 23.58 140.976 23.2813 140.304C22.9733 139.632 22.8193 138.843 22.8193 137.938C22.8193 137.042 22.9733 136.258 23.2813 135.586C23.58 134.914 23.9813 134.354 24.4853 133.906C24.9893 133.449 25.554 133.108 26.1793 132.884C26.7953 132.66 27.416 132.548 28.0413 132.548H28.3493C28.9187 132.548 29.5113 132.66 30.1273 132.884C30.734 133.099 31.3033 133.43 31.8353 133.878C32.358 134.317 32.7827 134.877 33.1093 135.558C33.436 136.23 33.5993 137.023 33.5993 137.938ZM31.7513 137.938C31.7513 137.415 31.658 136.949 31.4713 136.538C31.2847 136.118 31.028 135.763 30.7013 135.474C30.3653 135.175 29.9873 134.951 29.5673 134.802C29.138 134.643 28.6853 134.564 28.2093 134.564C27.696 134.564 27.2247 134.643 26.7953 134.802C26.366 134.951 25.9927 135.175 25.6753 135.474C25.358 135.763 25.1107 136.118 24.9333 136.538C24.756 136.958 24.6673 137.425 24.6673 137.938C24.6673 138.461 24.756 138.932 24.9333 139.352C25.1107 139.772 25.358 140.131 25.6753 140.43C25.9927 140.719 26.366 140.943 26.7953 141.102C27.2247 141.251 27.696 141.326 28.2093 141.326C28.6853 141.326 29.138 141.251 29.5673 141.102C29.9873 140.943 30.3653 140.719 30.7013 140.43C31.028 140.131 31.2847 139.772 31.4713 139.352C31.658 138.932 31.7513 138.461 31.7513 137.938ZM33.3333 130.781H25.7313V129.241H28.9933V129.381C28.2187 129.381 27.5747 129.278 27.0613 129.073C26.5387 128.867 26.1467 128.564 25.8853 128.163C25.624 127.752 25.4933 127.243 25.4933 126.637V126.553C25.4933 125.647 25.7873 124.961 26.3753 124.495C26.954 124.028 27.822 123.795 28.9793 123.795H33.3333V125.741H28.8113C28.3447 125.741 27.9667 125.876 27.6773 126.147C27.388 126.408 27.2433 126.772 27.2433 127.239C27.2433 127.715 27.3927 128.102 27.6913 128.401C27.9807 128.69 28.3727 128.835 28.8673 128.835H33.3333V130.781ZM33.5853 117.237C33.5853 117.862 33.4547 118.413 33.1933 118.889C32.9227 119.365 32.5307 119.738 32.0173 120.009C31.504 120.279 30.8833 120.429 30.1553 120.457V120.163H33.3333V121.703H23.1133V119.757H28.2233L29.0213 120.275C28.2373 120.237 27.584 120.083 27.0613 119.813C26.5387 119.533 26.1467 119.159 25.8853 118.693C25.624 118.226 25.4933 117.699 25.4933 117.111C25.4933 116.588 25.5913 116.112 25.7873 115.683C25.9833 115.253 26.2587 114.885 26.6133 114.577C26.9587 114.269 27.3647 114.035 27.8313 113.877C28.298 113.709 28.8067 113.625 29.3573 113.625H29.6513C30.202 113.625 30.7153 113.709 31.1913 113.877C31.6673 114.045 32.0873 114.287 32.4513 114.605C32.806 114.922 33.086 115.305 33.2913 115.753C33.4873 116.191 33.5853 116.686 33.5853 117.237ZM31.9473 117.671C31.9473 117.251 31.8447 116.887 31.6393 116.579C31.4247 116.261 31.1353 116.014 30.7713 115.837C30.4073 115.659 29.9873 115.571 29.5113 115.571C29.026 115.571 28.606 115.659 28.2513 115.837C27.8967 116.014 27.6213 116.261 27.4253 116.579C27.2293 116.887 27.1313 117.251 27.1313 117.671C27.1313 118.053 27.2153 118.408 27.3833 118.735C27.5513 119.052 27.7987 119.313 28.1253 119.519C28.452 119.715 28.844 119.813 29.3013 119.813H29.8613C30.3 119.813 30.6733 119.71 30.9813 119.505C31.2893 119.299 31.5273 119.033 31.6953 118.707C31.8633 118.38 31.9473 118.035 31.9473 117.671ZM33.5993 108.26C33.5993 108.932 33.492 109.524 33.2773 110.038C33.0627 110.551 32.7733 110.985 32.4093 111.34C32.036 111.694 31.616 111.965 31.1493 112.152C30.6827 112.329 30.1973 112.418 29.6933 112.418H29.3993C28.8767 112.418 28.382 112.324 27.9153 112.138C27.4393 111.942 27.0193 111.666 26.6553 111.312C26.282 110.948 25.9927 110.509 25.7873 109.996C25.5727 109.482 25.4653 108.904 25.4653 108.26C25.4653 107.616 25.5727 107.037 25.7873 106.524C25.9927 106.01 26.282 105.576 26.6553 105.222C27.0193 104.858 27.4393 104.582 27.9153 104.396C28.382 104.209 28.8767 104.116 29.3993 104.116H29.6933C30.1973 104.116 30.6827 104.209 31.1493 104.396C31.616 104.573 32.036 104.839 32.4093 105.194C32.7733 105.548 33.0627 105.982 33.2773 106.496C33.492 107.009 33.5993 107.597 33.5993 108.26ZM31.9333 108.26C31.9333 107.784 31.8307 107.382 31.6253 107.056C31.4107 106.729 31.126 106.482 30.7713 106.314C30.4073 106.146 29.9967 106.062 29.5393 106.062C29.0727 106.062 28.662 106.15 28.3073 106.328C27.9433 106.496 27.6587 106.748 27.4533 107.084C27.2387 107.41 27.1313 107.802 27.1313 108.26C27.1313 108.717 27.2387 109.114 27.4533 109.45C27.6587 109.776 27.9433 110.028 28.3073 110.206C28.662 110.383 29.0727 110.472 29.5393 110.472C29.9967 110.472 30.4073 110.388 30.7713 110.22C31.126 110.042 31.4107 109.79 31.6253 109.464C31.8307 109.137 31.9333 108.736 31.9333 108.26ZM33.3333 97.8056H31.0793V98.1276H28.5733C28.1347 98.1276 27.808 98.2349 27.5933 98.4496C27.3787 98.6642 27.2713 98.9956 27.2713 99.4436C27.2713 99.6769 27.276 99.9569 27.2853 100.284C27.2947 100.61 27.3087 100.942 27.3273 101.278C27.3367 101.604 27.3507 101.898 27.3693 102.16H25.7173C25.6987 101.945 25.68 101.702 25.6613 101.432C25.6427 101.161 25.6333 100.886 25.6333 100.606C25.624 100.316 25.6193 100.046 25.6193 99.7936C25.6193 99.0096 25.722 98.3609 25.9273 97.8476C26.1327 97.3249 26.4547 96.9329 26.8933 96.6716C27.332 96.4009 27.906 96.2656 28.6153 96.2656H33.3333V97.8056ZM33.5293 100.256C33.5293 100.806 33.4313 101.292 33.2353 101.712C33.0393 102.122 32.7593 102.444 32.3953 102.678C32.0313 102.902 31.5927 103.014 31.0793 103.014C30.5193 103.014 30.062 102.878 29.7073 102.608C29.3527 102.328 29.0867 101.94 28.9093 101.446C28.732 100.942 28.6433 100.354 28.6433 99.6816V97.9176H29.8053V99.7096C29.8053 100.158 29.9173 100.503 30.1413 100.746C30.356 100.979 30.636 101.096 30.9813 101.096C31.3267 101.096 31.6067 100.979 31.8213 100.746C32.036 100.503 32.1433 100.158 32.1433 99.7096C32.1433 99.4389 32.0967 99.1916 32.0033 98.9676C31.9007 98.7342 31.7327 98.5429 31.4993 98.3936C31.2567 98.2349 30.93 98.1462 30.5193 98.1276L31.0653 97.6516C31.5973 97.6982 32.0453 97.8289 32.4093 98.0436C32.7733 98.2489 33.0533 98.5382 33.2493 98.9116C33.436 99.2756 33.5293 99.7236 33.5293 100.256ZM33.3333 94.1811H25.7313V92.6411H28.9513V92.6831C27.8593 92.6831 27.0333 92.4498 26.4733 91.9831C25.9133 91.5164 25.6333 90.8304 25.6333 89.9251V89.6451H27.3273V90.1771C27.3273 90.8304 27.5047 91.3391 27.8593 91.7031C28.2047 92.0578 28.7087 92.2351 29.3713 92.2351H33.3333V94.1811ZM33.5853 85.2479C33.5853 85.7799 33.4873 86.2699 33.2913 86.7179C33.0953 87.1659 32.82 87.5532 32.4653 87.8799C32.1107 88.2066 31.7 88.4586 31.2333 88.6359C30.7573 88.8132 30.244 88.9019 29.6933 88.9019H29.3993C28.858 88.9019 28.3493 88.8179 27.8733 88.6499C27.3973 88.4726 26.982 88.2299 26.6273 87.9219C26.2727 87.6046 25.9973 87.2266 25.8013 86.7879C25.596 86.3399 25.4933 85.8452 25.4933 85.3039C25.4933 84.7066 25.624 84.1839 25.8853 83.7359C26.1373 83.2786 26.52 82.9146 27.0333 82.6439C27.5467 82.3732 28.1907 82.2239 28.9653 82.1959L28.2933 82.7699H23.1133V80.8239H33.3333V82.3639H30.0993V82.0279C30.874 82.0559 31.5227 82.2146 32.0453 82.5039C32.5587 82.7932 32.946 83.1759 33.2073 83.6519C33.4593 84.1186 33.5853 84.6506 33.5853 85.2479ZM31.9473 84.8139C31.9473 84.4312 31.8633 84.0812 31.6953 83.7639C31.518 83.4466 31.266 83.1946 30.9393 83.0079C30.6033 82.8119 30.2113 82.7139 29.7633 82.7139H29.2033C28.7553 82.7139 28.382 82.8119 28.0833 83.0079C27.7753 83.2039 27.542 83.4606 27.3833 83.7779C27.2153 84.0952 27.1313 84.4406 27.1313 84.8139C27.1313 85.2339 27.234 85.6072 27.4393 85.9339C27.6353 86.2512 27.9153 86.5032 28.2793 86.6899C28.6433 86.8672 29.068 86.9559 29.5533 86.9559C30.0387 86.9559 30.4633 86.8626 30.8273 86.6759C31.182 86.4892 31.4573 86.2372 31.6533 85.9199C31.8493 85.5932 31.9473 85.2246 31.9473 84.8139ZM33.3333 78.2448H25.7313V76.2988H33.3333V78.2448ZM27.1873 79.3088H25.7313V76.2988H27.1873V79.3088ZM24.8213 77.5308C24.8213 77.9135 24.7233 78.1982 24.5273 78.3848C24.322 78.5622 24.0653 78.6508 23.7573 78.6508C23.4493 78.6508 23.1973 78.5622 23.0013 78.3848C22.8053 78.1982 22.7073 77.9135 22.7073 77.5308C22.7073 77.1482 22.8053 76.8682 23.0013 76.6908C23.1973 76.5135 23.4493 76.4248 23.7573 76.4248C24.0653 76.4248 24.322 76.5135 24.5273 76.6908C24.7233 76.8682 24.8213 77.1482 24.8213 77.5308ZM33.3333 74.0561H25.7313V72.5161H28.9933V72.6561C28.2187 72.6561 27.5747 72.5534 27.0613 72.3481C26.5387 72.1428 26.1467 71.8394 25.8853 71.4381C25.624 71.0274 25.4933 70.5188 25.4933 69.9121V69.8281C25.4933 68.9228 25.7873 68.2368 26.3753 67.7701C26.954 67.3034 27.822 67.0701 28.9793 67.0701H33.3333V69.0161H28.8113C28.3447 69.0161 27.9667 69.1514 27.6773 69.4221C27.388 69.6834 27.2433 70.0474 27.2433 70.5141C27.2433 70.9901 27.3927 71.3774 27.6913 71.6761C27.9807 71.9654 28.3727 72.1101 28.8673 72.1101H33.3333V74.0561ZM36.3293 62.01C36.3293 62.374 36.3153 62.7473 36.2873 63.13C36.2593 63.5033 36.222 63.8533 36.1753 64.18H34.5513C34.5887 63.844 34.6213 63.4847 34.6493 63.102C34.6867 62.7193 34.7053 62.36 34.7053 62.024C34.7053 61.3987 34.6307 60.8947 34.4813 60.512C34.332 60.12 34.094 59.8353 33.7673 59.658C33.45 59.4713 33.044 59.378 32.5493 59.378H31.0513L30.0993 58.958C30.7993 58.986 31.3967 59.1307 31.8913 59.392C32.3767 59.6533 32.75 60.008 33.0113 60.456C33.2633 60.904 33.3893 61.422 33.3893 62.01C33.3893 62.5327 33.2913 63.0087 33.0953 63.438C32.8993 63.858 32.6287 64.222 32.2833 64.53C31.938 64.8287 31.532 65.062 31.0653 65.23C30.5987 65.398 30.0993 65.482 29.5673 65.482H29.2733C28.7413 65.482 28.2467 65.398 27.7893 65.23C27.3227 65.0527 26.9167 64.8053 26.5713 64.488C26.226 64.1707 25.96 63.7927 25.7733 63.354C25.5867 62.9153 25.4933 62.43 25.4933 61.898C25.4933 61.2727 25.6287 60.7313 25.8993 60.274C26.17 59.8073 26.562 59.4433 27.0753 59.182C27.5887 58.9207 28.2187 58.776 28.9653 58.748L29.0213 59.084H25.7313V57.544H32.4373C33.3613 57.544 34.108 57.7027 34.6773 58.02C35.2467 58.3373 35.662 58.8273 35.9233 59.49C36.194 60.1433 36.3293 60.9833 36.3293 62.01ZM31.7233 61.45C31.7233 61.0767 31.6393 60.736 31.4713 60.428C31.3033 60.12 31.0607 59.8727 30.7433 59.686C30.426 59.4993 30.0433 59.406 29.5953 59.406H29.1053C28.676 59.406 28.312 59.504 28.0133 59.7C27.7147 59.8867 27.4907 60.134 27.3413 60.442C27.1827 60.75 27.1033 61.086 27.1033 61.45C27.1033 61.8607 27.2013 62.2247 27.3973 62.542C27.584 62.85 27.85 63.0927 28.1953 63.27C28.5407 63.4473 28.9513 63.536 29.4273 63.536C29.894 63.536 30.3 63.4473 30.6453 63.27C30.9907 63.0927 31.2567 62.85 31.4433 62.542C31.63 62.2247 31.7233 61.8607 31.7233 61.45Z" fill="#1F5473"/>
<g clip-path="url(#clip0_502_11668)">
<rect x="64.6667" width="218" height="243" rx="8" fill="#D0E4DF" fill-opacity="0.24"/>
<path d="M215.25 39.4166L219.208 35.4583" stroke="black" stroke-opacity="0.56" stroke-width="1.5" stroke-linecap="round" stroke-linejoin="round"/>
<path d="M226.083 28.5833L222.125 32.5416" stroke="black" stroke-opacity="0.56" stroke-width="1.5" stroke-linecap="round" stroke-linejoin="round"/>
<path d="M215.667 35.4583H219.208V38.9999" stroke="black" stroke-opacity="0.56" stroke-width="1.5" stroke-linecap="round" stroke-linejoin="round"/>
<path d="M225.667 32.5417H222.125V29.0001" stroke="black" stroke-opacity="0.56" stroke-width="1.5" stroke-linecap="round" stroke-linejoin="round"/>
<path d="M250.75 28.1667V40.6667" stroke="black" stroke-opacity="0.56" stroke-width="1.5" stroke-linecap="round" stroke-linejoin="round"/>
<path d="M246.583 28.1667V40.6667" stroke="black" stroke-opacity="0.56" stroke-width="1.5" stroke-linecap="round" stroke-linejoin="round"/>
<path d="M94.5327 39.266C93.6087 39.266 92.8153 39.1027 92.1527 38.776C91.49 38.4493 90.9487 38.0247 90.5287 37.502C90.118 36.9793 89.8147 36.41 89.6187 35.794C89.4227 35.178 89.3247 34.5853 89.3247 34.016V33.708C89.3247 33.0733 89.4227 32.448 89.6187 31.832C89.824 31.216 90.1367 30.656 90.5567 30.152C90.9767 29.648 91.5087 29.2467 92.1527 28.948C92.806 28.64 93.576 28.486 94.4627 28.486C95.3867 28.486 96.1893 28.654 96.8707 28.99C97.5613 29.3167 98.112 29.7833 98.5227 30.39C98.9333 30.9873 99.1807 31.6873 99.2647 32.49H97.2627C97.188 32.0233 97.02 31.6313 96.7587 31.314C96.5067 30.9873 96.1847 30.7447 95.7927 30.586C95.4007 30.418 94.9573 30.334 94.4627 30.334C93.9587 30.334 93.5107 30.4227 93.1187 30.6C92.7267 30.768 92.4 31.0107 92.1387 31.328C91.8773 31.6453 91.6767 32.0187 91.5367 32.448C91.406 32.8773 91.3407 33.3533 91.3407 33.876C91.3407 34.38 91.406 34.8467 91.5367 35.276C91.6767 35.7053 91.882 36.0833 92.1527 36.41C92.4233 36.7273 92.7547 36.9747 93.1467 37.152C93.548 37.3293 94.01 37.418 94.5327 37.418C95.298 37.418 95.942 37.2313 96.4647 36.858C96.9967 36.4753 97.3187 35.9433 97.4307 35.262H99.4327C99.3393 35.99 99.092 36.6573 98.6907 37.264C98.2893 37.8707 97.7387 38.356 97.0387 38.72C96.3387 39.084 95.5033 39.266 94.5327 39.266ZM104.61 39.266C103.938 39.266 103.346 39.1587 102.832 38.944C102.319 38.7293 101.885 38.44 101.53 38.076C101.176 37.7027 100.905 37.2827 100.718 36.816C100.541 36.3493 100.452 35.864 100.452 35.36V35.066C100.452 34.5433 100.546 34.0487 100.732 33.582C100.928 33.106 101.204 32.686 101.558 32.322C101.922 31.9487 102.361 31.6593 102.874 31.454C103.388 31.2393 103.966 31.132 104.61 31.132C105.254 31.132 105.833 31.2393 106.346 31.454C106.86 31.6593 107.294 31.9487 107.648 32.322C108.012 32.686 108.288 33.106 108.474 33.582C108.661 34.0487 108.754 34.5433 108.754 35.066V35.36C108.754 35.864 108.661 36.3493 108.474 36.816C108.297 37.2827 108.031 37.7027 107.676 38.076C107.322 38.44 106.888 38.7293 106.374 38.944C105.861 39.1587 105.273 39.266 104.61 39.266ZM104.61 37.6C105.086 37.6 105.488 37.4973 105.814 37.292C106.141 37.0773 106.388 36.7927 106.556 36.438C106.724 36.074 106.808 35.6633 106.808 35.206C106.808 34.7393 106.72 34.3287 106.542 33.974C106.374 33.61 106.122 33.3253 105.786 33.12C105.46 32.9053 105.068 32.798 104.61 32.798C104.153 32.798 103.756 32.9053 103.42 33.12C103.094 33.3253 102.842 33.61 102.664 33.974C102.487 34.3287 102.398 34.7393 102.398 35.206C102.398 35.6633 102.482 36.074 102.65 36.438C102.828 36.7927 103.08 37.0773 103.406 37.292C103.733 37.4973 104.134 37.6 104.61 37.6ZM110.458 39V31.398H111.998V34.66H111.858C111.858 33.8853 111.961 33.2413 112.166 32.728C112.372 32.2053 112.675 31.8133 113.076 31.552C113.487 31.2907 113.996 31.16 114.602 31.16H114.686C115.592 31.16 116.278 31.454 116.744 32.042C117.211 32.6207 117.444 33.4887 117.444 34.646V39H115.498V34.478C115.498 34.0113 115.363 33.6333 115.092 33.344C114.831 33.0547 114.467 32.91 114 32.91C113.524 32.91 113.137 33.0593 112.838 33.358C112.549 33.6473 112.404 34.0393 112.404 34.534V39H110.458ZM121.008 39L118.628 31.398H120.63L122.912 39H121.008ZM121.582 39V37.404H123.64V39H121.582ZM122.352 39L124.312 31.398H126.188L124.13 39H122.352ZM130.895 39.266C130.242 39.266 129.668 39.154 129.173 38.93C128.688 38.706 128.282 38.4073 127.955 38.034C127.638 37.6513 127.395 37.2267 127.227 36.76C127.069 36.2933 126.989 35.8173 126.989 35.332V35.066C126.989 34.562 127.069 34.0767 127.227 33.61C127.395 33.134 127.638 32.714 127.955 32.35C128.282 31.9767 128.683 31.6827 129.159 31.468C129.635 31.244 130.186 31.132 130.811 31.132C131.633 31.132 132.319 31.314 132.869 31.678C133.429 32.0327 133.849 32.504 134.129 33.092C134.409 33.6707 134.549 34.296 134.549 34.968V35.668H127.815V34.478H133.331L132.729 35.066C132.729 34.5807 132.659 34.1653 132.519 33.82C132.379 33.4747 132.165 33.2087 131.875 33.022C131.595 32.8353 131.241 32.742 130.811 32.742C130.382 32.742 130.018 32.84 129.719 33.036C129.421 33.232 129.192 33.5167 129.033 33.89C128.884 34.254 128.809 34.6927 128.809 35.206C128.809 35.682 128.884 36.1067 129.033 36.48C129.183 36.844 129.411 37.1333 129.719 37.348C130.027 37.5533 130.419 37.656 130.895 37.656C131.371 37.656 131.759 37.5627 132.057 37.376C132.356 37.18 132.547 36.942 132.631 36.662H134.423C134.311 37.1847 134.097 37.642 133.779 38.034C133.462 38.426 133.056 38.7293 132.561 38.944C132.076 39.1587 131.521 39.266 130.895 39.266ZM136.175 39V31.398H137.715V34.618H137.673C137.673 33.526 137.906 32.7 138.373 32.14C138.84 31.58 139.526 31.3 140.431 31.3H140.711V32.994H140.179C139.526 32.994 139.017 33.1713 138.653 33.526C138.298 33.8713 138.121 34.3753 138.121 35.038V39H136.175ZM144.771 39.238C143.726 39.238 142.904 39.0187 142.307 38.58C141.719 38.132 141.411 37.516 141.383 36.732H143.133C143.161 36.9933 143.306 37.2313 143.567 37.446C143.828 37.6607 144.239 37.768 144.799 37.768C145.266 37.768 145.634 37.684 145.905 37.516C146.185 37.348 146.325 37.1193 146.325 36.83C146.325 36.578 146.218 36.3773 146.003 36.228C145.798 36.0787 145.443 35.9807 144.939 35.934L144.267 35.864C143.418 35.7707 142.764 35.528 142.307 35.136C141.85 34.744 141.621 34.2213 141.621 33.568C141.621 33.0453 141.752 32.6067 142.013 32.252C142.274 31.8973 142.634 31.6313 143.091 31.454C143.558 31.2673 144.09 31.174 144.687 31.174C145.62 31.174 146.376 31.3793 146.955 31.79C147.534 32.2007 147.837 32.8027 147.865 33.596H146.115C146.096 33.3347 145.966 33.1107 145.723 32.924C145.48 32.7373 145.13 32.644 144.673 32.644C144.262 32.644 143.945 32.7233 143.721 32.882C143.497 33.0407 143.385 33.246 143.385 33.498C143.385 33.7407 143.474 33.9273 143.651 34.058C143.838 34.1887 144.136 34.2773 144.547 34.324L145.219 34.394C146.115 34.4873 146.815 34.7347 147.319 35.136C147.832 35.5373 148.089 36.0787 148.089 36.76C148.089 37.264 147.949 37.7027 147.669 38.076C147.398 38.44 147.016 38.7247 146.521 38.93C146.026 39.1353 145.443 39.238 144.771 39.238ZM150.06 39V31.398H152.006V39H150.06ZM148.996 32.854V31.398H152.006V32.854H148.996ZM150.774 30.488C150.392 30.488 150.107 30.39 149.92 30.194C149.743 29.9887 149.654 29.732 149.654 29.424C149.654 29.116 149.743 28.864 149.92 28.668C150.107 28.472 150.392 28.374 150.774 28.374C151.157 28.374 151.437 28.472 151.614 28.668C151.792 28.864 151.88 29.116 151.88 29.424C151.88 29.732 151.792 29.9887 151.614 30.194C151.437 30.39 151.157 30.488 150.774 30.488ZM157.903 39.266C157.231 39.266 156.639 39.1587 156.125 38.944C155.612 38.7293 155.178 38.44 154.823 38.076C154.469 37.7027 154.198 37.2827 154.011 36.816C153.834 36.3493 153.745 35.864 153.745 35.36V35.066C153.745 34.5433 153.839 34.0487 154.025 33.582C154.221 33.106 154.497 32.686 154.851 32.322C155.215 31.9487 155.654 31.6593 156.167 31.454C156.681 31.2393 157.259 31.132 157.903 31.132C158.547 31.132 159.126 31.2393 159.639 31.454C160.153 31.6593 160.587 31.9487 160.941 32.322C161.305 32.686 161.581 33.106 161.767 33.582C161.954 34.0487 162.047 34.5433 162.047 35.066V35.36C162.047 35.864 161.954 36.3493 161.767 36.816C161.59 37.2827 161.324 37.7027 160.969 38.076C160.615 38.44 160.181 38.7293 159.667 38.944C159.154 39.1587 158.566 39.266 157.903 39.266ZM157.903 37.6C158.379 37.6 158.781 37.4973 159.107 37.292C159.434 37.0773 159.681 36.7927 159.849 36.438C160.017 36.074 160.101 35.6633 160.101 35.206C160.101 34.7393 160.013 34.3287 159.835 33.974C159.667 33.61 159.415 33.3253 159.079 33.12C158.753 32.9053 158.361 32.798 157.903 32.798C157.446 32.798 157.049 32.9053 156.713 33.12C156.387 33.3253 156.135 33.61 155.957 33.974C155.78 34.3287 155.691 34.7393 155.691 35.206C155.691 35.6633 155.775 36.074 155.943 36.438C156.121 36.7927 156.373 37.0773 156.699 37.292C157.026 37.4973 157.427 37.6 157.903 37.6ZM163.751 39V31.398H165.291V34.66H165.151C165.151 33.8853 165.254 33.2413 165.459 32.728C165.665 32.2053 165.968 31.8133 166.369 31.552C166.78 31.2907 167.289 31.16 167.895 31.16H167.979C168.885 31.16 169.571 31.454 170.037 32.042C170.504 32.6207 170.737 33.4887 170.737 34.646V39H168.791V34.478C168.791 34.0113 168.656 33.6333 168.385 33.344C168.124 33.0547 167.76 32.91 167.293 32.91C166.817 32.91 166.43 33.0593 166.131 33.358C165.842 33.6473 165.697 34.0393 165.697 34.534V39H163.751Z" fill="#0B4738"/>
</g>
<rect x="65.1667" y="0.5" width="217" height="242" rx="7.5" stroke="#D0E4DF"/>
<g clip-path="url(#clip1_502_11668)">
<rect x="88.8333" y="72.5" width="169" height="139" rx="7.5" fill="white"/>
<rect x="88.8333" y="72.5" width="169" height="139" rx="7.5" stroke="#D0E4DF"/>
<path d="M107.301 99.864V98.142H109.289C109.691 98.142 110.027 98.0627 110.297 97.904C110.577 97.7453 110.787 97.526 110.927 97.246C111.077 96.966 111.151 96.644 111.151 96.28C111.151 95.916 111.077 95.594 110.927 95.314C110.787 95.034 110.577 94.8193 110.297 94.67C110.027 94.5113 109.691 94.432 109.289 94.432H107.301V92.71H109.121C109.98 92.71 110.708 92.85 111.305 93.13C111.912 93.41 112.374 93.8113 112.691 94.334C113.009 94.8473 113.167 95.4587 113.167 96.168V96.392C113.167 97.1013 113.009 97.7173 112.691 98.24C112.374 98.7533 111.912 99.1547 111.305 99.444C110.708 99.724 109.98 99.864 109.121 99.864H107.301ZM105.593 103V92.71H107.581V103H105.593ZM117.244 103.238C116.367 103.238 115.685 102.949 115.2 102.37C114.724 101.791 114.486 100.933 114.486 99.794V95.384H116.432V99.962C116.432 100.429 116.563 100.802 116.824 101.082C117.085 101.353 117.44 101.488 117.888 101.488C118.336 101.488 118.7 101.343 118.98 101.054C119.269 100.765 119.414 100.373 119.414 99.878V95.384H121.36V103H119.82V99.766H119.974C119.974 100.531 119.876 101.171 119.68 101.684C119.484 102.197 119.19 102.585 118.798 102.846C118.406 103.107 117.916 103.238 117.328 103.238H117.244ZM123.596 103V95.398H125.136V98.618H125.094C125.094 97.526 125.327 96.7 125.794 96.14C126.26 95.58 126.946 95.3 127.852 95.3H128.132V96.994H127.6C126.946 96.994 126.438 97.1713 126.074 97.526C125.719 97.8713 125.542 98.3753 125.542 99.038V103H123.596ZM132.753 103.266C132.09 103.266 131.516 103.154 131.031 102.93C130.555 102.706 130.153 102.407 129.827 102.034C129.509 101.661 129.271 101.241 129.113 100.774C128.954 100.307 128.875 99.8313 128.875 99.346V99.08C128.875 98.5667 128.954 98.0767 129.113 97.61C129.281 97.134 129.528 96.714 129.855 96.35C130.181 95.9767 130.583 95.6827 131.059 95.468C131.544 95.244 132.104 95.132 132.739 95.132C133.401 95.132 133.994 95.2627 134.517 95.524C135.039 95.776 135.455 96.1307 135.763 96.588C136.08 97.0453 136.257 97.5773 136.295 98.184H134.405C134.358 97.792 134.19 97.4653 133.901 97.204C133.621 96.9427 133.233 96.812 132.739 96.812C132.309 96.812 131.95 96.9147 131.661 97.12C131.381 97.3253 131.171 97.61 131.031 97.974C130.891 98.3287 130.821 98.7393 130.821 99.206C130.821 99.654 130.886 100.06 131.017 100.424C131.157 100.788 131.367 101.073 131.647 101.278C131.936 101.483 132.305 101.586 132.753 101.586C133.089 101.586 133.378 101.525 133.621 101.404C133.863 101.283 134.055 101.115 134.195 100.9C134.344 100.685 134.437 100.443 134.475 100.172H136.365C136.327 100.788 136.145 101.329 135.819 101.796C135.501 102.253 135.077 102.613 134.545 102.874C134.022 103.135 133.425 103.266 132.753 103.266ZM137.924 103V92.78H139.87V98.744H139.534C139.534 97.9787 139.632 97.33 139.828 96.798C140.024 96.266 140.313 95.86 140.696 95.58C141.088 95.3 141.582 95.16 142.18 95.16H142.264C143.132 95.16 143.79 95.4587 144.238 96.056C144.686 96.6533 144.91 97.5213 144.91 98.66V103H142.964V98.478C142.964 97.9927 142.824 97.61 142.544 97.33C142.273 97.05 141.914 96.91 141.466 96.91C140.99 96.91 140.602 97.0687 140.304 97.386C140.014 97.694 139.87 98.1 139.87 98.604V103H137.924ZM151.608 103V100.746H151.286V98.24C151.286 97.8013 151.178 97.4747 150.964 97.26C150.749 97.0453 150.418 96.938 149.97 96.938C149.736 96.938 149.456 96.9427 149.13 96.952C148.803 96.9613 148.472 96.9753 148.136 96.994C147.809 97.0033 147.515 97.0173 147.254 97.036V95.384C147.468 95.3653 147.711 95.3467 147.982 95.328C148.252 95.3093 148.528 95.3 148.808 95.3C149.097 95.2907 149.368 95.286 149.62 95.286C150.404 95.286 151.052 95.3887 151.566 95.594C152.088 95.7993 152.48 96.1213 152.742 96.56C153.012 96.9987 153.148 97.5727 153.148 98.282V103H151.608ZM149.158 103.196C148.607 103.196 148.122 103.098 147.702 102.902C147.291 102.706 146.969 102.426 146.736 102.062C146.512 101.698 146.4 101.259 146.4 100.746C146.4 100.186 146.535 99.7287 146.806 99.374C147.086 99.0193 147.473 98.7533 147.968 98.576C148.472 98.3987 149.06 98.31 149.732 98.31H151.496V99.472H149.704C149.256 99.472 148.91 99.584 148.668 99.808C148.434 100.023 148.318 100.303 148.318 100.648C148.318 100.993 148.434 101.273 148.668 101.488C148.91 101.703 149.256 101.81 149.704 101.81C149.974 101.81 150.222 101.763 150.446 101.67C150.679 101.567 150.87 101.399 151.02 101.166C151.178 100.923 151.267 100.597 151.286 100.186L151.762 100.732C151.715 101.264 151.584 101.712 151.37 102.076C151.164 102.44 150.875 102.72 150.502 102.916C150.138 103.103 149.69 103.196 149.158 103.196ZM157.99 103.238C156.945 103.238 156.124 103.019 155.526 102.58C154.938 102.132 154.63 101.516 154.602 100.732H156.352C156.38 100.993 156.525 101.231 156.786 101.446C157.048 101.661 157.458 101.768 158.018 101.768C158.485 101.768 158.854 101.684 159.124 101.516C159.404 101.348 159.544 101.119 159.544 100.83C159.544 100.578 159.437 100.377 159.222 100.228C159.017 100.079 158.662 99.9807 158.158 99.934L157.486 99.864C156.637 99.7707 155.984 99.528 155.526 99.136C155.069 98.744 154.84 98.2213 154.84 97.568C154.84 97.0453 154.971 96.6067 155.232 96.252C155.494 95.8973 155.853 95.6313 156.31 95.454C156.777 95.2673 157.309 95.174 157.906 95.174C158.84 95.174 159.596 95.3793 160.174 95.79C160.753 96.2007 161.056 96.8027 161.084 97.596H159.334C159.316 97.3347 159.185 97.1107 158.942 96.924C158.7 96.7373 158.35 96.644 157.892 96.644C157.482 96.644 157.164 96.7233 156.94 96.882C156.716 97.0407 156.604 97.246 156.604 97.498C156.604 97.7407 156.693 97.9273 156.87 98.058C157.057 98.1887 157.356 98.2773 157.766 98.324L158.438 98.394C159.334 98.4873 160.034 98.7347 160.538 99.136C161.052 99.5373 161.308 100.079 161.308 100.76C161.308 101.264 161.168 101.703 160.888 102.076C160.618 102.44 160.235 102.725 159.74 102.93C159.246 103.135 158.662 103.238 157.99 103.238ZM166.318 103.266C165.665 103.266 165.091 103.154 164.596 102.93C164.111 102.706 163.705 102.407 163.378 102.034C163.061 101.651 162.818 101.227 162.65 100.76C162.491 100.293 162.412 99.8173 162.412 99.332V99.066C162.412 98.562 162.491 98.0767 162.65 97.61C162.818 97.134 163.061 96.714 163.378 96.35C163.705 95.9767 164.106 95.6827 164.582 95.468C165.058 95.244 165.609 95.132 166.234 95.132C167.055 95.132 167.741 95.314 168.292 95.678C168.852 96.0327 169.272 96.504 169.552 97.092C169.832 97.6707 169.972 98.296 169.972 98.968V99.668H163.238V98.478H168.754L168.152 99.066C168.152 98.5807 168.082 98.1653 167.942 97.82C167.802 97.4747 167.587 97.2087 167.298 97.022C167.018 96.8353 166.663 96.742 166.234 96.742C165.805 96.742 165.441 96.84 165.142 97.036C164.843 97.232 164.615 97.5167 164.456 97.89C164.307 98.254 164.232 98.6927 164.232 99.206C164.232 99.682 164.307 100.107 164.456 100.48C164.605 100.844 164.834 101.133 165.142 101.348C165.45 101.553 165.842 101.656 166.318 101.656C166.794 101.656 167.181 101.563 167.48 101.376C167.779 101.18 167.97 100.942 168.054 100.662H169.846C169.734 101.185 169.519 101.642 169.202 102.034C168.885 102.426 168.479 102.729 167.984 102.944C167.499 103.159 166.943 103.266 166.318 103.266Z" fill="#0B4738"/>
<path d="M107.805 131V121.732H109.177V131H107.805ZM104.697 122.012V120.78H112.285V122.012H104.697ZM113.934 131V120.78H115.278V126.884H114.942C114.942 126.147 115.035 125.512 115.222 124.98C115.418 124.439 115.716 124.023 116.118 123.734C116.519 123.445 117.032 123.3 117.658 123.3H117.714C118.61 123.3 119.286 123.599 119.744 124.196C120.201 124.784 120.43 125.629 120.43 126.73V131H119.086V126.45C119.086 125.843 118.913 125.372 118.568 125.036C118.232 124.7 117.793 124.532 117.252 124.532C116.654 124.532 116.174 124.733 115.81 125.134C115.455 125.526 115.278 126.044 115.278 126.688V131H113.934ZM126.067 131.252C125.414 131.252 124.849 131.14 124.373 130.916C123.897 130.692 123.51 130.398 123.211 130.034C122.912 129.661 122.688 129.245 122.539 128.788C122.399 128.331 122.329 127.864 122.329 127.388V127.136C122.329 126.651 122.399 126.179 122.539 125.722C122.688 125.265 122.912 124.854 123.211 124.49C123.51 124.117 123.888 123.823 124.345 123.608C124.812 123.384 125.358 123.272 125.983 123.272C126.795 123.272 127.462 123.449 127.985 123.804C128.517 124.149 128.909 124.597 129.161 125.148C129.422 125.699 129.553 126.287 129.553 126.912V127.514H122.917V126.506H128.573L128.265 127.052C128.265 126.52 128.181 126.063 128.013 125.68C127.845 125.288 127.593 124.985 127.257 124.77C126.921 124.555 126.496 124.448 125.983 124.448C125.451 124.448 125.008 124.569 124.653 124.812C124.308 125.055 124.046 125.386 123.869 125.806C123.701 126.226 123.617 126.711 123.617 127.262C123.617 127.794 123.701 128.275 123.869 128.704C124.046 129.124 124.317 129.46 124.681 129.712C125.045 129.955 125.507 130.076 126.067 130.076C126.655 130.076 127.131 129.945 127.495 129.684C127.868 129.423 128.092 129.119 128.167 128.774H129.427C129.324 129.287 129.119 129.731 128.811 130.104C128.503 130.477 128.116 130.762 127.649 130.958C127.182 131.154 126.655 131.252 126.067 131.252ZM137.237 131.224C136.35 131.224 135.669 130.935 135.193 130.356C134.717 129.777 134.479 128.942 134.479 127.85V123.51H135.823V128.116C135.823 128.704 135.981 129.166 136.299 129.502C136.616 129.829 137.045 129.992 137.587 129.992C138.147 129.992 138.604 129.815 138.959 129.46C139.313 129.096 139.491 128.601 139.491 127.976V123.51H140.835V131H139.771V127.794H139.939C139.939 128.531 139.841 129.157 139.645 129.67C139.449 130.174 139.155 130.561 138.763 130.832C138.38 131.093 137.89 131.224 137.293 131.224H137.237ZM145.888 131.224C144.908 131.224 144.147 131.014 143.606 130.594C143.074 130.174 142.798 129.6 142.78 128.872H144.04C144.058 129.161 144.203 129.437 144.474 129.698C144.754 129.95 145.225 130.076 145.888 130.076C146.485 130.076 146.942 129.959 147.26 129.726C147.577 129.483 147.736 129.189 147.736 128.844C147.736 128.536 147.619 128.298 147.386 128.13C147.152 127.953 146.774 127.836 146.252 127.78L145.44 127.696C144.73 127.621 144.152 127.411 143.704 127.066C143.256 126.711 143.032 126.217 143.032 125.582C143.032 125.106 143.153 124.7 143.396 124.364C143.638 124.019 143.974 123.757 144.404 123.58C144.833 123.393 145.328 123.3 145.888 123.3C146.728 123.3 147.409 123.487 147.932 123.86C148.454 124.233 148.725 124.789 148.744 125.526H147.484C147.474 125.227 147.334 124.975 147.064 124.77C146.802 124.555 146.41 124.448 145.888 124.448C145.365 124.448 144.968 124.555 144.698 124.77C144.427 124.985 144.292 125.255 144.292 125.582C144.292 125.862 144.385 126.086 144.572 126.254C144.768 126.422 145.085 126.529 145.524 126.576L146.336 126.66C147.138 126.744 147.782 126.968 148.268 127.332C148.753 127.687 148.996 128.191 148.996 128.844C148.996 129.311 148.86 129.726 148.59 130.09C148.328 130.445 147.964 130.725 147.498 130.93C147.031 131.126 146.494 131.224 145.888 131.224ZM154.122 131.252C153.468 131.252 152.904 131.14 152.428 130.916C151.952 130.692 151.564 130.398 151.266 130.034C150.967 129.661 150.743 129.245 150.594 128.788C150.454 128.331 150.384 127.864 150.384 127.388V127.136C150.384 126.651 150.454 126.179 150.594 125.722C150.743 125.265 150.967 124.854 151.266 124.49C151.564 124.117 151.942 123.823 152.4 123.608C152.866 123.384 153.412 123.272 154.038 123.272C154.85 123.272 155.517 123.449 156.04 123.804C156.572 124.149 156.964 124.597 157.216 125.148C157.477 125.699 157.608 126.287 157.608 126.912V127.514H150.972V126.506H156.628L156.32 127.052C156.32 126.52 156.236 126.063 156.068 125.68C155.9 125.288 155.648 124.985 155.312 124.77C154.976 124.555 154.551 124.448 154.038 124.448C153.506 124.448 153.062 124.569 152.708 124.812C152.362 125.055 152.101 125.386 151.924 125.806C151.756 126.226 151.672 126.711 151.672 127.262C151.672 127.794 151.756 128.275 151.924 128.704C152.101 129.124 152.372 129.46 152.736 129.712C153.1 129.955 153.562 130.076 154.122 130.076C154.71 130.076 155.186 129.945 155.55 129.684C155.923 129.423 156.147 129.119 156.222 128.774H157.482C157.379 129.287 157.174 129.731 156.866 130.104C156.558 130.477 156.17 130.762 155.704 130.958C155.237 131.154 154.71 131.252 154.122 131.252ZM159.516 131V123.524H160.58V126.604H160.524C160.524 125.512 160.762 124.714 161.238 124.21C161.723 123.697 162.447 123.44 163.408 123.44H163.66V124.644H163.184C162.437 124.644 161.863 124.845 161.462 125.246C161.061 125.638 160.86 126.207 160.86 126.954V131H159.516ZM168.444 131V123.524H169.508V126.73H169.34C169.34 126.002 169.433 125.386 169.62 124.882C169.816 124.369 170.105 123.977 170.488 123.706C170.87 123.435 171.356 123.3 171.944 123.3H172C172.588 123.3 173.073 123.435 173.456 123.706C173.848 123.977 174.137 124.369 174.324 124.882C174.51 125.386 174.604 126.002 174.604 126.73H174.212C174.212 126.002 174.31 125.386 174.506 124.882C174.702 124.369 174.991 123.977 175.374 123.706C175.766 123.435 176.256 123.3 176.844 123.3H176.9C177.488 123.3 177.978 123.435 178.37 123.706C178.762 123.977 179.051 124.369 179.238 124.882C179.434 125.386 179.532 126.002 179.532 126.73V131H178.188V126.436C178.188 125.829 178.038 125.363 177.74 125.036C177.441 124.7 177.026 124.532 176.494 124.532C175.943 124.532 175.5 124.709 175.164 125.064C174.828 125.409 174.66 125.895 174.66 126.52V131H173.316V126.436C173.316 125.829 173.166 125.363 172.868 125.036C172.569 124.7 172.154 124.532 171.622 124.532C171.071 124.532 170.628 124.709 170.292 125.064C169.956 125.409 169.788 125.895 169.788 126.52V131H168.444ZM186.514 131V128.76H186.29V126.17C186.29 125.657 186.155 125.269 185.884 125.008C185.623 124.747 185.236 124.616 184.722 124.616C184.433 124.616 184.134 124.621 183.826 124.63C183.518 124.639 183.224 124.649 182.944 124.658C182.664 124.667 182.422 124.681 182.216 124.7V123.524C182.422 123.505 182.636 123.491 182.86 123.482C183.094 123.463 183.332 123.454 183.574 123.454C183.817 123.445 184.05 123.44 184.274 123.44C185.04 123.44 185.665 123.533 186.15 123.72C186.636 123.897 186.995 124.191 187.228 124.602C187.462 125.013 187.578 125.568 187.578 126.268V131H186.514ZM184.064 131.196C183.504 131.196 183.019 131.103 182.608 130.916C182.207 130.72 181.894 130.44 181.67 130.076C181.456 129.712 181.348 129.273 181.348 128.76C181.348 128.228 181.465 127.785 181.698 127.43C181.941 127.075 182.291 126.809 182.748 126.632C183.206 126.445 183.756 126.352 184.4 126.352H186.43V127.36H184.344C183.803 127.36 183.388 127.491 183.098 127.752C182.809 128.013 182.664 128.349 182.664 128.76C182.664 129.171 182.809 129.502 183.098 129.754C183.388 130.006 183.803 130.132 184.344 130.132C184.662 130.132 184.965 130.076 185.254 129.964C185.544 129.843 185.782 129.647 185.968 129.376C186.164 129.096 186.272 128.713 186.29 128.228L186.654 128.76C186.608 129.292 186.477 129.74 186.262 130.104C186.057 130.459 185.768 130.729 185.394 130.916C185.03 131.103 184.587 131.196 184.064 131.196ZM195.197 131L192.383 127.514H191.151L194.581 123.524H195.995L192.887 127.122L192.985 126.408L196.751 131H195.197ZM190.045 131V120.78H191.389V131H190.045ZM201.084 131.252C200.431 131.252 199.866 131.14 199.39 130.916C198.914 130.692 198.527 130.398 198.228 130.034C197.93 129.661 197.706 129.245 197.556 128.788C197.416 128.331 197.346 127.864 197.346 127.388V127.136C197.346 126.651 197.416 126.179 197.556 125.722C197.706 125.265 197.93 124.854 198.228 124.49C198.527 124.117 198.905 123.823 199.362 123.608C199.829 123.384 200.375 123.272 201 123.272C201.812 123.272 202.48 123.449 203.002 123.804C203.534 124.149 203.926 124.597 204.178 125.148C204.44 125.699 204.57 126.287 204.57 126.912V127.514H197.934V126.506H203.59L203.282 127.052C203.282 126.52 203.198 126.063 203.03 125.68C202.862 125.288 202.61 124.985 202.274 124.77C201.938 124.555 201.514 124.448 201 124.448C200.468 124.448 200.025 124.569 199.67 124.812C199.325 125.055 199.064 125.386 198.886 125.806C198.718 126.226 198.634 126.711 198.634 127.262C198.634 127.794 198.718 128.275 198.886 128.704C199.064 129.124 199.334 129.46 199.698 129.712C200.062 129.955 200.524 130.076 201.084 130.076C201.672 130.076 202.148 129.945 202.512 129.684C202.886 129.423 203.11 129.119 203.184 128.774H204.444C204.342 129.287 204.136 129.731 203.828 130.104C203.52 130.477 203.133 130.762 202.666 130.958C202.2 131.154 201.672 131.252 201.084 131.252ZM208.929 131.224C207.949 131.224 207.188 131.014 206.647 130.594C206.115 130.174 205.839 129.6 205.821 128.872H207.081C207.099 129.161 207.244 129.437 207.515 129.698C207.795 129.95 208.266 130.076 208.929 130.076C209.526 130.076 209.983 129.959 210.301 129.726C210.618 129.483 210.777 129.189 210.777 128.844C210.777 128.536 210.66 128.298 210.427 128.13C210.193 127.953 209.815 127.836 209.293 127.78L208.481 127.696C207.771 127.621 207.193 127.411 206.745 127.066C206.297 126.711 206.073 126.217 206.073 125.582C206.073 125.106 206.194 124.7 206.437 124.364C206.679 124.019 207.015 123.757 207.445 123.58C207.874 123.393 208.369 123.3 208.929 123.3C209.769 123.3 210.45 123.487 210.973 123.86C211.495 124.233 211.766 124.789 211.785 125.526H210.525C210.515 125.227 210.375 124.975 210.105 124.77C209.843 124.555 209.451 124.448 208.929 124.448C208.406 124.448 208.009 124.555 207.739 124.77C207.468 124.985 207.333 125.255 207.333 125.582C207.333 125.862 207.426 126.086 207.613 126.254C207.809 126.422 208.126 126.529 208.565 126.576L209.377 126.66C210.179 126.744 210.823 126.968 211.309 127.332C211.794 127.687 212.037 128.191 212.037 128.844C212.037 129.311 211.901 129.726 211.631 130.09C211.369 130.445 211.005 130.725 210.539 130.93C210.072 131.126 209.535 131.224 208.929 131.224ZM221.692 131V128.76H221.468V126.17C221.468 125.657 221.333 125.269 221.062 125.008C220.801 124.747 220.413 124.616 219.9 124.616C219.611 124.616 219.312 124.621 219.004 124.63C218.696 124.639 218.402 124.649 218.122 124.658C217.842 124.667 217.599 124.681 217.394 124.7V123.524C217.599 123.505 217.814 123.491 218.038 123.482C218.271 123.463 218.509 123.454 218.752 123.454C218.995 123.445 219.228 123.44 219.452 123.44C220.217 123.44 220.843 123.533 221.328 123.72C221.813 123.897 222.173 124.191 222.406 124.602C222.639 125.013 222.756 125.568 222.756 126.268V131H221.692ZM219.242 131.196C218.682 131.196 218.197 131.103 217.786 130.916C217.385 130.72 217.072 130.44 216.848 130.076C216.633 129.712 216.526 129.273 216.526 128.76C216.526 128.228 216.643 127.785 216.876 127.43C217.119 127.075 217.469 126.809 217.926 126.632C218.383 126.445 218.934 126.352 219.578 126.352H221.608V127.36H219.522C218.981 127.36 218.565 127.491 218.276 127.752C217.987 128.013 217.842 128.349 217.842 128.76C217.842 129.171 217.987 129.502 218.276 129.754C218.565 130.006 218.981 130.132 219.522 130.132C219.839 130.132 220.143 130.076 220.432 129.964C220.721 129.843 220.959 129.647 221.146 129.376C221.342 129.096 221.449 128.713 221.468 128.228L221.832 128.76C221.785 129.292 221.655 129.74 221.44 130.104C221.235 130.459 220.945 130.729 220.572 130.916C220.208 131.103 219.765 131.196 219.242 131.196ZM105.817 151V143.062C105.817 142.231 106.037 141.62 106.475 141.228C106.914 140.836 107.558 140.64 108.407 140.64H109.247V141.76H108.183C107.838 141.76 107.572 141.858 107.385 142.054C107.199 142.241 107.105 142.502 107.105 142.838V151H105.817ZM104.781 144.532V143.524H109.107V144.532H104.781ZM110.955 151V143.524H112.299V151H110.955ZM109.863 144.588V143.524H112.299V144.588H109.863ZM111.333 142.32C111.035 142.32 110.811 142.241 110.661 142.082C110.521 141.923 110.451 141.723 110.451 141.48C110.451 141.237 110.521 141.037 110.661 140.878C110.811 140.719 111.035 140.64 111.333 140.64C111.632 140.64 111.851 140.719 111.991 140.878C112.141 141.037 112.215 141.237 112.215 141.48C112.215 141.723 112.141 141.923 111.991 142.082C111.851 142.241 111.632 142.32 111.333 142.32ZM114.905 151V143.524H115.969V146.604H115.913C115.913 145.512 116.151 144.714 116.627 144.21C117.112 143.697 117.835 143.44 118.797 143.44H119.049V144.644H118.573C117.826 144.644 117.252 144.845 116.851 145.246C116.449 145.638 116.249 146.207 116.249 146.954V151H114.905ZM123.097 151.224C122.117 151.224 121.356 151.014 120.815 150.594C120.283 150.174 120.007 149.6 119.989 148.872H121.249C121.267 149.161 121.412 149.437 121.683 149.698C121.963 149.95 122.434 150.076 123.097 150.076C123.694 150.076 124.151 149.959 124.469 149.726C124.786 149.483 124.945 149.189 124.945 148.844C124.945 148.536 124.828 148.298 124.595 148.13C124.361 147.953 123.983 147.836 123.461 147.78L122.649 147.696C121.939 147.621 121.361 147.411 120.913 147.066C120.465 146.711 120.241 146.217 120.241 145.582C120.241 145.106 120.362 144.7 120.605 144.364C120.847 144.019 121.183 143.757 121.613 143.58C122.042 143.393 122.537 143.3 123.097 143.3C123.937 143.3 124.618 143.487 125.141 143.86C125.663 144.233 125.934 144.789 125.953 145.526H124.693C124.683 145.227 124.543 144.975 124.273 144.77C124.011 144.555 123.619 144.448 123.097 144.448C122.574 144.448 122.177 144.555 121.907 144.77C121.636 144.985 121.501 145.255 121.501 145.582C121.501 145.862 121.594 146.086 121.781 146.254C121.977 146.422 122.294 146.529 122.733 146.576L123.545 146.66C124.347 146.744 124.991 146.968 125.477 147.332C125.962 147.687 126.205 148.191 126.205 148.844C126.205 149.311 126.069 149.726 125.799 150.09C125.537 150.445 125.173 150.725 124.707 150.93C124.24 151.126 123.703 151.224 123.097 151.224ZM131.065 151.084C130.505 151.084 130.019 151.005 129.609 150.846C129.207 150.687 128.895 150.417 128.671 150.034C128.456 149.642 128.349 149.115 128.349 148.452V141.256H129.637V148.62C129.637 149.021 129.744 149.334 129.959 149.558C130.183 149.773 130.495 149.88 130.897 149.88H132.213V151.084H131.065ZM127.061 144.532V143.524H132.213V144.532H127.061ZM137.299 153.8V143.524H138.363V146.758L138.111 146.73C138.158 145.927 138.326 145.274 138.615 144.77C138.914 144.257 139.301 143.879 139.777 143.636C140.253 143.393 140.771 143.272 141.331 143.272C141.872 143.272 142.362 143.375 142.801 143.58C143.249 143.785 143.632 144.065 143.949 144.42C144.266 144.775 144.509 145.185 144.677 145.652C144.845 146.119 144.929 146.613 144.929 147.136V147.388C144.929 147.911 144.84 148.405 144.663 148.872C144.486 149.339 144.234 149.749 143.907 150.104C143.59 150.459 143.207 150.739 142.759 150.944C142.32 151.149 141.835 151.252 141.303 151.252C140.771 151.252 140.262 151.135 139.777 150.902C139.292 150.669 138.89 150.291 138.573 149.768C138.256 149.245 138.074 148.559 138.027 147.71L138.643 148.83V153.8H137.299ZM141.093 150.076C141.597 150.076 142.036 149.959 142.409 149.726C142.782 149.483 143.072 149.152 143.277 148.732C143.482 148.303 143.585 147.813 143.585 147.262C143.585 146.702 143.482 146.212 143.277 145.792C143.072 145.372 142.782 145.045 142.409 144.812C142.036 144.569 141.597 144.448 141.093 144.448C140.645 144.448 140.23 144.551 139.847 144.756C139.464 144.952 139.156 145.241 138.923 145.624C138.699 145.997 138.587 146.45 138.587 146.982V147.626C138.587 148.139 138.704 148.578 138.937 148.942C139.17 149.306 139.478 149.586 139.861 149.782C140.244 149.978 140.654 150.076 141.093 150.076ZM149.541 151.224C148.655 151.224 147.973 150.935 147.497 150.356C147.021 149.777 146.783 148.942 146.783 147.85V143.51H148.127V148.116C148.127 148.704 148.286 149.166 148.603 149.502C148.921 149.829 149.35 149.992 149.891 149.992C150.451 149.992 150.909 149.815 151.263 149.46C151.618 149.096 151.795 148.601 151.795 147.976V143.51H153.139V151H152.075V147.794H152.243C152.243 148.531 152.145 149.157 151.949 149.67C151.753 150.174 151.459 150.561 151.067 150.832C150.685 151.093 150.195 151.224 149.597 151.224H149.541ZM155.742 151V143.524H156.806V146.604H156.75C156.75 145.512 156.988 144.714 157.464 144.21C157.95 143.697 158.673 143.44 159.634 143.44H159.886V144.644H159.41C158.664 144.644 158.09 144.845 157.688 145.246C157.287 145.638 157.086 146.207 157.086 146.954V151H155.742ZM164.609 151.252C163.965 151.252 163.405 151.14 162.929 150.916C162.462 150.692 162.075 150.393 161.767 150.02C161.459 149.637 161.225 149.217 161.067 148.76C160.917 148.303 160.843 147.845 160.843 147.388V147.136C160.843 146.66 160.917 146.193 161.067 145.736C161.225 145.279 161.459 144.868 161.767 144.504C162.084 144.131 162.476 143.832 162.943 143.608C163.409 143.384 163.955 143.272 164.581 143.272C165.206 143.272 165.766 143.389 166.261 143.622C166.765 143.855 167.166 144.187 167.465 144.616C167.773 145.036 167.945 145.535 167.983 146.114H166.695C166.629 145.647 166.415 145.26 166.051 144.952C165.687 144.635 165.197 144.476 164.581 144.476C164.049 144.476 163.605 144.597 163.251 144.84C162.896 145.083 162.63 145.414 162.453 145.834C162.275 146.254 162.187 146.73 162.187 147.262C162.187 147.775 162.275 148.247 162.453 148.676C162.63 149.096 162.896 149.432 163.251 149.684C163.615 149.927 164.067 150.048 164.609 150.048C165.029 150.048 165.393 149.973 165.701 149.824C166.009 149.675 166.256 149.474 166.443 149.222C166.629 148.97 166.741 148.685 166.779 148.368H168.067C168.039 148.956 167.866 149.465 167.549 149.894C167.241 150.323 166.83 150.659 166.317 150.902C165.813 151.135 165.243 151.252 164.609 151.252ZM169.893 151V140.78H171.237V146.884H170.901C170.901 146.147 170.994 145.512 171.181 144.98C171.377 144.439 171.675 144.023 172.077 143.734C172.478 143.445 172.991 143.3 173.617 143.3H173.673C174.569 143.3 175.245 143.599 175.703 144.196C176.16 144.784 176.389 145.629 176.389 146.73V151H175.045V146.45C175.045 145.843 174.872 145.372 174.527 145.036C174.191 144.7 173.752 144.532 173.211 144.532C172.613 144.532 172.133 144.733 171.769 145.134C171.414 145.526 171.237 146.044 171.237 146.688V151H169.893ZM183.37 151V148.76H183.146V146.17C183.146 145.657 183.011 145.269 182.74 145.008C182.479 144.747 182.091 144.616 181.578 144.616C181.289 144.616 180.99 144.621 180.682 144.63C180.374 144.639 180.08 144.649 179.8 144.658C179.52 144.667 179.277 144.681 179.072 144.7V143.524C179.277 143.505 179.492 143.491 179.716 143.482C179.949 143.463 180.187 143.454 180.43 143.454C180.673 143.445 180.906 143.44 181.13 143.44C181.895 143.44 182.521 143.533 183.006 143.72C183.491 143.897 183.851 144.191 184.084 144.602C184.317 145.013 184.434 145.568 184.434 146.268V151H183.37ZM180.92 151.196C180.36 151.196 179.875 151.103 179.464 150.916C179.063 150.72 178.75 150.44 178.526 150.076C178.311 149.712 178.204 149.273 178.204 148.76C178.204 148.228 178.321 147.785 178.554 147.43C178.797 147.075 179.147 146.809 179.604 146.632C180.061 146.445 180.612 146.352 181.256 146.352H183.286V147.36H181.2C180.659 147.36 180.243 147.491 179.954 147.752C179.665 148.013 179.52 148.349 179.52 148.76C179.52 149.171 179.665 149.502 179.954 149.754C180.243 150.006 180.659 150.132 181.2 150.132C181.517 150.132 181.821 150.076 182.11 149.964C182.399 149.843 182.637 149.647 182.824 149.376C183.02 149.096 183.127 148.713 183.146 148.228L183.51 148.76C183.463 149.292 183.333 149.74 183.118 150.104C182.913 150.459 182.623 150.729 182.25 150.916C181.886 151.103 181.443 151.196 180.92 151.196ZM189.351 151.224C188.371 151.224 187.61 151.014 187.069 150.594C186.537 150.174 186.261 149.6 186.243 148.872H187.503C187.521 149.161 187.666 149.437 187.937 149.698C188.217 149.95 188.688 150.076 189.351 150.076C189.948 150.076 190.405 149.959 190.723 149.726C191.04 149.483 191.199 149.189 191.199 148.844C191.199 148.536 191.082 148.298 190.849 148.13C190.615 147.953 190.237 147.836 189.715 147.78L188.903 147.696C188.193 147.621 187.615 147.411 187.167 147.066C186.719 146.711 186.495 146.217 186.495 145.582C186.495 145.106 186.616 144.7 186.859 144.364C187.101 144.019 187.437 143.757 187.867 143.58C188.296 143.393 188.791 143.3 189.351 143.3C190.191 143.3 190.872 143.487 191.395 143.86C191.917 144.233 192.188 144.789 192.207 145.526H190.947C190.937 145.227 190.797 144.975 190.527 144.77C190.265 144.555 189.873 144.448 189.351 144.448C188.828 144.448 188.431 144.555 188.161 144.77C187.89 144.985 187.755 145.255 187.755 145.582C187.755 145.862 187.848 146.086 188.035 146.254C188.231 146.422 188.548 146.529 188.987 146.576L189.799 146.66C190.601 146.744 191.245 146.968 191.731 147.332C192.216 147.687 192.459 148.191 192.459 148.844C192.459 149.311 192.323 149.726 192.053 150.09C191.791 150.445 191.427 150.725 190.961 150.93C190.494 151.126 189.957 151.224 189.351 151.224ZM197.584 151.252C196.931 151.252 196.366 151.14 195.89 150.916C195.414 150.692 195.027 150.398 194.728 150.034C194.43 149.661 194.206 149.245 194.056 148.788C193.916 148.331 193.846 147.864 193.846 147.388V147.136C193.846 146.651 193.916 146.179 194.056 145.722C194.206 145.265 194.43 144.854 194.728 144.49C195.027 144.117 195.405 143.823 195.862 143.608C196.329 143.384 196.875 143.272 197.5 143.272C198.312 143.272 198.98 143.449 199.502 143.804C200.034 144.149 200.426 144.597 200.678 145.148C200.94 145.699 201.07 146.287 201.07 146.912V147.514H194.434V146.506H200.09L199.782 147.052C199.782 146.52 199.698 146.063 199.53 145.68C199.362 145.288 199.11 144.985 198.774 144.77C198.438 144.555 198.014 144.448 197.5 144.448C196.968 144.448 196.525 144.569 196.17 144.812C195.825 145.055 195.564 145.386 195.386 145.806C195.218 146.226 195.134 146.711 195.134 147.262C195.134 147.794 195.218 148.275 195.386 148.704C195.564 149.124 195.834 149.46 196.198 149.712C196.562 149.955 197.024 150.076 197.584 150.076C198.172 150.076 198.648 149.945 199.012 149.684C199.386 149.423 199.61 149.119 199.684 148.774H200.944C200.842 149.287 200.636 149.731 200.328 150.104C200.02 150.477 199.633 150.762 199.166 150.958C198.7 151.154 198.172 151.252 197.584 151.252ZM209.608 151.252C208.955 151.252 208.381 151.14 207.886 150.916C207.392 150.692 206.972 150.398 206.626 150.034C206.29 149.661 206.034 149.245 205.856 148.788C205.688 148.331 205.604 147.864 205.604 147.388V147.136C205.604 146.66 205.693 146.193 205.87 145.736C206.048 145.269 206.309 144.854 206.654 144.49C207 144.117 207.42 143.823 207.914 143.608C208.409 143.384 208.974 143.272 209.608 143.272C210.243 143.272 210.808 143.384 211.302 143.608C211.797 143.823 212.217 144.117 212.562 144.49C212.908 144.854 213.169 145.269 213.346 145.736C213.524 146.193 213.612 146.66 213.612 147.136V147.388C213.612 147.864 213.524 148.331 213.346 148.788C213.178 149.245 212.922 149.661 212.576 150.034C212.24 150.398 211.825 150.692 211.33 150.916C210.836 151.14 210.262 151.252 209.608 151.252ZM209.608 150.048C210.168 150.048 210.644 149.927 211.036 149.684C211.438 149.432 211.741 149.096 211.946 148.676C212.161 148.256 212.268 147.785 212.268 147.262C212.268 146.73 212.161 146.254 211.946 145.834C211.732 145.414 211.424 145.083 211.022 144.84C210.63 144.597 210.159 144.476 209.608 144.476C209.067 144.476 208.596 144.597 208.194 144.84C207.793 145.083 207.485 145.414 207.27 145.834C207.056 146.254 206.948 146.73 206.948 147.262C206.948 147.785 207.051 148.256 207.256 148.676C207.471 149.096 207.774 149.432 208.166 149.684C208.568 149.927 209.048 150.048 209.608 150.048ZM215.625 151V143.524H216.689V146.73H216.521C216.521 145.993 216.619 145.372 216.815 144.868C217.021 144.355 217.329 143.967 217.739 143.706C218.15 143.435 218.668 143.3 219.293 143.3H219.349C220.292 143.3 220.987 143.594 221.435 144.182C221.893 144.77 222.121 145.619 222.121 146.73V151H220.777V146.45C220.777 145.871 220.614 145.409 220.287 145.064C219.961 144.709 219.513 144.532 218.943 144.532C218.355 144.532 217.879 144.714 217.515 145.078C217.151 145.442 216.969 145.927 216.969 146.534V151H215.625ZM108.533 171.084C107.973 171.084 107.488 171.005 107.077 170.846C106.676 170.687 106.363 170.417 106.139 170.034C105.925 169.642 105.817 169.115 105.817 168.452V161.256H107.105V168.62C107.105 169.021 107.213 169.334 107.427 169.558C107.651 169.773 107.964 169.88 108.365 169.88H109.681V171.084H108.533ZM104.529 164.532V163.524H109.681V164.532H104.529ZM111.582 171V160.78H112.926V166.884H112.59C112.59 166.147 112.684 165.512 112.87 164.98C113.066 164.439 113.365 164.023 113.766 163.734C114.168 163.445 114.681 163.3 115.306 163.3H115.362C116.258 163.3 116.935 163.599 117.392 164.196C117.85 164.784 118.078 165.629 118.078 166.73V171H116.734V166.45C116.734 165.843 116.562 165.372 116.216 165.036C115.88 164.7 115.442 164.532 114.9 164.532C114.303 164.532 113.822 164.733 113.458 165.134C113.104 165.526 112.926 166.044 112.926 166.688V171H111.582ZM123.715 171.252C123.062 171.252 122.497 171.14 122.021 170.916C121.545 170.692 121.158 170.398 120.859 170.034C120.561 169.661 120.337 169.245 120.187 168.788C120.047 168.331 119.977 167.864 119.977 167.388V167.136C119.977 166.651 120.047 166.179 120.187 165.722C120.337 165.265 120.561 164.854 120.859 164.49C121.158 164.117 121.536 163.823 121.993 163.608C122.46 163.384 123.006 163.272 123.631 163.272C124.443 163.272 125.111 163.449 125.633 163.804C126.165 164.149 126.557 164.597 126.809 165.148C127.071 165.699 127.201 166.287 127.201 166.912V167.514H120.565V166.506H126.221L125.913 167.052C125.913 166.52 125.829 166.063 125.661 165.68C125.493 165.288 125.241 164.985 124.905 164.77C124.569 164.555 124.145 164.448 123.631 164.448C123.099 164.448 122.656 164.569 122.301 164.812C121.956 165.055 121.695 165.386 121.517 165.806C121.349 166.226 121.265 166.711 121.265 167.262C121.265 167.794 121.349 168.275 121.517 168.704C121.695 169.124 121.965 169.46 122.329 169.712C122.693 169.955 123.155 170.076 123.715 170.076C124.303 170.076 124.779 169.945 125.143 169.684C125.517 169.423 125.741 169.119 125.815 168.774H127.075C126.973 169.287 126.767 169.731 126.459 170.104C126.151 170.477 125.764 170.762 125.297 170.958C124.831 171.154 124.303 171.252 123.715 171.252ZM134.479 171L135.991 163.776H137.811L139.575 171H138.427L136.663 163.804H137.111L135.585 171H134.479ZM133.793 171V169.936H135.347V171H133.793ZM133.485 171L131.371 163.524H132.659L134.717 171H133.485ZM138.707 171V169.936H140.261V171H138.707ZM139.337 171L141.129 163.524H142.347L140.513 171H139.337ZM147.204 171.252C146.55 171.252 145.986 171.14 145.51 170.916C145.034 170.692 144.646 170.398 144.348 170.034C144.049 169.661 143.825 169.245 143.676 168.788C143.536 168.331 143.466 167.864 143.466 167.388V167.136C143.466 166.651 143.536 166.179 143.676 165.722C143.825 165.265 144.049 164.854 144.348 164.49C144.646 164.117 145.024 163.823 145.482 163.608C145.948 163.384 146.494 163.272 147.12 163.272C147.932 163.272 148.599 163.449 149.122 163.804C149.654 164.149 150.046 164.597 150.298 165.148C150.559 165.699 150.69 166.287 150.69 166.912V167.514H144.054V166.506H149.71L149.402 167.052C149.402 166.52 149.318 166.063 149.15 165.68C148.982 165.288 148.73 164.985 148.394 164.77C148.058 164.555 147.633 164.448 147.12 164.448C146.588 164.448 146.144 164.569 145.79 164.812C145.444 165.055 145.183 165.386 145.006 165.806C144.838 166.226 144.754 166.711 144.754 167.262C144.754 167.794 144.838 168.275 145.006 168.704C145.183 169.124 145.454 169.46 145.818 169.712C146.182 169.955 146.644 170.076 147.204 170.076C147.792 170.076 148.268 169.945 148.632 169.684C149.005 169.423 149.229 169.119 149.304 168.774H150.564C150.461 169.287 150.256 169.731 149.948 170.104C149.64 170.477 149.252 170.762 148.786 170.958C148.319 171.154 147.792 171.252 147.204 171.252ZM156.546 171.252C155.93 171.252 155.379 171.117 154.894 170.846C154.418 170.575 154.04 170.183 153.76 169.67C153.48 169.147 153.326 168.522 153.298 167.794H153.662V171H152.598V160.78H153.942V165.75L153.466 166.772C153.503 165.96 153.667 165.297 153.956 164.784C154.245 164.271 154.623 163.893 155.09 163.65C155.566 163.398 156.089 163.272 156.658 163.272C157.19 163.272 157.675 163.375 158.114 163.58C158.553 163.776 158.931 164.051 159.248 164.406C159.565 164.751 159.808 165.157 159.976 165.624C160.144 166.081 160.228 166.576 160.228 167.108V167.36C160.228 167.892 160.139 168.391 159.962 168.858C159.794 169.325 159.547 169.74 159.22 170.104C158.893 170.459 158.501 170.739 158.044 170.944C157.596 171.149 157.097 171.252 156.546 171.252ZM156.392 170.076C156.896 170.076 157.335 169.955 157.708 169.712C158.081 169.469 158.371 169.138 158.576 168.718C158.781 168.289 158.884 167.794 158.884 167.234C158.884 166.674 158.777 166.184 158.562 165.764C158.357 165.344 158.067 165.022 157.694 164.798C157.321 164.565 156.887 164.448 156.392 164.448C155.944 164.448 155.529 164.551 155.146 164.756C154.763 164.952 154.455 165.241 154.222 165.624C153.998 165.997 153.886 166.45 153.886 166.982V167.626C153.886 168.139 154.003 168.578 154.236 168.942C154.469 169.306 154.777 169.586 155.16 169.782C155.543 169.978 155.953 170.076 156.392 170.076ZM164.7 171.224C163.72 171.224 162.96 171.014 162.418 170.594C161.886 170.174 161.611 169.6 161.592 168.872H162.852C162.871 169.161 163.016 169.437 163.286 169.698C163.566 169.95 164.038 170.076 164.7 170.076C165.298 170.076 165.755 169.959 166.072 169.726C166.39 169.483 166.548 169.189 166.548 168.844C166.548 168.536 166.432 168.298 166.198 168.13C165.965 167.953 165.587 167.836 165.064 167.78L164.252 167.696C163.543 167.621 162.964 167.411 162.516 167.066C162.068 166.711 161.844 166.217 161.844 165.582C161.844 165.106 161.966 164.7 162.208 164.364C162.451 164.019 162.787 163.757 163.216 163.58C163.646 163.393 164.14 163.3 164.7 163.3C165.54 163.3 166.222 163.487 166.744 163.86C167.267 164.233 167.538 164.789 167.556 165.526H166.296C166.287 165.227 166.147 164.975 165.876 164.77C165.615 164.555 165.223 164.448 164.7 164.448C164.178 164.448 163.781 164.555 163.51 164.77C163.24 164.985 163.104 165.255 163.104 165.582C163.104 165.862 163.198 166.086 163.384 166.254C163.58 166.422 163.898 166.529 164.336 166.576L165.148 166.66C165.951 166.744 166.595 166.968 167.08 167.332C167.566 167.687 167.808 168.191 167.808 168.844C167.808 169.311 167.673 169.726 167.402 170.09C167.141 170.445 166.777 170.725 166.31 170.93C165.844 171.126 165.307 171.224 164.7 171.224ZM170.12 171V163.524H171.464V171H170.12ZM168.972 164.588V163.524H171.464V164.588H168.972ZM170.498 162.32C170.199 162.32 169.975 162.241 169.826 162.082C169.686 161.923 169.616 161.723 169.616 161.48C169.616 161.237 169.686 161.037 169.826 160.878C169.975 160.719 170.199 160.64 170.498 160.64C170.797 160.64 171.016 160.719 171.156 160.878C171.305 161.037 171.38 161.237 171.38 161.48C171.38 161.723 171.305 161.923 171.156 162.082C171.016 162.241 170.797 162.32 170.498 162.32ZM176.975 171.084C176.415 171.084 175.929 171.005 175.519 170.846C175.117 170.687 174.805 170.417 174.581 170.034C174.366 169.642 174.259 169.115 174.259 168.452V161.256H175.547V168.62C175.547 169.021 175.654 169.334 175.869 169.558C176.093 169.773 176.405 169.88 176.807 169.88H178.123V171.084H176.975ZM172.971 164.532V163.524H178.123V164.532H172.971ZM183.147 171.252C182.494 171.252 181.929 171.14 181.453 170.916C180.977 170.692 180.59 170.398 180.291 170.034C179.992 169.661 179.768 169.245 179.619 168.788C179.479 168.331 179.409 167.864 179.409 167.388V167.136C179.409 166.651 179.479 166.179 179.619 165.722C179.768 165.265 179.992 164.854 180.291 164.49C180.59 164.117 180.968 163.823 181.425 163.608C181.892 163.384 182.438 163.272 183.063 163.272C183.875 163.272 184.542 163.449 185.065 163.804C185.597 164.149 185.989 164.597 186.241 165.148C186.502 165.699 186.633 166.287 186.633 166.912V167.514H179.997V166.506H185.653L185.345 167.052C185.345 166.52 185.261 166.063 185.093 165.68C184.925 165.288 184.673 164.985 184.337 164.77C184.001 164.555 183.576 164.448 183.063 164.448C182.531 164.448 182.088 164.569 181.733 164.812C181.388 165.055 181.126 165.386 180.949 165.806C180.781 166.226 180.697 166.711 180.697 167.262C180.697 167.794 180.781 168.275 180.949 168.704C181.126 169.124 181.397 169.46 181.761 169.712C182.125 169.955 182.587 170.076 183.147 170.076C183.735 170.076 184.211 169.945 184.575 169.684C184.948 169.423 185.172 169.119 185.247 168.774H186.507C186.404 169.287 186.199 169.731 185.891 170.104C185.583 170.477 185.196 170.762 184.729 170.958C184.262 171.154 183.735 171.252 183.147 171.252Z" fill="#0B4738"/>
</g>
<defs>
<clipPath id="clip0_502_11668">
<rect x="64.6667" width="218" height="243" rx="8" fill="white"/>
</clipPath>
<clipPath id="clip1_502_11668">
<rect width="170" height="140" fill="white" transform="translate(88.3333 72)"/>
</clipPath>
</defs>
</svg>
