<svg width="21" height="20" viewBox="0 0 21 20" fill="none" xmlns="http://www.w3.org/2000/svg">
<g id="Layer 2">
<g id="arrow-ios-downward">
<path id="Vector" d="M10.4909 13.331C10.2965 13.3315 10.1081 13.254 9.95847 13.1121L4.9672 8.35266C4.79732 8.19109 4.69049 7.95891 4.67021 7.70721C4.64993 7.4555 4.71786 7.20489 4.85906 7.0105C5.00026 6.81611 5.20317 6.69386 5.42314 6.67065C5.64311 6.64745 5.86212 6.72518 6.03201 6.88675L10.4909 11.1512L14.9497 7.03905C15.0348 6.95999 15.1327 6.90094 15.2378 6.86531C15.3429 6.82968 15.4531 6.81816 15.5621 6.83143C15.6711 6.8447 15.7768 6.88249 15.873 6.94262C15.9692 7.00276 16.054 7.08405 16.1227 7.18184C16.1989 7.27971 16.2566 7.39454 16.2922 7.51911C16.3278 7.64369 16.3405 7.77534 16.3296 7.90581C16.3186 8.03627 16.2843 8.16275 16.2286 8.27732C16.173 8.39189 16.0973 8.49207 16.0062 8.5716L11.015 13.1692C10.861 13.2887 10.6765 13.3457 10.4909 13.331Z" fill="#8542C3"/>
</g>
</g>
</svg>
