<svg width="12" height="12" viewBox="0 0 12 12" fill="none" xmlns="http://www.w3.org/2000/svg">
<path id="Vector" d="M7.40864 5.99927L11.7045 1.71341C11.8926 1.52529 11.9983 1.27014 11.9983 1.0041C11.9983 0.738054 11.8926 0.482906 11.7045 0.294784C11.5164 0.106662 11.2612 0.000976562 10.9952 0.000976562C10.7291 0.000976562 10.474 0.106662 10.2859 0.294784L6 4.59063L1.71414 0.294784C1.52602 0.106662 1.27087 0.000976561 1.00483 0.000976562C0.738783 0.000976564 0.483635 0.106662 0.295513 0.294784C0.107391 0.482906 0.00170495 0.738054 0.00170495 1.0041C0.00170495 1.27014 0.107391 1.52529 0.295513 1.71341L4.59136 5.99927L0.295513 10.2851C0.201875 10.378 0.127553 10.4885 0.0768329 10.6102C0.0261132 10.732 0 10.8626 0 10.9944C0 11.1263 0.0261132 11.2569 0.0768329 11.3786C0.127553 11.5004 0.201875 11.6109 0.295513 11.7038C0.388386 11.7974 0.49888 11.8717 0.620622 11.9224C0.742363 11.9732 0.872943 11.9993 1.00483 11.9993C1.13671 11.9993 1.26729 11.9732 1.38903 11.9224C1.51077 11.8717 1.62127 11.7974 1.71414 11.7038L6 7.40791L10.2859 11.7038C10.3787 11.7974 10.4892 11.8717 10.611 11.9224C10.7327 11.9732 10.8633 11.9993 10.9952 11.9993C11.1271 11.9993 11.2576 11.9732 11.3794 11.9224C11.5011 11.8717 11.6116 11.7974 11.7045 11.7038C11.7981 11.6109 11.8724 11.5004 11.9232 11.3786C11.9739 11.2569 12 11.1263 12 10.9944C12 10.8626 11.9739 10.732 11.9232 10.6102C11.8724 10.4885 11.7981 10.378 11.7045 10.2851L7.40864 5.99927Z" fill="#1A2339"/>
</svg>
