<svg width="116" height="30" viewBox="0 0 116 30" fill="none" xmlns="http://www.w3.org/2000/svg">
<g id="Logo" clip-path="url(#clip0_2136_2699)">
<g id="Clip path group">
<mask id="mask0_2136_2699" style="mask-type:luminance" maskUnits="userSpaceOnUse" x="0" y="0" width="116" height="30">
<g id="clip0_158_3139">
<path id="Vector" d="M116 0H0V30H116V0Z" fill="white"/>
</g>
</mask>
<g mask="url(#mask0_2136_2699)">
<g id="Group">
<path id="Vector_2" d="M9.95117 5.02491C9.95117 2.40047 12.1251 0.272949 14.7869 0.272949C17.4486 0.272949 19.6225 2.40047 19.6225 5.02491C19.6225 7.64933 17.4486 9.77684 14.7869 9.77684C12.1251 9.77684 9.95117 7.64933 9.95117 5.02491Z" fill="#2EB67D"/>
<path id="Vector_3" d="M0.568146 11.939C-0.818129 6.85451 2.24024 1.63146 7.3992 0.272949L13.653 23.2101C14.3462 25.7523 12.8169 28.3638 10.2375 29.043L9.5138 29.2336C7.33398 29.8077 5.09207 28.5314 4.50634 26.3831L0.568146 11.939Z" fill="#4CBBFA"/>
<path id="Vector_4" d="M4.19631 25.297C2.79897 20.2192 5.85016 14.9943 11.0056 13.6367L13.6379 23.2023C14.3383 25.7472 12.8091 28.3657 10.2253 29.046L7.5905 29.7399C6.47145 30.0345 5.32016 29.3809 5.01685 28.2788L4.19631 25.297Z" fill="#A150F0"/>
<path id="Vector_5" d="M26.9199 21.1143H29.0598V14.3546H33.9339C38.2373 14.3546 36.6206 20.4125 37.3576 21.1143H39.6639V20.9739C38.7842 20.6932 40.1632 14.1208 36.3829 13.3956V13.3489C38.2611 12.8811 39.4261 11.5479 39.4261 9.13873C39.4261 6.16825 37.1674 4.39062 33.815 4.39062H26.9199V21.1143ZM29.0598 6.2618H33.3157C35.0751 6.2618 37.2863 6.47231 37.2863 9.37264C37.2863 12.273 35.0751 12.4835 33.3157 12.4835H29.0598V6.2618Z" fill="#131A2B"/>
<path id="Vector_6" d="M46.7239 19.8048C44.0848 19.8048 42.7771 17.7933 42.7771 15.6414H52.3588C52.3588 11.4079 50.5043 8.8584 46.7001 8.8584C43.1575 8.8584 40.875 11.174 40.875 15.1502C40.875 18.8926 43.1099 21.4421 46.7952 21.4421C49.8148 21.4421 51.5504 19.6645 52.1686 17.4424H50.2665C50.0525 18.261 49.149 19.8048 46.7239 19.8048ZM46.7001 10.4956C48.9826 10.4956 50.4567 12.0862 50.4567 14.0041H42.7771C42.7771 12.0862 44.4177 10.4956 46.7001 10.4956Z" fill="#131A2B"/>
<path id="Vector_7" d="M60.1843 8.8584C58.1158 8.8584 56.8319 9.77057 56.1899 10.6126H56.1423V9.18585H54.2402V21.1146H56.1423V13.6767C56.1423 11.8288 57.569 10.4956 59.7088 10.4956C61.6109 10.4956 62.3479 11.7119 62.3479 13.2556V21.1146H64.25V12.7879C64.25 10.0513 62.3954 8.8584 60.1843 8.8584Z" fill="#131A2B"/>
<path id="Vector_8" d="M75.4334 9.18585V10.6594H75.3859C74.6727 9.74722 73.5314 8.8584 71.5342 8.8584C68.5384 8.8584 66.1133 10.753 66.1133 14.6824C66.1133 18.6119 68.5384 20.5064 71.5342 20.5064C73.5314 20.5064 74.6727 19.6645 75.3859 18.6353H75.4334V20.4363C75.4334 22.6584 74.1257 23.6173 71.8671 23.6173C69.6083 23.6173 68.6098 22.7051 68.372 21.4888H66.4698C66.6601 23.5238 68.6335 25.2546 71.9622 25.2546C75.2908 25.2546 77.3355 23.6407 77.3355 20.4597V9.18585H75.4334ZM71.7719 18.8692C69.2754 18.8692 68.0153 17.0214 68.0153 14.6824C68.0153 12.3434 69.2754 10.4956 71.7719 10.4956C74.0307 10.4956 75.4334 11.8756 75.4334 14.6824C75.4334 17.4892 74.0307 18.8692 71.7719 18.8692Z" fill="#131A2B"/>
<path id="Vector_9" d="M87.3623 12.2263C87.3623 13.4192 86.4351 13.6764 84.3904 14.0507C81.2519 14.6354 79.2072 15.3371 79.2072 18.0503C79.2072 20.0618 80.7526 21.4418 83.2016 21.4418C85.1987 21.4418 86.5539 20.7401 87.3148 19.6174H87.3623C87.6952 20.9272 88.3848 21.2314 89.526 21.2314C89.8826 21.2314 90.1441 21.2079 90.6434 21.0442V19.7344C89.4308 19.8747 89.2644 19.3601 89.2644 18.4246V12.6239C89.2644 9.74698 87.1959 8.85815 84.8896 8.85815C81.3708 8.85815 79.9205 10.5889 79.8016 12.8812H81.7036C81.8226 11.1503 82.5834 10.4954 84.8896 10.4954C86.8393 10.4954 87.3623 11.2907 87.3623 12.2263ZM83.3918 19.8046C81.8226 19.8046 81.1093 19.1262 81.1093 17.9568C81.1093 16.53 82.203 15.9453 84.5568 15.454C85.8407 15.1968 87.0057 14.8693 87.3623 14.5185V16.5066C87.3623 18.7988 85.6505 19.8046 83.3918 19.8046Z" fill="#131A2B"/>
<path id="Vector_10" d="M100.695 9.1856V10.6592H100.648C99.9345 9.74698 98.7926 8.85815 96.7959 8.85815C93.8 8.85815 91.3749 10.7527 91.3749 14.6822C91.3749 18.6117 93.8 20.5062 96.7959 20.5062C98.7926 20.5062 99.9345 19.6642 100.648 18.635H100.695V20.4361C100.695 22.6581 99.3878 23.6171 97.1287 23.6171C94.87 23.6171 93.8714 22.7048 93.6336 21.4886H91.7315C91.9218 23.5235 93.8952 25.2544 97.2237 25.2544C100.553 25.2544 102.597 23.6404 102.597 20.4594V9.1856H100.695ZM97.0336 18.8689C94.5371 18.8689 93.277 17.0211 93.277 14.6822C93.277 12.3432 94.5371 10.4954 97.0336 10.4954C99.2927 10.4954 100.695 11.8754 100.695 14.6822C100.695 17.4889 99.2927 18.8689 97.0336 18.8689Z" fill="#131A2B"/>
<path id="Vector_11" d="M110.365 19.8048C107.726 19.8048 106.418 17.7933 106.418 15.6414H116C116 11.4079 114.146 8.8584 110.341 8.8584C106.799 8.8584 104.516 11.174 104.516 15.1502C104.516 18.8926 106.751 21.4421 110.436 21.4421C113.455 21.4421 115.191 19.6645 115.809 17.4424H113.908C113.693 18.261 112.79 19.8048 110.365 19.8048ZM110.341 10.4956C112.623 10.4956 114.098 12.0862 114.098 14.0041H106.418C106.418 12.0862 108.058 10.4956 110.341 10.4956Z" fill="#131A2B"/>
</g>
</g>
</g>
</g>
<defs>
<clipPath id="clip0_2136_2699">
<rect width="116" height="30" fill="white"/>
</clipPath>
</defs>
</svg>
