<svg width="19" height="19" viewBox="0 0 19 19" fill="none" xmlns="http://www.w3.org/2000/svg">
<g id="sparkles">
<path id="Vector" d="M8.3324 9.18475C10.3844 9.18475 12.0479 7.52126 12.0479 5.46924C12.0479 7.52126 13.7114 9.18475 15.7634 9.18475C13.7114 9.18475 12.0479 10.8482 12.0479 12.9003C12.0479 10.8482 10.3844 9.18475 8.3324 9.18475Z" stroke="#8542C3" stroke-width="1.33758" stroke-linecap="round" stroke-linejoin="round"/>
<path id="Vector_2" d="M3.87378 5.09768C5.31019 5.09768 6.47464 3.93324 6.47464 2.49683C6.47464 3.93324 7.63908 5.09768 9.07549 5.09768C7.63908 5.09768 6.47464 6.26212 6.47464 7.69854C6.47464 6.26212 5.31019 5.09768 3.87378 5.09768Z" stroke="#8542C3" stroke-width="1.33758" stroke-linecap="round" stroke-linejoin="round"/>
<path id="Vector_3" d="M3.87378 13.272C5.31019 13.272 6.47464 12.1076 6.47464 10.6711C6.47464 12.1076 7.63908 13.272 9.07549 13.272C7.63908 13.272 6.47464 14.4364 6.47464 15.8729C6.47464 14.4364 5.31019 13.272 3.87378 13.272Z" stroke="#8542C3" stroke-width="1.33758" stroke-linecap="round" stroke-linejoin="round"/>
</g>
</svg>
