<svg width="276" height="243" viewBox="0 0 276 243" fill="none" xmlns="http://www.w3.org/2000/svg">
<rect width="276" height="74.3333" rx="8" fill="white"/>
<rect x="0.61527" y="0.61527" width="274.769" height="73.1028" rx="7.38473" stroke="#C8E6EB" stroke-opacity="0.67" stroke-width="1.23054"/>
<rect x="10" y="7.66675" width="59" height="59" rx="7.38324" fill="#2DA8C3"/>
<path d="M48.4215 28.8604H30.5786V40.5505H48.4215V28.8604Z" stroke="white" stroke-width="1.84581" stroke-linecap="round" stroke-linejoin="round"/>
<path d="M39.5 40.5505V44.5499" stroke="white" stroke-width="1.84581" stroke-linecap="round" stroke-linejoin="round"/>
<path d="M34.5779 44.8574H44.4222" stroke="white" stroke-width="1.84581" stroke-linecap="round" stroke-linejoin="round"/>
<path d="M87.2545 42.6667L84.1985 30.9867H86.1825L88.7585 41.4027L88.0705 41.0187H89.8145L89.0625 41.4027L91.1265 31.4507H92.8225L90.3745 42.6667H87.2545ZM94.2625 42.6667L91.5745 31.4507H93.3505L95.7025 41.4027L94.9665 41.0187H96.7105L95.9905 41.4027L98.2785 30.9867H100.166L97.4145 42.6667H94.2625ZM105.34 42.9547C104.593 42.9547 103.943 42.8267 103.388 42.5707C102.833 42.3147 102.38 41.9787 102.028 41.5627C101.676 41.1361 101.409 40.6614 101.228 40.1387C101.057 39.6054 100.972 39.0614 100.972 38.5067V38.2027C100.972 37.6374 101.057 37.0934 101.228 36.5707C101.409 36.0374 101.676 35.5627 102.028 35.1467C102.38 34.7201 102.823 34.3841 103.356 34.1387C103.9 33.8827 104.529 33.7547 105.244 33.7547C106.172 33.7547 106.945 33.9574 107.564 34.3627C108.183 34.7681 108.647 35.2961 108.956 35.9467C109.265 36.5867 109.42 37.2801 109.42 38.0267V38.7787H101.772V37.5147H108.156L107.644 38.1547C107.644 37.5787 107.553 37.0827 107.372 36.6667C107.191 36.2401 106.924 35.9147 106.572 35.6907C106.22 35.4561 105.777 35.3387 105.244 35.3387C104.689 35.3387 104.225 35.4667 103.852 35.7227C103.479 35.9787 103.201 36.3307 103.02 36.7787C102.839 37.2267 102.748 37.7547 102.748 38.3627C102.748 38.9387 102.839 39.4561 103.02 39.9147C103.201 40.3627 103.484 40.7201 103.868 40.9867C104.252 41.2427 104.743 41.3707 105.34 41.3707C105.937 41.3707 106.428 41.2427 106.812 40.9867C107.196 40.7201 107.431 40.4107 107.516 40.0587H109.26C109.143 40.6454 108.903 41.1574 108.54 41.5947C108.188 42.0321 107.74 42.3681 107.196 42.6027C106.652 42.8374 106.033 42.9547 105.34 42.9547ZM116.239 42.9547C115.535 42.9547 114.906 42.8001 114.351 42.4907C113.807 42.1814 113.375 41.7334 113.055 41.1467C112.746 40.5601 112.575 39.8507 112.543 39.0187H112.927V42.6667H111.439V30.9867H113.311V36.7467L112.751 37.7867C112.783 36.8694 112.959 36.1174 113.279 35.5307C113.61 34.9334 114.042 34.4907 114.575 34.2027C115.109 33.9147 115.706 33.7707 116.367 33.7707C116.975 33.7707 117.525 33.8827 118.015 34.1067C118.517 34.3307 118.943 34.6454 119.295 35.0507C119.658 35.4454 119.93 35.9094 120.111 36.4427C120.303 36.9761 120.399 37.5521 120.399 38.1707V38.4907C120.399 39.1094 120.303 39.6854 120.111 40.2187C119.919 40.7521 119.637 41.2267 119.263 41.6427C118.901 42.0481 118.463 42.3681 117.951 42.6027C117.439 42.8374 116.869 42.9547 116.239 42.9547ZM115.903 41.3387C116.426 41.3387 116.885 41.2107 117.279 40.9547C117.674 40.6987 117.978 40.3467 118.191 39.8987C118.415 39.4401 118.527 38.9174 118.527 38.3307C118.527 37.7334 118.415 37.2161 118.191 36.7787C117.967 36.3307 117.658 35.9841 117.263 35.7387C116.879 35.4934 116.426 35.3707 115.903 35.3707C115.434 35.3707 114.997 35.4774 114.591 35.6907C114.186 35.9041 113.861 36.2134 113.615 36.6187C113.37 37.0134 113.247 37.4934 113.247 38.0587V38.7467C113.247 39.2907 113.37 39.7601 113.615 40.1547C113.871 40.5387 114.202 40.8321 114.607 41.0347C115.013 41.2374 115.445 41.3387 115.903 41.3387ZM126.32 42.6667V30.9867H128.24V42.6667H126.32ZM131.221 42.6667V34.0427H132.709V37.7387H132.533C132.533 36.8854 132.645 36.1654 132.869 35.5787C133.103 34.9921 133.455 34.5494 133.925 34.2507C134.394 33.9414 134.975 33.7867 135.669 33.7867H135.749C136.815 33.7867 137.61 34.1227 138.133 34.7947C138.655 35.4667 138.917 36.4481 138.917 37.7387V42.6667H137.045V37.4827C137.045 36.8854 136.874 36.4054 136.533 36.0427C136.191 35.6694 135.722 35.4827 135.125 35.4827C134.517 35.4827 134.026 35.6747 133.653 36.0587C133.279 36.4321 133.093 36.9334 133.093 37.5627V42.6667H131.221ZM141.085 39.0027V37.3707H147.293V39.0027H141.085ZM148.447 42.6667L152.543 30.9867H155.727L159.951 42.6667H157.967L154.271 32.2667L155.055 32.6347H153.119L153.951 32.2667L150.367 42.6667H148.447ZM151.103 39.3707L151.711 37.7067H156.607L157.231 39.3707H151.103ZM161.689 45.8667V34.0427H163.177V37.7707L162.889 37.7547C162.943 36.8481 163.135 36.1014 163.465 35.5147C163.796 34.9281 164.233 34.4907 164.777 34.2027C165.321 33.9147 165.919 33.7707 166.569 33.7707C167.188 33.7707 167.748 33.8881 168.249 34.1227C168.751 34.3467 169.183 34.6614 169.545 35.0667C169.908 35.4721 170.18 35.9414 170.361 36.4747C170.553 37.0081 170.649 37.5841 170.649 38.2027V38.5067C170.649 39.1147 170.553 39.6907 170.361 40.2347C170.169 40.7681 169.892 41.2374 169.529 41.6427C169.167 42.0481 168.735 42.3681 168.233 42.6027C167.732 42.8374 167.172 42.9547 166.553 42.9547C165.924 42.9547 165.337 42.8214 164.793 42.5547C164.249 42.2881 163.801 41.8614 163.449 41.2747C163.097 40.6881 162.9 39.9254 162.857 38.9867L163.561 40.1707V45.8667H161.689ZM166.153 41.3387C166.676 41.3387 167.135 41.2161 167.529 40.9707C167.924 40.7147 168.228 40.3627 168.441 39.9147C168.665 39.4561 168.777 38.9334 168.777 38.3467C168.777 37.7601 168.665 37.2427 168.441 36.7947C168.228 36.3467 167.924 36.0001 167.529 35.7547C167.145 35.4987 166.687 35.3707 166.153 35.3707C165.684 35.3707 165.247 35.4774 164.841 35.6907C164.436 35.9041 164.111 36.2134 163.865 36.6187C163.62 37.0134 163.497 37.4934 163.497 38.0587V38.7467C163.497 39.2907 163.62 39.7601 163.865 40.1547C164.121 40.5387 164.452 40.8321 164.857 41.0347C165.263 41.2374 165.695 41.3387 166.153 41.3387ZM172.799 45.8667V34.0427H174.287V37.7707L173.999 37.7547C174.052 36.8481 174.244 36.1014 174.575 35.5147C174.905 34.9281 175.343 34.4907 175.887 34.2027C176.431 33.9147 177.028 33.7707 177.679 33.7707C178.297 33.7707 178.857 33.8881 179.359 34.1227C179.86 34.3467 180.292 34.6614 180.655 35.0667C181.017 35.4721 181.289 35.9414 181.471 36.4747C181.663 37.0081 181.759 37.5841 181.759 38.2027V38.5067C181.759 39.1147 181.663 39.6907 181.471 40.2347C181.279 40.7681 181.001 41.2374 180.639 41.6427C180.276 42.0481 179.844 42.3681 179.343 42.6027C178.841 42.8374 178.281 42.9547 177.663 42.9547C177.033 42.9547 176.447 42.8214 175.903 42.5547C175.359 42.2881 174.911 41.8614 174.559 41.2747C174.207 40.6881 174.009 39.9254 173.967 38.9867L174.671 40.1707V45.8667H172.799ZM177.263 41.3387C177.785 41.3387 178.244 41.2161 178.639 40.9707C179.033 40.7147 179.337 40.3627 179.551 39.9147C179.775 39.4561 179.887 38.9334 179.887 38.3467C179.887 37.7601 179.775 37.2427 179.551 36.7947C179.337 36.3467 179.033 36.0001 178.639 35.7547C178.255 35.4987 177.796 35.3707 177.263 35.3707C176.793 35.3707 176.356 35.4774 175.951 35.6907C175.545 35.9041 175.22 36.2134 174.975 36.6187C174.729 37.0134 174.607 37.4934 174.607 38.0587V38.7467C174.607 39.2907 174.729 39.7601 174.975 40.1547C175.231 40.5387 175.561 40.8321 175.967 41.0347C176.372 41.2374 176.804 41.3387 177.263 41.3387Z" fill="#171F27"/>
<path d="M254.125 28.4167V47.1667" stroke="#515D66" stroke-width="1.84581" stroke-linecap="round" stroke-linejoin="round"/>
<path d="M247.875 28.4167V47.1667" stroke="#515D66" stroke-width="1.84581" stroke-linecap="round" stroke-linejoin="round"/>
<rect y="84.3333" width="276" height="74.3333" rx="8" fill="white"/>
<rect x="0.615786" y="84.949" width="274.768" height="73.1018" rx="7.38421" stroke="#C8E6EB" stroke-opacity="0.67" stroke-width="1.23157"/>
<rect x="10" y="92" width="59" height="59" rx="7.38943" fill="#2DA8C3"/>
<path d="M43.8972 111.647H35.1029C34.1305 111.647 33.3422 112.45 33.3422 113.44V129.56C33.3422 130.55 34.1305 131.353 35.1029 131.353H43.8972C44.8696 131.353 45.6579 130.55 45.6579 129.56V113.44C45.6579 112.45 44.8696 111.647 43.8972 111.647Z" stroke="white" stroke-width="1.84736" stroke-miterlimit="10" stroke-linejoin="round"/>
<path d="M40.9757 113.187H38.0244C37.9928 113.124 37.9605 113.017 37.9605 112.879V112.571H41.0395V112.879C41.0395 113.017 41.0072 113.124 40.9757 113.187Z" fill="white" stroke="white" stroke-width="1.84736"/>
<path d="M38.2684 128.889H40.7316" stroke="white" stroke-width="1.84736" stroke-miterlimit="10" stroke-linecap="round" stroke-linejoin="round"/>
<path d="M85.3469 127V115.32H87.9389L91.1389 122.696H91.4109L94.5789 115.32H97.2029V127H95.2989V117.032L95.4909 117.064L92.2589 124.6H90.1469L86.8829 117.064L87.1069 117.032V127H85.3469ZM104.187 127.288C103.43 127.288 102.763 127.165 102.187 126.92C101.611 126.664 101.126 126.328 100.731 125.912C100.337 125.496 100.038 125.027 99.8352 124.504C99.6326 123.971 99.5312 123.421 99.5312 122.856V122.536C99.5312 121.971 99.6326 121.421 99.8352 120.888C100.049 120.355 100.353 119.88 100.747 119.464C101.153 119.037 101.643 118.701 102.219 118.456C102.795 118.211 103.451 118.088 104.187 118.088C104.923 118.088 105.574 118.211 106.139 118.456C106.715 118.701 107.206 119.037 107.611 119.464C108.017 119.88 108.321 120.355 108.523 120.888C108.737 121.421 108.843 121.971 108.843 122.536V122.856C108.843 123.421 108.742 123.971 108.539 124.504C108.337 125.027 108.038 125.496 107.643 125.912C107.249 126.328 106.763 126.664 106.187 126.92C105.611 127.165 104.945 127.288 104.187 127.288ZM104.187 125.656C104.774 125.656 105.275 125.528 105.691 125.272C106.107 125.005 106.422 124.648 106.635 124.2C106.859 123.752 106.971 123.251 106.971 122.696C106.971 122.131 106.859 121.624 106.635 121.176C106.411 120.728 106.091 120.376 105.675 120.12C105.259 119.853 104.763 119.72 104.187 119.72C103.611 119.72 103.115 119.853 102.699 120.12C102.283 120.376 101.963 120.728 101.739 121.176C101.515 121.624 101.403 122.131 101.403 122.696C101.403 123.251 101.51 123.752 101.723 124.2C101.947 124.648 102.267 125.005 102.683 125.272C103.099 125.528 103.601 125.656 104.187 125.656ZM115.783 127.288C115.079 127.288 114.45 127.133 113.895 126.824C113.351 126.515 112.919 126.067 112.599 125.48C112.29 124.893 112.119 124.184 112.087 123.352H112.471V127H110.983V115.32H112.855V121.08L112.295 122.12C112.327 121.203 112.503 120.451 112.823 119.864C113.154 119.267 113.586 118.824 114.119 118.536C114.652 118.248 115.25 118.104 115.911 118.104C116.519 118.104 117.068 118.216 117.559 118.44C118.06 118.664 118.487 118.979 118.839 119.384C119.202 119.779 119.474 120.243 119.655 120.776C119.847 121.309 119.943 121.885 119.943 122.504V122.824C119.943 123.443 119.847 124.019 119.655 124.552C119.463 125.085 119.18 125.56 118.807 125.976C118.444 126.381 118.007 126.701 117.495 126.936C116.983 127.171 116.412 127.288 115.783 127.288ZM115.447 125.672C115.97 125.672 116.428 125.544 116.823 125.288C117.218 125.032 117.522 124.68 117.735 124.232C117.959 123.773 118.071 123.251 118.071 122.664C118.071 122.067 117.959 121.549 117.735 121.112C117.511 120.664 117.202 120.317 116.807 120.072C116.423 119.827 115.97 119.704 115.447 119.704C114.978 119.704 114.54 119.811 114.135 120.024C113.73 120.237 113.404 120.547 113.159 120.952C112.914 121.347 112.791 121.827 112.791 122.392V123.08C112.791 123.624 112.914 124.093 113.159 124.488C113.415 124.872 113.746 125.165 114.151 125.368C114.556 125.571 114.988 125.672 115.447 125.672ZM122.508 127V118.376H124.38V127H122.508ZM121.244 119.816V118.376H124.38V119.816H121.244ZM123.116 117.176C122.732 117.176 122.444 117.075 122.252 116.872C122.071 116.669 121.98 116.408 121.98 116.088C121.98 115.779 122.071 115.523 122.252 115.32C122.444 115.107 122.732 115 123.116 115C123.511 115 123.799 115.107 123.98 115.32C124.172 115.523 124.268 115.779 124.268 116.088C124.268 116.408 124.172 116.669 123.98 116.872C123.799 117.075 123.511 117.176 123.116 117.176ZM127.266 127V115.32H129.154V127H127.266ZM126.13 116.76V115.32H129.154V116.76H126.13ZM135.665 127.288C134.918 127.288 134.268 127.16 133.713 126.904C133.158 126.648 132.705 126.312 132.353 125.896C132.001 125.469 131.734 124.995 131.553 124.472C131.382 123.939 131.297 123.395 131.297 122.84V122.536C131.297 121.971 131.382 121.427 131.553 120.904C131.734 120.371 132.001 119.896 132.353 119.48C132.705 119.053 133.148 118.717 133.681 118.472C134.225 118.216 134.854 118.088 135.569 118.088C136.497 118.088 137.27 118.291 137.889 118.696C138.508 119.101 138.972 119.629 139.281 120.28C139.59 120.92 139.745 121.613 139.745 122.36V123.112H132.097V121.848H138.481L137.969 122.488C137.969 121.912 137.878 121.416 137.697 121C137.516 120.573 137.249 120.248 136.897 120.024C136.545 119.789 136.102 119.672 135.569 119.672C135.014 119.672 134.55 119.8 134.177 120.056C133.804 120.312 133.526 120.664 133.345 121.112C133.164 121.56 133.073 122.088 133.073 122.696C133.073 123.272 133.164 123.789 133.345 124.248C133.526 124.696 133.809 125.053 134.193 125.32C134.577 125.576 135.068 125.704 135.665 125.704C136.262 125.704 136.753 125.576 137.137 125.32C137.521 125.053 137.756 124.744 137.841 124.392H139.585C139.468 124.979 139.228 125.491 138.865 125.928C138.513 126.365 138.065 126.701 137.521 126.936C136.977 127.171 136.358 127.288 135.665 127.288ZM145.535 127V115.32H147.455V127H145.535ZM150.436 127V118.376H151.924V122.072H151.748C151.748 121.219 151.86 120.499 152.084 119.912C152.319 119.325 152.671 118.883 153.14 118.584C153.609 118.275 154.191 118.12 154.884 118.12H154.964C156.031 118.12 156.825 118.456 157.348 119.128C157.871 119.8 158.132 120.781 158.132 122.072V127H156.26V121.816C156.26 121.219 156.089 120.739 155.748 120.376C155.407 120.003 154.937 119.816 154.34 119.816C153.732 119.816 153.241 120.008 152.868 120.392C152.495 120.765 152.308 121.267 152.308 121.896V127H150.436ZM160.301 123.336V121.704H166.509V123.336H160.301ZM167.662 127L171.758 115.32H174.942L179.166 127H177.182L173.486 116.6L174.27 116.968H172.334L173.166 116.6L169.582 127H167.662ZM170.318 123.704L170.926 122.04H175.822L176.446 123.704H170.318ZM180.905 130.2V118.376H182.393V122.104L182.105 122.088C182.158 121.181 182.35 120.435 182.681 119.848C183.012 119.261 183.449 118.824 183.993 118.536C184.537 118.248 185.134 118.104 185.785 118.104C186.404 118.104 186.964 118.221 187.465 118.456C187.966 118.68 188.398 118.995 188.761 119.4C189.124 119.805 189.396 120.275 189.577 120.808C189.769 121.341 189.865 121.917 189.865 122.536V122.84C189.865 123.448 189.769 124.024 189.577 124.568C189.385 125.101 189.108 125.571 188.745 125.976C188.382 126.381 187.95 126.701 187.449 126.936C186.948 127.171 186.388 127.288 185.769 127.288C185.14 127.288 184.553 127.155 184.009 126.888C183.465 126.621 183.017 126.195 182.665 125.608C182.313 125.021 182.116 124.259 182.073 123.32L182.777 124.504V130.2H180.905ZM185.369 125.672C185.892 125.672 186.35 125.549 186.745 125.304C187.14 125.048 187.444 124.696 187.657 124.248C187.881 123.789 187.993 123.267 187.993 122.68C187.993 122.093 187.881 121.576 187.657 121.128C187.444 120.68 187.14 120.333 186.745 120.088C186.361 119.832 185.902 119.704 185.369 119.704C184.9 119.704 184.462 119.811 184.057 120.024C183.652 120.237 183.326 120.547 183.081 120.952C182.836 121.347 182.713 121.827 182.713 122.392V123.08C182.713 123.624 182.836 124.093 183.081 124.488C183.337 124.872 183.668 125.165 184.073 125.368C184.478 125.571 184.91 125.672 185.369 125.672ZM192.014 130.2V118.376H193.502V122.104L193.214 122.088C193.268 121.181 193.46 120.435 193.79 119.848C194.121 119.261 194.558 118.824 195.102 118.536C195.646 118.248 196.244 118.104 196.894 118.104C197.513 118.104 198.073 118.221 198.574 118.456C199.076 118.68 199.508 118.995 199.87 119.4C200.233 119.805 200.505 120.275 200.686 120.808C200.878 121.341 200.974 121.917 200.974 122.536V122.84C200.974 123.448 200.878 124.024 200.686 124.568C200.494 125.101 200.217 125.571 199.854 125.976C199.492 126.381 199.06 126.701 198.558 126.936C198.057 127.171 197.497 127.288 196.878 127.288C196.249 127.288 195.662 127.155 195.118 126.888C194.574 126.621 194.126 126.195 193.774 125.608C193.422 125.021 193.225 124.259 193.182 123.32L193.886 124.504V130.2H192.014ZM196.478 125.672C197.001 125.672 197.46 125.549 197.854 125.304C198.249 125.048 198.553 124.696 198.766 124.248C198.99 123.789 199.102 123.267 199.102 122.68C199.102 122.093 198.99 121.576 198.766 121.128C198.553 120.68 198.249 120.333 197.854 120.088C197.47 119.832 197.012 119.704 196.478 119.704C196.009 119.704 195.572 119.811 195.166 120.024C194.761 120.237 194.436 120.547 194.19 120.952C193.945 121.347 193.822 121.827 193.822 122.392V123.08C193.822 123.624 193.945 124.093 194.19 124.488C194.446 124.872 194.777 125.165 195.182 125.368C195.588 125.571 196.02 125.672 196.478 125.672Z" fill="#171F27"/>
<path d="M254.125 112.75V131.5" stroke="#515D66" stroke-width="1.84736" stroke-linecap="round" stroke-linejoin="round"/>
<path d="M247.875 112.75V131.5" stroke="#515D66" stroke-width="1.84736" stroke-linecap="round" stroke-linejoin="round"/>
<rect y="168.667" width="276" height="74.3333" rx="8" fill="white"/>
<rect x="0.615786" y="169.283" width="274.768" height="73.1018" rx="7.38421" stroke="#C8E6EB" stroke-opacity="0.67" stroke-width="1.23157"/>
<rect x="10" y="176.333" width="59" height="59" rx="7.38943" fill="#27A2E9"/>
<path d="M31.1869 199.368H47.8131V212.299H31.1869V199.368Z" stroke="white" stroke-width="1.84736" stroke-linecap="round" stroke-linejoin="round"/>
<path d="M31.1869 199.368L39.5 205.834L47.8131 199.368" stroke="white" stroke-width="1.84736" stroke-linecap="round" stroke-linejoin="round"/>
<path d="M85.3469 211.333V199.653H87.2509V211.333H85.3469ZM86.9309 211.333V209.669H92.4029V211.333H86.9309ZM86.9309 206.229V204.565H91.9549V206.229H86.9309ZM86.9309 201.317V199.653H92.2589V201.317H86.9309ZM94.7174 211.333V202.709H96.2054V206.421H96.0294C96.0294 205.568 96.136 204.848 96.3494 204.261C96.5734 203.675 96.904 203.227 97.3414 202.917C97.7894 202.608 98.344 202.453 99.0054 202.453H99.0854C99.7574 202.453 100.312 202.608 100.749 202.917C101.197 203.227 101.528 203.675 101.741 204.261C101.965 204.848 102.077 205.568 102.077 206.421H101.565C101.565 205.568 101.677 204.848 101.901 204.261C102.125 203.675 102.461 203.227 102.909 202.917C103.357 202.608 103.912 202.453 104.573 202.453H104.653C105.325 202.453 105.885 202.608 106.333 202.917C106.781 203.227 107.117 203.675 107.341 204.261C107.565 204.848 107.677 205.568 107.677 206.421V211.333H105.805V206.149C105.805 205.52 105.645 205.029 105.325 204.677C105.016 204.325 104.584 204.149 104.029 204.149C103.453 204.149 102.995 204.336 102.653 204.709C102.312 205.072 102.141 205.579 102.141 206.229V211.333H100.253V206.149C100.253 205.52 100.099 205.029 99.7894 204.677C99.48 204.325 99.048 204.149 98.4934 204.149C97.9174 204.149 97.4534 204.336 97.1014 204.709C96.76 205.072 96.5894 205.579 96.5894 206.229V211.333H94.7174ZM115.48 211.333V208.757H115.176V205.845C115.176 205.312 115.037 204.907 114.76 204.629C114.483 204.352 114.072 204.213 113.528 204.213C113.229 204.213 112.899 204.219 112.536 204.229C112.173 204.24 111.816 204.256 111.464 204.277C111.123 204.288 110.819 204.304 110.552 204.325V202.709C110.787 202.688 111.043 202.672 111.32 202.661C111.608 202.64 111.901 202.624 112.2 202.613C112.509 202.603 112.803 202.597 113.08 202.597C113.955 202.597 114.68 202.709 115.256 202.933C115.832 203.157 116.259 203.515 116.536 204.005C116.824 204.485 116.968 205.131 116.968 205.941V211.333H115.48ZM112.68 211.557C112.051 211.557 111.501 211.451 111.032 211.237C110.563 211.013 110.2 210.693 109.944 210.277C109.688 209.851 109.56 209.344 109.56 208.757C109.56 208.139 109.704 207.627 109.992 207.221C110.291 206.816 110.712 206.512 111.256 206.309C111.8 206.107 112.451 206.005 113.208 206.005H115.368V207.237H113.16C112.595 207.237 112.163 207.376 111.864 207.653C111.565 207.92 111.416 208.272 111.416 208.709C111.416 209.147 111.565 209.499 111.864 209.765C112.163 210.021 112.595 210.149 113.16 210.149C113.491 210.149 113.805 210.091 114.104 209.973C114.403 209.845 114.648 209.637 114.84 209.349C115.043 209.061 115.155 208.656 115.176 208.133L115.656 208.757C115.603 209.365 115.453 209.877 115.208 210.293C114.973 210.699 114.643 211.013 114.216 211.237C113.8 211.451 113.288 211.557 112.68 211.557ZM119.993 211.333V202.709H121.865V211.333H119.993ZM118.729 204.149V202.709H121.865V204.149H118.729ZM120.601 201.509C120.217 201.509 119.929 201.408 119.737 201.205C119.555 201.003 119.465 200.741 119.465 200.421C119.465 200.112 119.555 199.856 119.737 199.653C119.929 199.44 120.217 199.333 120.601 199.333C120.995 199.333 121.283 199.44 121.465 199.653C121.657 199.856 121.753 200.112 121.753 200.421C121.753 200.741 121.657 201.003 121.465 201.205C121.283 201.408 120.995 201.509 120.601 201.509ZM124.751 211.333V199.653H126.639V211.333H124.751ZM123.615 201.093V199.653H126.639V201.093H123.615Z" fill="#171F27"/>
<path d="M254.125 197.083V215.833" stroke="#515D66" stroke-width="1.84736" stroke-linecap="round" stroke-linejoin="round"/>
<path d="M247.875 197.083V215.833" stroke="#515D66" stroke-width="1.84736" stroke-linecap="round" stroke-linejoin="round"/>
</svg>
