<svg xmlns="http://www.w3.org/2000/svg" width="32" height="33" viewBox="0 0 32 33" fill="none">
    <path
        d="M31 16.3945C31 18.3644 30.612 20.3149 29.8582 22.1348C29.1044 23.9547 27.9995 25.6083 26.6066 27.0011C25.2137 28.394 23.5601 29.4989 21.7403 30.2527C19.9204 31.0065 17.9698 31.3945 16 31.3945C14.0302 31.3945 12.0796 31.0065 10.2597 30.2527C8.43986 29.4989 6.78628 28.394 5.3934 27.0011C4.00052 25.6083 2.89563 23.9547 2.14181 22.1348C1.38799 20.3149 1 18.3644 1 16.3945C1 12.4163 2.58035 8.60098 5.3934 5.78793C8.20644 2.97488 12.0218 1.39453 16 1.39453C19.9782 1.39453 23.7936 2.97488 26.6066 5.78793C29.4196 8.60098 31 12.4163 31 16.3945Z"
        stroke="white" stroke-width="2" stroke-linecap="round" stroke-linejoin="round" />
    <path
        d="M9.33337 11.3947C9.33337 11.8367 9.50897 12.2606 9.82153 12.5732C10.1341 12.8858 10.558 13.0614 11 13.0614C11.4421 13.0614 11.866 12.8858 12.1786 12.5732C12.4911 12.2606 12.6667 11.8367 12.6667 11.3947C12.6667 10.9527 12.4911 10.5287 12.1786 10.2162C11.866 9.90362 11.4421 9.72803 11 9.72803C10.558 9.72803 10.1341 9.90362 9.82153 10.2162C9.50897 10.5287 9.33337 10.9527 9.33337 11.3947ZM19.3334 11.3947C19.3334 11.8367 19.509 12.2606 19.8215 12.5732C20.1341 12.8858 20.558 13.0614 21 13.0614C21.4421 13.0614 21.866 12.8858 22.1786 12.5732C22.4911 12.2606 22.6667 11.8367 22.6667 11.3947C22.6667 10.9527 22.4911 10.5287 22.1786 10.2162C21.866 9.90362 21.4421 9.72803 21 9.72803C20.558 9.72803 20.1341 9.90362 19.8215 10.2162C19.509 10.5287 19.3334 10.9527 19.3334 11.3947ZM19.3334 21.3947C19.3334 21.8367 19.509 22.2606 19.8215 22.5732C20.1341 22.8858 20.558 23.0614 21 23.0614C21.4421 23.0614 21.866 22.8858 22.1786 22.5732C22.4911 22.2606 22.6667 21.8367 22.6667 21.3947C22.6667 20.9527 22.4911 20.5287 22.1786 20.2162C21.866 19.9036 21.4421 19.728 21 19.728C20.558 19.728 20.1341 19.9036 19.8215 20.2162C19.509 20.5287 19.3334 20.9527 19.3334 21.3947ZM9.33337 21.3947C9.33337 21.8367 9.50897 22.2606 9.82153 22.5732C10.1341 22.8858 10.558 23.0614 11 23.0614C11.4421 23.0614 11.866 22.8858 12.1786 22.5732C12.4911 22.2606 12.6667 21.8367 12.6667 21.3947C12.6667 20.9527 12.4911 20.5287 12.1786 20.2162C11.866 19.9036 11.4421 19.728 11 19.728C10.558 19.728 10.1341 19.9036 9.82153 20.2162C9.50897 20.5287 9.33337 20.9527 9.33337 21.3947Z"
        stroke="white" stroke-width="2" stroke-linecap="round" stroke-linejoin="round" />
</svg>