<svg width="401" height="323" viewBox="0 0 417 352" fill="none" xmlns="http://www.w3.org/2000/svg">
    <g filter="url(#filter0_b_350_18277)">
        <g filter="url(#filter1_b_350_18277)">
            <rect width="404" height="324" rx="16" fill="white" fill-opacity="0.4" />
            <rect x="0.5" y="0.5" width="403" height="323" rx="15.5" stroke="white" />
            <rect x="24" y="24" width="356" height="58.4058" rx="8" fill="white" />
            <rect x="24.5616" y="24.5616" width="354.877" height="57.2826" rx="7.43841" stroke="#E9D5E6"
                stroke-opacity="0.67" stroke-width="1.12319" />
            <rect x="32.9855" y="32.9856" width="40.4348" height="40.4348" rx="6.73913" fill="#8542C3" />
            <path
                d="M57.6956 45.6216H52.0797L47.0253 54.6071H50.9565L49.8333 60.5038L59.0996 51.2375H54.3804L57.6956 45.6216Z"
                stroke="white" stroke-width="1.68478" stroke-linecap="round" stroke-linejoin="round" />
            <path
                d="M88.3295 57.7029V47.0438H90.0671V57.7029H88.3295ZM89.775 57.7029V56.1843H94.7687V57.7029H89.775ZM89.775 53.045V51.5265H94.3599V53.045H89.775ZM89.775 48.5624V47.0438H94.6373V48.5624H89.775ZM98.4447 57.7029L95.8748 49.8327H97.6562L100.138 57.7029H98.4447ZM98.9265 57.7029V56.3157H100.839V57.7029H98.9265ZM99.6566 57.7029L101.818 49.8327H103.482L101.248 57.7029H99.6566ZM108.454 57.9657C107.773 57.9657 107.179 57.8489 106.673 57.6153C106.167 57.3816 105.753 57.075 105.432 56.6954C105.111 56.306 104.867 55.8728 104.702 55.3959C104.546 54.9091 104.468 54.4127 104.468 53.9065V53.6291C104.468 53.1132 104.546 52.6167 104.702 52.1397C104.867 51.653 105.111 51.2198 105.432 50.8402C105.753 50.4508 106.157 50.1442 106.644 49.9203C107.14 49.6867 107.714 49.5699 108.367 49.5699C109.214 49.5699 109.919 49.7548 110.484 50.1247C111.048 50.4946 111.472 50.9765 111.754 51.5703C112.037 52.1543 112.178 52.7871 112.178 53.4685V54.1547H105.198V53.0012H111.024L110.557 53.5853C110.557 53.0596 110.474 52.607 110.309 52.2273C110.143 51.838 109.9 51.5411 109.579 51.3366C109.257 51.1225 108.853 51.0154 108.367 51.0154C107.86 51.0154 107.437 51.1322 107.096 51.3659C106.756 51.5995 106.503 51.9207 106.337 52.3295C106.172 52.7384 106.089 53.2202 106.089 53.7751C106.089 54.3007 106.172 54.7729 106.337 55.1914C106.503 55.6003 106.761 55.9264 107.111 56.1697C107.461 56.4034 107.909 56.5202 108.454 56.5202C108.999 56.5202 109.447 56.4034 109.798 56.1697C110.148 55.9264 110.362 55.6441 110.44 55.3228H112.032C111.925 55.8582 111.706 56.3255 111.375 56.7246C111.053 57.1237 110.645 57.4303 110.148 57.6445C109.652 57.8586 109.087 57.9657 108.454 57.9657ZM114.021 57.7029V49.8327H115.378V53.2056H115.218C115.218 52.4269 115.32 51.7698 115.524 51.2344C115.739 50.6991 116.06 50.2951 116.488 50.0225C116.916 49.7402 117.447 49.5991 118.08 49.5991H118.153C119.126 49.5991 119.851 49.9057 120.328 50.519C120.805 51.1322 121.044 52.0278 121.044 53.2056V57.7029H119.335V52.972C119.335 52.4269 119.18 51.9888 118.868 51.6579C118.557 51.3172 118.128 51.1468 117.583 51.1468C117.028 51.1468 116.581 51.322 116.24 51.6725C115.899 52.0132 115.729 52.4707 115.729 53.045V57.7029H114.021ZM126.644 57.7905C125.992 57.7905 125.442 57.7029 124.994 57.5277C124.547 57.3524 124.206 57.0507 123.972 56.6224C123.748 56.1941 123.636 55.6149 123.636 54.8848V47.5403H125.257V55.0308C125.257 55.4397 125.364 55.756 125.578 55.9799C125.802 56.1941 126.114 56.3011 126.513 56.3011H127.827V57.7905H126.644ZM122.337 51.103V49.8327H127.827V51.103H122.337ZM135.177 57.7029V48.2995H136.929V57.7029H135.177ZM132.023 48.5916V47.0438H140.098V48.5916H132.023ZM141.241 57.7029V49.8327H142.599V53.118H142.541C142.541 51.9888 142.789 51.1468 143.286 50.592C143.782 50.0274 144.517 49.7451 145.49 49.7451H145.768V51.249H145.242C144.502 51.249 143.933 51.4486 143.534 51.8477C143.144 52.2371 142.95 52.7968 142.95 53.5269V57.7029H141.241ZM147.667 57.7029V49.8327H149.375V57.7029H147.667ZM146.513 51.1468V49.8327H149.375V51.1468H146.513ZM148.222 48.7376C147.871 48.7376 147.609 48.6451 147.433 48.4602C147.268 48.2752 147.185 48.0367 147.185 47.7447C147.185 47.4624 147.268 47.2288 147.433 47.0438C147.609 46.8491 147.871 46.7518 148.222 46.7518C148.582 46.7518 148.845 46.8491 149.01 47.0438C149.185 47.2288 149.273 47.4624 149.273 47.7447C149.273 48.0367 149.185 48.2752 149.01 48.4602C148.845 48.6451 148.582 48.7376 148.222 48.7376ZM154.929 60.7838C154.56 60.7838 154.185 60.7692 153.805 60.74C153.425 60.7108 153.07 60.6718 152.739 60.6232V59.1776C153.09 59.2263 153.46 59.2652 153.849 59.2944C154.248 59.3334 154.618 59.3528 154.959 59.3528C155.64 59.3528 156.185 59.2652 156.594 59.09C157.013 58.9148 157.314 58.6422 157.499 58.2723C157.694 57.9122 157.791 57.4401 157.791 56.856V55.3374L158.244 54.2861C158.215 55.0454 158.054 55.683 157.762 56.1989C157.48 56.7148 157.1 57.1042 156.623 57.367C156.156 57.6299 155.621 57.7613 155.017 57.7613C154.472 57.7613 153.975 57.6591 153.528 57.4547C153.08 57.2502 152.695 56.9631 152.374 56.5932C152.053 56.2233 151.805 55.7998 151.63 55.3228C151.454 54.8361 151.367 54.3202 151.367 53.7751V53.4977C151.367 52.9428 151.454 52.4269 151.63 51.9499C151.814 51.4729 152.072 51.0592 152.403 50.7088C152.734 50.3486 153.129 50.0712 153.586 49.8765C154.053 49.6818 154.564 49.5845 155.119 49.5845C155.762 49.5845 156.326 49.7256 156.813 50.0079C157.309 50.2805 157.699 50.6845 157.981 51.2198C158.263 51.7552 158.414 52.4074 158.434 53.1764L158.054 53.2202V49.8327H159.412V56.7684C159.412 57.7223 159.256 58.4914 158.945 59.0754C158.643 59.6692 158.161 60.1024 157.499 60.3749C156.847 60.6475 155.99 60.7838 154.929 60.7838ZM155.44 56.2427C155.869 56.2427 156.258 56.1503 156.609 55.9653C156.969 55.7706 157.251 55.4981 157.455 55.1476C157.67 54.7875 157.777 54.3591 157.777 53.8627V53.264C157.777 52.7773 157.665 52.3685 157.441 52.0375C157.227 51.6968 156.944 51.4389 156.594 51.2636C156.244 51.0884 155.864 51.0008 155.455 51.0008C154.988 51.0008 154.574 51.1128 154.214 51.3366C153.854 51.5508 153.572 51.8574 153.367 52.2565C153.172 52.6459 153.075 53.1034 153.075 53.6291C153.075 54.1645 153.177 54.6317 153.382 55.0308C153.586 55.4202 153.864 55.722 154.214 55.9361C154.574 56.1405 154.983 56.2427 155.44 56.2427ZM164.84 60.7838C164.47 60.7838 164.095 60.7692 163.715 60.74C163.336 60.7108 162.98 60.6718 162.649 60.6232V59.1776C163 59.2263 163.37 59.2652 163.759 59.2944C164.158 59.3334 164.528 59.3528 164.869 59.3528C165.55 59.3528 166.095 59.2652 166.504 59.09C166.923 58.9148 167.225 58.6422 167.409 58.2723C167.604 57.9122 167.701 57.4401 167.701 56.856V55.3374L168.154 54.2861C168.125 55.0454 167.964 55.683 167.672 56.1989C167.39 56.7148 167.01 57.1042 166.533 57.367C166.066 57.6299 165.531 57.7613 164.927 57.7613C164.382 57.7613 163.886 57.6591 163.438 57.4547C162.99 57.2502 162.606 56.9631 162.284 56.5932C161.963 56.2233 161.715 55.7998 161.54 55.3228C161.364 54.8361 161.277 54.3202 161.277 53.7751V53.4977C161.277 52.9428 161.364 52.4269 161.54 51.9499C161.725 51.4729 161.983 51.0592 162.314 50.7088C162.645 50.3486 163.039 50.0712 163.496 49.8765C163.964 49.6818 164.475 49.5845 165.029 49.5845C165.672 49.5845 166.236 49.7256 166.723 50.0079C167.22 50.2805 167.609 50.6845 167.891 51.2198C168.174 51.7552 168.324 52.4074 168.344 53.1764L167.964 53.2202V49.8327H169.322V56.7684C169.322 57.7223 169.167 58.4914 168.855 59.0754C168.553 59.6692 168.071 60.1024 167.409 60.3749C166.757 60.6475 165.901 60.7838 164.84 60.7838ZM165.351 56.2427C165.779 56.2427 166.168 56.1503 166.519 55.9653C166.879 55.7706 167.161 55.4981 167.366 55.1476C167.58 54.7875 167.687 54.3591 167.687 53.8627V53.264C167.687 52.7773 167.575 52.3685 167.351 52.0375C167.137 51.6968 166.855 51.4389 166.504 51.2636C166.154 51.0884 165.774 51.0008 165.365 51.0008C164.898 51.0008 164.484 51.1128 164.124 51.3366C163.764 51.5508 163.482 51.8574 163.277 52.2565C163.083 52.6459 162.985 53.1034 162.985 53.6291C162.985 54.1645 163.087 54.6317 163.292 55.0308C163.496 55.4202 163.774 55.722 164.124 55.9361C164.484 56.1405 164.893 56.2427 165.351 56.2427ZM175.173 57.9657C174.492 57.9657 173.898 57.8489 173.392 57.6153C172.886 57.3816 172.472 57.075 172.151 56.6954C171.829 56.306 171.586 55.8728 171.421 55.3959C171.265 54.9091 171.187 54.4127 171.187 53.9065V53.6291C171.187 53.1132 171.265 52.6167 171.421 52.1397C171.586 51.653 171.829 51.2198 172.151 50.8402C172.472 50.4508 172.876 50.1442 173.363 49.9203C173.859 49.6867 174.433 49.5699 175.086 49.5699C175.932 49.5699 176.638 49.7548 177.203 50.1247C177.767 50.4946 178.191 50.9765 178.473 51.5703C178.755 52.1543 178.897 52.7871 178.897 53.4685V54.1547H171.917V53.0012H177.743L177.276 53.5853C177.276 53.0596 177.193 52.607 177.028 52.2273C176.862 51.838 176.619 51.5411 176.298 51.3366C175.976 51.1225 175.572 51.0154 175.086 51.0154C174.579 51.0154 174.156 51.1322 173.815 51.3659C173.475 51.5995 173.221 51.9207 173.056 52.3295C172.891 52.7384 172.808 53.2202 172.808 53.7751C172.808 54.3007 172.891 54.7729 173.056 55.1914C173.221 55.6003 173.479 55.9264 173.83 56.1697C174.18 56.4034 174.628 56.5202 175.173 56.5202C175.718 56.5202 176.166 56.4034 176.517 56.1697C176.867 55.9264 177.081 55.6441 177.159 55.3228H178.751C178.643 55.8582 178.424 56.3255 178.094 56.7246C177.772 57.1237 177.363 57.4303 176.867 57.6445C176.371 57.8586 175.806 57.9657 175.173 57.9657ZM180.739 57.7029V49.8327H182.097V53.118H182.039C182.039 51.9888 182.287 51.1468 182.784 50.592C183.28 50.0274 184.015 49.7451 184.988 49.7451H185.266V51.249H184.74C184 51.249 183.431 51.4486 183.032 51.8477C182.642 52.2371 182.448 52.7968 182.448 53.5269V57.7029H180.739Z"
                fill="#171F27" />
            <path d="M355.851 45.3406V62.1884" stroke="#515D66" stroke-width="1.68478" stroke-linecap="round"
                stroke-linejoin="round" />
            <path d="M350.236 45.3406V62.1884" stroke="#515D66" stroke-width="1.68478" stroke-linecap="round"
                stroke-linejoin="round" />
            <rect x="24" y="91.3914" width="356" height="58.4058" rx="8" fill="white" />
            <rect x="24.5616" y="91.953" width="354.877" height="57.2826" rx="7.43841" stroke="#E9D5E6"
                stroke-opacity="0.67" stroke-width="1.12319" />
            <rect x="32.9855" y="100.377" width="40.4348" height="40.4348" rx="6.73913" fill="#27A2E9" />
            <path
                d="M48.4293 124.245V117.225C48.4293 114.589 50.5665 112.451 53.2028 112.451C55.8392 112.451 57.9764 114.589 57.9764 117.225V124.245"
                stroke="white" stroke-width="1.68478" stroke-linecap="round" stroke-linejoin="round" />
            <path d="M50.3948 127.615H56.0108" stroke="white" stroke-width="1.68478" stroke-linecap="round"
                stroke-linejoin="round" />
            <path d="M45.3405 124.245H61.0652" stroke="white" stroke-width="1.68478" stroke-linecap="round"
                stroke-linejoin="round" />
            <path
                d="M89.7896 121.604V120.071H92.0091C92.4763 120.071 92.8608 119.984 93.1626 119.809C93.4741 119.624 93.7126 119.375 93.8781 119.064C94.0435 118.743 94.1263 118.382 94.1263 117.983C94.1263 117.574 94.0435 117.214 93.8781 116.903C93.7126 116.582 93.4741 116.333 93.1626 116.158C92.8608 115.983 92.4763 115.895 92.0091 115.895H89.7896V114.362H91.8046C92.6905 114.362 93.4351 114.508 94.0387 114.8C94.6519 115.083 95.1143 115.486 95.4258 116.012C95.747 116.528 95.9077 117.146 95.9077 117.867V118.1C95.9077 118.811 95.747 119.429 95.4258 119.955C95.1143 120.48 94.6519 120.889 94.0387 121.181C93.4351 121.463 92.6905 121.604 91.8046 121.604H89.7896ZM88.3295 125.094V114.362H90.0817V125.094H88.3295ZM100.338 125.328C99.4132 125.328 98.7026 125.031 98.2061 124.437C97.7097 123.834 97.4615 122.948 97.4615 121.78V117.224H99.1698V122.013C99.1698 122.558 99.3207 122.992 99.6225 123.313C99.9242 123.624 100.333 123.78 100.849 123.78C101.375 123.78 101.803 123.615 102.134 123.284C102.475 122.943 102.645 122.481 102.645 121.897V117.224H104.353V125.094H102.995V121.736H103.171C103.171 122.524 103.064 123.186 102.849 123.722C102.645 124.247 102.338 124.646 101.929 124.919C101.53 125.192 101.024 125.328 100.411 125.328H100.338ZM109.607 125.328C108.546 125.328 107.718 125.104 107.125 124.656C106.54 124.208 106.234 123.59 106.205 122.802H107.782C107.801 123.094 107.952 123.362 108.234 123.605C108.517 123.848 108.979 123.97 109.621 123.97C110.167 123.97 110.595 123.863 110.906 123.649C111.218 123.435 111.374 123.167 111.374 122.846C111.374 122.554 111.257 122.325 111.023 122.159C110.799 121.984 110.415 121.867 109.87 121.809L109.096 121.736C108.288 121.648 107.645 121.41 107.168 121.02C106.701 120.631 106.467 120.105 106.467 119.443C106.467 118.918 106.599 118.475 106.862 118.115C107.125 117.755 107.485 117.477 107.942 117.282C108.409 117.088 108.945 116.99 109.548 116.99C110.483 116.99 111.237 117.2 111.812 117.618C112.386 118.027 112.683 118.631 112.702 119.429H111.14C111.12 119.127 110.979 118.874 110.716 118.67C110.454 118.465 110.064 118.363 109.548 118.363C109.062 118.363 108.687 118.46 108.424 118.655C108.171 118.85 108.044 119.098 108.044 119.4C108.044 119.672 108.142 119.886 108.336 120.042C108.531 120.198 108.848 120.3 109.286 120.349L110.059 120.422C110.945 120.519 111.646 120.767 112.162 121.166C112.688 121.556 112.951 122.101 112.951 122.802C112.951 123.308 112.809 123.751 112.527 124.131C112.245 124.51 111.851 124.807 111.344 125.021C110.848 125.226 110.269 125.328 109.607 125.328ZM114.819 125.094V114.435H116.527V120.728H116.177C116.177 119.95 116.274 119.283 116.469 118.728C116.673 118.163 116.98 117.735 117.389 117.443C117.807 117.141 118.333 116.99 118.966 116.99H119.039C119.964 116.99 120.66 117.302 121.127 117.925C121.604 118.548 121.842 119.443 121.842 120.612V125.094H120.134V120.363C120.134 119.799 119.968 119.356 119.638 119.035C119.316 118.704 118.898 118.538 118.382 118.538C117.827 118.538 117.379 118.723 117.038 119.093C116.698 119.463 116.527 119.95 116.527 120.553V125.094H114.819Z"
                fill="#171F27" />
            <path d="M355.851 112.732V129.58" stroke="#515D66" stroke-width="1.68478" stroke-linecap="round"
                stroke-linejoin="round" />
            <path d="M350.236 112.732V129.58" stroke="#515D66" stroke-width="1.68478" stroke-linecap="round"
                stroke-linejoin="round" />
            <rect x="24" y="158.783" width="356" height="58.4058" rx="8" fill="white" />
            <rect x="24.5616" y="159.344" width="354.877" height="57.2826" rx="7.43841" stroke="#E9D5E6"
                stroke-opacity="0.67" stroke-width="1.12319" />
            <rect x="32.9855" y="167.768" width="40.4348" height="40.4348" rx="6.73913" fill="#27A2E9" />
            <path
                d="M53.7644 195.006C57.9516 195.006 61.3459 191.611 61.3459 187.424C61.3459 183.237 57.9516 179.843 53.7644 179.843C49.5773 179.843 46.1829 183.237 46.1829 187.424C46.1829 188.661 46.4788 189.828 47.0036 190.859L45.3405 195.848L50.6399 194.334C51.5927 194.766 52.6505 195.006 53.7644 195.006Z"
                stroke="white" stroke-width="1.68478" stroke-linecap="round" stroke-linejoin="round" />
            <path
                d="M91.8777 192.748C90.9626 192.748 90.1839 192.602 89.5414 192.31C88.9087 192.009 88.4268 191.6 88.0959 191.084C87.7649 190.558 87.5994 189.964 87.5994 189.302H89.3224C89.3224 189.604 89.4051 189.901 89.5706 190.193C89.7361 190.485 90.0038 190.729 90.3737 190.923C90.7436 191.108 91.2449 191.201 91.8777 191.201C92.452 191.201 92.9241 191.118 93.294 190.952C93.6736 190.787 93.9511 190.568 94.1263 190.295C94.3112 190.023 94.4037 189.721 94.4037 189.39C94.4037 188.981 94.2285 188.65 93.8781 188.397C93.5276 188.134 93.002 187.974 92.3011 187.915L91.2352 187.813C90.252 187.735 89.4684 187.433 88.8844 186.908C88.3003 186.372 88.0083 185.672 88.0083 184.805C88.0083 184.143 88.164 183.569 88.4755 183.082C88.7967 182.596 89.2445 182.216 89.8188 181.943C90.3932 181.661 91.06 181.52 91.8192 181.52C92.598 181.52 93.2745 181.661 93.8488 181.943C94.4232 182.216 94.8661 182.605 95.1776 183.111C95.4988 183.608 95.6594 184.202 95.6594 184.893H93.9365C93.9365 184.581 93.8586 184.289 93.7028 184.017C93.5568 183.734 93.3281 183.506 93.0166 183.33C92.7051 183.155 92.306 183.068 91.8192 183.068C91.352 183.068 90.9626 183.15 90.6511 183.316C90.3494 183.481 90.1206 183.696 89.9649 183.958C89.8091 184.221 89.7312 184.503 89.7312 184.805C89.7312 185.165 89.8675 185.487 90.1401 185.769C90.4126 186.041 90.8312 186.202 91.3958 186.251L92.4471 186.338C93.1967 186.397 93.844 186.557 94.3891 186.82C94.944 187.073 95.3723 187.414 95.674 187.842C95.9855 188.271 96.1413 188.787 96.1413 189.39C96.1413 190.052 95.9612 190.636 95.601 191.142C95.2506 191.648 94.7541 192.043 94.1117 192.325C93.4789 192.607 92.7343 192.748 91.8777 192.748ZM98.2824 192.486V181.827H100.648L103.568 188.558H103.816L106.707 181.827H109.102V192.486H107.365V183.389L107.54 183.418L104.59 190.295H102.663L99.6842 183.418L99.8886 183.389V192.486H98.2824ZM115.505 192.748C114.59 192.748 113.811 192.602 113.169 192.31C112.536 192.009 112.054 191.6 111.723 191.084C111.392 190.558 111.227 189.964 111.227 189.302H112.95C112.95 189.604 113.033 189.901 113.198 190.193C113.364 190.485 113.631 190.729 114.001 190.923C114.371 191.108 114.872 191.201 115.505 191.201C116.08 191.201 116.552 191.118 116.922 190.952C117.301 190.787 117.579 190.568 117.754 190.295C117.939 190.023 118.031 189.721 118.031 189.39C118.031 188.981 117.856 188.65 117.506 188.397C117.155 188.134 116.63 187.974 115.929 187.915L114.863 187.813C113.88 187.735 113.096 187.433 112.512 186.908C111.928 186.372 111.636 185.672 111.636 184.805C111.636 184.143 111.792 183.569 112.103 183.082C112.424 182.596 112.872 182.216 113.446 181.943C114.021 181.661 114.688 181.52 115.447 181.52C116.226 181.52 116.902 181.661 117.476 181.943C118.051 182.216 118.494 182.605 118.805 183.111C119.126 183.608 119.287 184.202 119.287 184.893H117.564C117.564 184.581 117.486 184.289 117.33 184.017C117.184 183.734 116.956 183.506 116.644 183.33C116.333 183.155 115.934 183.068 115.447 183.068C114.98 183.068 114.59 183.15 114.279 183.316C113.977 183.481 113.748 183.696 113.592 183.958C113.437 184.221 113.359 184.503 113.359 184.805C113.359 185.165 113.495 185.487 113.768 185.769C114.04 186.041 114.459 186.202 115.023 186.251L116.075 186.338C116.824 186.397 117.472 186.557 118.017 186.82C118.571 187.073 119 187.414 119.302 187.842C119.613 188.271 119.769 188.787 119.769 189.39C119.769 190.052 119.589 190.636 119.229 191.142C118.878 191.648 118.382 192.043 117.739 192.325C117.106 192.607 116.362 192.748 115.505 192.748Z"
                fill="#171F27" />
            <path d="M355.851 180.123V196.971" stroke="#515D66" stroke-width="1.68478" stroke-linecap="round"
                stroke-linejoin="round" />
            <path d="M350.236 180.123V196.971" stroke="#515D66" stroke-width="1.68478" stroke-linecap="round"
                stroke-linejoin="round" />
            <rect x="24" y="226.174" width="356" height="58.4349" rx="8" fill="#F8F9FA" />
            <rect x="24.5616" y="226.735" width="354.877" height="57.3117" rx="7.43841" stroke="#E9D5E6"
                stroke-opacity="0.67" stroke-width="1.12319" stroke-dasharray="4.49 4.49" />
        </g>
        <g filter="url(#filter2_d_350_18277)">
            <g clip-path="url(#clip0_350_18277)">
                <rect x="44" y="243.267" width="329.92" height="58.4158" rx="8" transform="rotate(-3 44 243.267)"
                    fill="white" />
                <rect x="53.4451" y="251.771" width="40.4417" height="40.4417" rx="6.74028"
                    transform="rotate(-3 53.4451 251.771)" fill="#27A2E9" />
                <path d="M66.8156 265.413L81.9605 264.619L82.5778 276.398L67.4329 277.192L66.8156 265.413Z"
                    stroke="white" stroke-width="1.68507" stroke-linecap="round" stroke-linejoin="round" />
                <path d="M66.8156 265.413L74.6967 270.906L81.9605 264.619" stroke="white" stroke-width="1.68507"
                    stroke-linecap="round" stroke-linejoin="round" />
                <path
                    d="M110.016 273.561L109.458 262.915L111.194 262.824L111.752 273.47L110.016 273.561ZM111.46 273.485L111.381 271.968L116.368 271.707L116.448 273.224L111.46 273.485ZM111.216 268.833L111.137 267.316L115.716 267.076L115.796 268.593L111.216 268.833ZM110.982 264.356L110.902 262.839L115.759 262.584L115.838 264.101L110.982 264.356ZM118.558 273.113L118.146 265.253L119.502 265.181L119.679 268.565L119.519 268.573C119.478 267.796 119.541 267.134 119.707 266.589C119.883 266.044 120.163 265.62 120.547 265.317C120.941 265.013 121.439 264.846 122.042 264.814L122.115 264.811C122.727 264.778 123.24 264.893 123.654 265.154C124.077 265.415 124.4 265.807 124.622 266.332C124.854 266.856 124.991 267.507 125.032 268.284L124.565 268.309C124.524 267.531 124.592 266.869 124.768 266.324C124.944 265.779 125.229 265.354 125.623 265.051C126.016 264.747 126.514 264.58 127.117 264.548L127.19 264.545C127.803 264.512 128.32 264.627 128.743 264.887C129.167 265.148 129.494 265.54 129.726 266.064C129.959 266.588 130.095 267.239 130.136 268.017L130.371 272.494L128.664 272.584L128.417 267.858C128.387 267.285 128.217 266.845 127.909 266.54C127.61 266.234 127.208 266.094 126.702 266.12C126.177 266.148 125.768 266.34 125.475 266.696C125.181 267.043 125.05 267.513 125.081 268.106L125.325 272.759L123.604 272.849L123.356 268.124C123.326 267.55 123.162 267.11 122.863 266.804C122.564 266.498 122.162 266.358 121.656 266.385C121.131 266.412 120.717 266.605 120.414 266.962C120.12 267.309 119.989 267.778 120.02 268.372L120.264 273.024L118.558 273.113ZM137.483 272.121L137.359 269.773L137.082 269.788L136.943 267.134C136.918 266.648 136.772 266.285 136.506 266.045C136.24 265.806 135.859 265.699 135.363 265.725C135.091 265.739 134.79 265.76 134.46 265.787C134.13 265.814 133.805 265.846 133.485 265.882C133.174 265.908 132.898 265.937 132.656 265.969L132.579 264.496C132.792 264.465 133.024 264.439 133.276 264.416C133.538 264.382 133.805 264.354 134.076 264.33C134.358 264.305 134.625 264.287 134.878 264.273C135.675 264.231 136.341 264.299 136.877 264.476C137.413 264.652 137.819 264.958 138.095 265.392C138.38 265.815 138.543 266.397 138.581 267.136L138.839 272.05L137.483 272.121ZM134.941 272.459C134.367 272.489 133.862 272.418 133.424 272.246C132.985 272.065 132.639 271.79 132.386 271.423C132.132 271.047 131.991 270.591 131.963 270.056C131.934 269.492 132.041 269.019 132.284 268.636C132.537 268.252 132.906 267.955 133.392 267.744C133.879 267.533 134.467 267.41 135.157 267.374L137.126 267.27L137.185 268.393L135.172 268.499C134.657 268.526 134.27 268.673 134.011 268.94C133.751 269.197 133.632 269.525 133.653 269.924C133.674 270.322 133.827 270.636 134.112 270.865C134.396 271.084 134.796 271.18 135.311 271.153C135.613 271.137 135.897 271.069 136.163 270.948C136.429 270.817 136.643 270.615 136.804 270.344C136.975 270.071 137.058 269.697 137.053 269.219L137.52 269.765C137.5 270.322 137.389 270.796 137.185 271.186C136.99 271.567 136.704 271.87 136.326 272.094C135.957 272.309 135.495 272.43 134.941 272.459ZM141.596 271.906L141.184 264.045L142.89 263.956L143.302 271.816L141.596 271.906ZM140.101 265.418L140.032 264.106L142.89 263.956L142.959 265.268L140.101 265.418ZM141.681 262.922C141.331 262.941 141.064 262.862 140.879 262.686C140.704 262.51 140.609 262.277 140.593 261.985C140.579 261.703 140.649 261.465 140.805 261.272C140.97 261.068 141.227 260.957 141.577 260.939C141.937 260.92 142.204 261.003 142.38 261.189C142.564 261.365 142.664 261.594 142.679 261.876C142.694 262.167 142.619 262.41 142.454 262.604C142.298 262.797 142.041 262.903 141.681 262.922ZM145.933 271.679L145.375 261.032L147.096 260.942L147.654 271.588L145.933 271.679ZM144.408 262.399L144.34 261.087L147.096 260.942L147.165 262.255L144.408 262.399Z"
                    fill="#171F27" />
                <path d="M350.465 248.579L351.347 265.406" stroke="#515D66" stroke-width="1.68507"
                    stroke-linecap="round" stroke-linejoin="round" />
                <path d="M344.856 248.873L345.738 265.701" stroke="#515D66" stroke-width="1.68507"
                    stroke-linecap="round" stroke-linejoin="round" />
            </g>
            <rect x="44.5903" y="243.798" width="328.797" height="57.2924" rx="7.43831"
                transform="rotate(-3 44.5903 243.798)" stroke="#E9D5E6" stroke-opacity="0.67" stroke-width="1.12338" />
        </g>
    </g>
    <defs>
        <filter id="filter0_b_350_18277" x="-4" y="-4" width="412" height="332" filterUnits="userSpaceOnUse"
            color-interpolation-filters="sRGB">
            <feFlood flood-opacity="0" result="BackgroundImageFix" />
            <feGaussianBlur in="BackgroundImageFix" stdDeviation="2" />
            <feComposite in2="SourceAlpha" operator="in" result="effect1_backgroundBlur_350_18277" />
            <feBlend mode="normal" in="SourceGraphic" in2="effect1_backgroundBlur_350_18277" result="shape" />
        </filter>
        <filter id="filter1_b_350_18277" x="-50" y="-50" width="504" height="424" filterUnits="userSpaceOnUse"
            color-interpolation-filters="sRGB">
            <feFlood flood-opacity="0" result="BackgroundImageFix" />
            <feGaussianBlur in="BackgroundImageFix" stdDeviation="25" />
            <feComposite in2="SourceAlpha" operator="in" result="effect1_backgroundBlur_350_18277" />
            <feBlend mode="normal" in="SourceGraphic" in2="effect1_backgroundBlur_350_18277" result="shape" />
        </filter>
        <filter id="filter2_d_350_18277" x="4" y="196" width="412.525" height="155.602" filterUnits="userSpaceOnUse"
            color-interpolation-filters="sRGB">
            <feFlood flood-opacity="0" result="BackgroundImageFix" />
            <feColorMatrix in="SourceAlpha" type="matrix" values="0 0 0 0 0 0 0 0 0 0 0 0 0 0 0 0 0 0 127 0"
                result="hardAlpha" />
            <feOffset dy="10" />
            <feGaussianBlur stdDeviation="20" />
            <feColorMatrix type="matrix" values="0 0 0 0 0.418829 0 0 0 0 0.31784 0 0 0 0 0.435269 0 0 0 0.1 0" />
            <feBlend mode="normal" in2="BackgroundImageFix" result="effect1_dropShadow_350_18277" />
            <feBlend mode="normal" in="SourceGraphic" in2="effect1_dropShadow_350_18277" result="shape" />
        </filter>
        <clipPath id="clip0_350_18277">
            <rect x="44" y="243.267" width="329.92" height="58.4158" rx="8" transform="rotate(-3 44 243.267)"
                fill="white" />
        </clipPath>
    </defs>
</svg>