<svg xmlns="http://www.w3.org/2000/svg" width="40" height="40" viewBox="0 0 40 40" fill="none">
    <g clip-path="url(#clip0_358_6942)">
        <path
            d="M40 5.76482C40 6.84149 39.3033 7.73149 38.0983 7.73149C36.8933 7.73149 36.195 6.84149 36.195 5.76482C36.195 4.68649 36.8933 3.79816 38.0983 3.79816C39.3033 3.79816 40 4.68649 40 5.76482ZM39.62 5.76482C39.62 4.87649 38.9866 4.17982 38.0983 4.17982C37.21 4.17982 36.5766 4.81316 36.5766 5.76316C36.5766 6.65149 37.21 7.34982 38.0983 7.34982C39.0483 7.34982 39.62 6.65149 39.62 5.76482ZM37.3367 4.87649H38.1616C38.605 4.87649 38.9216 5.12982 38.9216 5.50982C38.9216 5.76482 38.795 5.89149 38.605 6.01816L38.9216 6.46149V6.52482H38.4783L38.1616 6.08149H37.78V6.52482H37.3367V4.87649ZM38.1616 5.25649H37.78V5.70149H38.1616C38.3516 5.70149 38.415 5.63816 38.415 5.51149C38.4783 5.38316 38.3516 5.25649 38.1616 5.25649ZM12.67 20.6665C12.743 20.4193 12.7855 20.164 12.7966 19.9065C12.7966 19.7165 12.7333 19.5265 12.7333 19.3365C12.5433 18.7648 12.2266 18.2582 11.6566 17.9398L3.53998 13.3115C2.39831 12.6782 0.939979 13.0582 0.306646 14.1998C-0.328354 15.3415 0.0516462 16.7998 1.19331 17.4332L5.69498 20.0332L1.19331 22.6332C0.0516462 23.2665 -0.328354 24.7265 0.304979 25.8665C0.938313 27.0082 2.39831 27.3898 3.53831 26.7548L11.5916 22.1265C12.1633 21.6815 12.5433 21.2382 12.67 20.6665ZM14.89 25.0432C14.4466 24.9798 13.94 25.1065 13.495 25.3598L5.44165 29.9882C4.29998 30.6215 3.91998 32.0815 4.55498 33.2215C5.18831 34.3648 6.64665 34.7448 7.78831 34.1098L12.29 31.5098V36.7098C12.29 38.0432 13.3683 39.0565 14.7 39.0565C16.0316 39.0565 17.045 37.9782 17.045 36.7098V27.3898C17.045 26.1215 16.095 25.1065 14.89 25.0432ZM23.1333 14.8965C23.5766 14.9598 24.0833 14.8332 24.5283 14.5798L32.5816 9.95149C33.7233 9.31816 34.1033 7.85816 33.4683 6.71816C32.835 5.57482 31.3766 5.19482 30.235 5.82982L25.7333 8.42982V3.29149C25.7333 1.95982 24.655 0.944824 23.3233 0.944824C21.9916 0.944824 20.9133 1.95982 20.9133 3.29149V12.5498C20.9133 13.8165 21.9283 14.8348 23.1333 14.8965ZM5.44165 9.94982L13.495 14.5782C13.9383 14.8315 14.3833 14.8948 14.89 14.8948C16.095 14.8315 17.1083 13.7548 17.1083 12.5498V3.29149C17.1083 1.95982 16.0316 0.944824 14.7633 0.944824C13.4316 0.944824 12.3533 2.02316 12.3533 3.29149V8.49149L7.85165 5.89149C6.70998 5.25816 5.25165 5.63816 4.61831 6.77982C3.91998 7.85649 4.30165 9.31482 5.44165 9.94982ZM20.5966 19.9682C20.589 19.8023 20.5215 19.6448 20.4066 19.5248L19.4566 18.5732C19.4007 18.5111 19.3319 18.462 19.255 18.4292C19.1782 18.3964 19.0952 18.3807 19.0116 18.3832C18.8458 18.3908 18.6883 18.4583 18.5683 18.5732L17.6166 19.5232C17.5013 19.6434 17.4337 19.8016 17.4266 19.9682C17.4266 20.0948 17.49 20.2848 17.6166 20.4132L18.5666 21.3632C18.6226 21.4253 18.6913 21.4744 18.7682 21.5072C18.845 21.5401 18.9281 21.5557 19.0116 21.5532C19.1776 21.5458 19.3352 21.4783 19.455 21.3632L20.4066 20.4132C20.5219 20.2928 20.5894 20.1346 20.5966 19.9682ZM23.26 20.8565L19.9 24.2165C19.835 24.2798 19.645 24.4065 19.5183 24.4065H18.505C18.3385 24.3994 18.1803 24.3318 18.06 24.2165L14.7 20.8565C14.6202 20.7449 14.5761 20.6119 14.5733 20.4748V19.4615C14.5733 19.3348 14.6366 19.1448 14.7633 19.0165L18.1233 15.6565C18.2435 15.541 18.4018 15.4734 18.5683 15.4665H19.5816C19.7482 15.4734 19.9065 15.541 20.0266 15.6565L23.3866 19.0165C23.4486 19.0725 23.4976 19.1413 23.5304 19.2182C23.5632 19.295 23.579 19.378 23.5766 19.4615V20.4748C23.45 20.6032 23.3866 20.7915 23.26 20.8565ZM32.5816 29.9232L24.5283 25.2948C24.085 25.0415 23.5783 24.9782 23.1333 25.0415C21.9283 25.1048 20.9133 26.1815 20.9133 27.3882V36.6448C20.9133 37.9782 21.9916 38.9915 23.26 38.9915C24.5916 38.9915 25.67 37.9132 25.67 36.6448V31.4448L30.17 34.0448C31.3133 34.6782 32.7716 34.2982 33.405 33.1565C34.1033 32.0798 33.7216 30.6215 32.5816 29.9232ZM36.83 17.3682L32.3283 19.9682L36.8283 22.5682C37.9716 23.2015 38.3516 24.6615 37.7166 25.8015C37.0833 26.9432 35.625 27.3232 34.4833 26.6898L26.43 22.0598C25.9377 21.7431 25.5598 21.277 25.3516 20.7298C25.29 20.4748 25.225 20.2215 25.225 19.9682C25.225 19.7782 25.29 19.5882 25.29 19.3982C25.48 18.8265 25.86 18.3198 26.3666 18.0032L34.42 13.3732C35.5616 12.7398 37.02 13.1198 37.6533 14.2615C38.415 15.2765 37.97 16.7348 36.83 17.3682Z"
            fill="white" />
    </g>
    <defs>
        <clipPath id="clip0_358_6942">
            <rect width="40" height="40" fill="white" />
        </clipPath>
    </defs>
</svg>