<svg width="404" height="324" viewBox="0 0 404 324" fill="none" xmlns="http://www.w3.org/2000/svg">
    <g filter="url(#filter0_b_350_18313)">
        <!-- <rect width="404" height="324" fill="white" rx="13.8804" fill-opacity="0.4" /> -->
        <!-- <rect x="0.5" y="0.5" width="404" height="324" rx="13.3804" stroke="white" /> -->
        <!-- <rect x="110.042" y="64.5017" width="183.916" height="45.8804" rx="6.94021" fill="white" /> -->
        <rect x="110.476" y="64.9355" width="183.048" height="45.0129" rx="6.50645" stroke="#E9D5E6"
            stroke-opacity="0.67" stroke-width="0.867527" />
        <rect x="110.042" y="64.8862" width="45.1114" height="45.1114" rx="6.94021" fill="#F4AC07" />
        <path d="M125.369 80.2126L132.598 87.442V95.539" stroke="white" stroke-width="1.30129" stroke-linecap="round"
            stroke-linejoin="round" />
        <path d="M139.827 80.2126L134.333 85.707" stroke="white" stroke-width="1.30129" stroke-linecap="round"
            stroke-linejoin="round" />
        <path d="M130.285 80.2126H125.369V85.1286" stroke="white" stroke-width="1.30129" stroke-linecap="round"
            stroke-linejoin="round" />
        <path d="M134.911 80.2126H139.827V85.1286" stroke="white" stroke-width="1.30129" stroke-linecap="round"
            stroke-linejoin="round" />
        <path
            d="M170.139 84.4419V76.2091H171.481V84.4419H170.139ZM171.256 84.4419V83.269H175.113V84.4419H171.256ZM171.256 80.8443V79.6714H174.797V80.8443H171.256ZM171.256 77.382V76.2091H175.011V77.382H171.256ZM176.034 84.4419L178.109 81.2277L178.064 81.4645L176.124 78.3631H177.568L178.91 80.5736H179.079L180.342 78.3631H181.695L179.857 81.4194L179.891 81.2052L182.067 84.4419H180.624L179.045 82.0623H178.887L177.387 84.4419H176.034ZM183.22 86.6975V78.3631H184.269V80.9909L184.066 80.9796C184.104 80.3405 184.239 79.8142 184.472 79.4007C184.705 78.9872 185.013 78.6789 185.397 78.4759C185.78 78.2729 186.201 78.1714 186.66 78.1714C187.096 78.1714 187.491 78.2541 187.844 78.4195C188.197 78.5774 188.502 78.7992 188.758 79.0849C189.013 79.3706 189.205 79.7014 189.333 80.0774C189.468 80.4533 189.536 80.8593 189.536 81.2954V81.5097C189.536 81.9382 189.468 82.3442 189.333 82.7277C189.197 83.1036 189.002 83.4344 188.746 83.7201C188.491 84.0058 188.186 84.2314 187.833 84.3968C187.479 84.5622 187.085 84.6449 186.649 84.6449C186.205 84.6449 185.792 84.5509 185.408 84.3629C185.025 84.175 184.709 83.8742 184.461 83.4607C184.213 83.0472 184.074 82.5096 184.043 81.848L184.54 82.6826V86.6975H183.22ZM186.367 83.5058C186.735 83.5058 187.058 83.4194 187.337 83.2464C187.615 83.066 187.829 82.8179 187.979 82.5021C188.137 82.1788 188.216 81.8104 188.216 81.3969C188.216 80.9834 188.137 80.6187 187.979 80.3029C187.829 79.9871 187.615 79.7428 187.337 79.5699C187.066 79.3894 186.743 79.2992 186.367 79.2992C186.036 79.2992 185.728 79.3744 185.442 79.5248C185.156 79.6751 184.927 79.8932 184.754 80.1789C184.581 80.4571 184.495 80.7954 184.495 81.1939V81.6788C184.495 82.0623 184.581 82.3931 184.754 82.6713C184.934 82.9419 185.167 83.1487 185.453 83.2916C185.739 83.4344 186.043 83.5058 186.367 83.5058ZM193.701 84.6449C193.175 84.6449 192.716 84.5547 192.325 84.3742C191.934 84.1938 191.615 83.9569 191.367 83.6637C191.118 83.363 190.931 83.0284 190.803 82.66C190.682 82.2841 190.622 81.9006 190.622 81.5097V81.2954C190.622 80.8969 190.682 80.5134 190.803 80.145C190.931 79.7691 191.118 79.4345 191.367 79.1413C191.615 78.8406 191.927 78.6037 192.303 78.4308C192.686 78.2504 193.13 78.1601 193.633 78.1601C194.288 78.1601 194.833 78.303 195.269 78.5887C195.705 78.8744 196.032 79.2466 196.25 79.7052C196.468 80.1563 196.577 80.645 196.577 81.1713V81.7014H191.186V80.8104H195.686L195.325 81.2615C195.325 80.8555 195.261 80.5059 195.133 80.2127C195.006 79.912 194.818 79.6826 194.569 79.5248C194.321 79.3593 194.009 79.2766 193.633 79.2766C193.242 79.2766 192.915 79.3669 192.652 79.5473C192.389 79.7278 192.194 79.9759 192.066 80.2916C191.938 80.6074 191.874 80.9796 191.874 81.4082C191.874 81.8142 191.938 82.1788 192.066 82.5021C192.194 82.8179 192.393 83.0698 192.664 83.2577C192.934 83.4382 193.28 83.5284 193.701 83.5284C194.122 83.5284 194.468 83.4382 194.739 83.2577C195.009 83.0698 195.175 82.8517 195.235 82.6036H196.464C196.381 83.0171 196.212 83.378 195.957 83.6863C195.709 83.9945 195.393 84.2314 195.009 84.3968C194.626 84.5622 194.19 84.6449 193.701 84.6449ZM198 84.4419V78.3631H199.049V80.9006H199.004C199.004 80.0285 199.196 79.3781 199.579 78.9496C199.963 78.5135 200.53 78.2955 201.282 78.2955H201.496V79.4571H201.09C200.519 79.4571 200.079 79.6112 199.771 79.9195C199.47 80.2202 199.32 80.6525 199.32 81.2164V84.4419H198ZM202.963 84.4419V78.3631H204.283V84.4419H202.963ZM202.072 79.3781V78.3631H204.283V79.3781H202.072ZM203.392 77.5173C203.121 77.5173 202.918 77.4459 202.783 77.303C202.655 77.1602 202.591 76.976 202.591 76.7504C202.591 76.5324 202.655 76.3519 202.783 76.2091C202.918 76.0587 203.121 75.9835 203.392 75.9835C203.67 75.9835 203.873 76.0587 204.001 76.2091C204.136 76.3519 204.204 76.5324 204.204 76.7504C204.204 76.976 204.136 77.1602 204.001 77.303C203.873 77.4459 203.67 77.5173 203.392 77.5173ZM206.249 84.4419V78.3631H207.298V80.9796H207.174C207.174 80.3781 207.249 79.8706 207.4 79.4571C207.558 79.0436 207.791 78.7278 208.099 78.5097C208.415 78.2917 208.806 78.1827 209.272 78.1827H209.328C209.802 78.1827 210.193 78.2917 210.501 78.5097C210.817 78.7278 211.05 79.0436 211.2 79.4571C211.358 79.8706 211.437 80.3781 211.437 80.9796H211.076C211.076 80.3781 211.155 79.8706 211.313 79.4571C211.471 79.0436 211.708 78.7278 212.024 78.5097C212.34 78.2917 212.73 78.1827 213.197 78.1827H213.253C213.727 78.1827 214.121 78.2917 214.437 78.5097C214.753 78.7278 214.99 79.0436 215.148 79.4571C215.306 79.8706 215.385 80.3781 215.385 80.9796V84.4419H214.065V80.7879C214.065 80.3443 213.952 79.9984 213.727 79.7503C213.509 79.5022 213.204 79.3781 212.813 79.3781C212.407 79.3781 212.084 79.5097 211.843 79.7729C211.603 80.0285 211.482 80.3856 211.482 80.8443V84.4419H210.152V80.7879C210.152 80.3443 210.043 79.9984 209.825 79.7503C209.607 79.5022 209.302 79.3781 208.911 79.3781C208.505 79.3781 208.178 79.5097 207.93 79.7729C207.689 80.0285 207.569 80.3856 207.569 80.8443V84.4419H206.249ZM219.869 84.6449C219.343 84.6449 218.884 84.5547 218.493 84.3742C218.102 84.1938 217.783 83.9569 217.535 83.6637C217.287 83.363 217.099 83.0284 216.971 82.66C216.851 82.2841 216.79 81.9006 216.79 81.5097V81.2954C216.79 80.8969 216.851 80.5134 216.971 80.145C217.099 79.7691 217.287 79.4345 217.535 79.1413C217.783 78.8406 218.095 78.6037 218.471 78.4308C218.854 78.2504 219.298 78.1601 219.802 78.1601C220.456 78.1601 221.001 78.303 221.437 78.5887C221.873 78.8744 222.2 79.2466 222.418 79.7052C222.636 80.1563 222.745 80.645 222.745 81.1713V81.7014H217.354V80.8104H221.854L221.493 81.2615C221.493 80.8555 221.429 80.5059 221.302 80.2127C221.174 79.912 220.986 79.6826 220.738 79.5248C220.49 79.3593 220.177 79.2766 219.802 79.2766C219.411 79.2766 219.084 79.3669 218.82 79.5473C218.557 79.7278 218.362 79.9759 218.234 80.2916C218.106 80.6074 218.042 80.9796 218.042 81.4082C218.042 81.8142 218.106 82.1788 218.234 82.5021C218.362 82.8179 218.561 83.0698 218.832 83.2577C219.102 83.4382 219.448 83.5284 219.869 83.5284C220.29 83.5284 220.636 83.4382 220.907 83.2577C221.177 83.0698 221.343 82.8517 221.403 82.6036H222.632C222.55 83.0171 222.38 83.378 222.125 83.6863C221.877 83.9945 221.561 84.2314 221.177 84.3968C220.794 84.5622 220.358 84.6449 219.869 84.6449ZM224.168 84.4419V78.3631H225.217V80.9683H225.093C225.093 80.3668 225.172 79.8593 225.33 79.4458C225.495 79.0323 225.744 78.7203 226.074 78.5097C226.405 78.2917 226.815 78.1827 227.304 78.1827H227.36C228.112 78.1827 228.672 78.4195 229.041 78.8932C229.409 79.3669 229.593 80.0586 229.593 80.9683V84.4419H228.274V80.7879C228.274 80.3668 228.153 80.0285 227.913 79.7729C227.672 79.5097 227.341 79.3781 226.92 79.3781C226.492 79.3781 226.146 79.5135 225.883 79.7841C225.62 80.0473 225.488 80.4007 225.488 80.8443V84.4419H224.168ZM233.919 84.5096C233.415 84.5096 232.99 84.4419 232.644 84.3066C232.299 84.1712 232.035 83.9382 231.855 83.6073C231.682 83.2765 231.596 82.8292 231.596 82.2653V76.5925H232.847V82.378C232.847 82.6938 232.93 82.9382 233.096 83.1111C233.268 83.2765 233.509 83.3592 233.817 83.3592H234.832V84.5096H233.919ZM230.592 79.3443V78.3631H234.832V79.3443H230.592Z"
            fill="#171F27" />
        <path
            d="M170.163 99.4419V91.8007H171.183V99.4419H170.163ZM174.858 99.4419L172.339 96.0585H173.536L176.097 99.4419H174.858ZM170.798 96.6936V95.7879H172.839C173.158 95.7879 173.432 95.7219 173.661 95.5901C173.89 95.4582 174.067 95.2778 174.192 95.0487C174.317 94.8128 174.379 94.5456 174.379 94.2471C174.379 93.9487 174.317 93.685 174.192 93.456C174.067 93.22 173.89 93.0361 173.661 92.9042C173.432 92.7654 173.158 92.696 172.839 92.696H170.798V91.8007H172.651C173.206 91.8007 173.692 91.884 174.109 92.0506C174.525 92.2171 174.848 92.4739 175.077 92.8209C175.306 93.1679 175.42 93.6156 175.42 94.1639V94.3304C175.42 94.8787 175.302 95.3263 175.066 95.6734C174.837 96.0204 174.515 96.2772 174.098 96.4437C173.689 96.6103 173.206 96.6936 172.651 96.6936H170.798ZM179.568 99.6293C179.082 99.6293 178.662 99.546 178.308 99.3794C177.954 99.2129 177.666 98.9943 177.444 98.7236C177.222 98.446 177.056 98.1371 176.945 97.7971C176.841 97.457 176.788 97.11 176.788 96.756V96.5686C176.788 96.2078 176.841 95.8573 176.945 95.5172C177.056 95.1771 177.222 94.8718 177.444 94.6011C177.666 94.3235 177.948 94.1049 178.288 93.9452C178.635 93.7787 179.041 93.6954 179.506 93.6954C180.109 93.6954 180.606 93.8273 180.994 94.091C181.39 94.3478 181.681 94.6809 181.869 95.0904C182.063 95.4999 182.16 95.9371 182.16 96.4021V96.8497H177.226V96.1002H181.432L181.202 96.5062C181.202 96.1106 181.14 95.7705 181.015 95.486C180.89 95.1945 180.703 94.9689 180.453 94.8093C180.203 94.6497 179.887 94.5699 179.506 94.5699C179.11 94.5699 178.78 94.6601 178.517 94.8405C178.26 95.021 178.065 95.2674 177.934 95.5797C177.809 95.892 177.746 96.2529 177.746 96.6623C177.746 97.0579 177.809 97.4154 177.934 97.7346C178.065 98.0469 178.267 98.2968 178.537 98.4841C178.808 98.6646 179.152 98.7548 179.568 98.7548C180.005 98.7548 180.359 98.6577 180.63 98.4633C180.908 98.269 181.074 98.0434 181.13 97.7867H182.067C181.99 98.1684 181.838 98.498 181.608 98.7756C181.379 99.0532 181.091 99.2649 180.744 99.4107C180.397 99.5564 180.005 99.6293 179.568 99.6293ZM183.579 99.4419V93.8828H184.37V96.2667H184.245C184.245 95.7254 184.315 95.2674 184.454 94.8926C184.599 94.5109 184.815 94.2194 185.099 94.0181C185.384 93.8169 185.745 93.7162 186.182 93.7162H186.223C186.661 93.7162 187.022 93.8169 187.306 94.0181C187.598 94.2194 187.813 94.5109 187.952 94.8926C188.09 95.2674 188.16 95.7254 188.16 96.2667H187.868C187.868 95.7254 187.941 95.2674 188.087 94.8926C188.233 94.5109 188.448 94.2194 188.732 94.0181C189.024 93.8169 189.388 93.7162 189.825 93.7162H189.867C190.304 93.7162 190.669 93.8169 190.96 94.0181C191.252 94.2194 191.467 94.5109 191.606 94.8926C191.751 95.2674 191.824 95.7254 191.824 96.2667V99.4419H190.825V96.0481C190.825 95.597 190.714 95.25 190.492 95.0071C190.27 94.7572 189.961 94.6323 189.565 94.6323C189.156 94.6323 188.826 94.7642 188.576 95.0279C188.326 95.2847 188.201 95.6456 188.201 96.1106V99.4419H187.202V96.0481C187.202 95.597 187.091 95.25 186.869 95.0071C186.647 94.7572 186.338 94.6323 185.942 94.6323C185.533 94.6323 185.203 94.7642 184.953 95.0279C184.704 95.2847 184.579 95.6456 184.579 96.1106V99.4419H183.579ZM193.925 99.4419V93.8828H194.924V99.4419H193.925ZM193.071 94.674V93.8828H194.924V94.674H193.071ZM194.206 92.9875C193.984 92.9875 193.817 92.9285 193.706 92.8105C193.602 92.6925 193.55 92.5433 193.55 92.3629C193.55 92.1824 193.602 92.0332 193.706 91.9152C193.817 91.7972 193.984 91.7383 194.206 91.7383C194.428 91.7383 194.591 91.7972 194.695 91.9152C194.806 92.0332 194.862 92.1824 194.862 92.3629C194.862 92.5433 194.806 92.6925 194.695 92.8105C194.591 92.9285 194.428 92.9875 194.206 92.9875ZM196.856 99.4419V93.8828H197.648V96.2667H197.523C197.523 95.7185 197.596 95.2569 197.741 94.8822C197.894 94.5005 198.123 94.2124 198.428 94.0181C198.734 93.8169 199.119 93.7162 199.584 93.7162H199.626C200.327 93.7162 200.844 93.9348 201.177 94.3721C201.517 94.8093 201.687 95.4409 201.687 96.2667V99.4419H200.687V96.0585C200.687 95.6282 200.566 95.2847 200.323 95.0279C200.08 94.7642 199.747 94.6323 199.324 94.6323C198.886 94.6323 198.532 94.7677 198.262 95.0383C197.991 95.309 197.856 95.6699 197.856 96.121V99.4419H196.856ZM205.837 99.6293C205.441 99.6293 205.077 99.5564 204.744 99.4107C204.411 99.2649 204.119 99.0602 203.869 98.7965C203.626 98.5327 203.436 98.2274 203.297 97.8803C203.165 97.5333 203.099 97.1586 203.099 96.756V96.5686C203.099 96.1731 203.165 95.8018 203.297 95.4547C203.429 95.1077 203.613 94.8024 203.849 94.5386C204.091 94.2749 204.376 94.0702 204.702 93.9244C205.035 93.7717 205.403 93.6954 205.806 93.6954C206.229 93.6954 206.614 93.7856 206.961 93.9661C207.308 94.1396 207.593 94.4137 207.815 94.7885C208.037 95.1633 208.162 95.6491 208.19 96.2459L207.773 95.5797V91.8424H208.773V99.4419H207.981V96.9746H208.273C208.245 97.6062 208.113 98.1198 207.877 98.5154C207.641 98.904 207.343 99.1886 206.982 99.369C206.628 99.5425 206.246 99.6293 205.837 99.6293ZM205.972 98.7548C206.312 98.7548 206.621 98.6785 206.899 98.5258C207.176 98.3731 207.398 98.1545 207.565 97.8699C207.732 97.5784 207.815 97.2384 207.815 96.8497V96.3708C207.815 95.9891 207.728 95.6664 207.555 95.4027C207.388 95.132 207.162 94.9273 206.878 94.7885C206.6 94.6427 206.295 94.5699 205.962 94.5699C205.594 94.5699 205.268 94.6566 204.983 94.8301C204.706 95.0036 204.487 95.2465 204.327 95.5588C204.175 95.8712 204.098 96.239 204.098 96.6623C204.098 97.0857 204.178 97.457 204.338 97.7762C204.497 98.0886 204.72 98.3315 205.004 98.505C205.289 98.6715 205.611 98.7548 205.972 98.7548ZM213.056 99.6293C212.57 99.6293 212.15 99.546 211.796 99.3794C211.442 99.2129 211.154 98.9943 210.932 98.7236C210.71 98.446 210.544 98.1371 210.433 97.7971C210.328 97.457 210.276 97.11 210.276 96.756V96.5686C210.276 96.2078 210.328 95.8573 210.433 95.5172C210.544 95.1771 210.71 94.8718 210.932 94.6011C211.154 94.3235 211.435 94.1049 211.775 93.9452C212.122 93.7787 212.528 93.6954 212.993 93.6954C213.597 93.6954 214.094 93.8273 214.482 94.091C214.878 94.3478 215.169 94.6809 215.357 95.0904C215.551 95.4999 215.648 95.9371 215.648 96.4021V96.8497H210.714V96.1002H214.919L214.69 96.5062C214.69 96.1106 214.628 95.7705 214.503 95.486C214.378 95.1945 214.191 94.9689 213.941 94.8093C213.691 94.6497 213.375 94.5699 212.993 94.5699C212.598 94.5699 212.268 94.6601 212.005 94.8405C211.748 95.021 211.553 95.2674 211.422 95.5797C211.297 95.892 211.234 96.2529 211.234 96.6623C211.234 97.0579 211.297 97.4154 211.422 97.7346C211.553 98.0469 211.755 98.2968 212.025 98.4841C212.296 98.6646 212.64 98.7548 213.056 98.7548C213.493 98.7548 213.847 98.6577 214.118 98.4633C214.395 98.269 214.562 98.0434 214.617 97.7867H215.554C215.478 98.1684 215.325 98.498 215.096 98.7756C214.867 99.0532 214.579 99.2649 214.232 99.4107C213.885 99.5564 213.493 99.6293 213.056 99.6293ZM217.067 99.4419V93.8828H217.858V96.1731H217.817C217.817 95.361 217.994 94.7677 218.348 94.3929C218.708 94.0112 219.246 93.8203 219.961 93.8203H220.149V94.7156H219.795C219.239 94.7156 218.813 94.8648 218.514 95.1633C218.216 95.4547 218.066 95.8781 218.066 96.4333V99.4419H217.067ZM225.871 99.5044C225.455 99.5044 225.094 99.4454 224.788 99.3274C224.49 99.2094 224.257 99.0081 224.091 98.7236C223.931 98.4321 223.851 98.04 223.851 97.5472V92.1963H224.809V97.6721C224.809 97.9706 224.889 98.2031 225.049 98.3696C225.215 98.5293 225.448 98.6091 225.746 98.6091H226.725V99.5044H225.871ZM222.894 94.6323V93.8828H226.725V94.6323H222.894ZM230.659 99.6293C230.173 99.6293 229.746 99.546 229.378 99.3794C229.01 99.2129 228.698 98.9943 228.441 98.7236C228.191 98.446 228 98.1371 227.869 97.7971C227.744 97.457 227.681 97.11 227.681 96.756V96.5686C227.681 96.2147 227.747 95.8677 227.879 95.5276C228.011 95.1806 228.205 94.8718 228.462 94.6011C228.719 94.3235 229.031 94.1049 229.399 93.9452C229.767 93.7787 230.187 93.6954 230.659 93.6954C231.13 93.6954 231.55 93.7787 231.918 93.9452C232.286 94.1049 232.598 94.3235 232.855 94.6011C233.112 94.8718 233.306 95.1806 233.438 95.5276C233.57 95.8677 233.636 96.2147 233.636 96.5686V96.756C233.636 97.11 233.57 97.457 233.438 97.7971C233.313 98.1371 233.122 98.446 232.865 98.7236C232.616 98.9943 232.307 99.2129 231.939 99.3794C231.571 99.546 231.144 99.6293 230.659 99.6293ZM230.659 98.734C231.075 98.734 231.429 98.6438 231.72 98.4633C232.019 98.2759 232.244 98.0261 232.397 97.7138C232.557 97.4015 232.636 97.051 232.636 96.6623C232.636 96.2667 232.557 95.9128 232.397 95.6005C232.237 95.2882 232.008 95.0418 231.71 94.8614C231.418 94.6809 231.068 94.5907 230.659 94.5907C230.256 94.5907 229.905 94.6809 229.607 94.8614C229.309 95.0418 229.08 95.2882 228.92 95.6005C228.76 95.9128 228.681 96.2667 228.681 96.6623C228.681 97.051 228.757 97.4015 228.91 97.7138C229.069 98.0261 229.295 98.2759 229.586 98.4633C229.885 98.6438 230.242 98.734 230.659 98.734ZM240.864 99.4419V97.7762H240.697V95.8503C240.697 95.4686 240.597 95.1806 240.395 94.9863C240.201 94.792 239.913 94.6948 239.531 94.6948C239.316 94.6948 239.094 94.6983 238.865 94.7052C238.636 94.7121 238.418 94.7191 238.209 94.726C238.001 94.733 237.821 94.7434 237.668 94.7572V93.8828C237.821 93.8689 237.98 93.8585 238.147 93.8516C238.32 93.8377 238.497 93.8307 238.678 93.8307C238.858 93.8238 239.032 93.8203 239.198 93.8203C239.767 93.8203 240.232 93.8897 240.593 94.0285C240.954 94.1604 241.221 94.379 241.395 94.6844C241.568 94.9897 241.655 95.4027 241.655 95.9232V99.4419H240.864ZM239.042 99.5876C238.626 99.5876 238.265 99.5182 237.959 99.3794C237.661 99.2337 237.429 99.0255 237.262 98.7548C237.102 98.4841 237.023 98.158 237.023 97.7762C237.023 97.3807 237.109 97.051 237.283 96.7873C237.463 96.5235 237.724 96.3257 238.064 96.1939C238.404 96.0551 238.813 95.9857 239.292 95.9857H240.801V96.7352H239.25C238.848 96.7352 238.539 96.8324 238.324 97.0267C238.109 97.221 238.001 97.4709 238.001 97.7762C238.001 98.0816 238.109 98.328 238.324 98.5154C238.539 98.7028 238.848 98.7965 239.25 98.7965C239.486 98.7965 239.712 98.7548 239.927 98.6715C240.142 98.5813 240.319 98.4356 240.458 98.2343C240.604 98.0261 240.684 97.7415 240.697 97.3807L240.968 97.7762C240.933 98.1718 240.836 98.505 240.677 98.7756C240.524 99.0394 240.309 99.2406 240.031 99.3794C239.76 99.5182 239.431 99.5876 239.042 99.5876ZM245.873 99.6293C245.394 99.6293 244.978 99.546 244.624 99.3794C244.277 99.2129 243.989 98.9908 243.76 98.7132C243.531 98.4286 243.358 98.1163 243.24 97.7762C243.128 97.4362 243.073 97.0961 243.073 96.756V96.5686C243.073 96.2147 243.128 95.8677 243.24 95.5276C243.358 95.1875 243.531 94.8822 243.76 94.6115C243.996 94.3339 244.288 94.1118 244.635 93.9452C244.982 93.7787 245.388 93.6954 245.853 93.6954C246.318 93.6954 246.734 93.7821 247.102 93.9557C247.477 94.1292 247.775 94.3755 247.997 94.6948C248.226 95.0071 248.354 95.3784 248.382 95.8087H247.424C247.376 95.4617 247.216 95.1737 246.946 94.9446C246.675 94.7087 246.311 94.5907 245.853 94.5907C245.457 94.5907 245.127 94.6809 244.864 94.8614C244.6 95.0418 244.402 95.2882 244.27 95.6005C244.138 95.9128 244.072 96.2667 244.072 96.6623C244.072 97.0441 244.138 97.3945 244.27 97.7138C244.402 98.0261 244.6 98.2759 244.864 98.4633C245.134 98.6438 245.471 98.734 245.873 98.734C246.186 98.734 246.456 98.6785 246.685 98.5674C246.914 98.4564 247.098 98.3072 247.237 98.1198C247.376 97.9324 247.459 97.7207 247.487 97.4848H248.445C248.424 97.922 248.295 98.3002 248.06 98.6195C247.83 98.9387 247.525 99.1886 247.143 99.369C246.769 99.5425 246.345 99.6293 245.873 99.6293ZM251.968 99.5044C251.552 99.5044 251.191 99.4454 250.885 99.3274C250.587 99.2094 250.354 99.0081 250.188 98.7236C250.028 98.4321 249.948 98.04 249.948 97.5472V92.1963H250.906V97.6721C250.906 97.9706 250.986 98.2031 251.146 98.3696C251.312 98.5293 251.545 98.6091 251.843 98.6091H252.822V99.5044H251.968ZM248.991 94.6323V93.8828H252.822V94.6323H248.991ZM254.506 99.4419V93.8828H255.505V99.4419H254.506ZM253.652 94.674V93.8828H255.505V94.674H253.652ZM254.787 92.9875C254.565 92.9875 254.398 92.9285 254.287 92.8105C254.183 92.6925 254.131 92.5433 254.131 92.3629C254.131 92.1824 254.183 92.0332 254.287 91.9152C254.398 91.7972 254.565 91.7383 254.787 91.7383C255.009 91.7383 255.172 91.7972 255.276 91.9152C255.387 92.0332 255.443 92.1824 255.443 92.3629C255.443 92.5433 255.387 92.6925 255.276 92.8105C255.172 92.9285 255.009 92.9875 254.787 92.9875ZM258.624 99.4419L256.73 93.8828H257.771L259.624 99.4419H258.624ZM258.874 99.4419V98.6507H260.082V99.4419H258.874ZM259.353 99.4419L260.967 93.8828H261.945L260.3 99.4419H259.353ZM266.575 99.4419V97.7762H266.408V95.8503C266.408 95.4686 266.307 95.1806 266.106 94.9863C265.912 94.792 265.624 94.6948 265.242 94.6948C265.027 94.6948 264.805 94.6983 264.576 94.7052C264.347 94.7121 264.128 94.7191 263.92 94.726C263.712 94.733 263.531 94.7434 263.379 94.7572V93.8828C263.531 93.8689 263.691 93.8585 263.858 93.8516C264.031 93.8377 264.208 93.8307 264.388 93.8307C264.569 93.8238 264.742 93.8203 264.909 93.8203C265.478 93.8203 265.943 93.8897 266.304 94.0285C266.665 94.1604 266.932 94.379 267.106 94.6844C267.279 94.9897 267.366 95.4027 267.366 95.9232V99.4419H266.575ZM264.753 99.5876C264.336 99.5876 263.975 99.5182 263.67 99.3794C263.372 99.2337 263.139 99.0255 262.973 98.7548C262.813 98.4841 262.733 98.158 262.733 97.7762C262.733 97.3807 262.82 97.051 262.993 96.7873C263.174 96.5235 263.434 96.3257 263.774 96.1939C264.114 96.0551 264.524 95.9857 265.003 95.9857H266.512V96.7352H264.961C264.558 96.7352 264.25 96.8324 264.034 97.0267C263.819 97.221 263.712 97.4709 263.712 97.7762C263.712 98.0816 263.819 98.328 264.034 98.5154C264.25 98.7028 264.558 98.7965 264.961 98.7965C265.197 98.7965 265.423 98.7548 265.638 98.6715C265.853 98.5813 266.03 98.4356 266.169 98.2343C266.314 98.0261 266.394 97.7415 266.408 97.3807L266.679 97.7762C266.644 98.1718 266.547 98.505 266.387 98.7756C266.235 99.0394 266.019 99.2406 265.742 99.3794C265.471 99.5182 265.141 99.5876 264.753 99.5876ZM271.365 99.5044C270.949 99.5044 270.588 99.4454 270.283 99.3274C269.984 99.2094 269.752 99.0081 269.585 98.7236C269.426 98.4321 269.346 98.04 269.346 97.5472V92.1963H270.304V97.6721C270.304 97.9706 270.383 98.2031 270.543 98.3696C270.71 98.5293 270.942 98.6091 271.24 98.6091H272.219V99.5044H271.365ZM268.388 94.6323V93.8828H272.219V94.6323H268.388ZM275.955 99.6293C275.469 99.6293 275.049 99.546 274.695 99.3794C274.341 99.2129 274.053 98.9943 273.831 98.7236C273.609 98.446 273.443 98.1371 273.332 97.7971C273.228 97.457 273.175 97.11 273.175 96.756V96.5686C273.175 96.2078 273.228 95.8573 273.332 95.5172C273.443 95.1771 273.609 94.8718 273.831 94.6011C274.053 94.3235 274.334 94.1049 274.675 93.9452C275.022 93.7787 275.428 93.6954 275.893 93.6954C276.496 93.6954 276.993 93.8273 277.381 94.091C277.777 94.3478 278.068 94.6809 278.256 95.0904C278.45 95.4999 278.547 95.9371 278.547 96.4021V96.8497H273.613V96.1002H277.818L277.589 96.5062C277.589 96.1106 277.527 95.7705 277.402 95.486C277.277 95.1945 277.09 94.9689 276.84 94.8093C276.59 94.6497 276.274 94.5699 275.893 94.5699C275.497 94.5699 275.167 94.6601 274.904 94.8405C274.647 95.021 274.452 95.2674 274.321 95.5797C274.196 95.892 274.133 96.2529 274.133 96.6623C274.133 97.0579 274.196 97.4154 274.321 97.7346C274.452 98.0469 274.654 98.2968 274.924 98.4841C275.195 98.6646 275.539 98.7548 275.955 98.7548C276.392 98.7548 276.746 98.6577 277.017 98.4633C277.294 98.269 277.461 98.0434 277.517 97.7867H278.454C278.377 98.1684 278.224 98.498 277.995 98.7756C277.766 99.0532 277.478 99.2649 277.131 99.4107C276.784 99.5564 276.392 99.6293 275.955 99.6293Z"
            fill="#515D66" />
        <path d="M244.187 162.434L264.306 162.434C271.972 162.434 278.187 168.648 278.187 176.314L278.187 206.434"
            stroke="#F2E8FD" stroke-width="5.20516" />
        <path d="M244.187 162.434L264.306 162.434C271.972 162.434 278.187 168.648 278.187 176.314L278.187 206.434"
            stroke="#8542C3" stroke-width="1.73505" />
        <path d="M158.298 162.434L138.179 162.434C130.513 162.434 124.298 168.648 124.298 176.314L124.298 207.434"
            stroke="#5E6678" stroke-width="1.73505" />
        <path d="M158.232 162.433L187.352 162.433C195.017 162.433 201.232 156.219 201.232 148.553L201.232 117.433"
            stroke="#5E6678" stroke-width="1.73505" />
        <path d="M244.227 162.433L215.107 162.433C207.441 162.433 201.227 156.219 201.227 148.553L201.227 117.433"
            stroke="#F2E8FD" stroke-width="5.20516" />
        <path d="M244.227 162.433L215.107 162.433C207.441 162.433 201.227 156.219 201.227 148.553L201.227 117.433"
            stroke="#8542C3" stroke-width="1.73505" />
        <rect x="265.867" y="177.085" width="36.4361" height="15.7351" rx="7.86753" fill="white" />
        <rect x="265.867" y="177.085" width="36.4361" height="15.7351" rx="7.86753" stroke="#8542C3"
            stroke-width="1.73505" />
        <path
            d="M275.634 188.15C275.037 188.15 274.524 188.032 274.093 187.796C273.67 187.561 273.344 187.248 273.115 186.86C272.893 186.464 272.782 186.034 272.782 185.569L274.208 185.569C274.208 185.832 274.267 186.065 274.385 186.266C274.51 186.467 274.68 186.627 274.895 186.745C275.11 186.856 275.36 186.912 275.644 186.912C275.943 186.912 276.2 186.849 276.415 186.724C276.63 186.599 276.793 186.429 276.904 186.214C277.022 185.999 277.081 185.753 277.081 185.475C277.081 185.204 277.022 184.961 276.904 184.746C276.793 184.524 276.63 184.351 276.415 184.226C276.207 184.094 275.953 184.028 275.655 184.028C275.405 184.028 275.169 184.077 274.947 184.174C274.725 184.271 274.551 184.399 274.426 184.559L273.063 184.559L273.448 180.353L277.851 180.353L277.851 181.613L274.093 181.613L274.614 181.207L274.364 183.83L274.01 183.726C274.211 183.497 274.458 183.306 274.749 183.153C275.041 183.001 275.408 182.924 275.853 182.924C276.415 182.924 276.894 183.039 277.289 183.268C277.685 183.497 277.987 183.802 278.195 184.184C278.403 184.559 278.507 184.968 278.507 185.413L278.507 185.548C278.507 185.999 278.396 186.422 278.174 186.818C277.952 187.214 277.626 187.536 277.196 187.786C276.772 188.029 276.252 188.15 275.634 188.15ZM282.845 188.15C282.249 188.15 281.742 188.053 281.326 187.859C280.909 187.658 280.569 187.387 280.305 187.047C280.042 186.7 279.847 186.304 279.722 185.86C279.604 185.409 279.545 184.937 279.545 184.444L279.545 183.861C279.545 183.16 279.663 182.529 279.899 181.967C280.135 181.405 280.496 180.96 280.982 180.634C281.468 180.301 282.089 180.134 282.845 180.134C283.595 180.134 284.213 180.301 284.698 180.634C285.184 180.96 285.542 181.405 285.771 181.967C286.007 182.529 286.125 183.16 286.125 183.861L286.125 184.444C286.125 184.937 286.062 185.409 285.937 185.86C285.819 186.304 285.628 186.7 285.365 187.047C285.108 187.387 284.771 187.658 284.355 187.859C283.939 188.053 283.435 188.15 282.845 188.15ZM282.845 186.797C283.463 186.797 283.918 186.585 284.209 186.162C284.501 185.732 284.646 185.066 284.646 184.163C284.646 183.206 284.497 182.522 284.199 182.112C283.9 181.696 283.449 181.488 282.845 181.488C282.235 181.488 281.777 181.696 281.471 182.112C281.173 182.522 281.024 183.199 281.024 184.142C281.024 185.052 281.173 185.721 281.471 186.152C281.77 186.582 282.228 186.797 282.845 186.797ZM289.361 187.953L292.161 180.353L293.358 180.353L290.558 187.953L289.361 187.953ZM288.82 184.496C288.417 184.496 288.084 184.406 287.82 184.226C287.556 184.038 287.359 183.792 287.227 183.487C287.102 183.181 287.039 182.848 287.039 182.487L287.039 182.217C287.039 181.821 287.105 181.474 287.237 181.176C287.369 180.87 287.567 180.634 287.831 180.468C288.101 180.294 288.431 180.207 288.82 180.207C289.222 180.207 289.555 180.294 289.819 180.468C290.083 180.634 290.28 180.87 290.412 181.176C290.544 181.474 290.61 181.821 290.61 182.217L290.61 182.487C290.61 182.848 290.544 183.181 290.412 183.487C290.287 183.792 290.093 184.038 289.829 184.226C289.573 184.406 289.236 184.496 288.82 184.496ZM288.82 183.528C289.069 183.528 289.253 183.438 289.371 183.258C289.496 183.07 289.559 182.772 289.559 182.362C289.559 181.918 289.496 181.609 289.371 181.436C289.246 181.262 289.062 181.176 288.82 181.176C288.577 181.176 288.393 181.262 288.268 181.436C288.15 181.609 288.091 181.915 288.091 182.352C288.091 182.761 288.15 183.06 288.268 183.247C288.393 183.435 288.577 183.528 288.82 183.528ZM293.848 188.109C293.445 188.109 293.112 188.019 292.848 187.838C292.585 187.651 292.387 187.404 292.255 187.099C292.13 186.794 292.068 186.46 292.068 186.1L292.068 185.829C292.068 185.433 292.133 185.086 292.265 184.788C292.397 184.483 292.595 184.247 292.859 184.08C293.129 183.906 293.459 183.82 293.848 183.82C294.25 183.82 294.583 183.906 294.847 184.08C295.111 184.247 295.309 184.483 295.44 184.788C295.572 185.086 295.638 185.433 295.638 185.829L295.638 186.1C295.638 186.46 295.572 186.794 295.44 187.099C295.316 187.404 295.121 187.651 294.858 187.838C294.601 188.019 294.264 188.109 293.848 188.109ZM293.848 187.141C294.098 187.141 294.281 187.05 294.399 186.87C294.524 186.683 294.587 186.384 294.587 185.975C294.587 185.531 294.524 185.222 294.399 185.048C294.275 184.875 294.091 184.788 293.848 184.788C293.605 184.788 293.421 184.875 293.296 185.048C293.178 185.222 293.119 185.527 293.119 185.964C293.119 186.374 293.178 186.672 293.296 186.86C293.421 187.047 293.605 187.141 293.848 187.141Z"
            fill="#515D66" />
        <rect x="105.701" y="177.085" width="36.4361" height="15.7351" rx="7.86753" fill="white" />
        <rect x="105.701" y="177.085" width="36.4361" height="15.7351" rx="7.86753" stroke="#C0CBD4"
            stroke-width="1.73505" />
        <path
            d="M115.468 188.15C114.871 188.15 114.358 188.032 113.927 187.796C113.504 187.561 113.178 187.248 112.949 186.86C112.727 186.464 112.616 186.034 112.616 185.569L114.042 185.569C114.042 185.832 114.101 186.065 114.219 186.266C114.344 186.467 114.514 186.627 114.729 186.745C114.944 186.856 115.194 186.912 115.478 186.912C115.777 186.912 116.034 186.849 116.249 186.724C116.464 186.599 116.627 186.429 116.738 186.214C116.856 185.999 116.915 185.753 116.915 185.475C116.915 185.204 116.856 184.961 116.738 184.746C116.627 184.524 116.464 184.351 116.249 184.226C116.041 184.094 115.787 184.028 115.489 184.028C115.239 184.028 115.003 184.077 114.781 184.174C114.559 184.271 114.385 184.399 114.26 184.559L112.897 184.559L113.282 180.353L117.685 180.353L117.685 181.613L113.927 181.613L114.448 181.207L114.198 183.83L113.844 183.726C114.045 183.497 114.292 183.306 114.583 183.153C114.875 183.001 115.242 182.924 115.687 182.924C116.249 182.924 116.728 183.039 117.123 183.268C117.519 183.497 117.821 183.802 118.029 184.184C118.237 184.559 118.341 184.968 118.341 185.413L118.341 185.548C118.341 185.999 118.23 186.422 118.008 186.818C117.786 187.214 117.46 187.536 117.03 187.786C116.606 188.029 116.086 188.15 115.468 188.15ZM122.679 188.15C122.083 188.15 121.576 188.053 121.159 187.859C120.743 187.658 120.403 187.387 120.139 187.047C119.876 186.7 119.681 186.304 119.556 185.86C119.438 185.409 119.379 184.937 119.379 184.444L119.379 183.861C119.379 183.16 119.497 182.529 119.733 181.967C119.969 181.405 120.33 180.96 120.816 180.634C121.302 180.301 121.923 180.134 122.679 180.134C123.429 180.134 124.047 180.301 124.532 180.634C125.018 180.96 125.376 181.405 125.605 181.967C125.841 182.529 125.959 183.16 125.959 183.861L125.959 184.444C125.959 184.937 125.896 185.409 125.771 185.86C125.653 186.304 125.462 186.7 125.199 187.047C124.942 187.387 124.605 187.658 124.189 187.859C123.772 188.053 123.269 188.15 122.679 188.15ZM122.679 186.797C123.297 186.797 123.752 186.585 124.043 186.162C124.335 185.732 124.48 185.066 124.48 184.163C124.48 183.206 124.331 182.522 124.033 182.112C123.734 181.696 123.283 181.488 122.679 181.488C122.069 181.488 121.611 181.696 121.305 182.112C121.007 182.522 120.858 183.199 120.858 184.142C120.858 185.052 121.007 185.721 121.305 186.152C121.604 186.582 122.062 186.797 122.679 186.797ZM129.195 187.953L131.995 180.353L133.192 180.353L130.392 187.953L129.195 187.953ZM128.653 184.496C128.251 184.496 127.918 184.406 127.654 184.226C127.39 184.038 127.193 183.792 127.061 183.487C126.936 183.181 126.873 182.848 126.873 182.487L126.873 182.217C126.873 181.821 126.939 181.474 127.071 181.176C127.203 180.87 127.401 180.634 127.664 180.468C127.935 180.294 128.265 180.207 128.653 180.207C129.056 180.207 129.389 180.294 129.653 180.468C129.917 180.634 130.114 180.87 130.246 181.176C130.378 181.474 130.444 181.821 130.444 182.217L130.444 182.487C130.444 182.848 130.378 183.181 130.246 183.487C130.121 183.792 129.927 184.038 129.663 184.226C129.406 184.406 129.07 184.496 128.653 184.496ZM128.653 183.528C128.903 183.528 129.087 183.438 129.205 183.258C129.33 183.07 129.393 182.772 129.393 182.362C129.393 181.918 129.33 181.609 129.205 181.436C129.08 181.262 128.896 181.176 128.653 181.176C128.411 181.176 128.227 181.262 128.102 181.436C127.984 181.609 127.925 181.915 127.925 182.352C127.925 182.761 127.984 183.06 128.102 183.247C128.227 183.435 128.411 183.528 128.653 183.528ZM133.682 188.109C133.279 188.109 132.946 188.019 132.682 187.838C132.419 187.651 132.221 187.404 132.089 187.099C131.964 186.794 131.901 186.46 131.901 186.1L131.901 185.829C131.901 185.433 131.967 185.086 132.099 184.788C132.231 184.483 132.429 184.247 132.693 184.08C132.963 183.906 133.293 183.82 133.682 183.82C134.084 183.82 134.417 183.906 134.681 184.08C134.945 184.247 135.143 184.483 135.274 184.788C135.406 185.086 135.472 185.433 135.472 185.829L135.472 186.1C135.472 186.46 135.406 186.794 135.274 187.099C135.149 187.404 134.955 187.651 134.691 187.838C134.435 188.019 134.098 188.109 133.682 188.109ZM133.682 187.141C133.931 187.141 134.115 187.05 134.233 186.87C134.358 186.683 134.421 186.384 134.421 185.975C134.421 185.531 134.358 185.222 134.233 185.048C134.108 184.875 133.925 184.788 133.682 184.788C133.439 184.788 133.255 184.875 133.13 185.048C133.012 185.222 132.953 185.527 132.953 185.964C132.953 186.374 133.012 186.672 133.13 186.86C133.255 187.047 133.439 187.141 133.682 187.141Z"
            fill="#515D66" />
        <rect x="119.584" y="202.34" width="8.67527" height="8.67527" rx="4.33763" fill="white" />
        <rect x="119.584" y="202.34" width="8.67527" height="8.67527" rx="4.33763" stroke="#C0CBD4"
            stroke-width="1.73505" />
        <rect x="196.791" y="112.985" width="8.67527" height="8.67527" rx="4.33763" fill="white" />
        <rect x="196.791" y="112.985" width="8.67527" height="8.67527" rx="4.33763" stroke="#8542C3"
            stroke-width="1.73505" />
        <rect x="274.867" y="202.34" width="8.67527" height="8.67527" rx="4.33763" fill="white" />
        <rect x="274.867" y="202.34" width="8.67527" height="8.67527" rx="4.33763" stroke="#8542C3"
            stroke-width="1.73505" />
        <rect x="50.6166" y="213.618" width="147.48" height="45.8804" rx="6.94021" fill="white" />
        <rect x="51.0503" y="214.052" width="146.612" height="45.0129" rx="6.50645" stroke="#E9D5E6"
            stroke-opacity="0.67" stroke-width="0.867527" />
        <rect x="50.6166" y="214.002" width="45.1114" height="45.1114" rx="6.94021" fill="#1877F2" />
        <path d="M64.7861 229.329H81.5583V243.787H64.7861V229.329Z" stroke="white" stroke-width="1.30129"
            stroke-linecap="round" stroke-linejoin="round" />
        <path d="M69.4131 229.329V243.787" stroke="white" stroke-width="1.30129" stroke-linecap="round"
            stroke-linejoin="round" />
        <path d="M64.7861 233.956H81.5583" stroke="white" stroke-width="1.30129" stroke-linecap="round"
            stroke-linejoin="round" />
        <path
            d="M111.841 233.603V232.351H113.725C114.184 232.351 114.593 232.28 114.954 232.137C115.315 231.987 115.623 231.78 115.879 231.517C116.135 231.254 116.326 230.945 116.454 230.592C116.589 230.231 116.657 229.844 116.657 229.43C116.657 228.987 116.589 228.588 116.454 228.235C116.326 227.882 116.135 227.577 115.879 227.321C115.623 227.066 115.315 226.87 114.954 226.735C114.593 226.592 114.184 226.521 113.725 226.521H111.841V225.269H113.612C114.356 225.269 115.003 225.382 115.552 225.607C116.108 225.833 116.571 226.137 116.939 226.521C117.307 226.904 117.582 227.336 117.762 227.818C117.943 228.299 118.033 228.795 118.033 229.306V229.554C118.033 230.036 117.943 230.521 117.762 231.009C117.582 231.49 117.307 231.927 116.939 232.318C116.571 232.701 116.108 233.013 115.552 233.254C115.003 233.487 114.356 233.603 113.612 233.603H111.841ZM110.714 233.603V225.269H112.067V233.603H110.714ZM119.759 233.558V227.479H121.079V233.558H119.759ZM118.869 228.494V227.479H121.079V228.494H118.869ZM120.188 226.634C119.917 226.634 119.714 226.562 119.579 226.419C119.451 226.276 119.387 226.092 119.387 225.867C119.387 225.649 119.451 225.468 119.579 225.325C119.714 225.175 119.917 225.1 120.188 225.1C120.466 225.1 120.669 225.175 120.797 225.325C120.932 225.468 121 225.649 121 225.867C121 226.092 120.932 226.276 120.797 226.419C120.669 226.562 120.466 226.634 120.188 226.634ZM125.143 233.739C124.324 233.739 123.685 233.566 123.226 233.22C122.775 232.874 122.538 232.396 122.516 231.787H123.734C123.749 232.013 123.865 232.22 124.083 232.408C124.301 232.596 124.658 232.69 125.155 232.69C125.576 232.69 125.906 232.607 126.147 232.442C126.388 232.276 126.508 232.069 126.508 231.821C126.508 231.596 126.418 231.419 126.237 231.291C126.064 231.156 125.767 231.066 125.346 231.021L124.749 230.964C124.125 230.897 123.628 230.712 123.26 230.412C122.899 230.111 122.719 229.705 122.719 229.194C122.719 228.788 122.82 228.445 123.023 228.167C123.226 227.889 123.504 227.675 123.858 227.524C124.219 227.374 124.632 227.299 125.098 227.299C125.82 227.299 126.403 227.461 126.846 227.784C127.29 228.1 127.519 228.566 127.534 229.182H126.328C126.312 228.949 126.203 228.754 126 228.596C125.797 228.438 125.497 228.359 125.098 228.359C124.722 228.359 124.433 228.434 124.23 228.585C124.034 228.735 123.937 228.927 123.937 229.16C123.937 229.37 124.012 229.536 124.162 229.656C124.313 229.776 124.557 229.855 124.895 229.893L125.493 229.949C126.177 230.024 126.718 230.216 127.117 230.524C127.523 230.825 127.726 231.246 127.726 231.787C127.726 232.178 127.617 232.521 127.399 232.814C127.181 233.107 126.876 233.336 126.485 233.502C126.102 233.66 125.655 233.739 125.143 233.739ZM129.169 235.814V227.479H130.218V230.107L130.015 230.096C130.053 229.457 130.188 228.93 130.421 228.517C130.654 228.103 130.962 227.795 131.346 227.592C131.729 227.389 132.15 227.288 132.609 227.288C133.045 227.288 133.44 227.37 133.793 227.536C134.146 227.694 134.451 227.915 134.707 228.201C134.962 228.487 135.154 228.818 135.282 229.194C135.417 229.57 135.485 229.976 135.485 230.412V230.626C135.485 231.054 135.417 231.46 135.282 231.844C135.146 232.22 134.951 232.551 134.695 232.836C134.44 233.122 134.135 233.348 133.782 233.513C133.428 233.678 133.034 233.761 132.598 233.761C132.154 233.761 131.741 233.667 131.357 233.479C130.974 233.291 130.658 232.99 130.41 232.577C130.162 232.163 130.023 231.626 129.992 230.964L130.489 231.799V235.814H129.169ZM132.316 232.622C132.684 232.622 133.007 232.536 133.286 232.363C133.564 232.182 133.778 231.934 133.928 231.618C134.086 231.295 134.165 230.927 134.165 230.513C134.165 230.1 134.086 229.735 133.928 229.419C133.778 229.103 133.564 228.859 133.286 228.686C133.015 228.506 132.692 228.415 132.316 228.415C131.985 228.415 131.677 228.491 131.391 228.641C131.105 228.791 130.876 229.009 130.703 229.295C130.53 229.573 130.444 229.912 130.444 230.31V230.795C130.444 231.178 130.53 231.509 130.703 231.787C130.883 232.058 131.116 232.265 131.402 232.408C131.688 232.551 131.992 232.622 132.316 232.622ZM137.067 233.558V225.325H138.398V233.558H137.067ZM136.267 226.34V225.325H138.398V226.34H136.267ZM144.002 233.558V231.742H143.788V229.69C143.788 229.314 143.69 229.028 143.495 228.833C143.299 228.637 143.01 228.539 142.626 228.539C142.416 228.539 142.183 228.543 141.927 228.551C141.671 228.558 141.42 228.57 141.171 228.585C140.931 228.592 140.717 228.603 140.529 228.618V227.479C140.694 227.464 140.874 227.453 141.07 227.446C141.273 227.43 141.48 227.419 141.69 227.412C141.908 227.404 142.115 227.4 142.311 227.4C142.927 227.4 143.438 227.479 143.844 227.637C144.25 227.795 144.551 228.047 144.747 228.393C144.95 228.731 145.051 229.186 145.051 229.757V233.558H144.002ZM142.029 233.716C141.585 233.716 141.198 233.641 140.867 233.49C140.536 233.333 140.281 233.107 140.1 232.814C139.92 232.513 139.829 232.156 139.829 231.742C139.829 231.306 139.931 230.945 140.134 230.66C140.344 230.374 140.641 230.16 141.025 230.017C141.408 229.874 141.867 229.803 142.401 229.803H143.923V230.671H142.367C141.968 230.671 141.664 230.769 141.453 230.964C141.243 231.152 141.138 231.4 141.138 231.709C141.138 232.017 141.243 232.265 141.453 232.453C141.664 232.633 141.968 232.724 142.367 232.724C142.6 232.724 142.822 232.682 143.032 232.599C143.243 232.509 143.416 232.363 143.551 232.16C143.694 231.957 143.773 231.671 143.788 231.303L144.126 231.742C144.089 232.171 143.983 232.532 143.81 232.825C143.645 233.111 143.412 233.333 143.111 233.49C142.818 233.641 142.457 233.716 142.029 233.716ZM146.553 235.938V234.776H147.556C147.789 234.776 147.989 234.746 148.154 234.686C148.32 234.633 148.455 234.536 148.56 234.393C148.665 234.257 148.752 234.073 148.82 233.84L150.59 227.479H151.865L149.947 234.156C149.827 234.577 149.658 234.919 149.44 235.182C149.229 235.445 148.959 235.637 148.628 235.757C148.304 235.878 147.914 235.938 147.455 235.938H146.553ZM148.425 233.423V232.351H149.733V233.423H148.425ZM148.098 233.423L146.034 227.479H147.376L149.35 233.423H148.098ZM154.891 233.558L157.778 225.325H160.023L163 233.558H161.601L158.996 226.228L159.549 226.487H158.184L158.771 226.228L156.244 233.558H154.891ZM156.763 231.235L157.192 230.062H160.643L161.083 231.235H156.763ZM166.674 233.761C166.238 233.761 165.84 233.682 165.479 233.524C165.126 233.366 164.814 233.145 164.543 232.859C164.28 232.573 164.077 232.242 163.934 231.866C163.791 231.49 163.72 231.081 163.72 230.637V230.423C163.72 229.987 163.787 229.581 163.923 229.205C164.065 228.821 164.265 228.487 164.52 228.201C164.776 227.915 165.08 227.694 165.434 227.536C165.795 227.37 166.193 227.288 166.629 227.288C167.095 227.288 167.513 227.389 167.881 227.592C168.257 227.788 168.558 228.092 168.783 228.506C169.016 228.912 169.144 229.43 169.167 230.062L168.716 229.442V225.325H170.035V233.558H168.986V230.919H169.28C169.257 231.573 169.122 232.111 168.874 232.532C168.633 232.953 168.321 233.265 167.937 233.468C167.554 233.663 167.133 233.761 166.674 233.761ZM166.922 232.622C167.261 232.622 167.565 232.547 167.836 232.396C168.114 232.246 168.336 232.028 168.501 231.742C168.674 231.449 168.761 231.107 168.761 230.716V230.231C168.761 229.848 168.674 229.521 168.501 229.25C168.328 228.979 168.103 228.773 167.825 228.63C167.547 228.487 167.242 228.415 166.911 228.415C166.543 228.415 166.216 228.506 165.93 228.686C165.652 228.859 165.434 229.103 165.276 229.419C165.118 229.735 165.039 230.103 165.039 230.524C165.039 230.953 165.118 231.325 165.276 231.641C165.441 231.957 165.667 232.201 165.953 232.374C166.238 232.539 166.562 232.622 166.922 232.622ZM174.076 233.739C173.257 233.739 172.618 233.566 172.159 233.22C171.708 232.874 171.471 232.396 171.449 231.787H172.667C172.682 232.013 172.798 232.22 173.016 232.408C173.234 232.596 173.591 232.69 174.088 232.69C174.509 232.69 174.84 232.607 175.08 232.442C175.321 232.276 175.441 232.069 175.441 231.821C175.441 231.596 175.351 231.419 175.17 231.291C174.997 231.156 174.7 231.066 174.279 231.021L173.682 230.964C173.058 230.897 172.561 230.712 172.193 230.412C171.832 230.111 171.652 229.705 171.652 229.194C171.652 228.788 171.753 228.445 171.956 228.167C172.159 227.889 172.437 227.675 172.791 227.524C173.152 227.374 173.565 227.299 174.031 227.299C174.753 227.299 175.336 227.461 175.779 227.784C176.223 228.1 176.452 228.566 176.467 229.182H175.261C175.246 228.949 175.137 228.754 174.934 228.596C174.731 228.438 174.43 228.359 174.031 228.359C173.655 228.359 173.366 228.434 173.163 228.585C172.967 228.735 172.87 228.927 172.87 229.16C172.87 229.37 172.945 229.536 173.095 229.656C173.246 229.776 173.49 229.855 173.828 229.893L174.426 229.949C175.11 230.024 175.652 230.216 176.05 230.524C176.456 230.825 176.659 231.246 176.659 231.787C176.659 232.178 176.55 232.521 176.332 232.814C176.114 233.107 175.809 233.336 175.419 233.502C175.035 233.66 174.588 233.739 174.076 233.739Z"
            fill="#171F27" />
        <path
            d="M110.945 248.558V240.959H111.966V248.558H110.945ZM111.757 245.175V244.259L115.016 244.248V245.164L111.757 245.175ZM111.757 241.875V240.959H115.193V241.875H111.757ZM119.804 248.558V246.892H119.638V244.967C119.638 244.585 119.537 244.297 119.336 244.102C119.142 243.908 118.854 243.811 118.472 243.811C118.257 243.811 118.035 243.814 117.806 243.821C117.577 243.828 117.358 243.835 117.15 243.842C116.942 243.849 116.761 243.86 116.608 243.873V242.999C116.761 242.985 116.921 242.975 117.087 242.968C117.261 242.954 117.438 242.947 117.618 242.947C117.799 242.94 117.972 242.937 118.139 242.937C118.708 242.937 119.173 243.006 119.534 243.145C119.895 243.277 120.162 243.495 120.335 243.801C120.509 244.106 120.596 244.519 120.596 245.039V248.558H119.804ZM117.983 248.704C117.566 248.704 117.205 248.634 116.9 248.496C116.602 248.35 116.369 248.142 116.202 247.871C116.043 247.6 115.963 247.274 115.963 246.892C115.963 246.497 116.05 246.167 116.223 245.903C116.404 245.64 116.664 245.442 117.004 245.31C117.344 245.171 117.754 245.102 118.232 245.102H119.742V245.851H118.191C117.788 245.851 117.479 245.949 117.264 246.143C117.049 246.337 116.942 246.587 116.942 246.892C116.942 247.198 117.049 247.444 117.264 247.632C117.479 247.819 117.788 247.913 118.191 247.913C118.427 247.913 118.652 247.871 118.868 247.788C119.083 247.698 119.26 247.552 119.398 247.351C119.544 247.142 119.624 246.858 119.638 246.497L119.909 246.892C119.874 247.288 119.777 247.621 119.617 247.892C119.464 248.156 119.249 248.357 118.972 248.496C118.701 248.634 118.371 248.704 117.983 248.704ZM124.814 248.745C124.335 248.745 123.919 248.662 123.565 248.496C123.218 248.329 122.93 248.107 122.701 247.829C122.472 247.545 122.298 247.233 122.18 246.892C122.069 246.552 122.013 246.212 122.013 245.872V245.685C122.013 245.331 122.069 244.984 122.18 244.644C122.298 244.304 122.472 243.998 122.701 243.728C122.937 243.45 123.228 243.228 123.575 243.061C123.922 242.895 124.328 242.812 124.793 242.812C125.258 242.812 125.674 242.898 126.042 243.072C126.417 243.245 126.715 243.492 126.938 243.811C127.167 244.123 127.295 244.495 127.323 244.925H126.365C126.316 244.578 126.157 244.29 125.886 244.061C125.615 243.825 125.251 243.707 124.793 243.707C124.397 243.707 124.068 243.797 123.804 243.978C123.54 244.158 123.343 244.404 123.211 244.717C123.079 245.029 123.013 245.383 123.013 245.779C123.013 246.16 123.079 246.511 123.211 246.83C123.343 247.142 123.54 247.392 123.804 247.58C124.075 247.76 124.411 247.85 124.814 247.85C125.126 247.85 125.397 247.795 125.626 247.684C125.855 247.573 126.039 247.423 126.178 247.236C126.316 247.049 126.4 246.837 126.427 246.601H127.385C127.364 247.038 127.236 247.416 127 247.736C126.771 248.055 126.466 248.305 126.084 248.485C125.709 248.659 125.286 248.745 124.814 248.745ZM131.106 248.745C130.62 248.745 130.201 248.662 129.847 248.496C129.493 248.329 129.205 248.11 128.983 247.84C128.761 247.562 128.594 247.253 128.483 246.913C128.379 246.573 128.327 246.226 128.327 245.872V245.685C128.327 245.324 128.379 244.973 128.483 244.633C128.594 244.293 128.761 243.988 128.983 243.717C129.205 243.44 129.486 243.221 129.826 243.061C130.173 242.895 130.579 242.812 131.044 242.812C131.648 242.812 132.144 242.943 132.533 243.207C132.928 243.464 133.22 243.797 133.407 244.207C133.601 244.616 133.698 245.053 133.698 245.518V245.966H128.764V245.216H132.97L132.741 245.622C132.741 245.227 132.678 244.887 132.553 244.602C132.428 244.311 132.241 244.085 131.991 243.926C131.741 243.766 131.426 243.686 131.044 243.686C130.648 243.686 130.319 243.776 130.055 243.957C129.798 244.137 129.604 244.384 129.472 244.696C129.347 245.008 129.284 245.369 129.284 245.779C129.284 246.174 129.347 246.532 129.472 246.851C129.604 247.163 129.805 247.413 130.076 247.6C130.346 247.781 130.69 247.871 131.106 247.871C131.544 247.871 131.897 247.774 132.168 247.58C132.446 247.385 132.612 247.16 132.668 246.903H133.605C133.528 247.285 133.376 247.614 133.147 247.892C132.918 248.169 132.63 248.381 132.283 248.527C131.936 248.673 131.544 248.745 131.106 248.745ZM138.053 248.745C137.595 248.745 137.186 248.645 136.825 248.444C136.471 248.242 136.19 247.951 135.982 247.569C135.773 247.18 135.659 246.715 135.638 246.174H135.909V248.558H135.117V240.959H136.117V244.654L135.763 245.414C135.791 244.81 135.912 244.318 136.127 243.936C136.342 243.554 136.623 243.273 136.97 243.093C137.324 242.905 137.713 242.812 138.136 242.812C138.532 242.812 138.893 242.888 139.219 243.041C139.545 243.186 139.826 243.391 140.062 243.655C140.298 243.912 140.479 244.214 140.604 244.561C140.729 244.901 140.791 245.268 140.791 245.664V245.851C140.791 246.247 140.725 246.618 140.593 246.965C140.468 247.312 140.284 247.621 140.042 247.892C139.799 248.156 139.507 248.364 139.167 248.516C138.834 248.669 138.463 248.745 138.053 248.745ZM137.939 247.871C138.313 247.871 138.64 247.781 138.917 247.6C139.195 247.42 139.41 247.174 139.563 246.861C139.715 246.542 139.792 246.174 139.792 245.758C139.792 245.341 139.712 244.977 139.552 244.665C139.4 244.352 139.184 244.113 138.907 243.946C138.629 243.773 138.306 243.686 137.939 243.686C137.606 243.686 137.297 243.762 137.012 243.915C136.728 244.061 136.499 244.276 136.325 244.561C136.158 244.838 136.075 245.175 136.075 245.57V246.049C136.075 246.431 136.162 246.757 136.335 247.028C136.509 247.298 136.738 247.507 137.023 247.652C137.307 247.798 137.612 247.871 137.939 247.871ZM144.856 248.745C144.37 248.745 143.943 248.662 143.575 248.496C143.208 248.329 142.895 248.11 142.638 247.84C142.389 247.562 142.198 247.253 142.066 246.913C141.941 246.573 141.878 246.226 141.878 245.872V245.685C141.878 245.331 141.944 244.984 142.076 244.644C142.208 244.297 142.402 243.988 142.659 243.717C142.916 243.44 143.228 243.221 143.596 243.061C143.964 242.895 144.384 242.812 144.856 242.812C145.328 242.812 145.748 242.895 146.115 243.061C146.483 243.221 146.796 243.44 147.052 243.717C147.309 243.988 147.504 244.297 147.635 244.644C147.767 244.984 147.833 245.331 147.833 245.685V245.872C147.833 246.226 147.767 246.573 147.635 246.913C147.51 247.253 147.32 247.562 147.063 247.84C146.813 248.11 146.504 248.329 146.136 248.496C145.768 248.662 145.342 248.745 144.856 248.745ZM144.856 247.85C145.272 247.85 145.626 247.76 145.918 247.58C146.216 247.392 146.442 247.142 146.594 246.83C146.754 246.518 146.834 246.167 146.834 245.779C146.834 245.383 146.754 245.029 146.594 244.717C146.435 244.404 146.206 244.158 145.907 243.978C145.616 243.797 145.265 243.707 144.856 243.707C144.453 243.707 144.103 243.797 143.804 243.978C143.506 244.158 143.277 244.404 143.117 244.717C142.958 245.029 142.878 245.383 142.878 245.779C142.878 246.167 142.954 246.518 143.107 246.83C143.267 247.142 143.492 247.392 143.784 247.58C144.082 247.76 144.439 247.85 144.856 247.85ZM151.891 248.745C151.405 248.745 150.978 248.662 150.61 248.496C150.243 248.329 149.93 248.11 149.674 247.84C149.424 247.562 149.233 247.253 149.101 246.913C148.976 246.573 148.914 246.226 148.914 245.872V245.685C148.914 245.331 148.979 244.984 149.111 244.644C149.243 244.297 149.438 243.988 149.694 243.717C149.951 243.44 150.263 243.221 150.631 243.061C150.999 242.895 151.419 242.812 151.891 242.812C152.363 242.812 152.783 242.895 153.151 243.061C153.518 243.221 153.831 243.44 154.087 243.717C154.344 243.988 154.539 244.297 154.67 244.644C154.802 244.984 154.868 245.331 154.868 245.685V245.872C154.868 246.226 154.802 246.573 154.67 246.913C154.546 247.253 154.355 247.562 154.098 247.84C153.848 248.11 153.539 248.329 153.171 248.496C152.804 248.662 152.377 248.745 151.891 248.745ZM151.891 247.85C152.307 247.85 152.661 247.76 152.953 247.58C153.251 247.392 153.477 247.142 153.629 246.83C153.789 246.518 153.869 246.167 153.869 245.779C153.869 245.383 153.789 245.029 153.629 244.717C153.47 244.404 153.241 244.158 152.942 243.978C152.651 243.797 152.3 243.707 151.891 243.707C151.488 243.707 151.138 243.797 150.839 243.978C150.541 244.158 150.312 244.404 150.152 244.717C149.993 245.029 149.913 245.383 149.913 245.779C149.913 246.167 149.989 246.518 150.142 246.83C150.302 247.142 150.527 247.392 150.819 247.58C151.117 247.76 151.475 247.85 151.891 247.85ZM160.196 248.558L158.104 245.966H157.187L159.738 242.999H160.789L158.478 245.674L158.551 245.144L161.352 248.558H160.196ZM156.365 248.558V240.959H157.364V248.558H156.365Z"
            fill="#515D66" />
        <rect x="205.904" y="213.618" width="147.48" height="45.8804" rx="6.94021" fill="white" />
        <rect x="206.338" y="214.052" width="146.612" height="45.0129" rx="6.50645" stroke="#E9D5E6"
            stroke-opacity="0.67" stroke-width="0.867527" />
        <rect x="205.904" y="214.002" width="45.1114" height="45.1114" rx="6.94021" fill="#1877F2" />
        <path d="M220.073 229.329H236.846V243.787H220.073V229.329Z" stroke="white" stroke-width="1.30129"
            stroke-linecap="round" stroke-linejoin="round" />
        <path d="M224.7 229.329V243.787" stroke="white" stroke-width="1.30129" stroke-linecap="round"
            stroke-linejoin="round" />
        <path d="M220.073 233.956H236.846" stroke="white" stroke-width="1.30129" stroke-linecap="round"
            stroke-linejoin="round" />
        <path
            d="M267.129 233.603V232.351H269.012C269.471 232.351 269.881 232.28 270.241 232.137C270.602 231.987 270.911 231.78 271.166 231.517C271.422 231.254 271.614 230.945 271.741 230.592C271.877 230.231 271.944 229.844 271.944 229.43C271.944 228.987 271.877 228.588 271.741 228.235C271.614 227.882 271.422 227.577 271.166 227.321C270.911 227.066 270.602 226.87 270.241 226.735C269.881 226.592 269.471 226.521 269.012 226.521H267.129V225.269H268.899C269.644 225.269 270.29 225.382 270.839 225.607C271.396 225.833 271.858 226.137 272.226 226.521C272.595 226.904 272.869 227.336 273.05 227.818C273.23 228.299 273.32 228.795 273.32 229.306V229.554C273.32 230.036 273.23 230.521 273.05 231.009C272.869 231.49 272.595 231.927 272.226 232.318C271.858 232.701 271.396 233.013 270.839 233.254C270.29 233.487 269.644 233.603 268.899 233.603H267.129ZM266.001 233.603V225.269H267.354V233.603H266.001ZM275.047 233.558V227.479H276.366V233.558H275.047ZM274.156 228.494V227.479H276.366V228.494H274.156ZM275.475 226.634C275.205 226.634 275.002 226.562 274.866 226.419C274.739 226.276 274.675 226.092 274.675 225.867C274.675 225.649 274.739 225.468 274.866 225.325C275.002 225.175 275.205 225.1 275.475 225.1C275.754 225.1 275.957 225.175 276.084 225.325C276.22 225.468 276.287 225.649 276.287 225.867C276.287 226.092 276.22 226.276 276.084 226.419C275.957 226.562 275.754 226.634 275.475 226.634ZM280.431 233.739C279.611 233.739 278.972 233.566 278.513 233.22C278.062 232.874 277.825 232.396 277.803 231.787H279.021C279.036 232.013 279.152 232.22 279.371 232.408C279.589 232.596 279.946 232.69 280.442 232.69C280.863 232.69 281.194 232.607 281.434 232.442C281.675 232.276 281.795 232.069 281.795 231.821C281.795 231.596 281.705 231.419 281.525 231.291C281.352 231.156 281.055 231.066 280.634 231.021L280.036 230.964C279.412 230.897 278.916 230.712 278.547 230.412C278.186 230.111 278.006 229.705 278.006 229.194C278.006 228.788 278.107 228.445 278.31 228.167C278.513 227.889 278.792 227.675 279.145 227.524C279.506 227.374 279.919 227.299 280.386 227.299C281.107 227.299 281.69 227.461 282.134 227.784C282.577 228.1 282.807 228.566 282.822 229.182H281.615C281.6 228.949 281.491 228.754 281.288 228.596C281.085 228.438 280.784 228.359 280.386 228.359C280.01 228.359 279.72 228.434 279.517 228.585C279.322 228.735 279.224 228.927 279.224 229.16C279.224 229.37 279.299 229.536 279.449 229.656C279.6 229.776 279.844 229.855 280.183 229.893L280.78 229.949C281.464 230.024 282.006 230.216 282.404 230.524C282.81 230.825 283.013 231.246 283.013 231.787C283.013 232.178 282.904 232.521 282.686 232.814C282.468 233.107 282.164 233.336 281.773 233.502C281.389 233.66 280.942 233.739 280.431 233.739ZM284.456 235.814V227.479H285.505V230.107L285.302 230.096C285.34 229.457 285.475 228.93 285.708 228.517C285.941 228.103 286.25 227.795 286.633 227.592C287.017 227.389 287.438 227.288 287.896 227.288C288.332 227.288 288.727 227.37 289.08 227.536C289.434 227.694 289.738 227.915 289.994 228.201C290.25 228.487 290.441 228.818 290.569 229.194C290.704 229.57 290.772 229.976 290.772 230.412V230.626C290.772 231.054 290.704 231.46 290.569 231.844C290.434 232.22 290.238 232.551 289.983 232.836C289.727 233.122 289.422 233.348 289.069 233.513C288.716 233.678 288.321 233.761 287.885 233.761C287.441 233.761 287.028 233.667 286.644 233.479C286.261 233.291 285.945 232.99 285.697 232.577C285.449 232.163 285.31 231.626 285.28 230.964L285.776 231.799V235.814H284.456ZM287.603 232.622C287.971 232.622 288.295 232.536 288.573 232.363C288.851 232.182 289.065 231.934 289.216 231.618C289.374 231.295 289.453 230.927 289.453 230.513C289.453 230.1 289.374 229.735 289.216 229.419C289.065 229.103 288.851 228.859 288.573 228.686C288.302 228.506 287.979 228.415 287.603 228.415C287.272 228.415 286.964 228.491 286.678 228.641C286.393 228.791 286.163 229.009 285.99 229.295C285.817 229.573 285.731 229.912 285.731 230.31V230.795C285.731 231.178 285.817 231.509 285.99 231.787C286.171 232.058 286.404 232.265 286.689 232.408C286.975 232.551 287.28 232.622 287.603 232.622ZM292.355 233.558V225.325H293.686V233.558H292.355ZM291.554 226.34V225.325H293.686V226.34H291.554ZM299.289 233.558V231.742H299.075V229.69C299.075 229.314 298.977 229.028 298.782 228.833C298.587 228.637 298.297 228.539 297.914 228.539C297.703 228.539 297.47 228.543 297.214 228.551C296.959 228.558 296.707 228.57 296.459 228.585C296.218 228.592 296.004 228.603 295.816 228.618V227.479C295.981 227.464 296.162 227.453 296.357 227.446C296.56 227.43 296.767 227.419 296.978 227.412C297.196 227.404 297.402 227.4 297.598 227.4C298.214 227.4 298.726 227.479 299.132 227.637C299.538 227.795 299.838 228.047 300.034 228.393C300.237 228.731 300.338 229.186 300.338 229.757V233.558H299.289ZM297.316 233.716C296.872 233.716 296.485 233.641 296.154 233.49C295.823 233.333 295.568 233.107 295.387 232.814C295.207 232.513 295.117 232.156 295.117 231.742C295.117 231.306 295.218 230.945 295.421 230.66C295.632 230.374 295.929 230.16 296.312 230.017C296.696 229.874 297.154 229.803 297.688 229.803H299.211V230.671H297.654C297.256 230.671 296.951 230.769 296.741 230.964C296.53 231.152 296.425 231.4 296.425 231.709C296.425 232.017 296.53 232.265 296.741 232.453C296.951 232.633 297.256 232.724 297.654 232.724C297.887 232.724 298.109 232.682 298.32 232.599C298.53 232.509 298.703 232.363 298.838 232.16C298.981 231.957 299.06 231.671 299.075 231.303L299.414 231.742C299.376 232.171 299.271 232.532 299.098 232.825C298.932 233.111 298.699 233.333 298.399 233.49C298.105 233.641 297.744 233.716 297.316 233.716ZM301.84 235.938V234.776H302.844C303.077 234.776 303.276 234.746 303.441 234.686C303.607 234.633 303.742 234.536 303.847 234.393C303.953 234.257 304.039 234.073 304.107 233.84L305.877 227.479H307.152L305.235 234.156C305.114 234.577 304.945 234.919 304.727 235.182C304.517 235.445 304.246 235.637 303.915 235.757C303.592 235.878 303.201 235.938 302.742 235.938H301.84ZM303.712 233.423V232.351H305.02V233.423H303.712ZM303.385 233.423L301.321 227.479H302.663L304.637 233.423H303.385ZM310.178 233.558L313.066 225.325H315.31L318.287 233.558H316.889L314.284 226.228L314.836 226.487H313.472L314.058 226.228L311.532 233.558H310.178ZM312.051 231.235L312.479 230.062H315.93L316.37 231.235H312.051ZM321.962 233.761C321.526 233.761 321.127 233.682 320.766 233.524C320.413 233.366 320.101 233.145 319.83 232.859C319.567 232.573 319.364 232.242 319.221 231.866C319.078 231.49 319.007 231.081 319.007 230.637V230.423C319.007 229.987 319.075 229.581 319.21 229.205C319.353 228.821 319.552 228.487 319.808 228.201C320.063 227.915 320.368 227.694 320.721 227.536C321.082 227.37 321.48 227.288 321.917 227.288C322.383 227.288 322.8 227.389 323.168 227.592C323.544 227.788 323.845 228.092 324.071 228.506C324.304 228.912 324.432 229.43 324.454 230.062L324.003 229.442V225.325H325.322V233.558H324.274V230.919H324.567C324.544 231.573 324.409 232.111 324.161 232.532C323.92 232.953 323.608 233.265 323.225 233.468C322.841 233.663 322.42 233.761 321.962 233.761ZM322.21 232.622C322.548 232.622 322.853 232.547 323.123 232.396C323.401 232.246 323.623 232.028 323.789 231.742C323.962 231.449 324.048 231.107 324.048 230.716V230.231C324.048 229.848 323.962 229.521 323.789 229.25C323.616 228.979 323.39 228.773 323.112 228.63C322.834 228.487 322.529 228.415 322.199 228.415C321.83 228.415 321.503 228.506 321.217 228.686C320.939 228.859 320.721 229.103 320.563 229.419C320.405 229.735 320.326 230.103 320.326 230.524C320.326 230.953 320.405 231.325 320.563 231.641C320.729 231.957 320.954 232.201 321.24 232.374C321.526 232.539 321.849 232.622 322.21 232.622ZM329.364 233.739C328.544 233.739 327.905 233.566 327.446 233.22C326.995 232.874 326.759 232.396 326.736 231.787H327.954C327.969 232.013 328.086 232.22 328.304 232.408C328.522 232.596 328.879 232.69 329.375 232.69C329.796 232.69 330.127 232.607 330.367 232.442C330.608 232.276 330.728 232.069 330.728 231.821C330.728 231.596 330.638 231.419 330.458 231.291C330.285 231.156 329.988 231.066 329.567 231.021L328.969 230.964C328.345 230.897 327.849 230.712 327.48 230.412C327.119 230.111 326.939 229.705 326.939 229.194C326.939 228.788 327.04 228.445 327.243 228.167C327.446 227.889 327.725 227.675 328.078 227.524C328.439 227.374 328.852 227.299 329.319 227.299C330.04 227.299 330.623 227.461 331.067 227.784C331.51 228.1 331.74 228.566 331.755 229.182H330.548C330.533 228.949 330.424 228.754 330.221 228.596C330.018 228.438 329.717 228.359 329.319 228.359C328.943 228.359 328.653 228.434 328.45 228.585C328.255 228.735 328.157 228.927 328.157 229.16C328.157 229.37 328.232 229.536 328.383 229.656C328.533 229.776 328.777 229.855 329.116 229.893L329.713 229.949C330.398 230.024 330.939 230.216 331.337 230.524C331.743 230.825 331.946 231.246 331.946 231.787C331.946 232.178 331.837 232.521 331.619 232.814C331.401 233.107 331.097 233.336 330.706 233.502C330.322 233.66 329.875 233.739 329.364 233.739Z"
            fill="#171F27" />
        <path
            d="M269.875 248.745C269.286 248.745 268.751 248.648 268.272 248.454C267.793 248.26 267.38 247.986 267.033 247.632C266.693 247.278 266.43 246.861 266.242 246.382C266.055 245.897 265.961 245.369 265.961 244.8V244.571C265.961 244.085 266.044 243.617 266.211 243.166C266.385 242.708 266.631 242.298 266.95 241.937C267.276 241.569 267.672 241.281 268.137 241.073C268.602 240.858 269.126 240.75 269.709 240.75C270.34 240.75 270.903 240.872 271.395 241.115C271.888 241.351 272.284 241.684 272.582 242.114C272.881 242.537 273.054 243.03 273.103 243.592H272.062C272.013 243.169 271.874 242.819 271.645 242.541C271.416 242.256 271.132 242.045 270.792 241.906C270.458 241.76 270.098 241.687 269.709 241.687C269.313 241.687 268.949 241.76 268.616 241.906C268.283 242.045 267.995 242.246 267.752 242.51C267.516 242.773 267.332 243.089 267.2 243.457C267.068 243.825 267.002 244.238 267.002 244.696C267.002 245.216 267.072 245.674 267.21 246.07C267.356 246.459 267.557 246.785 267.814 247.049C268.071 247.305 268.373 247.5 268.72 247.632C269.074 247.763 269.459 247.829 269.875 247.829C270.465 247.829 270.982 247.711 271.427 247.475C271.878 247.233 272.218 246.92 272.447 246.539L272.072 247.777V245.518H273.03V247.33C272.69 247.774 272.253 248.121 271.718 248.371C271.184 248.621 270.569 248.745 269.875 248.745ZM269.605 245.726V244.873H273.675V245.726H269.605ZM277.548 248.745C277.063 248.745 276.636 248.662 276.268 248.496C275.9 248.329 275.588 248.11 275.331 247.84C275.081 247.562 274.89 247.253 274.758 246.913C274.634 246.573 274.571 246.226 274.571 245.872V245.685C274.571 245.331 274.637 244.984 274.769 244.644C274.901 244.297 275.095 243.988 275.352 243.717C275.609 243.44 275.921 243.221 276.289 243.061C276.657 242.895 277.077 242.812 277.548 242.812C278.02 242.812 278.44 242.895 278.808 243.061C279.176 243.221 279.488 243.44 279.745 243.717C280.002 243.988 280.196 244.297 280.328 244.644C280.46 244.984 280.526 245.331 280.526 245.685V245.872C280.526 246.226 280.46 246.573 280.328 246.913C280.203 247.253 280.012 247.562 279.755 247.84C279.506 248.11 279.197 248.329 278.829 248.496C278.461 248.662 278.034 248.745 277.548 248.745ZM277.548 247.85C277.965 247.85 278.319 247.76 278.61 247.58C278.909 247.392 279.134 247.142 279.287 246.83C279.447 246.518 279.526 246.167 279.526 245.779C279.526 245.383 279.447 245.029 279.287 244.717C279.127 244.404 278.898 244.158 278.6 243.978C278.308 243.797 277.958 243.707 277.548 243.707C277.146 243.707 276.795 243.797 276.497 243.978C276.199 244.158 275.97 244.404 275.81 244.717C275.65 245.029 275.57 245.383 275.57 245.779C275.57 246.167 275.647 246.518 275.8 246.83C275.959 247.142 276.185 247.392 276.476 247.58C276.775 247.76 277.132 247.85 277.548 247.85ZM284.584 248.745C284.098 248.745 283.671 248.662 283.303 248.496C282.935 248.329 282.623 248.11 282.366 247.84C282.116 247.562 281.925 247.253 281.794 246.913C281.669 246.573 281.606 246.226 281.606 245.872V245.685C281.606 245.331 281.672 244.984 281.804 244.644C281.936 244.297 282.13 243.988 282.387 243.717C282.644 243.44 282.956 243.221 283.324 243.061C283.692 242.895 284.112 242.812 284.584 242.812C285.055 242.812 285.475 242.895 285.843 243.061C286.211 243.221 286.523 243.44 286.78 243.717C287.037 243.988 287.231 244.297 287.363 244.644C287.495 244.984 287.561 245.331 287.561 245.685V245.872C287.561 246.226 287.495 246.573 287.363 246.913C287.238 247.253 287.047 247.562 286.791 247.84C286.541 248.11 286.232 248.329 285.864 248.496C285.496 248.662 285.069 248.745 284.584 248.745ZM284.584 247.85C285 247.85 285.354 247.76 285.645 247.58C285.944 247.392 286.169 247.142 286.322 246.83C286.482 246.518 286.562 246.167 286.562 245.779C286.562 245.383 286.482 245.029 286.322 244.717C286.162 244.404 285.933 244.158 285.635 243.978C285.344 243.797 284.993 243.707 284.584 243.707C284.181 243.707 283.831 243.797 283.532 243.978C283.234 244.158 283.005 244.404 282.845 244.717C282.685 245.029 282.606 245.383 282.606 245.779C282.606 246.167 282.682 246.518 282.835 246.83C282.994 247.142 283.22 247.392 283.511 247.58C283.81 247.76 284.167 247.85 284.584 247.85ZM291.161 250.723C290.904 250.723 290.644 250.713 290.38 250.692C290.123 250.671 289.877 250.644 289.641 250.609V249.766C289.891 249.8 290.151 249.828 290.421 249.849C290.699 249.877 290.959 249.891 291.202 249.891C291.709 249.891 292.111 249.821 292.41 249.682C292.715 249.551 292.934 249.339 293.066 249.047C293.204 248.763 293.274 248.395 293.274 247.944V246.882L293.607 246.091C293.586 246.653 293.468 247.121 293.253 247.496C293.038 247.864 292.757 248.142 292.41 248.329C292.07 248.51 291.692 248.6 291.275 248.6C290.886 248.6 290.529 248.527 290.203 248.381C289.884 248.228 289.606 248.02 289.37 247.757C289.141 247.493 288.961 247.191 288.829 246.851C288.704 246.504 288.641 246.139 288.641 245.758V245.57C288.641 245.182 288.707 244.821 288.839 244.488C288.971 244.148 289.155 243.853 289.391 243.603C289.627 243.353 289.908 243.159 290.234 243.02C290.567 242.881 290.932 242.812 291.327 242.812C291.792 242.812 292.202 242.912 292.556 243.114C292.91 243.308 293.187 243.596 293.388 243.978C293.597 244.352 293.711 244.814 293.732 245.362L293.44 245.373V242.999H294.232V247.902C294.232 248.569 294.128 249.106 293.919 249.516C293.718 249.932 293.392 250.238 292.941 250.432C292.497 250.626 291.903 250.723 291.161 250.723ZM291.463 247.684C291.796 247.684 292.098 247.611 292.368 247.465C292.646 247.319 292.864 247.111 293.024 246.84C293.191 246.563 293.274 246.233 293.274 245.851V245.373C293.274 244.998 293.187 244.682 293.014 244.425C292.847 244.168 292.628 243.974 292.358 243.842C292.087 243.71 291.792 243.644 291.473 243.644C291.112 243.644 290.793 243.728 290.515 243.894C290.238 244.061 290.022 244.297 289.87 244.602C289.717 244.901 289.641 245.255 289.641 245.664C289.641 246.074 289.717 246.431 289.87 246.736C290.029 247.042 290.244 247.278 290.515 247.444C290.793 247.604 291.109 247.684 291.463 247.684ZM296.145 248.558V240.959H297.145V248.558H296.145ZM295.375 241.75V240.959H297.145V241.75H295.375ZM301.425 248.745C300.939 248.745 300.519 248.662 300.165 248.496C299.811 248.329 299.523 248.11 299.301 247.84C299.079 247.562 298.912 247.253 298.801 246.913C298.697 246.573 298.645 246.226 298.645 245.872V245.685C298.645 245.324 298.697 244.973 298.801 244.633C298.912 244.293 299.079 243.988 299.301 243.717C299.523 243.44 299.804 243.221 300.144 243.061C300.491 242.895 300.897 242.812 301.362 242.812C301.966 242.812 302.462 242.943 302.851 243.207C303.246 243.464 303.538 243.797 303.725 244.207C303.92 244.616 304.017 245.053 304.017 245.518V245.966H299.082V245.216H303.288L303.059 245.622C303.059 245.227 302.996 244.887 302.872 244.602C302.747 244.311 302.559 244.085 302.309 243.926C302.06 243.766 301.744 243.686 301.362 243.686C300.966 243.686 300.637 243.776 300.373 243.957C300.116 244.137 299.922 244.384 299.79 244.696C299.665 245.008 299.603 245.369 299.603 245.779C299.603 246.174 299.665 246.532 299.79 246.851C299.922 247.163 300.123 247.413 300.394 247.6C300.665 247.781 301.008 247.871 301.425 247.871C301.862 247.871 302.216 247.774 302.486 247.58C302.764 247.385 302.931 247.16 302.986 246.903H303.923C303.847 247.285 303.694 247.614 303.465 247.892C303.236 248.169 302.948 248.381 302.601 248.527C302.254 248.673 301.862 248.745 301.425 248.745ZM307.138 248.558L309.876 240.959H311.604L314.425 248.558H313.374L310.823 241.625L311.323 241.875H310.095L310.626 241.625L308.158 248.558H307.138ZM308.773 246.289L309.116 245.373H312.395L312.739 246.289H308.773ZM317.934 248.745C317.538 248.745 317.174 248.673 316.841 248.527C316.507 248.381 316.216 248.176 315.966 247.913C315.723 247.649 315.532 247.344 315.394 246.997C315.262 246.65 315.196 246.275 315.196 245.872V245.685C315.196 245.289 315.262 244.918 315.394 244.571C315.525 244.224 315.709 243.919 315.945 243.655C316.188 243.391 316.473 243.186 316.799 243.041C317.132 242.888 317.5 242.812 317.902 242.812C318.326 242.812 318.711 242.902 319.058 243.082C319.405 243.256 319.69 243.53 319.912 243.905C320.134 244.279 320.259 244.765 320.286 245.362L319.87 244.696V240.959H320.869V248.558H320.078V246.091H320.37C320.342 246.722 320.21 247.236 319.974 247.632C319.738 248.02 319.44 248.305 319.079 248.485C318.725 248.659 318.343 248.745 317.934 248.745ZM318.069 247.871C318.409 247.871 318.718 247.795 318.996 247.642C319.273 247.489 319.495 247.271 319.662 246.986C319.828 246.695 319.912 246.355 319.912 245.966V245.487C319.912 245.105 319.825 244.783 319.651 244.519C319.485 244.248 319.259 244.043 318.975 243.905C318.697 243.759 318.392 243.686 318.059 243.686C317.691 243.686 317.365 243.773 317.08 243.946C316.802 244.12 316.584 244.363 316.424 244.675C316.271 244.987 316.195 245.355 316.195 245.779C316.195 246.202 316.275 246.573 316.435 246.892C316.594 247.205 316.816 247.448 317.101 247.621C317.385 247.788 317.708 247.871 318.069 247.871ZM324.611 248.725C323.883 248.725 323.317 248.569 322.915 248.256C322.519 247.944 322.314 247.517 322.3 246.976H323.237C323.251 247.191 323.359 247.396 323.56 247.59C323.768 247.777 324.119 247.871 324.611 247.871C325.056 247.871 325.396 247.784 325.632 247.611C325.868 247.43 325.986 247.212 325.986 246.955C325.986 246.726 325.899 246.549 325.725 246.424C325.552 246.292 325.271 246.205 324.882 246.164L324.278 246.101C323.751 246.046 323.321 245.89 322.987 245.633C322.654 245.369 322.488 245.001 322.488 244.529C322.488 244.175 322.578 243.873 322.758 243.624C322.939 243.367 323.189 243.172 323.508 243.041C323.827 242.902 324.195 242.832 324.611 242.832C325.236 242.832 325.743 242.971 326.131 243.249C326.52 243.526 326.721 243.939 326.735 244.488H325.798C325.791 244.266 325.687 244.078 325.486 243.926C325.292 243.766 325 243.686 324.611 243.686C324.223 243.686 323.928 243.766 323.727 243.926C323.525 244.085 323.425 244.286 323.425 244.529C323.425 244.738 323.494 244.904 323.633 245.029C323.779 245.154 324.015 245.234 324.341 245.268L324.945 245.331C325.541 245.393 326.02 245.56 326.381 245.831C326.742 246.094 326.922 246.469 326.922 246.955C326.922 247.302 326.822 247.611 326.621 247.881C326.426 248.145 326.156 248.353 325.809 248.506C325.462 248.652 325.063 248.725 324.611 248.725Z"
            fill="#515D66" />
    </g>
    <defs>
        <filter id="filter0_b_350_18313" x="-50" y="-50" width="504" height="424" filterUnits="userSpaceOnUse"
            color-interpolation-filters="sRGB">
            <feFlood flood-opacity="0" result="BackgroundImageFix" />
            <feGaussianBlur in="BackgroundImageFix" stdDeviation="25" />
            <feComposite in2="SourceAlpha" operator="in" result="effect1_backgroundBlur_350_18313" />
            <feBlend mode="normal" in="SourceGraphic" in2="effect1_backgroundBlur_350_18313" result="shape" />
        </filter>
    </defs>
</svg>