<svg width="402" height="324" viewBox="0 0 402 324" fill="none" xmlns="http://www.w3.org/2000/svg">
    <g filter="url(#filter0_b_350_18299)">
        <rect x="0.75" width="401" height="324" rx="16" fill-opacity="0.4" />
        <!-- <rect x="1.25" y="0.5" width="401" height="324" rx="15.5" stroke="white" /> -->
        <path d="M37.3333 55.9166L42.75 61.3333L48.1666 55.9166" stroke="#515D66" stroke-width="2"
            stroke-linecap="round" />
        <!-- <rect x="64.75" y="42" width="32" height="32" rx="6" fill="#F2E8FD" /> -->
        <path d="M83.4167 52.6667H78.0834V61.3334H83.4167V52.6667Z" stroke="#8542C3" stroke-width="1.2"
            stroke-miterlimit="10" stroke-linejoin="round" />
        <path d="M78.0818 61.3333H83.4182L84.75 63.3333H76.75L78.0818 61.3333Z" stroke="#8542C3" stroke-width="1.2"
            stroke-miterlimit="10" stroke-linejoin="round" />
        <path d="M78.0834 61.3334L81.4167 59.8907V52.6667" stroke="#8542C3" stroke-width="1.2" stroke-miterlimit="10"
            stroke-linecap="round" stroke-linejoin="round" />
        <path d="M80.0834 56V56.6667" stroke="#8542C3" stroke-width="1.2" stroke-miterlimit="10" stroke-linecap="round"
            stroke-linejoin="round" />
        <path
            d="M107.604 62V53.394L108.176 53.836H105.407V52.51H109.151V62H107.604ZM105.264 62V60.674H111.257V62H105.264ZM113.309 62V60.167H115.077V62H113.309ZM125.359 62.234C124.484 62.234 123.747 62.0693 123.149 61.74C122.56 61.402 122.109 60.9297 121.797 60.323C121.494 59.7163 121.342 59.01 121.342 58.204V52.51H122.902V58.334C122.902 58.8193 122.997 59.2483 123.188 59.621C123.379 59.9937 123.656 60.284 124.02 60.492C124.384 60.6913 124.83 60.791 125.359 60.791C125.888 60.791 126.33 60.6913 126.685 60.492C127.049 60.2927 127.326 60.0067 127.517 59.634C127.708 59.2613 127.803 58.828 127.803 58.334V52.51H129.363V58.204C129.363 59.01 129.211 59.7163 128.908 60.323C128.605 60.9297 128.154 61.402 127.556 61.74C126.967 62.0693 126.234 62.234 125.359 62.234ZM133.993 62.208C133.048 62.208 132.312 62.0087 131.783 61.61C131.263 61.2113 130.99 60.661 130.964 59.959H132.368C132.385 60.219 132.52 60.4573 132.771 60.674C133.022 60.8907 133.434 60.999 134.006 60.999C134.491 60.999 134.873 60.9037 135.15 60.713C135.427 60.5223 135.566 60.284 135.566 59.998C135.566 59.738 135.462 59.5343 135.254 59.387C135.055 59.231 134.712 59.127 134.227 59.075L133.538 59.01C132.819 58.932 132.247 58.7197 131.822 58.373C131.406 58.0263 131.198 57.5583 131.198 56.969C131.198 56.501 131.315 56.1067 131.549 55.786C131.783 55.4653 132.104 55.2183 132.511 55.045C132.927 54.8717 133.404 54.785 133.941 54.785C134.773 54.785 135.445 54.9713 135.956 55.344C136.467 55.708 136.732 56.2453 136.749 56.956H135.358C135.341 56.6873 135.215 56.462 134.981 56.28C134.747 56.098 134.4 56.007 133.941 56.007C133.508 56.007 133.174 56.0937 132.94 56.267C132.715 56.4403 132.602 56.6613 132.602 56.93C132.602 57.1727 132.689 57.3633 132.862 57.502C133.035 57.6407 133.317 57.7317 133.707 57.775L134.396 57.84C135.185 57.9267 135.809 58.1477 136.268 58.503C136.736 58.8497 136.97 59.335 136.97 59.959C136.97 60.4097 136.844 60.804 136.593 61.142C136.342 61.48 135.991 61.7443 135.54 61.935C135.098 62.117 134.582 62.208 133.993 62.208ZM141.689 62.234C141.082 62.234 140.553 62.13 140.103 61.922C139.652 61.714 139.284 61.441 138.998 61.103C138.712 60.7563 138.495 60.3707 138.348 59.946C138.209 59.5127 138.14 59.0707 138.14 58.62V58.373C138.14 57.9137 138.209 57.4717 138.348 57.047C138.495 56.6137 138.712 56.228 138.998 55.89C139.284 55.5433 139.643 55.2703 140.077 55.071C140.519 54.863 141.03 54.759 141.611 54.759C142.365 54.759 142.993 54.9237 143.496 55.253C143.998 55.5823 144.375 56.0113 144.627 56.54C144.878 57.06 145.004 57.6233 145.004 58.23V58.841H138.79V57.814H143.977L143.561 58.334C143.561 57.866 143.487 57.463 143.34 57.125C143.192 56.7783 142.976 56.514 142.69 56.332C142.404 56.1413 142.044 56.046 141.611 56.046C141.16 56.046 140.783 56.15 140.48 56.358C140.176 56.566 139.951 56.852 139.804 57.216C139.656 57.58 139.583 58.009 139.583 58.503C139.583 58.971 139.656 59.3913 139.804 59.764C139.951 60.128 140.181 60.4183 140.493 60.635C140.805 60.843 141.203 60.947 141.689 60.947C142.174 60.947 142.573 60.843 142.885 60.635C143.197 60.4183 143.387 60.167 143.457 59.881H144.874C144.778 60.3577 144.583 60.7737 144.289 61.129C144.003 61.4843 143.639 61.7573 143.197 61.948C142.755 62.1387 142.252 62.234 141.689 62.234ZM146.644 62V54.993H147.853V57.918H147.801C147.801 56.9127 148.022 56.163 148.464 55.669C148.906 55.1663 149.561 54.915 150.427 54.915H150.674V56.254H150.206C149.548 56.254 149.041 56.4317 148.685 56.787C148.339 57.1337 148.165 57.632 148.165 58.282V62H146.644ZM158.224 62.234C157.409 62.234 156.716 62.104 156.144 61.844C155.581 61.5753 155.152 61.2113 154.857 60.752C154.562 60.284 154.415 59.7553 154.415 59.166H155.949C155.949 59.4347 156.023 59.699 156.17 59.959C156.317 60.219 156.556 60.4357 156.885 60.609C157.214 60.7737 157.661 60.856 158.224 60.856C158.735 60.856 159.156 60.7823 159.485 60.635C159.823 60.4877 160.07 60.2927 160.226 60.05C160.391 59.8073 160.473 59.5387 160.473 59.244C160.473 58.88 160.317 58.5853 160.005 58.36C159.693 58.126 159.225 57.983 158.601 57.931L157.652 57.84C156.777 57.7707 156.079 57.502 155.559 57.034C155.039 56.5573 154.779 55.9333 154.779 55.162C154.779 54.5727 154.918 54.0613 155.195 53.628C155.481 53.1947 155.88 52.8567 156.391 52.614C156.902 52.3627 157.496 52.237 158.172 52.237C158.865 52.237 159.468 52.3627 159.979 52.614C160.49 52.8567 160.885 53.2033 161.162 53.654C161.448 54.096 161.591 54.6247 161.591 55.24H160.057C160.057 54.9627 159.988 54.7027 159.849 54.46C159.719 54.2087 159.515 54.005 159.238 53.849C158.961 53.693 158.605 53.615 158.172 53.615C157.756 53.615 157.409 53.6887 157.132 53.836C156.863 53.9833 156.66 54.174 156.521 54.408C156.382 54.642 156.313 54.8933 156.313 55.162C156.313 55.4827 156.434 55.7687 156.677 56.02C156.92 56.2627 157.292 56.4057 157.795 56.449L158.731 56.527C159.398 56.579 159.975 56.722 160.46 56.956C160.954 57.1813 161.335 57.4847 161.604 57.866C161.881 58.2473 162.02 58.7067 162.02 59.244C162.02 59.8333 161.86 60.3533 161.539 60.804C161.227 61.2547 160.785 61.6057 160.213 61.857C159.65 62.1083 158.987 62.234 158.224 62.234ZM164.108 62V54.993H165.629V62H164.108ZM163.081 56.163V54.993H165.629V56.163H163.081ZM164.602 54.018C164.29 54.018 164.056 53.9357 163.9 53.771C163.753 53.6063 163.679 53.394 163.679 53.134C163.679 52.8827 163.753 52.6747 163.9 52.51C164.056 52.3367 164.29 52.25 164.602 52.25C164.923 52.25 165.157 52.3367 165.304 52.51C165.46 52.6747 165.538 52.8827 165.538 53.134C165.538 53.394 165.46 53.6063 165.304 53.771C165.157 53.9357 164.923 54.018 164.602 54.018ZM170.574 64.743C170.245 64.743 169.911 64.73 169.573 64.704C169.235 64.678 168.919 64.6433 168.624 64.6V63.313C168.936 63.3563 169.266 63.391 169.612 63.417C169.968 63.4517 170.297 63.469 170.6 63.469C171.207 63.469 171.692 63.391 172.056 63.235C172.429 63.079 172.698 62.8363 172.862 62.507C173.036 62.1863 173.122 61.766 173.122 61.246V59.894L173.525 58.958C173.499 59.634 173.356 60.2017 173.096 60.661C172.845 61.1203 172.507 61.467 172.082 61.701C171.666 61.935 171.19 62.052 170.652 62.052C170.167 62.052 169.725 61.961 169.326 61.779C168.928 61.597 168.585 61.3413 168.299 61.012C168.013 60.6827 167.792 60.3057 167.636 59.881C167.48 59.4477 167.402 58.9883 167.402 58.503V58.256C167.402 57.762 167.48 57.3027 167.636 56.878C167.801 56.4533 168.031 56.085 168.325 55.773C168.62 55.4523 168.971 55.2053 169.378 55.032C169.794 54.8587 170.249 54.772 170.743 54.772C171.315 54.772 171.818 54.8977 172.251 55.149C172.693 55.3917 173.04 55.7513 173.291 56.228C173.543 56.7047 173.677 57.2853 173.694 57.97L173.356 58.009V54.993H174.565V61.168C174.565 62.0173 174.427 62.702 174.149 63.222C173.881 63.7507 173.452 64.1363 172.862 64.379C172.282 64.6217 171.519 64.743 170.574 64.743ZM171.029 60.7C171.411 60.7 171.757 60.6177 172.069 60.453C172.39 60.2797 172.641 60.037 172.823 59.725C173.014 59.4043 173.109 59.023 173.109 58.581V58.048C173.109 57.6147 173.01 57.2507 172.81 56.956C172.62 56.6527 172.368 56.423 172.056 56.267C171.744 56.111 171.406 56.033 171.042 56.033C170.626 56.033 170.258 56.1327 169.937 56.332C169.617 56.5227 169.365 56.7957 169.183 57.151C169.01 57.4977 168.923 57.905 168.923 58.373C168.923 58.8497 169.014 59.2657 169.196 59.621C169.378 59.9677 169.625 60.2363 169.937 60.427C170.258 60.609 170.622 60.7 171.029 60.7ZM176.72 62V54.993H177.929V57.996H177.786C177.786 57.3027 177.877 56.7177 178.059 56.241C178.249 55.7643 178.535 55.4047 178.917 55.162C179.298 54.9107 179.77 54.785 180.334 54.785H180.399C181.265 54.785 181.911 55.058 182.336 55.604C182.76 56.15 182.973 56.9473 182.973 57.996V62H181.452V57.788C181.452 57.3027 181.313 56.9127 181.036 56.618C180.758 56.3147 180.377 56.163 179.892 56.163C179.398 56.163 178.999 56.319 178.696 56.631C178.392 56.9343 178.241 57.3417 178.241 57.853V62H176.72ZM188.141 62.234C187.534 62.234 187.005 62.13 186.555 61.922C186.104 61.714 185.736 61.441 185.45 61.103C185.164 60.7563 184.947 60.3707 184.8 59.946C184.661 59.5127 184.592 59.0707 184.592 58.62V58.373C184.592 57.9137 184.661 57.4717 184.8 57.047C184.947 56.6137 185.164 56.228 185.45 55.89C185.736 55.5433 186.095 55.2703 186.529 55.071C186.971 54.863 187.482 54.759 188.063 54.759C188.817 54.759 189.445 54.9237 189.948 55.253C190.45 55.5823 190.827 56.0113 191.079 56.54C191.33 57.06 191.456 57.6233 191.456 58.23V58.841H185.242V57.814H190.429L190.013 58.334C190.013 57.866 189.939 57.463 189.792 57.125C189.644 56.7783 189.428 56.514 189.142 56.332C188.856 56.1413 188.496 56.046 188.063 56.046C187.612 56.046 187.235 56.15 186.932 56.358C186.628 56.566 186.403 56.852 186.256 57.216C186.108 57.58 186.035 58.009 186.035 58.503C186.035 58.971 186.108 59.3913 186.256 59.764C186.403 60.128 186.633 60.4183 186.945 60.635C187.257 60.843 187.655 60.947 188.141 60.947C188.626 60.947 189.025 60.843 189.337 60.635C189.649 60.4183 189.839 60.167 189.909 59.881H191.326C191.23 60.3577 191.035 60.7737 190.741 61.129C190.455 61.4843 190.091 61.7573 189.649 61.948C189.207 62.1387 188.704 62.234 188.141 62.234ZM196.009 62.234C195.506 62.234 195.047 62.143 194.631 61.961C194.223 61.779 193.864 61.5233 193.552 61.194C193.248 60.8647 193.014 60.4833 192.85 60.05C192.685 59.6167 192.603 59.1443 192.603 58.633V58.386C192.603 57.8833 192.681 57.4153 192.837 56.982C193.001 56.54 193.231 56.1543 193.526 55.825C193.82 55.4957 194.171 55.24 194.579 55.058C194.995 54.8673 195.454 54.772 195.957 54.772C196.494 54.772 196.975 54.889 197.4 55.123C197.833 55.3483 198.18 55.6993 198.44 56.176C198.708 56.644 198.856 57.242 198.882 57.97L198.362 57.255V52.51H199.883V62H198.674V58.958H199.012C198.986 59.712 198.83 60.3317 198.544 60.817C198.266 61.3023 197.907 61.662 197.465 61.896C197.023 62.1213 196.537 62.234 196.009 62.234ZM196.295 60.921C196.685 60.921 197.036 60.8343 197.348 60.661C197.668 60.4877 197.924 60.2363 198.115 59.907C198.314 59.569 198.414 59.1747 198.414 58.724V58.165C198.414 57.723 198.314 57.346 198.115 57.034C197.915 56.722 197.655 56.4837 197.335 56.319C197.014 56.1543 196.663 56.072 196.282 56.072C195.857 56.072 195.48 56.176 195.151 56.384C194.83 56.5833 194.579 56.865 194.397 57.229C194.215 57.593 194.124 58.0177 194.124 58.503C194.124 58.997 194.215 59.426 194.397 59.79C194.587 60.154 194.847 60.4357 195.177 60.635C195.506 60.8257 195.879 60.921 196.295 60.921ZM208.996 62.234C208.12 62.234 207.384 62.0693 206.786 61.74C206.196 61.402 205.746 60.9297 205.434 60.323C205.13 59.7163 204.979 59.01 204.979 58.204V52.51H206.539V58.334C206.539 58.8193 206.634 59.2483 206.825 59.621C207.015 59.9937 207.293 60.284 207.657 60.492C208.021 60.6913 208.467 60.791 208.996 60.791C209.524 60.791 209.966 60.6913 210.322 60.492C210.686 60.2927 210.963 60.0067 211.154 59.634C211.344 59.2613 211.44 58.828 211.44 58.334V52.51H213V58.204C213 59.01 212.848 59.7163 212.545 60.323C212.241 60.9297 211.791 61.402 211.193 61.74C210.603 62.0693 209.871 62.234 208.996 62.234ZM215.212 64.6V54.993H216.421V58.022L216.187 58.009C216.23 57.2723 216.386 56.6657 216.655 56.189C216.923 55.7123 217.279 55.357 217.721 55.123C218.163 54.889 218.648 54.772 219.177 54.772C219.679 54.772 220.134 54.8673 220.542 55.058C220.949 55.24 221.3 55.4957 221.595 55.825C221.889 56.1543 222.11 56.5357 222.258 56.969C222.414 57.4023 222.492 57.8703 222.492 58.373V58.62C222.492 59.114 222.414 59.582 222.258 60.024C222.102 60.4573 221.876 60.8387 221.582 61.168C221.287 61.4973 220.936 61.7573 220.529 61.948C220.121 62.1387 219.666 62.234 219.164 62.234C218.652 62.234 218.176 62.1257 217.734 61.909C217.292 61.6923 216.928 61.3457 216.642 60.869C216.356 60.3923 216.195 59.7727 216.161 59.01L216.733 59.972V64.6H215.212ZM218.839 60.921C219.263 60.921 219.636 60.8213 219.957 60.622C220.277 60.414 220.524 60.128 220.698 59.764C220.88 59.3913 220.971 58.9667 220.971 58.49C220.971 58.0133 220.88 57.593 220.698 57.229C220.524 56.865 220.277 56.5833 219.957 56.384C219.645 56.176 219.272 56.072 218.839 56.072C218.457 56.072 218.102 56.1587 217.773 56.332C217.443 56.5053 217.179 56.7567 216.98 57.086C216.78 57.4067 216.681 57.7967 216.681 58.256V58.815C216.681 59.257 216.78 59.6383 216.98 59.959C217.188 60.271 217.456 60.5093 217.786 60.674C218.115 60.8387 218.466 60.921 218.839 60.921Z"
            fill="#171F27" />
        <path d="M69.3334 112.083L74.75 106.667L80.1667 112.083" stroke="#515D66" stroke-width="2"
            stroke-linecap="round" />
        <rect x="96.75" y="94" width="32" height="32" rx="6" fill="#BFF0E4" />
        <path
            d="M117.583 110C117.583 112.669 115.419 114.833 112.75 114.833C110.081 114.833 107.917 112.669 107.917 110C107.917 107.331 110.081 105.167 112.75 105.167C115.419 105.167 117.583 107.331 117.583 110Z"
            stroke="#0D5443" stroke-width="1.2" stroke-linecap="round" stroke-linejoin="round" />
        <path d="M112.75 107.333V110L114.417 111.667" stroke="#0D5443" stroke-width="1.2" stroke-linecap="round"
            stroke-linejoin="round" />
        <path
            d="M136.9 114V112.297C136.9 111.916 136.961 111.586 137.082 111.309C137.212 111.023 137.416 110.767 137.693 110.542C137.979 110.317 138.365 110.096 138.85 109.879L140.54 109.125C140.991 108.917 141.329 108.67 141.554 108.384C141.78 108.089 141.892 107.712 141.892 107.253C141.892 106.742 141.732 106.334 141.411 106.031C141.099 105.719 140.657 105.563 140.085 105.563C139.522 105.563 139.08 105.719 138.759 106.031C138.447 106.334 138.291 106.759 138.291 107.305H136.796C136.796 106.742 136.913 106.23 137.147 105.771C137.39 105.303 137.754 104.93 138.239 104.653C138.733 104.376 139.349 104.237 140.085 104.237C140.822 104.237 141.433 104.376 141.918 104.653C142.412 104.922 142.781 105.281 143.023 105.732C143.266 106.174 143.387 106.655 143.387 107.175V107.344C143.387 108.046 143.188 108.635 142.789 109.112C142.391 109.589 141.814 109.992 141.06 110.321L139.37 111.075C138.998 111.24 138.746 111.404 138.616 111.569C138.486 111.725 138.421 111.933 138.421 112.193V113.22L138.031 112.674H143.478V114H136.9ZM145.309 114V112.167H147.077V114H145.309ZM155.084 114L152.601 104.51H154.213L156.306 112.973L155.747 112.661H157.164L156.553 112.973L158.23 104.887H159.608L157.619 114H155.084ZM160.778 114L158.594 104.887H160.037L161.948 112.973L161.35 112.661H162.767L162.182 112.973L164.041 104.51H165.575L163.339 114H160.778ZM171.114 114V111.907H170.867V109.541C170.867 109.108 170.754 108.778 170.529 108.553C170.303 108.328 169.97 108.215 169.528 108.215C169.285 108.215 169.016 108.219 168.722 108.228C168.427 108.237 168.137 108.25 167.851 108.267C167.573 108.276 167.326 108.289 167.11 108.306V106.993C167.3 106.976 167.508 106.963 167.734 106.954C167.968 106.937 168.206 106.924 168.449 106.915C168.7 106.906 168.938 106.902 169.164 106.902C169.874 106.902 170.464 106.993 170.932 107.175C171.4 107.357 171.746 107.647 171.972 108.046C172.206 108.436 172.323 108.96 172.323 109.619V114H171.114ZM168.839 114.182C168.327 114.182 167.881 114.095 167.5 113.922C167.118 113.74 166.824 113.48 166.616 113.142C166.408 112.795 166.304 112.384 166.304 111.907C166.304 111.404 166.421 110.988 166.655 110.659C166.897 110.33 167.24 110.083 167.682 109.918C168.124 109.753 168.652 109.671 169.268 109.671H171.023V110.672H169.229C168.769 110.672 168.418 110.785 168.176 111.01C167.933 111.227 167.812 111.513 167.812 111.868C167.812 112.223 167.933 112.509 168.176 112.726C168.418 112.934 168.769 113.038 169.229 113.038C169.497 113.038 169.753 112.99 169.996 112.895C170.238 112.791 170.438 112.622 170.594 112.388C170.758 112.154 170.849 111.825 170.867 111.4L171.257 111.907C171.213 112.401 171.092 112.817 170.893 113.155C170.702 113.484 170.433 113.74 170.087 113.922C169.749 114.095 169.333 114.182 168.839 114.182ZM174.78 114V106.993H176.301V114H174.78ZM173.753 108.163V106.993H176.301V108.163H173.753ZM175.274 106.018C174.962 106.018 174.728 105.936 174.572 105.771C174.425 105.606 174.351 105.394 174.351 105.134C174.351 104.883 174.425 104.675 174.572 104.51C174.728 104.337 174.962 104.25 175.274 104.25C175.595 104.25 175.829 104.337 175.976 104.51C176.132 104.675 176.21 104.883 176.21 105.134C176.21 105.394 176.132 105.606 175.976 105.771C175.829 105.936 175.595 106.018 175.274 106.018ZM181.441 114.078C180.861 114.078 180.371 114 179.972 113.844C179.574 113.688 179.27 113.419 179.062 113.038C178.863 112.657 178.763 112.141 178.763 111.491V104.952H180.206V111.621C180.206 111.985 180.302 112.267 180.492 112.466C180.692 112.657 180.969 112.752 181.324 112.752H182.494V114.078H181.441ZM177.606 108.124V106.993H182.494V108.124H177.606ZM189.844 114.234C189.125 114.234 188.51 114.1 187.998 113.831C187.487 113.554 187.097 113.185 186.828 112.726C186.568 112.258 186.438 111.747 186.438 111.192H187.933C187.933 111.721 188.102 112.141 188.44 112.453C188.787 112.765 189.255 112.921 189.844 112.921C190.234 112.921 190.568 112.852 190.845 112.713C191.131 112.566 191.352 112.362 191.508 112.102C191.664 111.833 191.742 111.521 191.742 111.166C191.742 110.637 191.573 110.208 191.235 109.879C190.897 109.541 190.434 109.372 189.844 109.372C189.584 109.372 189.355 109.407 189.155 109.476C188.965 109.545 188.796 109.632 188.648 109.736L187.907 108.449L191.287 106.057L191.157 105.823H186.815V104.51H192.808V106.317L189.701 108.475L188.739 108.41C188.895 108.358 189.064 108.315 189.246 108.28C189.437 108.245 189.649 108.228 189.883 108.228C190.594 108.228 191.196 108.358 191.69 108.618C192.193 108.869 192.579 109.212 192.847 109.645C193.116 110.078 193.25 110.564 193.25 111.101V111.27C193.25 111.799 193.116 112.288 192.847 112.739C192.579 113.19 192.193 113.554 191.69 113.831C191.188 114.1 190.572 114.234 189.844 114.234ZM200.879 114.234C200.376 114.234 199.917 114.143 199.501 113.961C199.093 113.779 198.734 113.523 198.422 113.194C198.118 112.865 197.884 112.483 197.72 112.05C197.555 111.617 197.473 111.144 197.473 110.633V110.386C197.473 109.883 197.551 109.415 197.707 108.982C197.871 108.54 198.101 108.154 198.396 107.825C198.69 107.496 199.041 107.24 199.449 107.058C199.865 106.867 200.324 106.772 200.827 106.772C201.364 106.772 201.845 106.889 202.27 107.123C202.703 107.348 203.05 107.699 203.31 108.176C203.578 108.644 203.726 109.242 203.752 109.97L203.232 109.255V104.51H204.753V114H203.544V110.958H203.882C203.856 111.712 203.7 112.332 203.414 112.817C203.136 113.302 202.777 113.662 202.335 113.896C201.893 114.121 201.407 114.234 200.879 114.234ZM201.165 112.921C201.555 112.921 201.906 112.834 202.218 112.661C202.538 112.488 202.794 112.236 202.985 111.907C203.184 111.569 203.284 111.175 203.284 110.724V110.165C203.284 109.723 203.184 109.346 202.985 109.034C202.785 108.722 202.525 108.484 202.205 108.319C201.884 108.154 201.533 108.072 201.152 108.072C200.727 108.072 200.35 108.176 200.021 108.384C199.7 108.583 199.449 108.865 199.267 109.229C199.085 109.593 198.994 110.018 198.994 110.503C198.994 110.997 199.085 111.426 199.267 111.79C199.457 112.154 199.717 112.436 200.047 112.635C200.376 112.826 200.749 112.921 201.165 112.921ZM211.218 114V111.907H210.971V109.541C210.971 109.108 210.858 108.778 210.633 108.553C210.408 108.328 210.074 108.215 209.632 108.215C209.389 108.215 209.121 108.219 208.826 108.228C208.531 108.237 208.241 108.25 207.955 108.267C207.678 108.276 207.431 108.289 207.214 108.306V106.993C207.405 106.976 207.613 106.963 207.838 106.954C208.072 106.937 208.31 106.924 208.553 106.915C208.804 106.906 209.043 106.902 209.268 106.902C209.979 106.902 210.568 106.993 211.036 107.175C211.504 107.357 211.851 107.647 212.076 108.046C212.31 108.436 212.427 108.96 212.427 109.619V114H211.218ZM208.943 114.182C208.432 114.182 207.985 114.095 207.604 113.922C207.223 113.74 206.928 113.48 206.72 113.142C206.512 112.795 206.408 112.384 206.408 111.907C206.408 111.404 206.525 110.988 206.759 110.659C207.002 110.33 207.344 110.083 207.786 109.918C208.228 109.753 208.757 109.671 209.372 109.671H211.127V110.672H209.333C208.874 110.672 208.523 110.785 208.28 111.01C208.037 111.227 207.916 111.513 207.916 111.868C207.916 112.223 208.037 112.509 208.28 112.726C208.523 112.934 208.874 113.038 209.333 113.038C209.602 113.038 209.857 112.99 210.1 112.895C210.343 112.791 210.542 112.622 210.698 112.388C210.863 112.154 210.954 111.825 210.971 111.4L211.361 111.907C211.318 112.401 211.196 112.817 210.997 113.155C210.806 113.484 210.538 113.74 210.191 113.922C209.853 114.095 209.437 114.182 208.943 114.182ZM214.158 116.743V115.404H215.315C215.584 115.404 215.813 115.369 216.004 115.3C216.195 115.239 216.351 115.127 216.472 114.962C216.593 114.806 216.693 114.594 216.771 114.325L218.812 106.993H220.281L218.071 114.689C217.932 115.174 217.737 115.569 217.486 115.872C217.243 116.175 216.931 116.396 216.55 116.535C216.177 116.674 215.727 116.743 215.198 116.743H214.158ZM216.316 113.844V112.609H217.824V113.844H216.316ZM215.939 113.844L213.56 106.993H215.107L217.382 113.844H215.939ZM224.074 114.208C223.129 114.208 222.393 114.009 221.864 113.61C221.344 113.211 221.071 112.661 221.045 111.959H222.449C222.466 112.219 222.601 112.457 222.852 112.674C223.103 112.891 223.515 112.999 224.087 112.999C224.572 112.999 224.954 112.904 225.231 112.713C225.508 112.522 225.647 112.284 225.647 111.998C225.647 111.738 225.543 111.534 225.335 111.387C225.136 111.231 224.793 111.127 224.308 111.075L223.619 111.01C222.9 110.932 222.328 110.72 221.903 110.373C221.487 110.026 221.279 109.558 221.279 108.969C221.279 108.501 221.396 108.107 221.63 107.786C221.864 107.465 222.185 107.218 222.592 107.045C223.008 106.872 223.485 106.785 224.022 106.785C224.854 106.785 225.526 106.971 226.037 107.344C226.548 107.708 226.813 108.245 226.83 108.956H225.439C225.422 108.687 225.296 108.462 225.062 108.28C224.828 108.098 224.481 108.007 224.022 108.007C223.589 108.007 223.255 108.094 223.021 108.267C222.796 108.44 222.683 108.661 222.683 108.93C222.683 109.173 222.77 109.363 222.943 109.502C223.116 109.641 223.398 109.732 223.788 109.775L224.477 109.84C225.266 109.927 225.89 110.148 226.349 110.503C226.817 110.85 227.051 111.335 227.051 111.959C227.051 112.41 226.925 112.804 226.674 113.142C226.423 113.48 226.072 113.744 225.621 113.935C225.179 114.117 224.663 114.208 224.074 114.208Z"
            fill="#171F27" />
        <path d="M109.333 164.083L114.75 158.667L120.167 164.083" stroke="#515D66" stroke-width="2"
            stroke-linecap="round" />
        <rect x="136.75" y="146" width="32" height="32" rx="6" fill="#E6F5FE" />
        <path d="M147.125 157.625H158.375V166.375H147.125V157.625Z" stroke="#0880C6" stroke-width="1.2"
            stroke-linecap="round" stroke-linejoin="round" />
        <path d="M147.125 157.625L152.75 162L158.375 157.625" stroke="#0880C6" stroke-width="1.2" stroke-linecap="round"
            stroke-linejoin="round" />
        <path
            d="M179.994 166.234C179.275 166.234 178.655 166.1 178.135 165.831C177.615 165.554 177.221 165.185 176.952 164.726C176.684 164.258 176.549 163.747 176.549 163.192H178.044C178.044 163.721 178.218 164.141 178.564 164.453C178.92 164.765 179.396 164.921 179.994 164.921C180.393 164.921 180.735 164.852 181.021 164.713C181.307 164.566 181.528 164.362 181.684 164.102C181.849 163.833 181.931 163.521 181.931 163.166C181.931 162.637 181.754 162.208 181.398 161.879C181.052 161.541 180.588 161.372 180.007 161.372C179.773 161.372 179.552 161.407 179.344 161.476C179.136 161.537 178.959 161.623 178.811 161.736L178.031 160.514L181.45 158.057L181.32 157.823H176.926V156.51H182.984V158.317L179.825 160.527L178.811 160.449C178.959 160.388 179.145 160.336 179.37 160.293C179.596 160.25 179.799 160.228 179.981 160.228C180.701 160.228 181.32 160.358 181.84 160.618C182.36 160.869 182.755 161.212 183.023 161.645C183.301 162.078 183.439 162.564 183.439 163.101V163.27C183.439 163.799 183.301 164.288 183.023 164.739C182.755 165.19 182.365 165.554 181.853 165.831C181.342 166.1 180.722 166.234 179.994 166.234ZM185.309 166V164.167H187.077V166H185.309ZM195.084 166L192.601 156.51H194.213L196.306 164.973L195.747 164.661H197.164L196.553 164.973L198.23 156.887H199.608L197.619 166H195.084ZM200.778 166L198.594 156.887H200.037L201.948 164.973L201.35 164.661H202.767L202.182 164.973L204.041 156.51H205.575L203.339 166H200.778ZM209.778 166.234C209.172 166.234 208.643 166.13 208.192 165.922C207.742 165.714 207.373 165.441 207.087 165.103C206.801 164.756 206.585 164.371 206.437 163.946C206.299 163.513 206.229 163.071 206.229 162.62V162.373C206.229 161.914 206.299 161.472 206.437 161.047C206.585 160.614 206.801 160.228 207.087 159.89C207.373 159.543 207.733 159.27 208.166 159.071C208.608 158.863 209.12 158.759 209.7 158.759C210.454 158.759 211.083 158.924 211.585 159.253C212.088 159.582 212.465 160.011 212.716 160.54C212.968 161.06 213.093 161.623 213.093 162.23V162.841H206.879V161.814H212.066L211.65 162.334C211.65 161.866 211.577 161.463 211.429 161.125C211.282 160.778 211.065 160.514 210.779 160.332C210.493 160.141 210.134 160.046 209.7 160.046C209.25 160.046 208.873 160.15 208.569 160.358C208.266 160.566 208.041 160.852 207.893 161.216C207.746 161.58 207.672 162.009 207.672 162.503C207.672 162.971 207.746 163.391 207.893 163.764C208.041 164.128 208.27 164.418 208.582 164.635C208.894 164.843 209.293 164.947 209.778 164.947C210.264 164.947 210.662 164.843 210.974 164.635C211.286 164.418 211.477 164.167 211.546 163.881H212.963C212.868 164.358 212.673 164.774 212.378 165.129C212.092 165.484 211.728 165.757 211.286 165.948C210.844 166.139 210.342 166.234 209.778 166.234ZM214.812 166V156.51H216.346V166H214.812ZM213.889 157.68V156.51H216.346V157.68H213.889ZM221.623 166.234C221.025 166.234 220.501 166.134 220.05 165.935C219.608 165.727 219.24 165.45 218.945 165.103C218.659 164.748 218.442 164.358 218.295 163.933C218.156 163.5 218.087 163.062 218.087 162.62V162.386C218.087 161.927 218.161 161.485 218.308 161.06C218.455 160.627 218.676 160.237 218.971 159.89C219.266 159.543 219.63 159.27 220.063 159.071C220.505 158.863 221.021 158.759 221.61 158.759C222.208 158.759 222.741 158.872 223.209 159.097C223.686 159.322 224.067 159.643 224.353 160.059C224.639 160.466 224.799 160.943 224.834 161.489H223.365C223.313 161.099 223.135 160.77 222.832 160.501C222.537 160.232 222.13 160.098 221.61 160.098C221.159 160.098 220.787 160.202 220.492 160.41C220.197 160.618 219.976 160.904 219.829 161.268C219.682 161.623 219.608 162.035 219.608 162.503C219.608 162.954 219.677 163.361 219.816 163.725C219.963 164.089 220.184 164.375 220.479 164.583C220.782 164.791 221.164 164.895 221.623 164.895C221.978 164.895 222.282 164.834 222.533 164.713C222.793 164.583 223.001 164.414 223.157 164.206C223.313 163.989 223.404 163.742 223.43 163.465H224.912C224.886 164.028 224.726 164.518 224.431 164.934C224.136 165.341 223.746 165.662 223.261 165.896C222.776 166.121 222.23 166.234 221.623 166.234ZM229.779 166.234C229.164 166.234 228.622 166.134 228.154 165.935C227.686 165.727 227.292 165.454 226.971 165.116C226.65 164.778 226.408 164.397 226.243 163.972C226.078 163.539 225.996 163.092 225.996 162.633V162.373C225.996 161.914 226.078 161.467 226.243 161.034C226.416 160.601 226.663 160.215 226.984 159.877C227.313 159.53 227.712 159.257 228.18 159.058C228.648 158.859 229.181 158.759 229.779 158.759C230.377 158.759 230.906 158.859 231.365 159.058C231.833 159.257 232.232 159.53 232.561 159.877C232.89 160.215 233.137 160.601 233.302 161.034C233.475 161.467 233.562 161.914 233.562 162.373V162.633C233.562 163.092 233.48 163.539 233.315 163.972C233.15 164.397 232.908 164.778 232.587 165.116C232.266 165.454 231.872 165.727 231.404 165.935C230.936 166.134 230.394 166.234 229.779 166.234ZM229.779 164.908C230.256 164.908 230.663 164.804 231.001 164.596C231.339 164.379 231.595 164.089 231.768 163.725C231.95 163.361 232.041 162.954 232.041 162.503C232.041 162.044 231.95 161.632 231.768 161.268C231.586 160.904 231.326 160.618 230.988 160.41C230.65 160.193 230.247 160.085 229.779 160.085C229.311 160.085 228.908 160.193 228.57 160.41C228.232 160.618 227.972 160.904 227.79 161.268C227.608 161.632 227.517 162.044 227.517 162.503C227.517 162.954 227.604 163.361 227.777 163.725C227.959 164.089 228.219 164.379 228.557 164.596C228.895 164.804 229.302 164.908 229.779 164.908ZM235.301 166V158.993H236.51V162.009H236.367C236.367 161.316 236.453 160.731 236.627 160.254C236.809 159.777 237.077 159.413 237.433 159.162C237.797 158.911 238.247 158.785 238.785 158.785H238.85C239.396 158.785 239.846 158.911 240.202 159.162C240.566 159.413 240.834 159.777 241.008 160.254C241.19 160.731 241.281 161.316 241.281 162.009H240.865C240.865 161.316 240.956 160.731 241.138 160.254C241.32 159.777 241.593 159.413 241.957 159.162C242.321 158.911 242.771 158.785 243.309 158.785H243.374C243.92 158.785 244.375 158.911 244.739 159.162C245.103 159.413 245.376 159.777 245.558 160.254C245.74 160.731 245.831 161.316 245.831 162.009V166H244.31V161.788C244.31 161.277 244.18 160.878 243.92 160.592C243.668 160.306 243.317 160.163 242.867 160.163C242.399 160.163 242.026 160.315 241.749 160.618C241.471 160.913 241.333 161.324 241.333 161.853V166H239.799V161.788C239.799 161.277 239.673 160.878 239.422 160.592C239.17 160.306 238.819 160.163 238.369 160.163C237.901 160.163 237.524 160.315 237.238 160.618C236.96 160.913 236.822 161.324 236.822 161.853V166H235.301ZM251 166.234C250.393 166.234 249.865 166.13 249.414 165.922C248.963 165.714 248.595 165.441 248.309 165.103C248.023 164.756 247.806 164.371 247.659 163.946C247.52 163.513 247.451 163.071 247.451 162.62V162.373C247.451 161.914 247.52 161.472 247.659 161.047C247.806 160.614 248.023 160.228 248.309 159.89C248.595 159.543 248.955 159.27 249.388 159.071C249.83 158.863 250.341 158.759 250.922 158.759C251.676 158.759 252.304 158.924 252.807 159.253C253.31 159.582 253.687 160.011 253.938 160.54C254.189 161.06 254.315 161.623 254.315 162.23V162.841H248.101V161.814H253.288L252.872 162.334C252.872 161.866 252.798 161.463 252.651 161.125C252.504 160.778 252.287 160.514 252.001 160.332C251.715 160.141 251.355 160.046 250.922 160.046C250.471 160.046 250.094 160.15 249.791 160.358C249.488 160.566 249.262 160.852 249.115 161.216C248.968 161.58 248.894 162.009 248.894 162.503C248.894 162.971 248.968 163.391 249.115 163.764C249.262 164.128 249.492 164.418 249.804 164.635C250.116 164.843 250.515 164.947 251 164.947C251.485 164.947 251.884 164.843 252.196 164.635C252.508 164.418 252.699 164.167 252.768 163.881H254.185C254.09 164.358 253.895 164.774 253.6 165.129C253.314 165.484 252.95 165.757 252.508 165.948C252.066 166.139 251.563 166.234 251 166.234ZM258.994 166V156.51H260.541V166H258.994ZM260.281 166V164.648H264.727V166H260.281ZM260.281 161.853V160.501H264.363V161.853H260.281ZM260.281 157.862V156.51H264.61V157.862H260.281ZM266.607 166V158.993H267.816V162.009H267.673C267.673 161.316 267.76 160.731 267.933 160.254C268.115 159.777 268.384 159.413 268.739 159.162C269.103 158.911 269.554 158.785 270.091 158.785H270.156C270.702 158.785 271.153 158.911 271.508 159.162C271.872 159.413 272.141 159.777 272.314 160.254C272.496 160.731 272.587 161.316 272.587 162.009H272.171C272.171 161.316 272.262 160.731 272.444 160.254C272.626 159.777 272.899 159.413 273.263 159.162C273.627 158.911 274.078 158.785 274.615 158.785H274.68C275.226 158.785 275.681 158.911 276.045 159.162C276.409 159.413 276.682 159.777 276.864 160.254C277.046 160.731 277.137 161.316 277.137 162.009V166H275.616V161.788C275.616 161.277 275.486 160.878 275.226 160.592C274.975 160.306 274.624 160.163 274.173 160.163C273.705 160.163 273.333 160.315 273.055 160.618C272.778 160.913 272.639 161.324 272.639 161.853V166H271.105V161.788C271.105 161.277 270.98 160.878 270.728 160.592C270.477 160.306 270.126 160.163 269.675 160.163C269.207 160.163 268.83 160.315 268.544 160.618C268.267 160.913 268.128 161.324 268.128 161.853V166H266.607ZM283.477 166V163.907H283.23V161.541C283.23 161.108 283.117 160.778 282.892 160.553C282.666 160.328 282.333 160.215 281.891 160.215C281.648 160.215 281.379 160.219 281.085 160.228C280.79 160.237 280.5 160.25 280.214 160.267C279.936 160.276 279.689 160.289 279.473 160.306V158.993C279.663 158.976 279.871 158.963 280.097 158.954C280.331 158.937 280.569 158.924 280.812 158.915C281.063 158.906 281.301 158.902 281.527 158.902C282.237 158.902 282.827 158.993 283.295 159.175C283.763 159.357 284.109 159.647 284.335 160.046C284.569 160.436 284.686 160.96 284.686 161.619V166H283.477ZM281.202 166.182C280.69 166.182 280.244 166.095 279.863 165.922C279.481 165.74 279.187 165.48 278.979 165.142C278.771 164.795 278.667 164.384 278.667 163.907C278.667 163.404 278.784 162.988 279.018 162.659C279.26 162.33 279.603 162.083 280.045 161.918C280.487 161.753 281.015 161.671 281.631 161.671H283.386V162.672H281.592C281.132 162.672 280.781 162.785 280.539 163.01C280.296 163.227 280.175 163.513 280.175 163.868C280.175 164.223 280.296 164.509 280.539 164.726C280.781 164.934 281.132 165.038 281.592 165.038C281.86 165.038 282.116 164.99 282.359 164.895C282.601 164.791 282.801 164.622 282.957 164.388C283.121 164.154 283.212 163.825 283.23 163.4L283.62 163.907C283.576 164.401 283.455 164.817 283.256 165.155C283.065 165.484 282.796 165.74 282.45 165.922C282.112 166.095 281.696 166.182 281.202 166.182ZM287.144 166V158.993H288.665V166H287.144ZM286.116 160.163V158.993H288.665V160.163H286.116ZM287.638 158.018C287.326 158.018 287.092 157.936 286.936 157.771C286.788 157.606 286.715 157.394 286.715 157.134C286.715 156.883 286.788 156.675 286.936 156.51C287.092 156.337 287.326 156.25 287.638 156.25C287.958 156.25 288.192 156.337 288.34 156.51C288.496 156.675 288.574 156.883 288.574 157.134C288.574 157.394 288.496 157.606 288.34 157.771C288.192 157.936 287.958 158.018 287.638 158.018ZM291.009 166V156.51H292.543V166H291.009ZM290.086 157.68V156.51H292.543V157.68H290.086Z"
            fill="#171F27" />
        <path d="M109.333 216.083L114.75 210.667L120.167 216.083" stroke="#515D66" stroke-width="2"
            stroke-linecap="round" />
        <rect x="136.75" y="198" width="32" height="32" rx="6" fill="#FFF0CC" />
        <path d="M147.542 208.792L152.75 214V219.833" stroke="#F4AC07" stroke-width="1.2" stroke-linecap="round"
            stroke-linejoin="round" />
        <path d="M157.958 208.792L154 212.75" stroke="#F4AC07" stroke-width="1.2" stroke-linecap="round"
            stroke-linejoin="round" />
        <path d="M151.083 208.792H147.542V212.333" stroke="#F4AC07" stroke-width="1.2" stroke-linecap="round"
            stroke-linejoin="round" />
        <path d="M154.417 208.792H157.958V212.333" stroke="#F4AC07" stroke-width="1.2" stroke-linecap="round"
            stroke-linejoin="round" />
        <path
            d="M176.38 215.894V214.126L180.163 208.263L181.294 209.082L177.862 214.425L177.992 214.672H183.985V215.894H176.38ZM181.359 218V211.24H182.802V218H181.359ZM185.309 218V216.167H187.077V218H185.309ZM193.524 218V208.445H195.084V218H193.524ZM199.348 218L196.332 213.827H198.1L201.207 218H199.348ZM194.577 214.698V213.385H197.047C197.42 213.385 197.74 213.311 198.009 213.164C198.278 213.008 198.481 212.796 198.62 212.527C198.767 212.258 198.841 211.946 198.841 211.591C198.841 211.244 198.767 210.937 198.62 210.668C198.481 210.399 198.278 210.187 198.009 210.031C197.74 209.875 197.42 209.797 197.047 209.797H194.577V208.445H196.839C197.567 208.445 198.2 208.558 198.737 208.783C199.274 209 199.69 209.329 199.985 209.771C200.28 210.213 200.427 210.781 200.427 211.474V211.682C200.427 212.375 200.275 212.943 199.972 213.385C199.677 213.827 199.261 214.156 198.724 214.373C198.195 214.59 197.567 214.698 196.839 214.698H194.577ZM205.526 218.234C204.919 218.234 204.39 218.13 203.94 217.922C203.489 217.714 203.121 217.441 202.835 217.103C202.549 216.756 202.332 216.371 202.185 215.946C202.046 215.513 201.977 215.071 201.977 214.62V214.373C201.977 213.914 202.046 213.472 202.185 213.047C202.332 212.614 202.549 212.228 202.835 211.89C203.121 211.543 203.48 211.27 203.914 211.071C204.356 210.863 204.867 210.759 205.448 210.759C206.202 210.759 206.83 210.924 207.333 211.253C207.835 211.582 208.212 212.011 208.464 212.54C208.715 213.06 208.841 213.623 208.841 214.23V214.841H202.627V213.814H207.814L207.398 214.334C207.398 213.866 207.324 213.463 207.177 213.125C207.029 212.778 206.813 212.514 206.527 212.332C206.241 212.141 205.881 212.046 205.448 212.046C204.997 212.046 204.62 212.15 204.317 212.358C204.013 212.566 203.788 212.852 203.641 213.216C203.493 213.58 203.42 214.009 203.42 214.503C203.42 214.971 203.493 215.391 203.641 215.764C203.788 216.128 204.018 216.418 204.33 216.635C204.642 216.843 205.04 216.947 205.526 216.947C206.011 216.947 206.41 216.843 206.722 216.635C207.034 216.418 207.224 216.167 207.294 215.881H208.711C208.615 216.358 208.42 216.774 208.126 217.129C207.84 217.484 207.476 217.757 207.034 217.948C206.592 218.139 206.089 218.234 205.526 218.234ZM210.481 218V210.993H211.69V214.009H211.547C211.547 213.316 211.634 212.731 211.807 212.254C211.989 211.777 212.258 211.413 212.613 211.162C212.977 210.911 213.428 210.785 213.965 210.785H214.03C214.576 210.785 215.027 210.911 215.382 211.162C215.746 211.413 216.015 211.777 216.188 212.254C216.37 212.731 216.461 213.316 216.461 214.009H216.045C216.045 213.316 216.136 212.731 216.318 212.254C216.5 211.777 216.773 211.413 217.137 211.162C217.501 210.911 217.952 210.785 218.489 210.785H218.554C219.1 210.785 219.555 210.911 219.919 211.162C220.283 211.413 220.556 211.777 220.738 212.254C220.92 212.731 221.011 213.316 221.011 214.009V218H219.49V213.788C219.49 213.277 219.36 212.878 219.1 212.592C218.849 212.306 218.498 212.163 218.047 212.163C217.579 212.163 217.207 212.315 216.929 212.618C216.652 212.913 216.513 213.324 216.513 213.853V218H214.979V213.788C214.979 213.277 214.854 212.878 214.602 212.592C214.351 212.306 214 212.163 213.549 212.163C213.081 212.163 212.704 212.315 212.418 212.618C212.141 212.913 212.002 213.324 212.002 213.853V218H210.481ZM223.464 218V210.993H224.985V218H223.464ZM222.437 212.163V210.993H224.985V212.163H222.437ZM223.958 210.018C223.646 210.018 223.412 209.936 223.256 209.771C223.108 209.606 223.035 209.394 223.035 209.134C223.035 208.883 223.108 208.675 223.256 208.51C223.412 208.337 223.646 208.25 223.958 208.25C224.278 208.25 224.512 208.337 224.66 208.51C224.816 208.675 224.894 208.883 224.894 209.134C224.894 209.394 224.816 209.606 224.66 209.771C224.512 209.936 224.278 210.018 223.958 210.018ZM227.252 218V210.993H228.461V213.996H228.318C228.318 213.303 228.409 212.718 228.591 212.241C228.781 211.764 229.067 211.405 229.449 211.162C229.83 210.911 230.302 210.785 230.866 210.785H230.931C231.797 210.785 232.443 211.058 232.868 211.604C233.292 212.15 233.505 212.947 233.505 213.996V218H231.984V213.788C231.984 213.303 231.845 212.913 231.568 212.618C231.29 212.315 230.909 212.163 230.424 212.163C229.93 212.163 229.531 212.319 229.228 212.631C228.924 212.934 228.773 213.342 228.773 213.853V218H227.252ZM238.53 218.234C238.027 218.234 237.568 218.143 237.152 217.961C236.745 217.779 236.385 217.523 236.073 217.194C235.77 216.865 235.536 216.483 235.371 216.05C235.206 215.617 235.124 215.144 235.124 214.633V214.386C235.124 213.883 235.202 213.415 235.358 212.982C235.523 212.54 235.752 212.154 236.047 211.825C236.342 211.496 236.693 211.24 237.1 211.058C237.516 210.867 237.975 210.772 238.478 210.772C239.015 210.772 239.496 210.889 239.921 211.123C240.354 211.348 240.701 211.699 240.961 212.176C241.23 212.644 241.377 213.242 241.403 213.97L240.883 213.255V208.51H242.404V218H241.195V214.958H241.533C241.507 215.712 241.351 216.332 241.065 216.817C240.788 217.302 240.428 217.662 239.986 217.896C239.544 218.121 239.059 218.234 238.53 218.234ZM238.816 216.921C239.206 216.921 239.557 216.834 239.869 216.661C240.19 216.488 240.445 216.236 240.636 215.907C240.835 215.569 240.935 215.175 240.935 214.724V214.165C240.935 213.723 240.835 213.346 240.636 213.034C240.437 212.722 240.177 212.484 239.856 212.319C239.535 212.154 239.184 212.072 238.803 212.072C238.378 212.072 238.001 212.176 237.672 212.384C237.351 212.583 237.1 212.865 236.918 213.229C236.736 213.593 236.645 214.018 236.645 214.503C236.645 214.997 236.736 215.426 236.918 215.79C237.109 216.154 237.369 216.436 237.698 216.635C238.027 216.826 238.4 216.921 238.816 216.921ZM247.699 218.234C247.093 218.234 246.564 218.13 246.113 217.922C245.663 217.714 245.294 217.441 245.008 217.103C244.722 216.756 244.506 216.371 244.358 215.946C244.22 215.513 244.15 215.071 244.15 214.62V214.373C244.15 213.914 244.22 213.472 244.358 213.047C244.506 212.614 244.722 212.228 245.008 211.89C245.294 211.543 245.654 211.27 246.087 211.071C246.529 210.863 247.041 210.759 247.621 210.759C248.375 210.759 249.004 210.924 249.506 211.253C250.009 211.582 250.386 212.011 250.637 212.54C250.889 213.06 251.014 213.623 251.014 214.23V214.841H244.8V213.814H249.987L249.571 214.334C249.571 213.866 249.498 213.463 249.35 213.125C249.203 212.778 248.986 212.514 248.7 212.332C248.414 212.141 248.055 212.046 247.621 212.046C247.171 212.046 246.794 212.15 246.49 212.358C246.187 212.566 245.962 212.852 245.814 213.216C245.667 213.58 245.593 214.009 245.593 214.503C245.593 214.971 245.667 215.391 245.814 215.764C245.962 216.128 246.191 216.418 246.503 216.635C246.815 216.843 247.214 216.947 247.699 216.947C248.185 216.947 248.583 216.843 248.895 216.635C249.207 216.418 249.398 216.167 249.467 215.881H250.884C250.789 216.358 250.594 216.774 250.299 217.129C250.013 217.484 249.649 217.757 249.207 217.948C248.765 218.139 248.263 218.234 247.699 218.234ZM252.655 218V210.993H253.864V213.918H253.812C253.812 212.913 254.033 212.163 254.475 211.669C254.917 211.166 255.571 210.915 256.438 210.915H256.685V212.254H256.217C255.558 212.254 255.051 212.432 254.696 212.787C254.349 213.134 254.176 213.632 254.176 214.282V218H252.655ZM263.793 218.078C263.212 218.078 262.722 218 262.324 217.844C261.925 217.688 261.622 217.419 261.414 217.038C261.214 216.657 261.115 216.141 261.115 215.491V208.952H262.558V215.621C262.558 215.985 262.653 216.267 262.844 216.466C263.043 216.657 263.32 216.752 263.676 216.752H264.846V218.078H263.793ZM259.958 212.124V210.993H264.846V212.124H259.958ZM266.312 218V216.167H268.08V218H266.312ZM269.809 218V216.167H271.577V218H269.809ZM273.293 218V216.167H275.061V218H273.293Z"
            fill="#171F27" />
        <rect x="168.75" y="250" width="32" height="32" rx="6" fill="#E6F1FF" />
        <path d="M179.917 261.833H189.583V270.167H179.917V261.833Z" stroke="#0F64D1" stroke-width="1.2"
            stroke-linecap="round" stroke-linejoin="round" />
        <path d="M182.583 261.833V270.167" stroke="#0F64D1" stroke-width="1.2" stroke-linecap="round"
            stroke-linejoin="round" />
        <path d="M179.917 264.5H189.583" stroke="#0F64D1" stroke-width="1.2" stroke-linecap="round"
            stroke-linejoin="round" />
        <path
            d="M212.189 270.234C211.453 270.234 210.82 270.087 210.291 269.792C209.771 269.497 209.373 269.107 209.095 268.622C208.818 268.128 208.679 267.599 208.679 267.036H210.161C210.161 267.4 210.248 267.725 210.421 268.011C210.595 268.297 210.833 268.522 211.136 268.687C211.44 268.843 211.795 268.921 212.202 268.921C212.61 268.921 212.965 268.839 213.268 268.674C213.572 268.501 213.806 268.271 213.97 267.985C214.144 267.69 214.23 267.357 214.23 266.984C214.23 266.611 214.144 266.278 213.97 265.983C213.806 265.688 213.572 265.454 213.268 265.281C212.965 265.099 212.61 265.008 212.202 265.008C211.882 265.008 211.561 265.069 211.24 265.19C210.928 265.303 210.686 265.459 210.512 265.658H209.069L209.55 260.51H214.893V261.823H210.343L210.798 261.355L210.46 264.839L210.096 264.722C210.252 264.531 210.439 264.371 210.655 264.241C210.872 264.102 211.119 263.994 211.396 263.916C211.682 263.838 212.003 263.799 212.358 263.799C213.069 263.799 213.671 263.946 214.165 264.241C214.668 264.536 215.049 264.921 215.309 265.398C215.578 265.866 215.712 266.369 215.712 266.906V267.075C215.712 267.612 215.574 268.124 215.296 268.609C215.028 269.086 214.629 269.476 214.1 269.779C213.58 270.082 212.943 270.234 212.189 270.234ZM217.309 270V268.167H219.077V270H217.309ZM225.524 270V260.51H227.084V270H225.524ZM226.824 265.905V264.553H230.763V265.905H226.824ZM226.824 261.862V260.51H230.958V261.862H226.824ZM236.626 270V267.907H236.379V265.541C236.379 265.108 236.267 264.778 236.041 264.553C235.816 264.328 235.482 264.215 235.04 264.215C234.798 264.215 234.529 264.219 234.234 264.228C233.94 264.237 233.649 264.25 233.363 264.267C233.086 264.276 232.839 264.289 232.622 264.306V262.993C232.813 262.976 233.021 262.963 233.246 262.954C233.48 262.937 233.719 262.924 233.961 262.915C234.213 262.906 234.451 262.902 234.676 262.902C235.387 262.902 235.976 262.993 236.444 263.175C236.912 263.357 237.259 263.647 237.484 264.046C237.718 264.436 237.835 264.96 237.835 265.619V270H236.626ZM234.351 270.182C233.84 270.182 233.394 270.095 233.012 269.922C232.631 269.74 232.336 269.48 232.128 269.142C231.92 268.795 231.816 268.384 231.816 267.907C231.816 267.404 231.933 266.988 232.167 266.659C232.41 266.33 232.752 266.083 233.194 265.918C233.636 265.753 234.165 265.671 234.78 265.671H236.535V266.672H234.741C234.282 266.672 233.931 266.785 233.688 267.01C233.446 267.227 233.324 267.513 233.324 267.868C233.324 268.223 233.446 268.509 233.688 268.726C233.931 268.934 234.282 269.038 234.741 269.038C235.01 269.038 235.266 268.99 235.508 268.895C235.751 268.791 235.95 268.622 236.106 268.388C236.271 268.154 236.362 267.825 236.379 267.4L236.769 267.907C236.726 268.401 236.605 268.817 236.405 269.155C236.215 269.484 235.946 269.74 235.599 269.922C235.261 270.095 234.845 270.182 234.351 270.182ZM242.997 270.234C242.399 270.234 241.875 270.134 241.424 269.935C240.982 269.727 240.614 269.45 240.319 269.103C240.033 268.748 239.816 268.358 239.669 267.933C239.53 267.5 239.461 267.062 239.461 266.62V266.386C239.461 265.927 239.535 265.485 239.682 265.06C239.829 264.627 240.05 264.237 240.345 263.89C240.64 263.543 241.004 263.27 241.437 263.071C241.879 262.863 242.395 262.759 242.984 262.759C243.582 262.759 244.115 262.872 244.583 263.097C245.06 263.322 245.441 263.643 245.727 264.059C246.013 264.466 246.173 264.943 246.208 265.489H244.739C244.687 265.099 244.509 264.77 244.206 264.501C243.911 264.232 243.504 264.098 242.984 264.098C242.533 264.098 242.161 264.202 241.866 264.41C241.571 264.618 241.35 264.904 241.203 265.268C241.056 265.623 240.982 266.035 240.982 266.503C240.982 266.954 241.051 267.361 241.19 267.725C241.337 268.089 241.558 268.375 241.853 268.583C242.156 268.791 242.538 268.895 242.997 268.895C243.352 268.895 243.656 268.834 243.907 268.713C244.167 268.583 244.375 268.414 244.531 268.206C244.687 267.989 244.778 267.742 244.804 267.465H246.286C246.26 268.028 246.1 268.518 245.805 268.934C245.51 269.341 245.12 269.662 244.635 269.896C244.15 270.121 243.604 270.234 242.997 270.234ZM250.919 270.234C250.312 270.234 249.784 270.13 249.333 269.922C248.882 269.714 248.514 269.441 248.228 269.103C247.942 268.756 247.725 268.371 247.578 267.946C247.439 267.513 247.37 267.071 247.37 266.62V266.373C247.37 265.914 247.439 265.472 247.578 265.047C247.725 264.614 247.942 264.228 248.228 263.89C248.514 263.543 248.874 263.27 249.307 263.071C249.749 262.863 250.26 262.759 250.841 262.759C251.595 262.759 252.223 262.924 252.726 263.253C253.229 263.582 253.606 264.011 253.857 264.54C254.108 265.06 254.234 265.623 254.234 266.23V266.841H248.02V265.814H253.207L252.791 266.334C252.791 265.866 252.717 265.463 252.57 265.125C252.423 264.778 252.206 264.514 251.92 264.332C251.634 264.141 251.274 264.046 250.841 264.046C250.39 264.046 250.013 264.15 249.71 264.358C249.407 264.566 249.181 264.852 249.034 265.216C248.887 265.58 248.813 266.009 248.813 266.503C248.813 266.971 248.887 267.391 249.034 267.764C249.181 268.128 249.411 268.418 249.723 268.635C250.035 268.843 250.434 268.947 250.919 268.947C251.404 268.947 251.803 268.843 252.115 268.635C252.427 268.418 252.618 268.167 252.687 267.881H254.104C254.009 268.358 253.814 268.774 253.519 269.129C253.233 269.484 252.869 269.757 252.427 269.948C251.985 270.139 251.482 270.234 250.919 270.234ZM259.775 270.234C259.203 270.234 258.692 270.108 258.241 269.857C257.799 269.606 257.448 269.242 257.188 268.765C256.937 268.288 256.798 267.712 256.772 267.036H257.084V270H255.875V260.51H257.396V265.19L256.941 266.035C256.967 265.29 257.11 264.679 257.37 264.202C257.639 263.717 257.99 263.357 258.423 263.123C258.856 262.889 259.342 262.772 259.879 262.772C260.373 262.772 260.819 262.863 261.218 263.045C261.625 263.227 261.972 263.483 262.258 263.812C262.553 264.133 262.774 264.51 262.921 264.943C263.077 265.376 263.155 265.844 263.155 266.347V266.607C263.155 267.11 263.077 267.578 262.921 268.011C262.765 268.444 262.535 268.83 262.232 269.168C261.937 269.497 261.582 269.757 261.166 269.948C260.75 270.139 260.286 270.234 259.775 270.234ZM259.502 268.921C259.927 268.921 260.299 268.817 260.62 268.609C260.941 268.401 261.188 268.115 261.361 267.751C261.543 267.378 261.634 266.954 261.634 266.477C261.634 265.992 261.543 265.571 261.361 265.216C261.179 264.852 260.928 264.57 260.607 264.371C260.295 264.172 259.927 264.072 259.502 264.072C259.121 264.072 258.765 264.159 258.436 264.332C258.107 264.505 257.842 264.757 257.643 265.086C257.444 265.407 257.344 265.797 257.344 266.256V266.815C257.344 267.257 257.444 267.638 257.643 267.959C257.851 268.271 258.12 268.509 258.449 268.674C258.778 268.839 259.129 268.921 259.502 268.921ZM268.19 270.234C267.575 270.234 267.033 270.134 266.565 269.935C266.097 269.727 265.703 269.454 265.382 269.116C265.062 268.778 264.819 268.397 264.654 267.972C264.49 267.539 264.407 267.092 264.407 266.633V266.373C264.407 265.914 264.49 265.467 264.654 265.034C264.828 264.601 265.075 264.215 265.395 263.877C265.725 263.53 266.123 263.257 266.591 263.058C267.059 262.859 267.592 262.759 268.19 262.759C268.788 262.759 269.317 262.859 269.776 263.058C270.244 263.257 270.643 263.53 270.972 263.877C271.302 264.215 271.549 264.601 271.713 265.034C271.887 265.467 271.973 265.914 271.973 266.373V266.633C271.973 267.092 271.891 267.539 271.726 267.972C271.562 268.397 271.319 268.778 270.998 269.116C270.678 269.454 270.283 269.727 269.815 269.935C269.347 270.134 268.806 270.234 268.19 270.234ZM268.19 268.908C268.667 268.908 269.074 268.804 269.412 268.596C269.75 268.379 270.006 268.089 270.179 267.725C270.361 267.361 270.452 266.954 270.452 266.503C270.452 266.044 270.361 265.632 270.179 265.268C269.997 264.904 269.737 264.618 269.399 264.41C269.061 264.193 268.658 264.085 268.19 264.085C267.722 264.085 267.319 264.193 266.981 264.41C266.643 264.618 266.383 264.904 266.201 265.268C266.019 265.632 265.928 266.044 265.928 266.503C265.928 266.954 266.015 267.361 266.188 267.725C266.37 268.089 266.63 268.379 266.968 268.596C267.306 268.804 267.714 268.908 268.19 268.908ZM277.001 270.234C276.385 270.234 275.844 270.134 275.376 269.935C274.908 269.727 274.513 269.454 274.193 269.116C273.872 268.778 273.629 268.397 273.465 267.972C273.3 267.539 273.218 267.092 273.218 266.633V266.373C273.218 265.914 273.3 265.467 273.465 265.034C273.638 264.601 273.885 264.215 274.206 263.877C274.535 263.53 274.934 263.257 275.402 263.058C275.87 262.859 276.403 262.759 277.001 262.759C277.599 262.759 278.127 262.859 278.587 263.058C279.055 263.257 279.453 263.53 279.783 263.877C280.112 264.215 280.359 264.601 280.524 265.034C280.697 265.467 280.784 265.914 280.784 266.373V266.633C280.784 267.092 280.701 267.539 280.537 267.972C280.372 268.397 280.129 268.778 279.809 269.116C279.488 269.454 279.094 269.727 278.626 269.935C278.158 270.134 277.616 270.234 277.001 270.234ZM277.001 268.908C277.477 268.908 277.885 268.804 278.223 268.596C278.561 268.379 278.816 268.089 278.99 267.725C279.172 267.361 279.263 266.954 279.263 266.503C279.263 266.044 279.172 265.632 278.99 265.268C278.808 264.904 278.548 264.618 278.21 264.41C277.872 264.193 277.469 264.085 277.001 264.085C276.533 264.085 276.13 264.193 275.792 264.41C275.454 264.618 275.194 264.904 275.012 265.268C274.83 265.632 274.739 266.044 274.739 266.503C274.739 266.954 274.825 267.361 274.999 267.725C275.181 268.089 275.441 268.379 275.779 268.596C276.117 268.804 276.524 268.908 277.001 268.908ZM287.384 270L284.888 266.737H283.796L286.877 262.993H288.489L285.655 266.399L285.72 265.619L289.126 270H287.384ZM282.522 270V260.51H284.043V270H282.522Z"
            fill="#171F27" />
    </g>
    <defs>
        <filter id="filter0_b_350_18299" x="-49.25" y="-50" width="501" height="424" filterUnits="userSpaceOnUse"
            color-interpolation-filters="sRGB">
            <feFlood flood-opacity="0" result="BackgroundImageFix" />
            <feGaussianBlur in="BackgroundImageFix" stdDeviation="25" />
            <feComposite in2="SourceAlpha" operator="in" result="effect1_backgroundBlur_350_18299" />
            <feBlend mode="normal" in="SourceGraphic" in2="effect1_backgroundBlur_350_18299" result="shape" />
        </filter>
    </defs>
</svg>