<svg xmlns="http://www.w3.org/2000/svg" width="40" height="40" viewBox="0 0 40 40" fill="none">
    <path
        d="M20 2C10.076 2 2 10.076 2 20C2 29.924 10.076 38 20 38C29.924 38 38 29.924 38 20C38 10.076 29.924 2 20 2ZM20 5C28.3025 5 35 11.6975 35 20C35.0037 23.5909 33.716 27.0635 31.372 29.7839C29.028 32.5043 25.784 34.2912 22.232 34.8185V24.374H26.504L27.1745 20.0345H22.232V17.6645C22.232 15.8645 22.8245 14.264 24.509 14.264H27.2165V10.478C26.741 10.4135 25.7345 10.274 23.8325 10.274C19.8605 10.274 17.5325 12.371 17.5325 17.15V20.0345H13.4495V24.374H17.5325V34.781C14.0296 34.2045 10.8459 32.4012 8.55004 29.6935C6.25422 26.9858 4.99593 23.55 5 20C5 11.6975 11.6975 5 20 5Z"
        fill="white" />
</svg>