<svg xmlns="http://www.w3.org/2000/svg" width="40" height="40" viewBox="0 0 40 40" fill="none">
    <g clip-path="url(#clip0_358_6957)">
        <path
            d="M36.4938 21.4234L36.5203 21.4254L39.3159 21.7076C39.5118 21.728 39.6922 21.8203 39.8198 21.9653L39.8406 21.9899L39.8141 22.0027C39.8787 22.0815 39.9262 22.1722 39.9536 22.2692C39.981 22.3662 39.9877 22.4676 39.9734 22.5672C39.3627 27.2581 37.0611 31.5912 33.4728 34.8062C29.7495 38.1421 24.8589 39.9957 19.7808 39.9956C17.3147 39.9994 14.8693 39.5608 12.5689 38.702L12.4436 38.6549C12.3506 38.6218 12.2655 38.5708 12.1934 38.5051C12.1213 38.4394 12.0636 38.3603 12.0239 38.2726L12.0119 38.2444C11.9337 38.0688 11.929 37.8708 11.9989 37.6919L13.1023 35.0912C13.1741 34.9149 13.3138 34.7724 13.4921 34.6936C13.6703 34.6148 13.8733 34.6058 14.0583 34.6687L14.0837 34.6777C19.7239 36.7817 26.1119 35.5968 30.5445 31.6246C33.3658 29.1202 35.1851 25.7368 35.6838 22.0669C35.7091 21.8851 35.8031 21.7187 35.9477 21.5997C36.0922 21.4808 36.2772 21.4176 36.467 21.4223L36.4938 21.4234ZM6.79375 31.1306L6.83297 31.1303L6.8725 31.1306C8.14125 31.1446 9.16281 32.1357 9.17656 33.3568V33.395C9.17656 33.4077 9.17656 33.4204 9.17625 33.4331C9.15422 34.6835 8.08719 35.68 6.79281 35.6587C5.49844 35.6374 4.46703 34.6066 4.48891 33.3562C4.51062 32.1313 5.53516 31.1502 6.79375 31.1306ZM0.770312 22.2015H23.6322C23.8336 22.2032 24.0265 22.2804 24.1701 22.4168C24.3138 22.5532 24.397 22.7382 24.4022 22.9327L24.4025 22.9585V25.7232C24.4041 25.9178 24.3275 26.1054 24.1888 26.2464C24.05 26.3875 23.86 26.471 23.6588 26.4794L23.6322 26.4801H0.770312C0.568865 26.4785 0.375966 26.4013 0.232267 26.2649C0.0885694 26.1285 0.00529702 25.9435 0 25.749L0 22.9325C0.00522707 22.7426 0.0847962 22.5616 0.222669 22.4261C0.360542 22.2906 0.546467 22.2106 0.742969 22.2023L0.770312 22.2015ZM26.4937 1.104C26.5917 1.13811 26.6816 1.1909 26.7581 1.25922C26.8345 1.32755 26.8959 1.41002 26.9388 1.50173C27.0181 1.68874 27.0181 1.89842 26.9388 2.08543L25.9427 4.65132C25.8764 4.83402 25.7378 4.98387 25.5573 5.06802C25.3768 5.15217 25.1692 5.16375 24.9798 5.10022C22.4142 4.23534 19.6612 4.02357 16.9863 4.48535C14.3113 4.94712 11.8046 6.06686 9.70781 7.7366C7.05024 9.88555 5.16323 12.7905 4.31609 16.037C4.27351 16.1964 4.17739 16.3377 4.04281 16.4387C3.90823 16.5397 3.74277 16.5947 3.57234 16.5952H3.39969L0.664062 15.9601C0.563132 15.9372 0.468091 15.8947 0.384733 15.8351C0.301376 15.7756 0.23145 15.7003 0.179219 15.6137H0.165938C0.111127 15.5272 0.075202 15.4308 0.0603699 15.3304C0.0455378 15.23 0.0521116 15.1277 0.0796875 15.0299C1.16618 10.8741 3.59713 7.16179 7.01875 4.43305C12.4592 0.106111 19.8467 -1.15668 26.4937 1.104ZM16.3677 12.1884H39.2297C39.4265 12.1899 39.6153 12.2636 39.758 12.3944C39.9008 12.5252 39.9868 12.7035 39.9987 12.8933L40 12.9195V15.6844C40.0017 15.879 39.9251 16.0666 39.7863 16.2077C39.6476 16.3488 39.4575 16.4323 39.2563 16.4406L39.2297 16.4414H16.3678C16.1676 16.4381 15.9764 16.3602 15.8341 16.224C15.6919 16.0879 15.6096 15.9039 15.6044 15.7105L15.6041 15.6844V12.9452C15.6023 12.7518 15.678 12.5652 15.8153 12.4243C15.9525 12.2835 16.1408 12.1993 16.3408 12.1893L16.3677 12.1884ZM32.2383 3.75321L32.2777 3.7529L32.3172 3.75321C33.5859 3.76724 34.6075 4.75834 34.6213 5.97932V6.01751C34.6213 6.03034 34.6213 6.04317 34.6209 6.0557C34.5991 7.30611 33.5319 8.30249 32.2375 8.28121C30.9431 8.26007 29.9117 7.22913 29.9338 5.97887C29.9553 4.75381 30.9797 3.77268 32.2383 3.75321Z"
            fill="white" />
    </g>
    <defs>
        <clipPath id="clip0_358_6957">
            <rect width="40" height="40" fill="white" />
        </clipPath>
    </defs>
</svg>