<svg width="368" height="316" viewBox="0 0 368 316" fill="none" xmlns="http://www.w3.org/2000/svg">
<g filter="url(#filter0_d_502_11725)">
<rect x="76.2067" y="41" width="215.797" height="107.669" rx="8" fill="white"/>
<rect x="76.6525" y="41.4459" width="214.905" height="106.777" rx="7.55414" stroke="#F2E8FD" stroke-width="0.891722"/>
<path d="M91.5978 68.2676V59.1542H94.0197L96.3043 64.5973H96.529L98.8011 59.1542H101.261V68.2676H99.5003V60.49L99.725 60.5149L97.2656 66.4074H95.4554L92.9835 60.5149L93.2207 60.49V68.2676H91.5978ZM106.63 68.5048C106.031 68.5048 105.502 68.4091 105.044 68.2176C104.587 68.0262 104.2 67.7682 103.883 67.4436C103.567 67.1107 103.326 66.7362 103.159 66.3201C103.001 65.9039 102.922 65.4711 102.922 65.0217V64.7595C102.922 64.2935 103.005 63.8524 103.172 63.4362C103.347 63.0118 103.592 62.6372 103.908 62.3127C104.233 61.9797 104.624 61.7217 105.082 61.5386C105.54 61.3472 106.056 61.2515 106.63 61.2515C107.204 61.2515 107.72 61.3472 108.178 61.5386C108.636 61.7217 109.023 61.9797 109.339 62.3127C109.664 62.6372 109.909 63.0118 110.076 63.4362C110.242 63.8524 110.325 64.2935 110.325 64.7595V65.0217C110.325 65.4711 110.242 65.9039 110.076 66.3201C109.917 66.7362 109.68 67.1107 109.364 67.4436C109.048 67.7682 108.661 68.0262 108.203 68.2176C107.745 68.4091 107.221 68.5048 106.63 68.5048ZM106.63 67.0192C107.054 67.0192 107.412 66.9276 107.704 66.7445C107.995 66.5531 108.215 66.2993 108.365 65.983C108.515 65.6584 108.59 65.2922 108.59 64.8844C108.59 64.4682 108.511 64.102 108.353 63.7858C108.203 63.4612 107.978 63.2074 107.679 63.0243C107.387 62.8328 107.038 62.7371 106.63 62.7371C106.222 62.7371 105.868 62.8328 105.569 63.0243C105.278 63.2074 105.053 63.4612 104.895 63.7858C104.737 64.102 104.657 64.4682 104.657 64.8844C104.657 65.2922 104.732 65.6584 104.882 65.983C105.04 66.2993 105.265 66.5531 105.556 66.7445C105.848 66.9276 106.205 67.0192 106.63 67.0192ZM114.304 68.4798C113.372 68.4798 112.64 68.2842 112.107 67.8931C111.583 67.4936 111.308 66.9443 111.283 66.2452H112.843C112.868 66.4782 112.997 66.6904 113.23 66.8818C113.463 67.0733 113.83 67.169 114.329 67.169C114.745 67.169 115.074 67.0941 115.315 66.9443C115.565 66.7945 115.69 66.5905 115.69 66.3325C115.69 66.1078 115.594 65.9289 115.403 65.7957C115.22 65.6626 114.903 65.5752 114.454 65.5336L113.855 65.4711C113.097 65.3879 112.515 65.1715 112.107 64.822C111.699 64.4724 111.495 64.0063 111.495 63.4237C111.495 62.9577 111.612 62.5665 111.845 62.2502C112.078 61.934 112.398 61.6968 112.806 61.5386C113.222 61.3722 113.697 61.289 114.229 61.289C115.061 61.289 115.736 61.4721 116.252 61.8383C116.768 62.2045 117.038 62.7413 117.063 63.4487H115.503C115.486 63.2157 115.369 63.0159 115.153 62.8495C114.937 62.683 114.624 62.5998 114.217 62.5998C113.85 62.5998 113.568 62.6705 113.368 62.812C113.168 62.9535 113.068 63.1366 113.068 63.3613C113.068 63.5777 113.147 63.7442 113.305 63.8607C113.472 63.9772 113.738 64.0563 114.104 64.0979L114.704 64.1603C115.503 64.2435 116.127 64.4641 116.576 64.822C117.034 65.1798 117.263 65.6626 117.263 66.2701C117.263 66.7195 117.138 67.1107 116.888 67.4436C116.647 67.7682 116.306 68.0221 115.865 68.2052C115.423 68.3883 114.903 68.4798 114.304 68.4798ZM121.643 68.355C121.018 68.355 120.502 68.2759 120.095 68.1178C119.695 67.9513 119.395 67.6767 119.196 67.2938C118.996 66.9026 118.896 66.3783 118.896 65.7208L118.909 59.5786H120.531L120.519 65.8332C120.519 66.1661 120.606 66.4241 120.781 66.6072C120.964 66.782 121.222 66.8694 121.555 66.8694H122.616V68.355H121.643ZM117.822 62.7621V61.4887H122.616V62.7621H117.822ZM128.952 68.2676L126.043 59.1542H127.878L130.288 67.0441L129.763 66.7945H131.112L130.575 67.0441L132.797 59.1542H134.57L131.873 68.2676H128.952ZM139.664 68.2676V66.2576H139.377V64.023C139.377 63.6318 139.282 63.3405 139.09 63.1491C138.899 62.9577 138.603 62.862 138.204 62.862C137.996 62.862 137.746 62.8661 137.455 62.8744C137.163 62.8828 136.868 62.8953 136.568 62.9119C136.277 62.9202 136.015 62.9327 135.782 62.9493V61.4762C135.973 61.4596 136.19 61.4429 136.431 61.4263C136.672 61.4096 136.918 61.4013 137.168 61.4013C137.426 61.393 137.667 61.3888 137.892 61.3888C138.591 61.3888 139.169 61.4804 139.627 61.6635C140.093 61.8466 140.443 62.1337 140.676 62.5249C140.917 62.9161 141.038 63.4279 141.038 64.0604V68.2676H139.664ZM137.48 68.4424C136.989 68.4424 136.556 68.355 136.181 68.1802C135.815 68.0054 135.528 67.7557 135.32 67.4311C135.12 67.1066 135.02 66.7154 135.02 66.2576C135.02 65.7583 135.141 65.3505 135.382 65.0342C135.632 64.7179 135.977 64.4807 136.419 64.3226C136.868 64.1645 137.392 64.0854 137.992 64.0854H139.565V65.1216H137.967C137.567 65.1216 137.259 65.2215 137.043 65.4212C136.835 65.6126 136.731 65.8623 136.731 66.1702C136.731 66.4782 136.835 66.7279 137.043 66.9193C137.259 67.1107 137.567 67.2064 137.967 67.2064C138.208 67.2064 138.429 67.1648 138.628 67.0816C138.836 66.99 139.007 66.8402 139.14 66.6322C139.282 66.4158 139.361 66.1245 139.377 65.7583L139.802 66.2452C139.76 66.7195 139.644 67.119 139.452 67.4436C139.269 67.7682 139.011 68.0179 138.678 68.1927C138.354 68.3591 137.954 68.4424 137.48 68.4424ZM142.984 68.2676V59.1542H144.719V68.2676H142.984ZM142.135 60.4525V59.1542H144.719V60.4525H142.135ZM149.01 68.4798C148.227 68.4798 147.62 68.2218 147.187 67.7058C146.763 67.1898 146.55 66.4241 146.55 65.4087V61.4762H148.286V65.5585C148.286 65.9747 148.402 66.3076 148.635 66.5573C148.868 66.7986 149.185 66.9193 149.584 66.9193C149.984 66.9193 150.308 66.7903 150.558 66.5323C150.816 66.2743 150.945 65.9247 150.945 65.4836V61.4762H152.68V68.2676H151.307V65.3837H151.444C151.444 66.0662 151.357 66.6363 151.182 67.0941C151.007 67.5518 150.745 67.8972 150.396 68.1303C150.046 68.3633 149.609 68.4798 149.085 68.4798H149.01ZM158.781 68.2676V66.2576H158.494V64.023C158.494 63.6318 158.398 63.3405 158.206 63.1491C158.015 62.9577 157.72 62.862 157.32 62.862C157.112 62.862 156.862 62.8661 156.571 62.8744C156.28 62.8828 155.984 62.8953 155.685 62.9119C155.393 62.9202 155.131 62.9327 154.898 62.9493V61.4762C155.09 61.4596 155.306 61.4429 155.547 61.4263C155.789 61.4096 156.034 61.4013 156.284 61.4013C156.542 61.393 156.783 61.3888 157.008 61.3888C157.707 61.3888 158.286 61.4804 158.743 61.6635C159.209 61.8466 159.559 62.1337 159.792 62.5249C160.033 62.9161 160.154 63.4279 160.154 64.0604V68.2676H158.781ZM156.596 68.4424C156.105 68.4424 155.672 68.355 155.298 68.1802C154.931 68.0054 154.644 67.7557 154.436 67.4311C154.237 67.1066 154.137 66.7154 154.137 66.2576C154.137 65.7583 154.257 65.3505 154.499 65.0342C154.748 64.7179 155.094 64.4807 155.535 64.3226C155.984 64.1645 156.509 64.0854 157.108 64.0854H158.681V65.1216H157.083C156.683 65.1216 156.375 65.2215 156.159 65.4212C155.951 65.6126 155.847 65.8623 155.847 66.1702C155.847 66.4782 155.951 66.7279 156.159 66.9193C156.375 67.1107 156.683 67.2064 157.083 67.2064C157.324 67.2064 157.545 67.1648 157.745 67.0816C157.953 66.99 158.123 66.8402 158.256 66.6322C158.398 66.4158 158.477 66.1245 158.494 65.7583L158.918 66.2452C158.876 66.7195 158.76 67.119 158.569 67.4436C158.385 67.7682 158.127 68.0179 157.795 68.1927C157.47 68.3591 157.07 68.4424 156.596 68.4424ZM165.995 68.4923C165.438 68.4923 164.947 68.3758 164.522 68.1427C164.098 67.9014 163.765 67.5518 163.523 67.0941C163.282 66.6363 163.149 66.0829 163.124 65.4337H163.386V68.2676H162.013V59.1542H163.748V63.7109L163.286 64.4225C163.319 63.7234 163.457 63.1408 163.698 62.6747C163.948 62.2086 164.281 61.8591 164.697 61.626C165.113 61.393 165.583 61.2765 166.108 61.2765C166.574 61.2765 166.998 61.3639 167.381 61.5386C167.764 61.7134 168.093 61.9589 168.367 62.2752C168.642 62.5831 168.85 62.9452 168.991 63.3613C169.141 63.7775 169.216 64.231 169.216 64.7221V64.9843C169.216 65.4753 169.141 65.933 168.991 66.3575C168.842 66.782 168.625 67.1565 168.342 67.4811C168.059 67.7973 167.718 68.047 167.319 68.2301C166.927 68.4049 166.486 68.4923 165.995 68.4923ZM165.608 67.0317C165.983 67.0317 166.307 66.9401 166.582 66.757C166.865 66.5656 167.085 66.3076 167.244 65.983C167.402 65.6584 167.481 65.2839 167.481 64.8594C167.481 64.4266 167.402 64.0521 167.244 63.7358C167.085 63.4196 166.865 63.1741 166.582 62.9993C166.307 62.8245 165.983 62.7371 165.608 62.7371C165.267 62.7371 164.951 62.812 164.659 62.9618C164.376 63.1116 164.143 63.3322 163.96 63.6235C163.786 63.9148 163.698 64.2643 163.698 64.6722V65.1715C163.698 65.5627 163.79 65.8956 163.973 66.1702C164.156 66.4449 164.393 66.6571 164.684 66.8069C164.976 66.9567 165.284 67.0317 165.608 67.0317ZM170.829 68.2676V59.1542H172.565V68.2676H170.829ZM169.98 60.4525V59.1542H172.565V60.4525H169.98ZM177.579 68.5048C176.997 68.5048 176.485 68.4049 176.044 68.2052C175.611 68.0054 175.249 67.7391 174.958 67.4062C174.675 67.0649 174.458 66.6863 174.308 66.2701C174.167 65.854 174.096 65.4295 174.096 64.9967V64.7595C174.096 64.3101 174.167 63.8773 174.308 63.4612C174.458 63.0367 174.675 62.6622 174.958 62.3376C175.249 62.0047 175.607 61.7426 176.031 61.5511C176.456 61.3514 176.947 61.2515 177.504 61.2515C178.237 61.2515 178.848 61.4138 179.34 61.7384C179.839 62.0547 180.213 62.475 180.463 62.9993C180.713 63.5153 180.838 64.0729 180.838 64.6722V65.2964H174.833V64.2352H179.752L179.215 64.7595C179.215 64.3268 179.152 63.9564 179.027 63.6485C178.903 63.3405 178.711 63.1033 178.453 62.9369C178.203 62.7704 177.887 62.6872 177.504 62.6872C177.122 62.6872 176.797 62.7746 176.531 62.9493C176.264 63.1241 176.06 63.378 175.919 63.7109C175.786 64.0355 175.719 64.4266 175.719 64.8844C175.719 65.3088 175.786 65.6875 175.919 66.0204C176.052 66.345 176.256 66.603 176.531 66.7945C176.805 66.9776 177.155 67.0691 177.579 67.0691C178.004 67.0691 178.349 66.9859 178.615 66.8194C178.882 66.6446 179.052 66.4324 179.127 66.1827H180.725C180.625 66.6488 180.434 67.0566 180.151 67.4062C179.868 67.7557 179.506 68.0262 179.065 68.2176C178.632 68.4091 178.137 68.5048 177.579 68.5048ZM95.7051 86.5048C94.8811 86.5048 94.1737 86.3591 93.5828 86.0678C92.9919 85.7765 92.5092 85.3979 92.1346 84.9318C91.7684 84.4657 91.4979 83.958 91.3232 83.4087C91.1484 82.8594 91.061 82.3309 91.061 81.8232V81.5486C91.061 80.9826 91.1484 80.425 91.3232 79.8757C91.5063 79.3264 91.7851 78.827 92.1596 78.3776C92.5341 77.9282 93.0085 77.5703 93.5828 77.304C94.1654 77.0293 94.852 76.892 95.6427 76.892C96.4666 76.892 97.1824 77.0418 97.7899 77.3414C98.4058 77.6327 98.8969 78.0489 99.2631 78.5899C99.6293 79.1225 99.8498 79.7467 99.9247 80.4625H98.1395C98.0729 80.0463 97.9231 79.6968 97.6901 79.4138C97.4653 79.1225 97.1782 78.9061 96.8287 78.7646C96.4791 78.6148 96.0838 78.5399 95.6427 78.5399C95.1932 78.5399 94.7937 78.619 94.4442 78.7771C94.0946 78.9269 93.8033 79.1433 93.5703 79.4263C93.3373 79.7093 93.1583 80.0422 93.0335 80.425C92.917 80.8079 92.8587 81.2323 92.8587 81.6984C92.8587 82.1478 92.917 82.564 93.0335 82.9468C93.1583 83.3297 93.3414 83.6667 93.5828 83.958C93.8241 84.241 94.1196 84.4615 94.4692 84.6197C94.827 84.7778 95.239 84.8569 95.7051 84.8569C96.3875 84.8569 96.9618 84.6904 97.4279 84.3575C97.9023 84.0163 98.1894 83.5419 98.2893 82.9343H100.075C99.9913 83.5835 99.7707 84.1786 99.4129 84.7195C99.055 85.2605 98.5639 85.6933 97.9397 86.0179C97.3155 86.3425 96.5706 86.5048 95.7051 86.5048ZM103.743 86.4798C102.96 86.4798 102.353 86.2218 101.92 85.7058C101.496 85.1898 101.283 84.4241 101.283 83.4087V79.4762H103.019V83.5585C103.019 83.9747 103.135 84.3076 103.368 84.5573C103.601 84.7986 103.917 84.9193 104.317 84.9193C104.716 84.9193 105.041 84.7903 105.291 84.5323C105.549 84.2743 105.678 83.9247 105.678 83.4836V79.4762H107.413V86.2676H106.04V83.3837H106.177C106.177 84.0662 106.09 84.6363 105.915 85.0941C105.74 85.5518 105.478 85.8972 105.128 86.1303C104.779 86.3633 104.342 86.4798 103.818 86.4798H103.743ZM111.866 86.4798C110.934 86.4798 110.201 86.2842 109.669 85.8931C109.144 85.4936 108.87 84.9443 108.845 84.2452H110.405C110.43 84.4782 110.559 84.6904 110.792 84.8818C111.025 85.0733 111.391 85.169 111.891 85.169C112.307 85.169 112.636 85.0941 112.877 84.9443C113.127 84.7945 113.251 84.5905 113.251 84.3325C113.251 84.1078 113.156 83.9289 112.964 83.7957C112.781 83.6626 112.465 83.5752 112.016 83.5336L111.416 83.4711C110.659 83.3879 110.076 83.1715 109.669 82.822C109.261 82.4724 109.057 82.0063 109.057 81.4237C109.057 80.9577 109.173 80.5665 109.406 80.2502C109.639 79.934 109.96 79.6968 110.368 79.5386C110.784 79.3722 111.258 79.289 111.791 79.289C112.623 79.289 113.297 79.4721 113.813 79.8383C114.329 80.2045 114.6 80.7413 114.625 81.4487H113.064C113.048 81.2157 112.931 81.0159 112.715 80.8495C112.498 80.683 112.186 80.5998 111.778 80.5998C111.412 80.5998 111.129 80.6705 110.929 80.812C110.73 80.9535 110.63 81.1366 110.63 81.3613C110.63 81.5777 110.709 81.7442 110.867 81.8607C111.033 81.9772 111.3 82.0563 111.666 82.0979L112.265 82.1603C113.064 82.2435 113.688 82.4641 114.138 82.822C114.596 83.1798 114.824 83.6626 114.824 84.2701C114.824 84.7195 114.7 85.1107 114.45 85.4436C114.209 85.7682 113.867 86.0221 113.426 86.2052C112.985 86.3883 112.465 86.4798 111.866 86.4798ZM119.204 86.355C118.58 86.355 118.064 86.2759 117.656 86.1178C117.257 85.9513 116.957 85.6767 116.757 85.2938C116.558 84.9026 116.458 84.3783 116.458 83.7208L116.47 77.5786H118.093L118.081 83.8332C118.081 84.1661 118.168 84.4241 118.343 84.6072C118.526 84.782 118.784 84.8694 119.117 84.8694H120.178V86.355H119.204ZM115.384 80.7621V79.4887H120.178V80.7621H115.384ZM124.856 86.5048C124.257 86.5048 123.729 86.4091 123.271 86.2176C122.813 86.0262 122.426 85.7682 122.11 85.4436C121.793 85.1107 121.552 84.7362 121.386 84.3201C121.228 83.9039 121.148 83.4711 121.148 83.0217V82.7595C121.148 82.2935 121.232 81.8524 121.398 81.4362C121.573 81.0118 121.818 80.6372 122.135 80.3127C122.459 79.9797 122.85 79.7217 123.308 79.5386C123.766 79.3472 124.282 79.2515 124.856 79.2515C125.431 79.2515 125.947 79.3472 126.404 79.5386C126.862 79.7217 127.249 79.9797 127.565 80.3127C127.89 80.6372 128.135 81.0118 128.302 81.4362C128.468 81.8524 128.552 82.2935 128.552 82.7595V83.0217C128.552 83.4711 128.468 83.9039 128.302 84.3201C128.144 84.7362 127.907 85.1107 127.59 85.4436C127.274 85.7682 126.887 86.0262 126.429 86.2176C125.972 86.4091 125.447 86.5048 124.856 86.5048ZM124.856 85.0192C125.281 85.0192 125.639 84.9276 125.93 84.7445C126.221 84.5531 126.442 84.2993 126.592 83.983C126.741 83.6584 126.816 83.2922 126.816 82.8844C126.816 82.4682 126.737 82.102 126.579 81.7858C126.429 81.4612 126.205 81.2074 125.905 81.0243C125.614 80.8328 125.264 80.7371 124.856 80.7371C124.448 80.7371 124.095 80.8328 123.795 81.0243C123.504 81.2074 123.279 81.4612 123.121 81.7858C122.963 82.102 122.884 82.4682 122.884 82.8844C122.884 83.2922 122.959 83.6584 123.108 83.983C123.267 84.2993 123.491 84.5531 123.783 84.7445C124.074 84.9276 124.432 85.0192 124.856 85.0192ZM130.071 86.2676V79.4887H131.444V82.3975H131.319C131.319 81.715 131.407 81.1449 131.582 80.6872C131.756 80.2211 132.014 79.8716 132.356 79.6385C132.705 79.3972 133.138 79.2765 133.654 79.2765H133.729C134.253 79.2765 134.686 79.3972 135.027 79.6385C135.377 79.8716 135.635 80.2211 135.801 80.6872C135.976 81.1449 136.063 81.715 136.063 82.3975H135.626C135.626 81.715 135.714 81.1449 135.889 80.6872C136.072 80.2211 136.334 79.8716 136.675 79.6385C137.025 79.3972 137.457 79.2765 137.973 79.2765H138.048C138.573 79.2765 139.01 79.3972 139.359 79.6385C139.709 79.8716 139.971 80.2211 140.146 80.6872C140.329 81.1449 140.42 81.715 140.42 82.3975V86.2676H138.685V82.2352C138.685 81.8108 138.577 81.4737 138.36 81.224C138.144 80.966 137.836 80.837 137.437 80.837C137.037 80.837 136.717 80.9702 136.475 81.2365C136.234 81.4945 136.113 81.844 136.113 82.2851V86.2676H134.378V82.2352C134.378 81.8108 134.27 81.4737 134.053 81.224C133.837 80.966 133.529 80.837 133.13 80.837C132.73 80.837 132.41 80.9702 132.168 81.2365C131.927 81.4945 131.806 81.844 131.806 82.2851V86.2676H130.071ZM145.308 86.5048C144.726 86.5048 144.214 86.4049 143.773 86.2052C143.34 86.0054 142.978 85.7391 142.687 85.4062C142.404 85.0649 142.187 84.6863 142.038 84.2701C141.896 83.854 141.825 83.4295 141.825 82.9967V82.7595C141.825 82.3101 141.896 81.8773 142.038 81.4612C142.187 81.0367 142.404 80.6622 142.687 80.3376C142.978 80.0047 143.336 79.7426 143.76 79.5511C144.185 79.3514 144.676 79.2515 145.233 79.2515C145.966 79.2515 146.578 79.4138 147.069 79.7384C147.568 80.0547 147.942 80.475 148.192 80.9993C148.442 81.5153 148.567 82.0729 148.567 82.6722V83.2964H142.562V82.2352H147.481L146.944 82.7595C146.944 82.3268 146.881 81.9564 146.757 81.6485C146.632 81.3405 146.44 81.1033 146.182 80.9369C145.933 80.7704 145.616 80.6872 145.233 80.6872C144.851 80.6872 144.526 80.7746 144.26 80.9493C143.993 81.1241 143.789 81.378 143.648 81.7109C143.515 82.0355 143.448 82.4266 143.448 82.8844C143.448 83.3088 143.515 83.6875 143.648 84.0204C143.781 84.345 143.985 84.603 144.26 84.7945C144.534 84.9776 144.884 85.0691 145.308 85.0691C145.733 85.0691 146.078 84.9859 146.345 84.8194C146.611 84.6446 146.781 84.4324 146.856 84.1827H148.454C148.354 84.6488 148.163 85.0566 147.88 85.4062C147.597 85.7557 147.235 86.0262 146.794 86.2176C146.361 86.4091 145.866 86.5048 145.308 86.5048ZM150.016 86.2676V79.4887H151.39V82.3601H151.352C151.352 81.3863 151.56 80.6497 151.976 80.1504C152.392 79.651 153.004 79.4013 153.811 79.4013H154.061V80.9119H153.587C153.004 80.9119 152.551 81.07 152.226 81.3863C151.91 81.6942 151.752 82.1437 151.752 82.7346V86.2676H150.016ZM157.681 86.4798C156.749 86.4798 156.017 86.2842 155.484 85.8931C154.96 85.4936 154.685 84.9443 154.66 84.2452H156.221C156.246 84.4782 156.375 84.6904 156.608 84.8818C156.841 85.0733 157.207 85.169 157.706 85.169C158.123 85.169 158.451 85.0941 158.693 84.9443C158.942 84.7945 159.067 84.5905 159.067 84.3325C159.067 84.1078 158.971 83.9289 158.78 83.7957C158.597 83.6626 158.281 83.5752 157.831 83.5336L157.232 83.4711C156.475 83.3879 155.892 83.1715 155.484 82.822C155.076 82.4724 154.873 82.0063 154.873 81.4237C154.873 80.9577 154.989 80.5665 155.222 80.2502C155.455 79.934 155.776 79.6968 156.183 79.5386C156.6 79.3722 157.074 79.289 157.607 79.289C158.439 79.289 159.113 79.4721 159.629 79.8383C160.145 80.2045 160.415 80.7413 160.44 81.4487H158.88C158.863 81.2157 158.747 81.0159 158.53 80.8495C158.314 80.683 158.002 80.5998 157.594 80.5998C157.228 80.5998 156.945 80.6705 156.745 80.812C156.545 80.9535 156.446 81.1366 156.446 81.3613C156.446 81.5777 156.525 81.7442 156.683 81.8607C156.849 81.9772 157.116 82.0563 157.482 82.0979L158.081 82.1603C158.88 82.2435 159.504 82.4641 159.954 82.822C160.411 83.1798 160.64 83.6626 160.64 84.2701C160.64 84.7195 160.515 85.1107 160.266 85.4436C160.024 85.7682 159.683 86.0221 159.242 86.2052C158.801 86.3883 158.281 86.4798 157.681 86.4798Z" fill="#171F27"/>
<path d="M267.332 64.1847C269.384 64.1847 271.048 62.5213 271.048 60.4692C271.048 62.5213 272.711 64.1847 274.763 64.1847C272.711 64.1847 271.048 65.8482 271.048 67.9003C271.048 65.8482 269.384 64.1847 267.332 64.1847Z" stroke="#8542C3" stroke-width="1.33758" stroke-linecap="round" stroke-linejoin="round"/>
<path d="M262.874 60.0977C264.31 60.0977 265.475 58.9332 265.475 57.4968C265.475 58.9332 266.639 60.0977 268.075 60.0977C266.639 60.0977 265.475 61.2621 265.475 62.6985C265.475 61.2621 264.31 60.0977 262.874 60.0977Z" stroke="#8542C3" stroke-width="1.33758" stroke-linecap="round" stroke-linejoin="round"/>
<path d="M262.874 68.272C264.31 68.272 265.475 67.1076 265.475 65.6711C265.475 67.1076 266.639 68.272 268.075 68.272C266.639 68.272 265.475 69.4364 265.475 70.8729C265.475 69.4364 264.31 68.272 262.874 68.272Z" stroke="#8542C3" stroke-width="1.33758" stroke-linecap="round" stroke-linejoin="round"/>
<path d="M94.207 111.626C93.5245 111.626 92.9461 111.493 92.4717 111.227C91.9973 110.96 91.6353 110.607 91.3856 110.165C91.1442 109.724 91.0235 109.246 91.0235 108.73H92.1971C92.1971 109.296 92.376 109.745 92.7339 110.078C93.1001 110.411 93.5911 110.577 94.207 110.577C94.6148 110.577 94.9685 110.503 95.2681 110.353C95.5678 110.203 95.8008 109.991 95.9673 109.716C96.1337 109.433 96.2169 109.104 96.2169 108.73C96.2169 108.164 96.0338 107.706 95.6676 107.357C95.3098 107.007 94.827 106.832 94.2195 106.832C93.9615 106.832 93.7368 106.865 93.5453 106.932C93.3622 106.99 93.1999 107.065 93.0585 107.157L92.4592 106.083L95.9423 103.536L95.8174 103.312H91.3856V102.288H96.941V103.948L94.0572 106.046L93.1833 106.083C93.3248 106.033 93.4788 105.992 93.6452 105.958C93.82 105.925 94.0239 105.908 94.2569 105.908C94.9227 105.908 95.4887 106.033 95.9548 106.283C96.4208 106.533 96.7746 106.865 97.0159 107.282C97.2656 107.698 97.3904 108.151 97.3904 108.642V108.817C97.3904 109.3 97.2656 109.758 97.0159 110.19C96.7746 110.615 96.4167 110.96 95.9423 111.227C95.4762 111.493 94.8978 111.626 94.207 111.626ZM102.787 111.626C102.104 111.626 101.522 111.51 101.039 111.277C100.565 111.035 100.178 110.711 99.878 110.303C99.5867 109.895 99.3745 109.425 99.2413 108.892C99.1081 108.351 99.0416 107.781 99.0416 107.182V106.508C99.0416 105.667 99.1706 104.91 99.4286 104.235C99.6949 103.561 100.103 103.029 100.652 102.638C101.21 102.238 101.921 102.038 102.787 102.038C103.652 102.038 104.36 102.238 104.909 102.638C105.458 103.029 105.862 103.561 106.12 104.235C106.386 104.91 106.52 105.667 106.52 106.508V107.182C106.52 107.781 106.453 108.351 106.32 108.892C106.187 109.425 105.97 109.895 105.671 110.303C105.379 110.711 104.996 111.035 104.522 111.277C104.048 111.51 103.469 111.626 102.787 111.626ZM102.787 110.527C103.652 110.527 104.285 110.236 104.684 109.654C105.092 109.063 105.296 108.131 105.296 106.857C105.296 105.526 105.088 104.573 104.672 103.998C104.264 103.424 103.636 103.137 102.787 103.137C101.93 103.137 101.293 103.424 100.877 103.998C100.469 104.573 100.265 105.517 100.265 106.832C100.265 108.114 100.469 109.05 100.877 109.641C101.285 110.232 101.921 110.527 102.787 110.527ZM110.554 111.401L114 102.288H114.948L111.503 111.401H110.554ZM109.88 107.182C109.405 107.182 109.018 107.074 108.719 106.857C108.427 106.641 108.211 106.354 108.07 105.996C107.936 105.638 107.87 105.251 107.87 104.835V104.51C107.87 104.061 107.941 103.661 108.082 103.312C108.224 102.954 108.444 102.675 108.744 102.475C109.043 102.267 109.422 102.163 109.88 102.163C110.346 102.163 110.725 102.267 111.016 102.475C111.315 102.675 111.536 102.954 111.678 103.312C111.819 103.661 111.89 104.061 111.89 104.51V104.835C111.89 105.251 111.819 105.638 111.678 105.996C111.544 106.354 111.332 106.641 111.041 106.857C110.75 107.074 110.363 107.182 109.88 107.182ZM109.88 106.358C110.263 106.358 110.546 106.22 110.729 105.946C110.92 105.663 111.016 105.243 111.016 104.685C111.016 104.094 110.92 103.665 110.729 103.399C110.537 103.124 110.254 102.987 109.88 102.987C109.505 102.987 109.222 103.124 109.031 103.399C108.839 103.665 108.744 104.09 108.744 104.672C108.744 105.23 108.835 105.65 109.018 105.933C109.21 106.216 109.497 106.358 109.88 106.358ZM115.573 111.526C115.098 111.526 114.711 111.418 114.412 111.202C114.12 110.985 113.904 110.698 113.762 110.34C113.629 109.982 113.563 109.595 113.563 109.179V108.855C113.563 108.405 113.633 108.006 113.775 107.656C113.916 107.298 114.137 107.019 114.437 106.82C114.736 106.612 115.115 106.508 115.573 106.508C116.039 106.508 116.417 106.612 116.709 106.82C117.008 107.019 117.229 107.298 117.37 107.656C117.512 108.006 117.583 108.405 117.583 108.855V109.179C117.583 109.595 117.512 109.982 117.37 110.34C117.237 110.698 117.025 110.985 116.734 111.202C116.442 111.418 116.055 111.526 115.573 111.526ZM115.573 110.702C115.955 110.702 116.238 110.565 116.421 110.29C116.613 110.007 116.709 109.587 116.709 109.029C116.709 108.438 116.613 108.01 116.421 107.744C116.23 107.469 115.947 107.332 115.573 107.332C115.198 107.332 114.915 107.469 114.724 107.744C114.532 108.01 114.437 108.434 114.437 109.017C114.437 109.575 114.528 109.995 114.711 110.278C114.903 110.561 115.19 110.702 115.573 110.702ZM125.087 111.626C124.505 111.626 123.993 111.526 123.552 111.326C123.111 111.127 122.736 110.865 122.428 110.54C122.129 110.207 121.9 109.837 121.742 109.429C121.592 109.021 121.517 108.605 121.517 108.18V107.956C121.517 107.531 121.596 107.115 121.754 106.707C121.912 106.291 122.145 105.921 122.453 105.596C122.761 105.263 123.136 105.001 123.577 104.81C124.018 104.61 124.521 104.51 125.087 104.51C125.653 104.51 126.157 104.61 126.598 104.81C127.039 105.001 127.414 105.263 127.721 105.596C128.029 105.921 128.262 106.291 128.421 106.707C128.579 107.115 128.658 107.531 128.658 107.956V108.18C128.658 108.605 128.579 109.021 128.421 109.429C128.271 109.837 128.042 110.207 127.734 110.54C127.434 110.865 127.064 111.127 126.623 111.326C126.182 111.526 125.67 111.626 125.087 111.626ZM125.087 110.552C125.587 110.552 126.011 110.444 126.361 110.228C126.719 110.003 126.989 109.704 127.172 109.329C127.364 108.954 127.459 108.534 127.459 108.068C127.459 107.594 127.364 107.169 127.172 106.795C126.981 106.42 126.706 106.125 126.348 105.908C125.999 105.692 125.578 105.584 125.087 105.584C124.605 105.584 124.184 105.692 123.826 105.908C123.469 106.125 123.194 106.42 123.002 106.795C122.811 107.169 122.715 107.594 122.715 108.068C122.715 108.534 122.807 108.954 122.99 109.329C123.181 109.704 123.452 110.003 123.801 110.228C124.159 110.444 124.588 110.552 125.087 110.552ZM130.628 111.401V104.398C130.628 103.657 130.823 103.112 131.214 102.762C131.605 102.413 132.18 102.238 132.937 102.238H133.761V103.237H132.737C132.429 103.237 132.192 103.324 132.026 103.499C131.859 103.665 131.776 103.898 131.776 104.198V111.401H130.628ZM129.704 105.709V104.81H133.886V105.709H129.704ZM140.333 111.601C139.543 111.601 138.935 111.343 138.511 110.827C138.086 110.311 137.874 109.566 137.874 108.592V104.722H139.072V108.83C139.072 109.354 139.214 109.766 139.497 110.066C139.78 110.357 140.163 110.503 140.645 110.503C141.145 110.503 141.553 110.344 141.869 110.028C142.185 109.704 142.343 109.262 142.343 108.705V104.722H143.542V111.401H142.593V108.543H142.743C142.743 109.2 142.655 109.758 142.481 110.215C142.306 110.665 142.044 111.01 141.694 111.252C141.353 111.485 140.916 111.601 140.383 111.601H140.333ZM148.048 111.601C147.174 111.601 146.495 111.414 146.013 111.039C145.538 110.665 145.293 110.153 145.276 109.504H146.4C146.416 109.762 146.545 110.007 146.787 110.24C147.036 110.465 147.457 110.577 148.048 110.577C148.58 110.577 148.988 110.473 149.271 110.265C149.554 110.049 149.695 109.787 149.695 109.479C149.695 109.204 149.591 108.992 149.383 108.842C149.175 108.684 148.838 108.58 148.372 108.53L147.648 108.455C147.016 108.389 146.5 108.201 146.1 107.893C145.701 107.577 145.501 107.136 145.501 106.57C145.501 106.146 145.609 105.784 145.825 105.484C146.042 105.176 146.341 104.943 146.724 104.785C147.107 104.618 147.548 104.535 148.048 104.535C148.797 104.535 149.404 104.702 149.87 105.034C150.336 105.367 150.578 105.863 150.594 106.52H149.471C149.462 106.254 149.338 106.029 149.096 105.846C148.863 105.655 148.514 105.559 148.048 105.559C147.581 105.559 147.228 105.655 146.986 105.846C146.745 106.037 146.624 106.279 146.624 106.57C146.624 106.82 146.708 107.019 146.874 107.169C147.049 107.319 147.332 107.415 147.723 107.456L148.447 107.531C149.163 107.606 149.737 107.806 150.17 108.131C150.603 108.447 150.819 108.896 150.819 109.479C150.819 109.895 150.698 110.265 150.457 110.59C150.224 110.906 149.899 111.156 149.483 111.339C149.067 111.514 148.589 111.601 148.048 111.601ZM155.39 111.626C154.807 111.626 154.304 111.526 153.879 111.326C153.455 111.127 153.109 110.865 152.843 110.54C152.577 110.207 152.377 109.837 152.244 109.429C152.119 109.021 152.057 108.605 152.057 108.18V107.956C152.057 107.523 152.119 107.103 152.244 106.695C152.377 106.287 152.577 105.921 152.843 105.596C153.109 105.263 153.446 105.001 153.854 104.81C154.27 104.61 154.757 104.51 155.315 104.51C156.039 104.51 156.634 104.668 157.1 104.985C157.575 105.292 157.924 105.692 158.149 106.183C158.382 106.674 158.498 107.198 158.498 107.756V108.293H152.581V107.394H157.625L157.35 107.881C157.35 107.406 157.275 106.999 157.125 106.657C156.975 106.308 156.751 106.037 156.451 105.846C156.151 105.655 155.773 105.559 155.315 105.559C154.841 105.559 154.445 105.667 154.129 105.883C153.821 106.1 153.588 106.395 153.43 106.77C153.28 107.144 153.205 107.577 153.205 108.068C153.205 108.543 153.28 108.971 153.43 109.354C153.588 109.728 153.829 110.028 154.154 110.253C154.479 110.469 154.89 110.577 155.39 110.577C155.914 110.577 156.339 110.461 156.663 110.228C156.996 109.995 157.196 109.724 157.262 109.416H158.386C158.294 109.874 158.111 110.269 157.837 110.602C157.562 110.935 157.217 111.189 156.801 111.364C156.384 111.539 155.914 111.626 155.39 111.626ZM160.2 111.401V104.735H161.149V107.481H161.099C161.099 106.508 161.311 105.796 161.736 105.347C162.168 104.889 162.813 104.66 163.671 104.66H163.895V105.734H163.471C162.805 105.734 162.293 105.913 161.935 106.27C161.577 106.62 161.399 107.128 161.399 107.793V111.401H160.2ZM167.505 111.601C166.631 111.601 165.953 111.414 165.47 111.039C164.996 110.665 164.75 110.153 164.734 109.504H165.857C165.874 109.762 166.003 110.007 166.244 110.24C166.494 110.465 166.914 110.577 167.505 110.577C168.038 110.577 168.446 110.473 168.729 110.265C169.012 110.049 169.153 109.787 169.153 109.479C169.153 109.204 169.049 108.992 168.841 108.842C168.633 108.684 168.296 108.58 167.83 108.53L167.106 108.455C166.473 108.389 165.957 108.201 165.558 107.893C165.158 107.577 164.958 107.136 164.958 106.57C164.958 106.146 165.067 105.784 165.283 105.484C165.499 105.176 165.799 104.943 166.182 104.785C166.565 104.618 167.006 104.535 167.505 104.535C168.254 104.535 168.862 104.702 169.328 105.034C169.794 105.367 170.035 105.863 170.052 106.52H168.928C168.92 106.254 168.795 106.029 168.554 105.846C168.321 105.655 167.971 105.559 167.505 105.559C167.039 105.559 166.685 105.655 166.444 105.846C166.203 106.037 166.082 106.279 166.082 106.57C166.082 106.82 166.165 107.019 166.332 107.169C166.506 107.319 166.789 107.415 167.181 107.456L167.905 107.531C168.62 107.606 169.195 107.806 169.627 108.131C170.06 108.447 170.277 108.896 170.277 109.479C170.277 109.895 170.156 110.265 169.915 110.59C169.682 110.906 169.357 111.156 168.941 111.339C168.525 111.514 168.046 111.601 167.505 111.601ZM174.854 113.898V104.735H175.803V107.619L175.578 107.594C175.62 106.878 175.77 106.295 176.028 105.846C176.294 105.388 176.639 105.051 177.064 104.835C177.488 104.618 177.95 104.51 178.45 104.51C178.932 104.51 179.369 104.602 179.76 104.785C180.16 104.968 180.501 105.218 180.784 105.534C181.067 105.85 181.284 106.216 181.433 106.632C181.583 107.049 181.658 107.49 181.658 107.956V108.18C181.658 108.647 181.579 109.088 181.421 109.504C181.263 109.92 181.038 110.286 180.747 110.602C180.464 110.919 180.123 111.168 179.723 111.351C179.332 111.535 178.899 111.626 178.425 111.626C177.95 111.626 177.497 111.522 177.064 111.314C176.631 111.106 176.273 110.769 175.99 110.303C175.707 109.837 175.545 109.225 175.503 108.468L176.053 109.466V113.898H174.854ZM178.237 110.577C178.687 110.577 179.078 110.473 179.411 110.265C179.744 110.049 180.002 109.753 180.185 109.379C180.368 108.996 180.46 108.559 180.46 108.068C180.46 107.569 180.368 107.132 180.185 106.757C180.002 106.383 179.744 106.091 179.411 105.883C179.078 105.667 178.687 105.559 178.237 105.559C177.838 105.559 177.468 105.65 177.126 105.833C176.785 106.008 176.51 106.266 176.302 106.607C176.103 106.94 176.003 107.344 176.003 107.818V108.393C176.003 108.85 176.107 109.242 176.315 109.566C176.523 109.891 176.798 110.14 177.139 110.315C177.48 110.49 177.846 110.577 178.237 110.577ZM187.494 111.401V109.404H187.294V107.094C187.294 106.637 187.173 106.291 186.932 106.058C186.699 105.825 186.354 105.709 185.896 105.709C185.638 105.709 185.372 105.713 185.097 105.721C184.822 105.729 184.56 105.738 184.31 105.746C184.061 105.754 183.844 105.767 183.661 105.784V104.735C183.844 104.718 184.036 104.706 184.235 104.697C184.444 104.681 184.656 104.672 184.872 104.672C185.089 104.664 185.297 104.66 185.496 104.66C186.179 104.66 186.736 104.743 187.169 104.91C187.602 105.068 187.922 105.33 188.13 105.696C188.339 106.062 188.443 106.558 188.443 107.182V111.401H187.494ZM185.309 111.576C184.81 111.576 184.377 111.493 184.011 111.326C183.653 111.152 183.374 110.902 183.174 110.577C182.983 110.253 182.887 109.862 182.887 109.404C182.887 108.93 182.991 108.534 183.199 108.218C183.416 107.902 183.728 107.664 184.136 107.506C184.543 107.34 185.034 107.257 185.609 107.257H187.419V108.155H185.559C185.076 108.155 184.706 108.272 184.448 108.505C184.19 108.738 184.061 109.038 184.061 109.404C184.061 109.77 184.19 110.066 184.448 110.29C184.706 110.515 185.076 110.627 185.559 110.627C185.842 110.627 186.112 110.577 186.37 110.478C186.628 110.369 186.84 110.195 187.007 109.953C187.182 109.704 187.277 109.362 187.294 108.93L187.619 109.404C187.577 109.878 187.461 110.278 187.269 110.602C187.086 110.919 186.828 111.16 186.495 111.326C186.17 111.493 185.775 111.576 185.309 111.576ZM192.827 111.601C191.953 111.601 191.275 111.414 190.792 111.039C190.318 110.665 190.072 110.153 190.055 109.504H191.179C191.196 109.762 191.325 110.007 191.566 110.24C191.816 110.465 192.236 110.577 192.827 110.577C193.36 110.577 193.767 110.473 194.05 110.265C194.333 110.049 194.475 109.787 194.475 109.479C194.475 109.204 194.371 108.992 194.163 108.842C193.955 108.684 193.618 108.58 193.152 108.53L192.427 108.455C191.795 108.389 191.279 108.201 190.879 107.893C190.48 107.577 190.28 107.136 190.28 106.57C190.28 106.146 190.388 105.784 190.605 105.484C190.821 105.176 191.121 104.943 191.504 104.785C191.886 104.618 192.328 104.535 192.827 104.535C193.576 104.535 194.184 104.702 194.65 105.034C195.116 105.367 195.357 105.863 195.374 106.52H194.25C194.242 106.254 194.117 106.029 193.876 105.846C193.643 105.655 193.293 105.559 192.827 105.559C192.361 105.559 192.007 105.655 191.766 105.846C191.524 106.037 191.404 106.279 191.404 106.57C191.404 106.82 191.487 107.019 191.653 107.169C191.828 107.319 192.111 107.415 192.502 107.456L193.226 107.531C193.942 107.606 194.516 107.806 194.949 108.131C195.382 108.447 195.598 108.896 195.598 109.479C195.598 109.895 195.478 110.265 195.236 110.59C195.003 110.906 194.679 111.156 194.263 111.339C193.846 111.514 193.368 111.601 192.827 111.601ZM199.52 111.601C198.646 111.601 197.968 111.414 197.485 111.039C197.011 110.665 196.765 110.153 196.749 109.504H197.872C197.889 109.762 198.018 110.007 198.259 110.24C198.509 110.465 198.929 110.577 199.52 110.577C200.053 110.577 200.461 110.473 200.744 110.265C201.027 110.049 201.168 109.787 201.168 109.479C201.168 109.204 201.064 108.992 200.856 108.842C200.648 108.684 200.311 108.58 199.845 108.53L199.121 108.455C198.488 108.389 197.972 108.201 197.573 107.893C197.173 107.577 196.973 107.136 196.973 106.57C196.973 106.146 197.082 105.784 197.298 105.484C197.514 105.176 197.814 104.943 198.197 104.785C198.58 104.618 199.021 104.535 199.52 104.535C200.269 104.535 200.877 104.702 201.343 105.034C201.809 105.367 202.05 105.863 202.067 106.52H200.943C200.935 106.254 200.81 106.029 200.569 105.846C200.336 105.655 199.986 105.559 199.52 105.559C199.054 105.559 198.7 105.655 198.459 105.846C198.218 106.037 198.097 106.279 198.097 106.57C198.097 106.82 198.18 107.019 198.347 107.169C198.521 107.319 198.804 107.415 199.196 107.456L199.92 107.531C200.635 107.606 201.21 107.806 201.642 108.131C202.075 108.447 202.292 108.896 202.292 109.479C202.292 109.895 202.171 110.265 201.93 110.59C201.696 110.906 201.372 111.156 200.956 111.339C200.54 111.514 200.061 111.601 199.52 111.601ZM206.862 111.626C206.28 111.626 205.776 111.526 205.352 111.326C204.927 111.127 204.582 110.865 204.316 110.54C204.049 110.207 203.85 109.837 203.716 109.429C203.592 109.021 203.529 108.605 203.529 108.18V107.956C203.529 107.523 203.592 107.103 203.716 106.695C203.85 106.287 204.049 105.921 204.316 105.596C204.582 105.263 204.919 105.001 205.327 104.81C205.743 104.61 206.23 104.51 206.788 104.51C207.512 104.51 208.107 104.668 208.573 104.985C209.047 105.292 209.397 105.692 209.621 106.183C209.854 106.674 209.971 107.198 209.971 107.756V108.293H204.053V107.394H209.097L208.822 107.881C208.822 107.406 208.748 106.999 208.598 106.657C208.448 106.308 208.223 106.037 207.924 105.846C207.624 105.655 207.245 105.559 206.788 105.559C206.313 105.559 205.918 105.667 205.602 105.883C205.294 106.1 205.061 106.395 204.902 106.77C204.753 107.144 204.678 107.577 204.678 108.068C204.678 108.543 204.753 108.971 204.902 109.354C205.061 109.728 205.302 110.028 205.626 110.253C205.951 110.469 206.363 110.577 206.862 110.577C207.387 110.577 207.811 110.461 208.136 110.228C208.469 109.995 208.668 109.724 208.735 109.416H209.859C209.767 109.874 209.584 110.269 209.309 110.602C209.035 110.935 208.689 111.189 208.273 111.364C207.857 111.539 207.387 111.626 206.862 111.626ZM214.457 111.626C213.982 111.626 213.545 111.539 213.146 111.364C212.746 111.189 212.397 110.944 212.097 110.627C211.806 110.311 211.577 109.945 211.41 109.529C211.252 109.113 211.173 108.663 211.173 108.18V107.956C211.173 107.481 211.252 107.036 211.41 106.62C211.569 106.204 211.789 105.838 212.072 105.521C212.363 105.205 212.705 104.96 213.096 104.785C213.495 104.602 213.936 104.51 214.419 104.51C214.927 104.51 215.389 104.618 215.805 104.835C216.221 105.043 216.562 105.372 216.829 105.821C217.095 106.27 217.245 106.853 217.278 107.569L216.779 106.77V102.288H217.977V111.401H217.028V108.443H217.378C217.345 109.2 217.186 109.816 216.903 110.29C216.62 110.756 216.263 111.098 215.83 111.314C215.405 111.522 214.948 111.626 214.457 111.626ZM214.619 110.577C215.027 110.577 215.397 110.486 215.73 110.303C216.063 110.12 216.329 109.857 216.529 109.516C216.729 109.167 216.829 108.759 216.829 108.293V107.719C216.829 107.261 216.724 106.874 216.516 106.558C216.317 106.233 216.046 105.987 215.705 105.821C215.372 105.646 215.006 105.559 214.606 105.559C214.165 105.559 213.774 105.663 213.433 105.871C213.1 106.079 212.838 106.37 212.646 106.745C212.463 107.119 212.372 107.56 212.372 108.068C212.372 108.576 212.467 109.021 212.659 109.404C212.85 109.778 213.117 110.07 213.458 110.278C213.799 110.478 214.186 110.577 214.619 110.577ZM227.153 111.401V109.404H226.953V107.094C226.953 106.637 226.832 106.291 226.591 106.058C226.358 105.825 226.013 105.709 225.555 105.709C225.297 105.709 225.03 105.713 224.756 105.721C224.481 105.729 224.219 105.738 223.969 105.746C223.72 105.754 223.503 105.767 223.32 105.784V104.735C223.503 104.718 223.695 104.706 223.894 104.697C224.103 104.681 224.315 104.672 224.531 104.672C224.748 104.664 224.956 104.66 225.155 104.66C225.838 104.66 226.395 104.743 226.828 104.91C227.261 105.068 227.581 105.33 227.789 105.696C227.998 106.062 228.102 106.558 228.102 107.182V111.401H227.153ZM224.968 111.576C224.469 111.576 224.036 111.493 223.67 111.326C223.312 111.152 223.033 110.902 222.833 110.577C222.642 110.253 222.546 109.862 222.546 109.404C222.546 108.93 222.65 108.534 222.858 108.218C223.075 107.902 223.387 107.664 223.795 107.506C224.202 107.34 224.693 107.257 225.268 107.257H227.078V108.155H225.218C224.735 108.155 224.365 108.272 224.107 108.505C223.849 108.738 223.72 109.038 223.72 109.404C223.72 109.77 223.849 110.066 224.107 110.29C224.365 110.515 224.735 110.627 225.218 110.627C225.501 110.627 225.771 110.577 226.029 110.478C226.287 110.369 226.499 110.195 226.666 109.953C226.841 109.704 226.936 109.362 226.953 108.93L227.278 109.404C227.236 109.878 227.12 110.278 226.928 110.602C226.745 110.919 226.487 111.16 226.154 111.326C225.829 111.493 225.434 111.576 224.968 111.576ZM230.376 111.401V102.288H231.575V111.401H230.376ZM229.452 103.237V102.288H231.575V103.237H229.452ZM233.948 111.401V102.288H235.147V111.401H233.948ZM233.024 103.237V102.288H235.147V103.237H233.024ZM243.357 111.626C242.775 111.626 242.263 111.526 241.822 111.326C241.381 111.127 241.006 110.865 240.698 110.54C240.398 110.207 240.17 109.837 240.011 109.429C239.862 109.021 239.787 108.605 239.787 108.18V107.956C239.787 107.531 239.866 107.115 240.024 106.707C240.182 106.291 240.415 105.921 240.723 105.596C241.031 105.263 241.405 105.001 241.847 104.81C242.288 104.61 242.791 104.51 243.357 104.51C243.923 104.51 244.427 104.61 244.868 104.81C245.309 105.001 245.683 105.263 245.991 105.596C246.299 105.921 246.532 106.291 246.69 106.707C246.849 107.115 246.928 107.531 246.928 107.956V108.18C246.928 108.605 246.849 109.021 246.69 109.429C246.541 109.837 246.312 110.207 246.004 110.54C245.704 110.865 245.334 111.127 244.893 111.326C244.452 111.526 243.94 111.626 243.357 111.626ZM243.357 110.552C243.857 110.552 244.281 110.444 244.631 110.228C244.988 110.003 245.259 109.704 245.442 109.329C245.633 108.954 245.729 108.534 245.729 108.068C245.729 107.594 245.633 107.169 245.442 106.795C245.251 106.42 244.976 106.125 244.618 105.908C244.269 105.692 243.848 105.584 243.357 105.584C242.874 105.584 242.454 105.692 242.096 105.908C241.738 106.125 241.464 106.42 241.272 106.795C241.081 107.169 240.985 107.594 240.985 108.068C240.985 108.534 241.077 108.954 241.26 109.329C241.451 109.704 241.722 110.003 242.071 110.228C242.429 110.444 242.858 110.552 243.357 110.552ZM248.897 111.401V104.398C248.897 103.657 249.093 103.112 249.484 102.762C249.875 102.413 250.45 102.238 251.207 102.238H252.031V103.237H251.007C250.699 103.237 250.462 103.324 250.296 103.499C250.129 103.665 250.046 103.898 250.046 104.198V111.401H248.897ZM247.974 105.709V104.81H252.156V105.709H247.974ZM91.1734 131.998V130.924H92.1346C92.4176 130.924 92.6548 130.887 92.8462 130.812C93.046 130.745 93.2083 130.629 93.3331 130.463C93.4663 130.296 93.5745 130.076 93.6577 129.801L95.755 122.735H96.9285L94.7064 130.113C94.5732 130.554 94.3859 130.912 94.1446 131.187C93.9032 131.47 93.6078 131.673 93.2582 131.798C92.917 131.931 92.5175 131.998 92.0597 131.998H91.1734ZM93.2083 129.252V128.253H94.6564V129.252H93.2083ZM93.0834 129.252L90.699 122.735H91.9224L94.207 129.252H93.0834ZM101.399 129.626C100.817 129.626 100.305 129.526 99.8637 129.326C99.4226 129.127 99.048 128.865 98.7401 128.54C98.4405 128.207 98.2116 127.837 98.0535 127.429C97.9037 127.021 97.8287 126.605 97.8287 126.18V125.956C97.8287 125.531 97.9078 125.115 98.0659 124.707C98.2241 124.291 98.4571 123.921 98.7651 123.596C99.073 123.263 99.4475 123.001 99.8886 122.81C100.33 122.61 100.833 122.51 101.399 122.51C101.965 122.51 102.469 122.61 102.91 122.81C103.351 123.001 103.725 123.263 104.033 123.596C104.341 123.921 104.574 124.291 104.732 124.707C104.891 125.115 104.97 125.531 104.97 125.956V126.18C104.97 126.605 104.891 127.021 104.732 127.429C104.583 127.837 104.354 128.207 104.046 128.54C103.746 128.865 103.376 129.127 102.935 129.326C102.494 129.526 101.982 129.626 101.399 129.626ZM101.399 128.552C101.899 128.552 102.323 128.444 102.673 128.228C103.03 128.003 103.301 127.704 103.484 127.329C103.675 126.954 103.771 126.534 103.771 126.068C103.771 125.594 103.675 125.169 103.484 124.795C103.293 124.42 103.018 124.125 102.66 123.908C102.311 123.692 101.89 123.584 101.399 123.584C100.916 123.584 100.496 123.692 100.138 123.908C99.7804 124.125 99.5058 124.42 99.3144 124.795C99.1229 125.169 99.0272 125.594 99.0272 126.068C99.0272 126.534 99.1188 126.954 99.3019 127.329C99.4933 127.704 99.7638 128.003 100.113 128.228C100.471 128.444 100.9 128.552 101.399 128.552ZM109.074 129.601C108.284 129.601 107.676 129.343 107.252 128.827C106.827 128.311 106.615 127.566 106.615 126.592V122.722H107.813V126.83C107.813 127.354 107.955 127.766 108.238 128.066C108.521 128.357 108.904 128.503 109.386 128.503C109.886 128.503 110.293 128.344 110.61 128.028C110.926 127.704 111.084 127.262 111.084 126.705V122.722H112.283V129.401H111.334V126.543H111.484C111.484 127.2 111.396 127.758 111.221 128.215C111.047 128.665 110.785 129.01 110.435 129.252C110.094 129.485 109.657 129.601 109.124 129.601H109.074ZM114.604 129.401V122.735H115.553V125.481H115.503C115.503 124.508 115.715 123.796 116.139 123.347C116.572 122.889 117.217 122.66 118.074 122.66H118.299V123.734H117.875C117.209 123.734 116.697 123.913 116.339 124.27C115.981 124.62 115.802 125.128 115.802 125.793V129.401H114.604ZM127.159 129.401L124.65 126.293H123.551L126.61 122.735H127.871L125.099 125.943L125.187 125.307L128.545 129.401H127.159ZM122.565 129.401V120.288H123.763V129.401H122.565ZM132.409 129.626C131.826 129.626 131.323 129.526 130.898 129.326C130.474 129.127 130.128 128.865 129.862 128.54C129.596 128.207 129.396 127.837 129.263 127.429C129.138 127.021 129.076 126.605 129.076 126.18V125.956C129.076 125.523 129.138 125.103 129.263 124.695C129.396 124.287 129.596 123.921 129.862 123.596C130.128 123.263 130.465 123.001 130.873 122.81C131.289 122.61 131.776 122.51 132.334 122.51C133.058 122.51 133.653 122.668 134.119 122.985C134.594 123.292 134.943 123.692 135.168 124.183C135.401 124.674 135.517 125.198 135.517 125.756V126.293H129.6V125.394H134.644L134.369 125.881C134.369 125.406 134.294 124.999 134.144 124.657C133.994 124.308 133.77 124.037 133.47 123.846C133.17 123.655 132.792 123.559 132.334 123.559C131.86 123.559 131.464 123.667 131.148 123.883C130.84 124.1 130.607 124.395 130.449 124.77C130.299 125.144 130.224 125.577 130.224 126.068C130.224 126.543 130.299 126.971 130.449 127.354C130.607 127.728 130.848 128.028 131.173 128.253C131.498 128.469 131.909 128.577 132.409 128.577C132.933 128.577 133.358 128.461 133.682 128.228C134.015 127.995 134.215 127.724 134.281 127.416H135.405C135.313 127.874 135.13 128.269 134.856 128.602C134.581 128.935 134.236 129.189 133.82 129.364C133.403 129.539 132.933 129.626 132.409 129.626ZM136.721 131.998V130.924H137.682C137.965 130.924 138.202 130.887 138.394 130.812C138.593 130.745 138.756 130.629 138.881 130.463C139.014 130.296 139.122 130.076 139.205 129.801L141.303 122.735H142.476L140.254 130.113C140.121 130.554 139.933 130.912 139.692 131.187C139.451 131.47 139.155 131.673 138.806 131.798C138.464 131.931 138.065 131.998 137.607 131.998H136.721ZM138.756 129.252V128.253H140.204V129.252H138.756ZM138.631 129.252L136.246 122.735H137.47L139.754 129.252H138.631ZM146.838 129.401V122.735H147.787V125.594H147.637C147.637 124.945 147.72 124.395 147.887 123.946C148.062 123.488 148.32 123.139 148.661 122.897C149.002 122.656 149.435 122.535 149.959 122.535H150.009C150.533 122.535 150.966 122.656 151.307 122.897C151.657 123.139 151.915 123.488 152.081 123.946C152.248 124.395 152.331 124.945 152.331 125.594H151.982C151.982 124.945 152.069 124.395 152.244 123.946C152.419 123.488 152.677 123.139 153.018 122.897C153.367 122.656 153.804 122.535 154.329 122.535H154.379C154.903 122.535 155.34 122.656 155.689 122.897C156.039 123.139 156.297 123.488 156.463 123.946C156.638 124.395 156.726 124.945 156.726 125.594V129.401H155.527V125.332C155.527 124.791 155.394 124.374 155.128 124.083C154.861 123.784 154.491 123.634 154.016 123.634C153.525 123.634 153.13 123.792 152.831 124.108C152.531 124.416 152.381 124.849 152.381 125.406V129.401H151.183V125.332C151.183 124.791 151.049 124.374 150.783 124.083C150.517 123.784 150.146 123.634 149.672 123.634C149.181 123.634 148.786 123.792 148.486 124.108C148.186 124.416 148.037 124.849 148.037 125.406V129.401H146.838ZM161.991 129.626C161.408 129.626 160.897 129.526 160.455 129.326C160.014 129.127 159.64 128.865 159.332 128.54C159.032 128.207 158.803 127.837 158.645 127.429C158.495 127.021 158.421 126.605 158.421 126.18V125.956C158.421 125.531 158.5 125.115 158.658 124.707C158.816 124.291 159.049 123.921 159.357 123.596C159.665 123.263 160.039 123.001 160.48 122.81C160.922 122.61 161.425 122.51 161.991 122.51C162.557 122.51 163.06 122.61 163.502 122.81C163.943 123.001 164.317 123.263 164.625 123.596C164.933 123.921 165.166 124.291 165.324 124.707C165.482 125.115 165.561 125.531 165.561 125.956V126.18C165.561 126.605 165.482 127.021 165.324 127.429C165.174 127.837 164.946 128.207 164.638 128.54C164.338 128.865 163.968 129.127 163.527 129.326C163.085 129.526 162.574 129.626 161.991 129.626ZM161.991 128.552C162.49 128.552 162.915 128.444 163.264 128.228C163.622 128.003 163.893 127.704 164.076 127.329C164.267 126.954 164.363 126.534 164.363 126.068C164.363 125.594 164.267 125.169 164.076 124.795C163.884 124.42 163.61 124.125 163.252 123.908C162.902 123.692 162.482 123.584 161.991 123.584C161.508 123.584 161.088 123.692 160.73 123.908C160.372 124.125 160.098 124.42 159.906 124.795C159.715 125.169 159.619 125.594 159.619 126.068C159.619 126.534 159.711 126.954 159.894 127.329C160.085 127.704 160.356 128.003 160.705 128.228C161.063 128.444 161.492 128.552 161.991 128.552ZM167.356 129.401V122.735H168.305V125.594H168.155C168.155 124.945 168.239 124.395 168.405 123.946C168.58 123.488 168.838 123.139 169.179 122.897C169.52 122.656 169.953 122.535 170.477 122.535H170.527C171.052 122.535 171.485 122.656 171.826 122.897C172.175 123.139 172.433 123.488 172.6 123.946C172.766 124.395 172.849 124.945 172.849 125.594H172.5C172.5 124.945 172.587 124.395 172.762 123.946C172.937 123.488 173.195 123.139 173.536 122.897C173.886 122.656 174.323 122.535 174.847 122.535H174.897C175.421 122.535 175.858 122.656 176.208 122.897C176.557 123.139 176.815 123.488 176.982 123.946C177.156 124.395 177.244 124.945 177.244 125.594V129.401H176.045V125.332C176.045 124.791 175.912 124.374 175.646 124.083C175.38 123.784 175.009 123.634 174.535 123.634C174.044 123.634 173.648 123.792 173.349 124.108C173.049 124.416 172.899 124.849 172.899 125.406V129.401H171.701V125.332C171.701 124.791 171.568 124.374 171.301 124.083C171.035 123.784 170.665 123.634 170.19 123.634C169.699 123.634 169.304 123.792 169.004 124.108C168.705 124.416 168.555 124.849 168.555 125.406V129.401H167.356ZM182.272 129.626C181.69 129.626 181.186 129.526 180.762 129.326C180.337 129.127 179.992 128.865 179.725 128.54C179.459 128.207 179.259 127.837 179.126 127.429C179.001 127.021 178.939 126.605 178.939 126.18V125.956C178.939 125.523 179.001 125.103 179.126 124.695C179.259 124.287 179.459 123.921 179.725 123.596C179.992 123.263 180.329 123.001 180.737 122.81C181.153 122.61 181.64 122.51 182.197 122.51C182.921 122.51 183.516 122.668 183.982 122.985C184.457 123.292 184.806 123.692 185.031 124.183C185.264 124.674 185.381 125.198 185.381 125.756V126.293H179.463V125.394H184.507L184.232 125.881C184.232 125.406 184.157 124.999 184.007 124.657C183.858 124.308 183.633 124.037 183.333 123.846C183.034 123.655 182.655 123.559 182.197 123.559C181.723 123.559 181.328 123.667 181.011 123.883C180.703 124.1 180.47 124.395 180.312 124.77C180.162 125.144 180.087 125.577 180.087 126.068C180.087 126.543 180.162 126.971 180.312 127.354C180.47 127.728 180.712 128.028 181.036 128.253C181.361 128.469 181.773 128.577 182.272 128.577C182.796 128.577 183.221 128.461 183.546 128.228C183.878 127.995 184.078 127.724 184.145 127.416H185.268C185.177 127.874 184.994 128.269 184.719 128.602C184.444 128.935 184.099 129.189 183.683 129.364C183.267 129.539 182.796 129.626 182.272 129.626ZM187.082 129.401V122.735H188.031V125.594H187.881C187.881 124.936 187.969 124.383 188.143 123.933C188.327 123.476 188.601 123.13 188.967 122.897C189.334 122.656 189.796 122.535 190.353 122.535H190.403C191.244 122.535 191.864 122.797 192.263 123.322C192.671 123.846 192.875 124.603 192.875 125.594V129.401H191.676V125.344C191.676 124.828 191.531 124.416 191.24 124.108C190.948 123.792 190.549 123.634 190.041 123.634C189.517 123.634 189.092 123.796 188.768 124.121C188.443 124.445 188.281 124.878 188.281 125.419V129.401H187.082ZM197.664 129.476C197.165 129.476 196.732 129.406 196.366 129.264C196.008 129.123 195.729 128.881 195.53 128.54C195.338 128.19 195.243 127.72 195.243 127.129V120.712H196.391V127.279C196.391 127.637 196.487 127.916 196.678 128.116C196.878 128.307 197.157 128.403 197.515 128.403H198.688V129.476H197.664ZM194.094 123.634V122.735H198.688V123.634H194.094ZM202.519 129.601C201.645 129.601 200.967 129.414 200.484 129.039C200.01 128.665 199.764 128.153 199.748 127.504H200.871C200.888 127.762 201.017 128.007 201.258 128.24C201.508 128.465 201.928 128.577 202.519 128.577C203.052 128.577 203.46 128.473 203.743 128.265C204.026 128.049 204.167 127.787 204.167 127.479C204.167 127.204 204.063 126.992 203.855 126.842C203.647 126.684 203.31 126.58 202.844 126.53L202.12 126.455C201.487 126.389 200.971 126.201 200.572 125.893C200.172 125.577 199.972 125.136 199.972 124.57C199.972 124.146 200.081 123.784 200.297 123.484C200.513 123.176 200.813 122.943 201.196 122.785C201.579 122.618 202.02 122.535 202.519 122.535C203.268 122.535 203.876 122.702 204.342 123.034C204.808 123.367 205.049 123.863 205.066 124.52H203.942C203.934 124.254 203.809 124.029 203.568 123.846C203.335 123.655 202.985 123.559 202.519 123.559C202.053 123.559 201.699 123.655 201.458 123.846C201.217 124.037 201.096 124.279 201.096 124.57C201.096 124.82 201.179 125.019 201.346 125.169C201.52 125.319 201.803 125.415 202.195 125.456L202.919 125.531C203.634 125.606 204.209 125.806 204.642 126.131C205.074 126.447 205.291 126.896 205.291 127.479C205.291 127.895 205.17 128.265 204.929 128.59C204.696 128.906 204.371 129.156 203.955 129.339C203.539 129.514 203.06 129.601 202.519 129.601ZM206.669 129.401V127.878H208.117V129.401H206.669Z" fill="#171F27"/>
</g>
<g filter="url(#filter1_d_502_11725)">
<rect x="54.547" y="157.03" width="258.599" height="117.707" rx="8" fill="url(#paint0_linear_502_11725)"/>
<rect x="55.082" y="157.565" width="257.529" height="116.637" rx="7.46497" stroke="#F2E8FD" stroke-width="1.07007"/>
<path d="M71.9377 195.103L75.668 184.167H79.1436L82.9787 195.103H80.7915L77.5406 185.62L78.3046 185.95H76.432L77.211 185.62L74.065 195.103H71.9377ZM74.5444 192.197L75.2186 190.399H79.6529L80.3121 192.197H74.5444ZM84.4384 195.103V186.969H86.0863V190.459H85.9365C85.9365 189.63 86.0464 188.941 86.2661 188.392C86.4858 187.833 86.8104 187.413 87.2398 187.133C87.6793 186.854 88.2236 186.714 88.8728 186.714H88.9626C89.9314 186.714 90.6655 187.029 91.1648 187.658C91.6642 188.277 91.9139 189.206 91.9139 190.444V195.103H89.8315V190.264C89.8315 189.765 89.6867 189.361 89.3971 189.051C89.1174 188.741 88.7279 188.587 88.2286 188.587C87.7192 188.587 87.3048 188.746 86.9852 189.066C86.6756 189.376 86.5207 189.795 86.5207 190.324V195.103H84.4384ZM97.5233 195.373C96.954 195.373 96.4297 195.268 95.9503 195.058C95.4709 194.849 95.0564 194.554 94.7069 194.174C94.3573 193.795 94.0877 193.355 93.8979 192.856C93.7082 192.347 93.6133 191.797 93.6133 191.208V190.894C93.6133 190.314 93.7032 189.77 93.8829 189.261C94.0727 188.751 94.3324 188.307 94.6619 187.927C95.0015 187.548 95.406 187.253 95.8754 187.044C96.3548 186.824 96.8841 186.714 97.4634 186.714C98.1026 186.714 98.6619 186.854 99.1412 187.133C99.6306 187.403 100.02 187.813 100.31 188.362C100.599 188.911 100.759 189.6 100.789 190.429L100.175 189.71V184.167H102.257V195.103H100.609V191.643H100.969C100.939 192.472 100.769 193.166 100.46 193.725C100.15 194.274 99.7405 194.689 99.2311 194.968C98.7318 195.238 98.1625 195.373 97.5233 195.373ZM97.9877 193.62C98.3972 193.62 98.7717 193.53 99.1113 193.351C99.4509 193.161 99.7205 192.891 99.9203 192.542C100.13 192.182 100.235 191.763 100.235 191.283V190.684C100.235 190.205 100.13 189.805 99.9203 189.485C99.7105 189.156 99.4359 188.906 99.0963 188.736C98.7567 188.557 98.3872 188.467 97.9877 188.467C97.5383 188.467 97.1388 188.577 96.7892 188.796C96.4497 189.006 96.18 189.306 95.9803 189.695C95.7905 190.085 95.6956 190.539 95.6956 191.058C95.6956 191.578 95.7955 192.032 95.9952 192.422C96.195 192.801 96.4647 193.096 96.8042 193.306C97.1538 193.515 97.5483 193.62 97.9877 193.62ZM104.628 195.103V186.969H106.275V190.414H106.231C106.231 189.246 106.48 188.362 106.98 187.763C107.479 187.163 108.213 186.864 109.182 186.864H109.481V188.676H108.912C108.213 188.676 107.669 188.866 107.279 189.246C106.9 189.615 106.71 190.155 106.71 190.864V195.103H104.628ZM114.726 195.388C114.007 195.388 113.373 195.273 112.823 195.043C112.274 194.814 111.81 194.504 111.43 194.115C111.051 193.715 110.761 193.266 110.561 192.766C110.372 192.267 110.277 191.748 110.277 191.208V190.894C110.277 190.334 110.377 189.805 110.576 189.306C110.786 188.796 111.081 188.347 111.46 187.957C111.85 187.558 112.319 187.248 112.868 187.029C113.418 186.799 114.037 186.684 114.726 186.684C115.415 186.684 116.034 186.799 116.584 187.029C117.133 187.248 117.597 187.558 117.977 187.957C118.366 188.347 118.661 188.796 118.861 189.306C119.06 189.805 119.16 190.334 119.16 190.894V191.208C119.16 191.748 119.06 192.267 118.861 192.766C118.671 193.266 118.386 193.715 118.007 194.115C117.627 194.504 117.163 194.814 116.614 195.043C116.064 195.273 115.435 195.388 114.726 195.388ZM114.726 193.605C115.235 193.605 115.665 193.495 116.014 193.276C116.364 193.046 116.629 192.741 116.808 192.362C116.988 191.972 117.078 191.533 117.078 191.043C117.078 190.544 116.983 190.105 116.793 189.725C116.614 189.336 116.344 189.031 115.984 188.811C115.635 188.582 115.215 188.467 114.726 188.467C114.237 188.467 113.812 188.582 113.453 188.811C113.103 189.031 112.833 189.336 112.644 189.725C112.454 190.105 112.359 190.544 112.359 191.043C112.359 191.533 112.449 191.972 112.629 192.362C112.818 192.741 113.088 193.046 113.438 193.276C113.787 193.495 114.217 193.605 114.726 193.605ZM121.373 195.103V186.969H123.456V195.103H121.373ZM120.235 188.527V186.969H123.456V188.527H120.235ZM122.137 185.995C121.728 185.995 121.423 185.89 121.223 185.68C121.034 185.461 120.939 185.186 120.939 184.856C120.939 184.527 121.034 184.257 121.223 184.047C121.423 183.838 121.728 183.733 122.137 183.733C122.547 183.733 122.846 183.838 123.036 184.047C123.226 184.257 123.321 184.527 123.321 184.856C123.321 185.186 123.226 185.461 123.036 185.68C122.846 185.89 122.547 185.995 122.137 185.995ZM129.226 195.373C128.657 195.373 128.133 195.268 127.653 195.058C127.174 194.849 126.759 194.554 126.41 194.174C126.06 193.795 125.79 193.355 125.601 192.856C125.411 192.347 125.316 191.797 125.316 191.208V190.894C125.316 190.314 125.406 189.77 125.586 189.261C125.776 188.751 126.035 188.307 126.365 187.927C126.704 187.548 127.109 187.253 127.578 187.044C128.058 186.824 128.587 186.714 129.166 186.714C129.805 186.714 130.365 186.854 130.844 187.133C131.333 187.403 131.723 187.813 132.013 188.362C132.302 188.911 132.462 189.6 132.492 190.429L131.878 189.71V184.167H133.96V195.103H132.312V191.643H132.672C132.642 192.472 132.472 193.166 132.162 193.725C131.853 194.274 131.443 194.689 130.934 194.968C130.435 195.238 129.865 195.373 129.226 195.373ZM129.691 193.62C130.1 193.62 130.475 193.53 130.814 193.351C131.154 193.161 131.423 192.891 131.623 192.542C131.833 192.182 131.938 191.763 131.938 191.283V190.684C131.938 190.205 131.833 189.805 131.623 189.485C131.413 189.156 131.139 188.906 130.799 188.736C130.46 188.557 130.09 188.467 129.691 188.467C129.241 188.467 128.842 188.577 128.492 188.796C128.152 189.006 127.883 189.306 127.683 189.695C127.493 190.085 127.398 190.539 127.398 191.058C127.398 191.578 127.498 192.032 127.698 192.422C127.898 192.801 128.167 193.096 128.507 193.306C128.857 193.515 129.251 193.62 129.691 193.62ZM142.335 195.358C141.396 195.358 140.667 195.048 140.148 194.429C139.638 193.81 139.384 192.891 139.384 191.673V186.954H141.466V191.852C141.466 192.352 141.606 192.751 141.886 193.051C142.165 193.341 142.545 193.485 143.024 193.485C143.504 193.485 143.893 193.331 144.193 193.021C144.502 192.711 144.657 192.292 144.657 191.763V186.954H146.739V195.103H145.092V191.643H145.256C145.256 192.462 145.151 193.146 144.942 193.695C144.732 194.244 144.417 194.659 143.998 194.938C143.578 195.218 143.054 195.358 142.425 195.358H142.335ZM152.083 195.358C150.964 195.358 150.085 195.123 149.446 194.654C148.817 194.174 148.487 193.515 148.457 192.676H150.33C150.36 192.956 150.515 193.211 150.794 193.44C151.074 193.67 151.513 193.785 152.113 193.785C152.612 193.785 153.007 193.695 153.296 193.515C153.596 193.336 153.746 193.091 153.746 192.781C153.746 192.512 153.631 192.297 153.401 192.137C153.181 191.977 152.802 191.872 152.262 191.822L151.543 191.748C150.635 191.648 149.935 191.388 149.446 190.969C148.957 190.549 148.712 189.99 148.712 189.291C148.712 188.731 148.852 188.262 149.131 187.882C149.411 187.503 149.796 187.218 150.285 187.029C150.784 186.829 151.354 186.729 151.993 186.729C152.992 186.729 153.801 186.949 154.42 187.388C155.039 187.828 155.364 188.472 155.393 189.321H153.521C153.501 189.041 153.361 188.801 153.101 188.602C152.842 188.402 152.467 188.302 151.978 188.302C151.538 188.302 151.199 188.387 150.959 188.557C150.719 188.726 150.6 188.946 150.6 189.216C150.6 189.475 150.694 189.675 150.884 189.815C151.084 189.955 151.404 190.05 151.843 190.1L152.562 190.175C153.521 190.274 154.27 190.539 154.809 190.969C155.359 191.398 155.633 191.977 155.633 192.706C155.633 193.246 155.483 193.715 155.184 194.115C154.894 194.504 154.485 194.809 153.955 195.028C153.426 195.248 152.802 195.358 152.083 195.358ZM160.994 195.388C160.295 195.388 159.68 195.268 159.151 195.028C158.632 194.789 158.197 194.469 157.848 194.07C157.508 193.66 157.249 193.206 157.069 192.706C156.899 192.207 156.814 191.698 156.814 191.178V190.894C156.814 190.354 156.899 189.835 157.069 189.336C157.249 188.826 157.508 188.377 157.848 187.987C158.197 187.588 158.627 187.273 159.136 187.044C159.645 186.804 160.235 186.684 160.904 186.684C161.783 186.684 162.517 186.879 163.106 187.268C163.705 187.648 164.155 188.152 164.454 188.781C164.754 189.401 164.904 190.07 164.904 190.789V191.538H157.698V190.264H163.6L162.956 190.894C162.956 190.374 162.881 189.93 162.732 189.56C162.582 189.191 162.352 188.906 162.042 188.706C161.743 188.507 161.363 188.407 160.904 188.407C160.444 188.407 160.055 188.512 159.735 188.721C159.416 188.931 159.171 189.236 159.001 189.635C158.842 190.025 158.762 190.494 158.762 191.043C158.762 191.553 158.842 192.007 159.001 192.407C159.161 192.796 159.406 193.106 159.735 193.336C160.065 193.555 160.484 193.665 160.994 193.665C161.503 193.665 161.918 193.565 162.237 193.365C162.557 193.156 162.762 192.901 162.851 192.601H164.769C164.649 193.161 164.419 193.65 164.08 194.07C163.74 194.489 163.306 194.814 162.776 195.043C162.257 195.273 161.663 195.388 160.994 195.388ZM166.643 195.103V186.969H168.291V190.414H168.246C168.246 189.246 168.496 188.362 168.995 187.763C169.495 187.163 170.229 186.864 171.198 186.864H171.497V188.676H170.928C170.229 188.676 169.684 188.866 169.295 189.246C168.915 189.615 168.726 190.155 168.726 190.864V195.103H166.643ZM175.842 195.358C174.723 195.358 173.844 195.123 173.205 194.654C172.576 194.174 172.246 193.515 172.216 192.676H174.089C174.119 192.956 174.274 193.211 174.553 193.44C174.833 193.67 175.272 193.785 175.871 193.785C176.371 193.785 176.765 193.695 177.055 193.515C177.355 193.336 177.504 193.091 177.504 192.781C177.504 192.512 177.39 192.297 177.16 192.137C176.94 191.977 176.561 191.872 176.021 191.822L175.302 191.748C174.393 191.648 173.694 191.388 173.205 190.969C172.715 190.549 172.471 189.99 172.471 189.291C172.471 188.731 172.611 188.262 172.89 187.882C173.17 187.503 173.554 187.218 174.044 187.029C174.543 186.829 175.112 186.729 175.752 186.729C176.75 186.729 177.559 186.949 178.179 187.388C178.798 187.828 179.122 188.472 179.152 189.321H177.28C177.26 189.041 177.12 188.801 176.86 188.602C176.601 188.402 176.226 188.302 175.737 188.302C175.297 188.302 174.958 188.387 174.718 188.557C174.478 188.726 174.358 188.946 174.358 189.216C174.358 189.475 174.453 189.675 174.643 189.815C174.843 189.955 175.162 190.05 175.602 190.1L176.321 190.175C177.28 190.274 178.029 190.539 178.568 190.969C179.117 191.398 179.392 191.977 179.392 192.706C179.392 193.246 179.242 193.715 178.943 194.115C178.653 194.504 178.243 194.809 177.714 195.028C177.185 195.248 176.561 195.358 175.842 195.358Z" fill="#171F27"/>
<path d="M283.541 189.804C286.004 189.804 288 187.808 288 185.345C288 187.808 289.996 189.804 292.458 189.804C289.996 189.804 288 191.8 288 194.262C288 191.8 286.004 189.804 283.541 189.804Z" stroke="#8542C3" stroke-width="1.6051" stroke-linecap="round" stroke-linejoin="round"/>
<path d="M278.191 184.899C279.915 184.899 281.312 183.502 281.312 181.778C281.312 183.502 282.709 184.899 284.433 184.899C282.709 184.899 281.312 186.297 281.312 188.02C281.312 186.297 279.915 184.899 278.191 184.899Z" stroke="#8542C3" stroke-width="1.6051" stroke-linecap="round" stroke-linejoin="round"/>
<path d="M278.191 194.708C279.915 194.708 281.312 193.311 281.312 191.587C281.312 193.311 282.709 194.708 284.433 194.708C282.709 194.708 281.312 196.106 281.312 197.829C281.312 196.106 279.915 194.708 278.191 194.708Z" stroke="#8542C3" stroke-width="1.6051" stroke-linecap="round" stroke-linejoin="round"/>
<path d="M76.8964 225.963C76.0975 225.963 75.4283 225.824 74.889 225.544C74.3597 225.264 73.9352 224.885 73.6156 224.405C73.306 223.916 73.0813 223.357 72.9415 222.728C72.8116 222.098 72.7467 221.439 72.7467 220.75V220.031C72.7467 218.303 73.1762 216.975 74.0351 216.046C74.894 215.107 76.1374 214.638 77.7653 214.638C78.1548 214.638 78.4844 214.648 78.7541 214.668C79.0237 214.688 79.3184 214.718 79.6379 214.758V215.986C79.3084 215.946 79.0038 215.916 78.7241 215.896C78.4445 215.876 78.1049 215.866 77.7054 215.866C76.7966 215.866 76.0775 216.036 75.5482 216.376C75.0188 216.715 74.6393 217.205 74.4096 217.844C74.1799 218.473 74.065 219.237 74.065 220.136V220.81L73.7055 222.143C73.7155 221.354 73.8653 220.7 74.1549 220.181C74.4545 219.661 74.859 219.272 75.3684 219.012C75.8877 218.753 76.482 218.623 77.1511 218.623C77.9301 218.623 78.5893 218.783 79.1286 219.102C79.6679 219.412 80.0724 219.841 80.3421 220.391C80.6217 220.94 80.7615 221.564 80.7615 222.263C80.7615 222.972 80.6167 223.606 80.3271 224.166C80.0374 224.725 79.603 225.164 79.0237 225.484C78.4545 225.804 77.7454 225.963 76.8964 225.963ZM76.8964 224.705C77.4457 224.705 77.9052 224.6 78.2747 224.39C78.6442 224.181 78.9189 223.896 79.0986 223.537C79.2884 223.167 79.3833 222.743 79.3833 222.263C79.3833 221.784 79.2934 221.359 79.1136 220.99C78.9338 220.62 78.6642 220.336 78.3046 220.136C77.9551 219.926 77.5206 219.821 77.0013 219.821C76.492 219.821 76.0325 219.916 75.6231 220.106C75.2236 220.296 74.909 220.575 74.6793 220.945C74.4496 221.304 74.3347 221.749 74.3347 222.278C74.3347 222.718 74.4246 223.122 74.6044 223.492C74.7841 223.861 75.0638 224.156 75.4433 224.375C75.8228 224.595 76.3072 224.705 76.8964 224.705ZM87.1161 225.933C86.2972 225.933 85.5981 225.794 85.0188 225.514C84.4495 225.224 83.9851 224.835 83.6256 224.345C83.276 223.856 83.0213 223.292 82.8615 222.653C82.7017 222.003 82.6218 221.319 82.6218 220.6V219.791C82.6218 218.783 82.7766 217.874 83.0863 217.065C83.4058 216.256 83.8952 215.617 84.5544 215.147C85.2235 214.668 86.0774 214.428 87.1161 214.428C88.1548 214.428 89.0037 214.668 89.6629 215.147C90.322 215.617 90.8064 216.256 91.116 217.065C91.4356 217.874 91.5954 218.783 91.5954 219.791V220.6C91.5954 221.319 91.5155 222.003 91.3557 222.653C91.1959 223.292 90.9363 223.856 90.5767 224.345C90.2272 224.835 89.7677 225.224 89.1985 225.514C88.6292 225.794 87.9351 225.933 87.1161 225.933ZM87.1161 224.615C88.1548 224.615 88.9138 224.266 89.3932 223.566C89.8826 222.857 90.1273 221.739 90.1273 220.211C90.1273 218.613 89.8776 217.469 89.3782 216.78C88.8889 216.091 88.1348 215.746 87.1161 215.746C86.0874 215.746 85.3234 216.091 84.824 216.78C84.3347 217.469 84.09 218.603 84.09 220.181C84.09 221.719 84.3347 222.842 84.824 223.552C85.3134 224.261 86.0774 224.615 87.1161 224.615ZM96.4367 225.664L100.571 214.728H101.71L97.5753 225.664H96.4367ZM95.6277 220.6C95.0585 220.6 94.5941 220.47 94.2345 220.211C93.885 219.951 93.6253 219.607 93.4555 219.177C93.2957 218.748 93.2158 218.283 93.2158 217.784V217.394C93.2158 216.855 93.3007 216.376 93.4705 215.956C93.6403 215.527 93.9049 215.192 94.2645 214.952C94.624 214.703 95.0784 214.578 95.6277 214.578C96.187 214.578 96.6415 214.703 96.991 214.952C97.3506 215.192 97.6152 215.527 97.785 215.956C97.9548 216.376 98.0397 216.855 98.0397 217.394V217.784C98.0397 218.283 97.9548 218.748 97.785 219.177C97.6252 219.607 97.3705 219.951 97.021 220.211C96.6714 220.47 96.207 220.6 95.6277 220.6ZM95.6277 219.612C96.0872 219.612 96.4267 219.447 96.6465 219.117C96.8762 218.778 96.991 218.273 96.991 217.604C96.991 216.895 96.8762 216.381 96.6465 216.061C96.4167 215.731 96.0772 215.567 95.6277 215.567C95.1783 215.567 94.8388 215.731 94.609 216.061C94.3793 216.381 94.2645 216.89 94.2645 217.589C94.2645 218.258 94.3743 218.763 94.5941 219.102C94.8238 219.442 95.1683 219.612 95.6277 219.612ZM102.459 225.814C101.89 225.814 101.425 225.684 101.066 225.424C100.716 225.164 100.457 224.82 100.287 224.39C100.127 223.961 100.047 223.497 100.047 222.997V222.608C100.047 222.068 100.132 221.589 100.302 221.17C100.472 220.74 100.736 220.406 101.096 220.166C101.455 219.916 101.91 219.791 102.459 219.791C103.018 219.791 103.473 219.916 103.822 220.166C104.182 220.406 104.447 220.74 104.616 221.17C104.786 221.589 104.871 222.068 104.871 222.608V222.997C104.871 223.497 104.786 223.961 104.616 224.39C104.457 224.82 104.202 225.164 103.852 225.424C103.503 225.684 103.038 225.814 102.459 225.814ZM102.459 224.825C102.918 224.825 103.258 224.66 103.478 224.331C103.707 223.991 103.822 223.487 103.822 222.817C103.822 222.108 103.707 221.594 103.478 221.274C103.248 220.945 102.908 220.78 102.459 220.78C102.01 220.78 101.67 220.945 101.44 221.274C101.211 221.594 101.096 222.103 101.096 222.802C101.096 223.472 101.206 223.976 101.425 224.316C101.655 224.655 102 224.825 102.459 224.825ZM113.877 225.933C113.178 225.933 112.563 225.814 112.034 225.574C111.505 225.334 111.055 225.02 110.686 224.63C110.326 224.231 110.052 223.786 109.862 223.297C109.682 222.807 109.592 222.308 109.592 221.799V221.529C109.592 221.02 109.687 220.52 109.877 220.031C110.067 219.532 110.346 219.087 110.716 218.698C111.085 218.298 111.535 217.984 112.064 217.754C112.593 217.514 113.198 217.394 113.877 217.394C114.556 217.394 115.16 217.514 115.689 217.754C116.219 217.984 116.668 218.298 117.038 218.698C117.407 219.087 117.687 219.532 117.877 220.031C118.066 220.52 118.161 221.02 118.161 221.529V221.799C118.161 222.308 118.066 222.807 117.877 223.297C117.697 223.786 117.422 224.231 117.053 224.63C116.693 225.02 116.249 225.334 115.719 225.574C115.19 225.814 114.576 225.933 113.877 225.933ZM113.877 224.645C114.476 224.645 114.985 224.515 115.405 224.256C115.834 223.986 116.159 223.626 116.379 223.177C116.608 222.728 116.723 222.223 116.723 221.664C116.723 221.095 116.608 220.585 116.379 220.136C116.149 219.686 115.819 219.332 115.39 219.072C114.97 218.813 114.466 218.683 113.877 218.683C113.297 218.683 112.793 218.813 112.364 219.072C111.934 219.332 111.605 219.686 111.375 220.136C111.145 220.585 111.03 221.095 111.03 221.664C111.03 222.223 111.14 222.728 111.36 223.177C111.59 223.626 111.914 223.986 112.334 224.256C112.763 224.515 113.278 224.645 113.877 224.645ZM120.525 225.664V217.26C120.525 216.371 120.76 215.716 121.229 215.297C121.699 214.878 122.388 214.668 123.296 214.668H124.285V215.866H123.057C122.687 215.866 122.403 215.971 122.203 216.181C122.003 216.381 121.903 216.66 121.903 217.02V225.664H120.525ZM119.416 218.833V217.754H124.435V218.833H119.416ZM132.172 225.904C131.223 225.904 130.494 225.594 129.985 224.975C129.475 224.355 129.221 223.462 129.221 222.293V217.649H130.659V222.578C130.659 223.207 130.829 223.701 131.168 224.061C131.508 224.41 131.967 224.585 132.546 224.585C133.146 224.585 133.635 224.395 134.015 224.016C134.394 223.626 134.584 223.097 134.584 222.428V217.649H136.022V225.664H134.883V222.233H135.063C135.063 223.022 134.958 223.691 134.749 224.241C134.539 224.78 134.224 225.194 133.805 225.484C133.395 225.764 132.871 225.904 132.232 225.904H132.172ZM141.429 225.904C140.38 225.904 139.566 225.679 138.987 225.229C138.418 224.78 138.123 224.166 138.103 223.387H139.452C139.472 223.696 139.626 223.991 139.916 224.271C140.216 224.54 140.72 224.675 141.429 224.675C142.068 224.675 142.558 224.55 142.897 224.301C143.237 224.041 143.407 223.726 143.407 223.357C143.407 223.027 143.282 222.772 143.032 222.593C142.782 222.403 142.378 222.278 141.819 222.218L140.95 222.128C140.191 222.048 139.571 221.824 139.092 221.454C138.613 221.075 138.373 220.545 138.373 219.866C138.373 219.357 138.503 218.922 138.762 218.563C139.022 218.193 139.382 217.914 139.841 217.724C140.3 217.524 140.83 217.424 141.429 217.424C142.328 217.424 143.057 217.624 143.616 218.024C144.176 218.423 144.465 219.017 144.485 219.806H143.137C143.127 219.487 142.977 219.217 142.687 218.997C142.408 218.768 141.988 218.653 141.429 218.653C140.87 218.653 140.445 218.768 140.156 218.997C139.866 219.227 139.721 219.517 139.721 219.866C139.721 220.166 139.821 220.406 140.021 220.585C140.231 220.765 140.57 220.88 141.04 220.93L141.908 221.02C142.767 221.11 143.456 221.349 143.976 221.739C144.495 222.118 144.755 222.658 144.755 223.357C144.755 223.856 144.61 224.301 144.32 224.69C144.041 225.07 143.651 225.369 143.152 225.589C142.652 225.799 142.078 225.904 141.429 225.904ZM150.24 225.933C149.541 225.933 148.936 225.814 148.427 225.574C147.918 225.334 147.503 225.02 147.184 224.63C146.864 224.231 146.624 223.786 146.465 223.297C146.315 222.807 146.24 222.308 146.24 221.799V221.529C146.24 221.01 146.315 220.505 146.465 220.016C146.624 219.527 146.864 219.087 147.184 218.698C147.503 218.298 147.908 217.984 148.397 217.754C148.897 217.514 149.481 217.394 150.15 217.394C151.019 217.394 151.733 217.584 152.292 217.964C152.861 218.333 153.281 218.813 153.551 219.402C153.83 219.991 153.97 220.62 153.97 221.289V221.934H146.869V220.855H152.921L152.592 221.439C152.592 220.87 152.502 220.381 152.322 219.971C152.142 219.552 151.873 219.227 151.513 218.997C151.154 218.768 150.699 218.653 150.15 218.653C149.581 218.653 149.106 218.783 148.727 219.042C148.357 219.302 148.078 219.656 147.888 220.106C147.708 220.555 147.618 221.075 147.618 221.664C147.618 222.233 147.708 222.748 147.888 223.207C148.078 223.656 148.367 224.016 148.757 224.286C149.146 224.545 149.641 224.675 150.24 224.675C150.869 224.675 151.378 224.535 151.768 224.256C152.167 223.976 152.407 223.651 152.487 223.282H153.835C153.725 223.831 153.506 224.306 153.176 224.705C152.846 225.105 152.432 225.409 151.933 225.619C151.433 225.829 150.869 225.933 150.24 225.933ZM156.012 225.664V217.664H157.151V220.96H157.091C157.091 219.791 157.345 218.937 157.855 218.398C158.374 217.849 159.148 217.574 160.177 217.574H160.446V218.862H159.937C159.138 218.862 158.524 219.077 158.094 219.507C157.665 219.926 157.45 220.535 157.45 221.334V225.664H156.012ZM164.778 225.904C163.73 225.904 162.916 225.679 162.336 225.229C161.767 224.78 161.472 224.166 161.452 223.387H162.801C162.821 223.696 162.976 223.991 163.265 224.271C163.565 224.54 164.069 224.675 164.778 224.675C165.417 224.675 165.907 224.55 166.246 224.301C166.586 224.041 166.756 223.726 166.756 223.357C166.756 223.027 166.631 222.772 166.381 222.593C166.131 222.403 165.727 222.278 165.168 222.218L164.299 222.128C163.54 222.048 162.921 221.824 162.441 221.454C161.962 221.075 161.722 220.545 161.722 219.866C161.722 219.357 161.852 218.922 162.112 218.563C162.371 218.193 162.731 217.914 163.19 217.724C163.65 217.524 164.179 217.424 164.778 217.424C165.677 217.424 166.406 217.624 166.965 218.024C167.525 218.423 167.814 219.017 167.834 219.806H166.486C166.476 219.487 166.326 219.217 166.037 218.997C165.757 218.768 165.337 218.653 164.778 218.653C164.219 218.653 163.794 218.768 163.505 218.997C163.215 219.227 163.07 219.517 163.07 219.866C163.07 220.166 163.17 220.406 163.37 220.585C163.58 220.765 163.919 220.88 164.389 220.93L165.258 221.02C166.117 221.11 166.806 221.349 167.325 221.739C167.844 222.118 168.104 222.658 168.104 223.357C168.104 223.856 167.959 224.301 167.67 224.69C167.39 225.07 167 225.369 166.501 225.589C166.002 225.799 165.427 225.904 164.778 225.904ZM178.436 225.664V223.267H178.196V220.495C178.196 219.946 178.051 219.532 177.762 219.252C177.482 218.972 177.068 218.833 176.518 218.833C176.209 218.833 175.889 218.838 175.56 218.847C175.23 218.857 174.915 218.867 174.616 218.877C174.316 218.887 174.056 218.902 173.837 218.922V217.664C174.056 217.644 174.286 217.629 174.526 217.619C174.776 217.599 175.03 217.589 175.29 217.589C175.55 217.579 175.799 217.574 176.039 217.574C176.858 217.574 177.527 217.674 178.046 217.874C178.566 218.063 178.95 218.378 179.2 218.818C179.45 219.257 179.574 219.851 179.574 220.6V225.664H178.436ZM175.814 225.874C175.215 225.874 174.696 225.774 174.256 225.574C173.827 225.364 173.492 225.065 173.252 224.675C173.023 224.286 172.908 223.816 172.908 223.267C172.908 222.698 173.033 222.223 173.282 221.844C173.542 221.464 173.917 221.18 174.406 220.99C174.895 220.79 175.485 220.69 176.174 220.69H178.346V221.769H176.114C175.535 221.769 175.09 221.909 174.781 222.188C174.471 222.468 174.316 222.827 174.316 223.267C174.316 223.706 174.471 224.061 174.781 224.331C175.09 224.6 175.535 224.735 176.114 224.735C176.453 224.735 176.778 224.675 177.088 224.555C177.397 224.425 177.652 224.216 177.852 223.926C178.061 223.626 178.176 223.217 178.196 222.698L178.586 223.267C178.536 223.836 178.396 224.316 178.166 224.705C177.947 225.085 177.637 225.374 177.237 225.574C176.848 225.774 176.374 225.874 175.814 225.874ZM182.214 225.664V217.664H183.353V220.96H183.293C183.293 219.791 183.547 218.937 184.057 218.398C184.576 217.849 185.35 217.574 186.379 217.574H186.648V218.862H186.139C185.34 218.862 184.726 219.077 184.296 219.507C183.867 219.926 183.652 220.535 183.652 221.334V225.664H182.214ZM191.671 225.933C190.972 225.933 190.368 225.814 189.859 225.574C189.349 225.334 188.935 225.02 188.615 224.63C188.296 224.231 188.056 223.786 187.896 223.297C187.746 222.807 187.672 222.308 187.672 221.799V221.529C187.672 221.01 187.746 220.505 187.896 220.016C188.056 219.527 188.296 219.087 188.615 218.698C188.935 218.298 189.339 217.984 189.829 217.754C190.328 217.514 190.912 217.394 191.582 217.394C192.45 217.394 193.165 217.584 193.724 217.964C194.293 218.333 194.713 218.813 194.982 219.402C195.262 219.991 195.402 220.62 195.402 221.289V221.934H188.301V220.855H194.353L194.023 221.439C194.023 220.87 193.934 220.381 193.754 219.971C193.574 219.552 193.304 219.227 192.945 218.997C192.585 218.768 192.131 218.653 191.582 218.653C191.012 218.653 190.538 218.783 190.158 219.042C189.789 219.302 189.509 219.656 189.319 220.106C189.14 220.555 189.05 221.075 189.05 221.664C189.05 222.233 189.14 222.748 189.319 223.207C189.509 223.656 189.799 224.016 190.188 224.286C190.578 224.545 191.072 224.675 191.671 224.675C192.301 224.675 192.81 224.535 193.199 224.256C193.599 223.976 193.839 223.651 193.919 223.282H195.267C195.157 223.831 194.937 224.306 194.608 224.705C194.278 225.105 193.864 225.409 193.364 225.619C192.865 225.829 192.301 225.933 191.671 225.933ZM203.624 225.904C202.675 225.904 201.946 225.594 201.437 224.975C200.927 224.355 200.673 223.462 200.673 222.293V217.649H202.111V222.578C202.111 223.207 202.281 223.701 202.62 224.061C202.96 224.41 203.419 224.585 203.998 224.585C204.598 224.585 205.087 224.395 205.467 224.016C205.846 223.626 206.036 223.097 206.036 222.428V217.649H207.474V225.664H206.335V222.233H206.515C206.515 223.022 206.41 223.691 206.201 224.241C205.991 224.78 205.676 225.194 205.257 225.484C204.847 225.764 204.323 225.904 203.684 225.904H203.624ZM212.881 225.904C211.832 225.904 211.018 225.679 210.439 225.229C209.87 224.78 209.575 224.166 209.555 223.387H210.904C210.924 223.696 211.078 223.991 211.368 224.271C211.668 224.54 212.172 224.675 212.881 224.675C213.52 224.675 214.01 224.55 214.349 224.301C214.689 224.041 214.859 223.726 214.859 223.357C214.859 223.027 214.734 222.772 214.484 222.593C214.234 222.403 213.83 222.278 213.271 222.218L212.402 222.128C211.643 222.048 211.023 221.824 210.544 221.454C210.065 221.075 209.825 220.545 209.825 219.866C209.825 219.357 209.955 218.922 210.214 218.563C210.474 218.193 210.834 217.914 211.293 217.724C211.752 217.524 212.282 217.424 212.881 217.424C213.78 217.424 214.509 217.624 215.068 218.024C215.628 218.423 215.917 219.017 215.937 219.806H214.589C214.579 219.487 214.429 219.217 214.139 218.997C213.86 218.768 213.44 218.653 212.881 218.653C212.322 218.653 211.897 218.768 211.608 218.997C211.318 219.227 211.173 219.517 211.173 219.866C211.173 220.166 211.273 220.406 211.473 220.585C211.683 220.765 212.022 220.88 212.492 220.93L213.36 221.02C214.219 221.11 214.908 221.349 215.428 221.739C215.947 222.118 216.207 222.658 216.207 223.357C216.207 223.856 216.062 224.301 215.772 224.69C215.493 225.07 215.103 225.369 214.604 225.589C214.104 225.799 213.53 225.904 212.881 225.904ZM218.681 225.664V217.664H220.119V225.664H218.681ZM217.452 218.803V217.664H220.119V218.803H217.452ZM219.085 216.376C218.766 216.376 218.526 216.291 218.366 216.121C218.216 215.951 218.141 215.736 218.141 215.477C218.141 215.217 218.216 215.002 218.366 214.833C218.526 214.663 218.766 214.578 219.085 214.578C219.405 214.578 219.639 214.663 219.789 214.833C219.949 215.002 220.029 215.217 220.029 215.477C220.029 215.736 219.949 215.951 219.789 216.121C219.639 216.291 219.405 216.376 219.085 216.376ZM222.9 225.664V217.664H224.038V221.095H223.858C223.858 220.306 223.963 219.641 224.173 219.102C224.393 218.553 224.722 218.138 225.162 217.859C225.601 217.569 226.155 217.424 226.825 217.424H226.884C227.893 217.424 228.637 217.739 229.117 218.368C229.606 218.997 229.851 219.906 229.851 221.095V225.664H228.413V220.795C228.413 220.176 228.238 219.681 227.888 219.312C227.539 218.932 227.059 218.743 226.45 218.743C225.821 218.743 225.311 218.937 224.922 219.327C224.532 219.716 224.338 220.236 224.338 220.885V225.664H222.9ZM235.508 228.78C235.139 228.78 234.764 228.765 234.385 228.735C234.015 228.705 233.661 228.665 233.321 228.615V227.402C233.681 227.452 234.055 227.491 234.445 227.521C234.844 227.561 235.219 227.581 235.568 227.581C236.297 227.581 236.876 227.482 237.306 227.282C237.745 227.092 238.06 226.787 238.25 226.368C238.449 225.958 238.549 225.429 238.549 224.78V223.252L239.029 222.113C238.999 222.922 238.829 223.596 238.519 224.136C238.21 224.665 237.805 225.065 237.306 225.334C236.817 225.594 236.272 225.724 235.673 225.724C235.114 225.724 234.599 225.619 234.13 225.409C233.671 225.189 233.271 224.89 232.931 224.51C232.602 224.131 232.342 223.696 232.152 223.207C231.973 222.708 231.883 222.183 231.883 221.634V221.364C231.883 220.805 231.978 220.286 232.167 219.806C232.357 219.317 232.622 218.892 232.961 218.533C233.301 218.173 233.706 217.894 234.175 217.694C234.654 217.494 235.179 217.394 235.748 217.394C236.417 217.394 237.006 217.539 237.516 217.829C238.025 218.108 238.425 218.523 238.714 219.072C239.014 219.612 239.179 220.276 239.209 221.065L238.789 221.08V217.664H239.928V224.72C239.928 225.679 239.778 226.453 239.478 227.042C239.189 227.641 238.719 228.081 238.07 228.36C237.431 228.64 236.577 228.78 235.508 228.78ZM235.943 224.405C236.422 224.405 236.856 224.301 237.246 224.091C237.645 223.881 237.96 223.581 238.19 223.192C238.429 222.792 238.549 222.318 238.549 221.769V221.08C238.549 220.54 238.425 220.086 238.175 219.716C237.935 219.347 237.621 219.067 237.231 218.877C236.842 218.688 236.417 218.593 235.958 218.593C235.438 218.593 234.979 218.713 234.579 218.952C234.18 219.192 233.87 219.532 233.651 219.971C233.431 220.401 233.321 220.91 233.321 221.499C233.321 222.088 233.431 222.603 233.651 223.042C233.88 223.482 234.19 223.821 234.579 224.061C234.979 224.291 235.433 224.405 235.943 224.405ZM250.839 225.664V223.267H250.599V220.495C250.599 219.946 250.454 219.532 250.165 219.252C249.885 218.972 249.471 218.833 248.921 218.833C248.612 218.833 248.292 218.838 247.963 218.847C247.633 218.857 247.318 218.867 247.019 218.877C246.719 218.887 246.459 218.902 246.24 218.922V217.664C246.459 217.644 246.689 217.629 246.929 217.619C247.179 217.599 247.433 217.589 247.693 217.589C247.953 217.579 248.202 217.574 248.442 217.574C249.261 217.574 249.93 217.674 250.449 217.874C250.969 218.063 251.353 218.378 251.603 218.818C251.853 219.257 251.977 219.851 251.977 220.6V225.664H250.839ZM248.217 225.874C247.618 225.874 247.099 225.774 246.659 225.574C246.23 225.364 245.895 225.065 245.655 224.675C245.426 224.286 245.311 223.816 245.311 223.267C245.311 222.698 245.436 222.223 245.685 221.844C245.945 221.464 246.32 221.18 246.809 220.99C247.298 220.79 247.888 220.69 248.577 220.69H250.749V221.769H248.517C247.938 221.769 247.493 221.909 247.184 222.188C246.874 222.468 246.719 222.827 246.719 223.267C246.719 223.706 246.874 224.061 247.184 224.331C247.493 224.6 247.938 224.735 248.517 224.735C248.856 224.735 249.181 224.675 249.491 224.555C249.8 224.425 250.055 224.216 250.255 223.926C250.464 223.626 250.579 223.217 250.599 222.698L250.989 223.267C250.939 223.836 250.799 224.316 250.569 224.705C250.349 225.085 250.04 225.374 249.64 225.574C249.251 225.774 248.776 225.874 248.217 225.874ZM254.617 225.664V217.664H255.756V221.095H255.576C255.576 220.306 255.681 219.641 255.89 219.102C256.11 218.553 256.44 218.138 256.879 217.859C257.319 217.569 257.873 217.424 258.542 217.424H258.602C259.611 217.424 260.355 217.739 260.834 218.368C261.323 218.997 261.568 219.906 261.568 221.095V225.664H260.13V220.795C260.13 220.176 259.955 219.681 259.606 219.312C259.256 218.932 258.777 218.743 258.167 218.743C257.538 218.743 257.029 218.937 256.639 219.327C256.25 219.716 256.055 220.236 256.055 220.885V225.664H254.617ZM72.0876 246.664L76.0275 235.728H78.5144L82.5742 246.664H81.0611L77.3908 236.687L78.1099 237.046H76.3421L77.1062 236.687L73.5557 246.664H72.0876ZM74.4396 243.398L74.9339 242.08H79.6529L80.1473 243.398H74.4396ZM84.3698 246.664V238.664H85.5084V242.095H85.3286C85.3286 241.306 85.4335 240.641 85.6432 240.102C85.8629 239.553 86.1925 239.138 86.6319 238.859C87.0714 238.569 87.6257 238.424 88.2948 238.424H88.3547C89.3635 238.424 90.1075 238.739 90.5869 239.368C91.0763 239.997 91.321 240.906 91.321 242.095V246.664H89.8828V241.795C89.8828 241.176 89.708 240.681 89.3585 240.312C89.0089 239.932 88.5295 239.743 87.9203 239.743C87.2911 239.743 86.7817 239.937 86.3922 240.327C86.0027 240.716 85.808 241.236 85.808 241.885V246.664H84.3698ZM97.2931 246.933C96.7238 246.933 96.1995 246.829 95.7201 246.619C95.2407 246.409 94.8212 246.115 94.4617 245.735C94.1121 245.355 93.8375 244.916 93.6377 244.417C93.448 243.917 93.3531 243.378 93.3531 242.799V242.529C93.3531 241.96 93.448 241.425 93.6377 240.926C93.8275 240.427 94.0922 239.987 94.4317 239.608C94.7813 239.228 95.1908 238.934 95.6602 238.724C96.1396 238.504 96.6689 238.394 97.2481 238.394C97.8574 238.394 98.4117 238.524 98.911 238.784C99.4104 239.034 99.8199 239.428 100.139 239.967C100.459 240.507 100.639 241.206 100.679 242.065L100.08 241.106V235.728H101.518V246.664H100.379V243.113H100.799C100.759 244.022 100.569 244.761 100.229 245.331C99.8898 245.89 99.4603 246.299 98.941 246.559C98.4316 246.809 97.8823 246.933 97.2931 246.933ZM97.4878 245.675C97.9772 245.675 98.4217 245.565 98.8211 245.345C99.2206 245.126 99.5402 244.811 99.7799 244.402C100.02 243.982 100.139 243.493 100.139 242.934V242.244C100.139 241.695 100.015 241.231 99.7649 240.851C99.5252 240.462 99.2007 240.167 98.7912 239.967C98.3917 239.758 97.9523 239.653 97.4729 239.653C96.9435 239.653 96.4741 239.778 96.0647 240.027C95.6652 240.277 95.3506 240.627 95.1209 241.076C94.9011 241.525 94.7913 242.055 94.7913 242.664C94.7913 243.273 94.9061 243.807 95.1358 244.267C95.3655 244.716 95.6851 245.066 96.0946 245.316C96.5041 245.555 96.9685 245.675 97.4878 245.675ZM104.281 246.664V238.664H105.42V241.96H105.36C105.36 240.791 105.614 239.937 106.124 239.398C106.643 238.849 107.417 238.574 108.446 238.574H108.715V239.862H108.206C107.407 239.862 106.793 240.077 106.363 240.507C105.934 240.926 105.719 241.535 105.719 242.334V246.664H104.281ZM114.023 246.933C113.324 246.933 112.71 246.814 112.18 246.574C111.651 246.334 111.202 246.02 110.832 245.63C110.473 245.231 110.198 244.786 110.008 244.297C109.828 243.807 109.739 243.308 109.739 242.799V242.529C109.739 242.02 109.833 241.52 110.023 241.031C110.213 240.532 110.493 240.087 110.862 239.698C111.232 239.298 111.681 238.984 112.21 238.754C112.74 238.514 113.344 238.394 114.023 238.394C114.702 238.394 115.306 238.514 115.836 238.754C116.365 238.984 116.814 239.298 117.184 239.698C117.554 240.087 117.833 240.532 118.023 241.031C118.213 241.52 118.308 242.02 118.308 242.529V242.799C118.308 243.308 118.213 243.807 118.023 244.297C117.843 244.786 117.569 245.231 117.199 245.63C116.839 246.02 116.395 246.334 115.866 246.574C115.336 246.814 114.722 246.933 114.023 246.933ZM114.023 245.645C114.622 245.645 115.132 245.515 115.551 245.256C115.981 244.986 116.305 244.626 116.525 244.177C116.755 243.728 116.869 243.223 116.869 242.664C116.869 242.095 116.755 241.585 116.525 241.136C116.295 240.686 115.966 240.332 115.536 240.072C115.117 239.813 114.612 239.683 114.023 239.683C113.444 239.683 112.939 239.813 112.51 240.072C112.081 240.332 111.751 240.686 111.521 241.136C111.292 241.585 111.177 242.095 111.177 242.664C111.177 243.223 111.287 243.728 111.506 244.177C111.736 244.626 112.061 244.986 112.48 245.256C112.909 245.515 113.424 245.645 114.023 245.645ZM120.851 246.664V238.664H122.289V246.664H120.851ZM119.623 239.803V238.664H122.289V239.803H119.623ZM121.256 237.376C120.936 237.376 120.696 237.291 120.536 237.121C120.387 236.951 120.312 236.736 120.312 236.477C120.312 236.217 120.387 236.002 120.536 235.833C120.696 235.663 120.936 235.578 121.256 235.578C121.575 235.578 121.81 235.663 121.96 235.833C122.119 236.002 122.199 236.217 122.199 236.477C122.199 236.736 122.119 236.951 121.96 237.121C121.81 237.291 121.575 237.376 121.256 237.376ZM128.411 246.933C127.841 246.933 127.317 246.829 126.838 246.619C126.358 246.409 125.939 246.115 125.579 245.735C125.23 245.355 124.955 244.916 124.755 244.417C124.566 243.917 124.471 243.378 124.471 242.799V242.529C124.471 241.96 124.566 241.425 124.755 240.926C124.945 240.427 125.21 239.987 125.549 239.608C125.899 239.228 126.308 238.934 126.778 238.724C127.257 238.504 127.787 238.394 128.366 238.394C128.975 238.394 129.529 238.524 130.029 238.784C130.528 239.034 130.937 239.428 131.257 239.967C131.577 240.507 131.756 241.206 131.796 242.065L131.197 241.106V235.728H132.635V246.664H131.497V243.113H131.916C131.876 244.022 131.687 244.761 131.347 245.331C131.007 245.89 130.578 246.299 130.059 246.559C129.549 246.809 129 246.933 128.411 246.933ZM128.605 245.675C129.095 245.675 129.539 245.565 129.939 245.345C130.338 245.126 130.658 244.811 130.898 244.402C131.137 243.982 131.257 243.493 131.257 242.934V242.244C131.257 241.695 131.132 241.231 130.883 240.851C130.643 240.462 130.318 240.167 129.909 239.967C129.509 239.758 129.07 239.653 128.59 239.653C128.061 239.653 127.592 239.778 127.182 240.027C126.783 240.277 126.468 240.627 126.238 241.076C126.019 241.525 125.909 242.055 125.909 242.664C125.909 243.273 126.024 243.807 126.253 244.267C126.483 244.716 126.803 245.066 127.212 245.316C127.622 245.555 128.086 245.675 128.605 245.675ZM140.186 246.724V245.375H142.912C143.571 245.375 144.156 245.271 144.665 245.061C145.184 244.841 145.624 244.542 145.983 244.162C146.353 243.782 146.632 243.338 146.822 242.829C147.012 242.319 147.107 241.77 147.107 241.181C147.107 240.562 147.012 240.002 146.822 239.503C146.632 238.994 146.353 238.554 145.983 238.185C145.624 237.805 145.184 237.515 144.665 237.316C144.156 237.116 143.571 237.016 142.912 237.016H140.186V235.668H142.762C143.751 235.668 144.61 235.823 145.339 236.132C146.068 236.432 146.672 236.841 147.152 237.361C147.641 237.87 148.006 238.444 148.245 239.083C148.485 239.713 148.605 240.357 148.605 241.016V241.346C148.605 241.985 148.485 242.624 148.245 243.263C148.006 243.902 147.641 244.482 147.152 245.001C146.672 245.52 146.068 245.94 145.339 246.259C144.61 246.569 143.751 246.724 142.762 246.724H140.186ZM139.017 246.724V235.668H140.485V246.724H139.017ZM154.058 246.933C153.359 246.933 152.755 246.814 152.245 246.574C151.736 246.334 151.322 246.02 151.002 245.63C150.682 245.231 150.443 244.786 150.283 244.297C150.133 243.807 150.058 243.308 150.058 242.799V242.529C150.058 242.01 150.133 241.505 150.283 241.016C150.443 240.527 150.682 240.087 151.002 239.698C151.322 239.298 151.726 238.984 152.216 238.754C152.715 238.514 153.299 238.394 153.968 238.394C154.837 238.394 155.551 238.584 156.111 238.964C156.68 239.333 157.099 239.813 157.369 240.402C157.649 240.991 157.788 241.62 157.788 242.289V242.934H150.687V241.855H156.74L156.41 242.439C156.41 241.87 156.32 241.381 156.141 240.971C155.961 240.552 155.691 240.227 155.332 239.997C154.972 239.768 154.518 239.653 153.968 239.653C153.399 239.653 152.925 239.783 152.545 240.042C152.176 240.302 151.896 240.656 151.706 241.106C151.526 241.555 151.437 242.075 151.437 242.664C151.437 243.233 151.526 243.748 151.706 244.207C151.896 244.656 152.186 245.016 152.575 245.286C152.965 245.545 153.459 245.675 154.058 245.675C154.687 245.675 155.197 245.535 155.586 245.256C155.986 244.976 156.225 244.651 156.305 244.282H157.654C157.544 244.831 157.324 245.306 156.994 245.705C156.665 246.105 156.25 246.409 155.751 246.619C155.252 246.829 154.687 246.933 154.058 246.933ZM161.48 246.664L158.753 238.664H160.251L162.918 246.664H161.48ZM161.839 246.664V245.525H163.577V246.664H161.839ZM162.528 246.664L164.85 238.664H166.259L163.892 246.664H162.528ZM168.53 246.664V238.664H169.968V246.664H168.53ZM167.301 239.803V238.664H169.968V239.803H167.301ZM168.934 237.376C168.615 237.376 168.375 237.291 168.215 237.121C168.065 236.951 167.99 236.736 167.99 236.477C167.99 236.217 168.065 236.002 168.215 235.833C168.375 235.663 168.615 235.578 168.934 235.578C169.254 235.578 169.488 235.663 169.638 235.833C169.798 236.002 169.878 236.217 169.878 236.477C169.878 236.736 169.798 236.951 169.638 237.121C169.488 237.291 169.254 237.376 168.934 237.376ZM176.179 246.933C175.49 246.933 174.891 246.814 174.381 246.574C173.882 246.334 173.468 246.015 173.138 245.615C172.808 245.206 172.559 244.756 172.389 244.267C172.229 243.777 172.149 243.288 172.149 242.799V242.529C172.149 242.02 172.229 241.52 172.389 241.031C172.559 240.542 172.808 240.102 173.138 239.713C173.478 239.313 173.897 238.994 174.396 238.754C174.896 238.514 175.48 238.394 176.149 238.394C176.818 238.394 177.418 238.519 177.947 238.769C178.486 239.019 178.916 239.373 179.235 239.833C179.565 240.282 179.75 240.816 179.79 241.435H178.411C178.341 240.936 178.112 240.522 177.722 240.192C177.333 239.852 176.808 239.683 176.149 239.683C175.58 239.683 175.106 239.813 174.726 240.072C174.346 240.332 174.062 240.686 173.872 241.136C173.682 241.585 173.587 242.095 173.587 242.664C173.587 243.213 173.682 243.718 173.872 244.177C174.062 244.626 174.346 244.986 174.726 245.256C175.116 245.515 175.6 245.645 176.179 245.645C176.629 245.645 177.018 245.565 177.348 245.405C177.677 245.246 177.942 245.031 178.142 244.761C178.341 244.492 178.461 244.187 178.501 243.847H179.879C179.849 244.477 179.665 245.021 179.325 245.48C178.996 245.94 178.556 246.299 178.007 246.559C177.468 246.809 176.858 246.933 176.179 246.933ZM185.234 246.933C184.535 246.933 183.931 246.814 183.422 246.574C182.912 246.334 182.498 246.02 182.178 245.63C181.859 245.231 181.619 244.786 181.459 244.297C181.309 243.807 181.234 243.308 181.234 242.799V242.529C181.234 242.01 181.309 241.505 181.459 241.016C181.619 240.527 181.859 240.087 182.178 239.698C182.498 239.298 182.902 238.984 183.392 238.754C183.891 238.514 184.475 238.394 185.144 238.394C186.013 238.394 186.727 238.584 187.287 238.964C187.856 239.333 188.275 239.813 188.545 240.402C188.825 240.991 188.965 241.62 188.965 242.289V242.934H181.864V241.855H187.916L187.586 242.439C187.586 241.87 187.496 241.381 187.317 240.971C187.137 240.552 186.867 240.227 186.508 239.997C186.148 239.768 185.694 239.653 185.144 239.653C184.575 239.653 184.101 239.783 183.721 240.042C183.352 240.302 183.072 240.656 182.882 241.106C182.703 241.555 182.613 242.075 182.613 242.664C182.613 243.233 182.703 243.748 182.882 244.207C183.072 244.656 183.362 245.016 183.751 245.286C184.141 245.545 184.635 245.675 185.234 245.675C185.864 245.675 186.373 245.535 186.762 245.256C187.162 244.976 187.402 244.651 187.481 244.282H188.83C188.72 244.831 188.5 245.306 188.171 245.705C187.841 246.105 187.427 246.409 186.927 246.619C186.428 246.829 185.864 246.933 185.234 246.933Z" fill="#171F27"/>
</g>
<defs>
<filter id="filter0_d_502_11725" x="30.9091" y="0.232177" width="306.392" height="198.264" filterUnits="userSpaceOnUse" color-interpolation-filters="sRGB">
<feFlood flood-opacity="0" result="BackgroundImageFix"/>
<feColorMatrix in="SourceAlpha" type="matrix" values="0 0 0 0 0 0 0 0 0 0 0 0 0 0 0 0 0 0 127 0" result="hardAlpha"/>
<feOffset dy="4.52976"/>
<feGaussianBlur stdDeviation="22.6488"/>
<feComposite in2="hardAlpha" operator="out"/>
<feColorMatrix type="matrix" values="0 0 0 0 0.14902 0 0 0 0 0.0666667 0 0 0 0 0.384314 0 0 0 0.13 0"/>
<feBlend mode="normal" in2="BackgroundImageFix" result="effect1_dropShadow_502_11725"/>
<feBlend mode="normal" in="SourceGraphic" in2="effect1_dropShadow_502_11725" result="shape"/>
</filter>
<filter id="filter1_d_502_11725" x="0.189896" y="108.108" width="367.314" height="226.421" filterUnits="userSpaceOnUse" color-interpolation-filters="sRGB">
<feFlood flood-opacity="0" result="BackgroundImageFix"/>
<feColorMatrix in="SourceAlpha" type="matrix" values="0 0 0 0 0 0 0 0 0 0 0 0 0 0 0 0 0 0 127 0" result="hardAlpha"/>
<feOffset dy="5.43571"/>
<feGaussianBlur stdDeviation="27.1786"/>
<feComposite in2="hardAlpha" operator="out"/>
<feColorMatrix type="matrix" values="0 0 0 0 0.14902 0 0 0 0 0.0666667 0 0 0 0 0.384314 0 0 0 0.13 0"/>
<feBlend mode="normal" in2="BackgroundImageFix" result="effect1_dropShadow_502_11725"/>
<feBlend mode="normal" in="SourceGraphic" in2="effect1_dropShadow_502_11725" result="shape"/>
</filter>
<linearGradient id="paint0_linear_502_11725" x1="54.547" y1="107.004" x2="218.394" y2="259.369" gradientUnits="userSpaceOnUse">
<stop offset="0.0139247" stop-color="#F2E8FD"/>
<stop offset="0.626581" stop-color="#FFFBF3"/>
<stop offset="1" stop-color="white"/>
</linearGradient>
</defs>
</svg>
