<svg width="44" height="44" viewBox="0 0 44 44" fill="none" xmlns="http://www.w3.org/2000/svg">
<rect x="0.5" y="0.5" width="43" height="43" rx="21.5" stroke="#5E6678"/>
<g clip-path="url(#clip0_359_10826)">
<path d="M29 20.9998H17.14L20.77 16.6398C20.9397 16.4356 21.0214 16.1723 20.997 15.9079C20.9726 15.6434 20.8442 15.3995 20.64 15.2298C20.4358 15.06 20.1725 14.9784 19.9081 15.0028C19.6437 15.0271 19.3997 15.1556 19.23 15.3598L14.23 21.3598C14.1964 21.4075 14.1663 21.4576 14.14 21.5098C14.14 21.5598 14.14 21.5898 14.07 21.6398C14.0247 21.7544 14.0009 21.8765 14 21.9998C14.0009 22.1231 14.0247 22.2451 14.07 22.3598C14.07 22.4098 14.07 22.4398 14.14 22.4898C14.1663 22.5419 14.1964 22.5921 14.23 22.6398L19.23 28.6398C19.324 28.7527 19.4418 28.8434 19.5748 28.9057C19.7079 28.9679 19.8531 29 20 28.9998C20.2337 29.0002 20.4601 28.9189 20.64 28.7698C20.7413 28.6858 20.825 28.5827 20.8863 28.4664C20.9477 28.35 20.9855 28.2227 20.9975 28.0918C21.0096 27.9608 20.9957 27.8287 20.9567 27.7031C20.9176 27.5775 20.8542 27.4608 20.77 27.3598L17.14 22.9998H29C29.2652 22.9998 29.5196 22.8944 29.7071 22.7069C29.8946 22.5194 30 22.265 30 21.9998C30 21.7346 29.8946 21.4802 29.7071 21.2927C29.5196 21.1051 29.2652 20.9998 29 20.9998Z" fill="#1A2339"/>
</g>
<defs>
<clipPath id="clip0_359_10826">
<rect width="24" height="24" fill="white" transform="translate(10 10)"/>
</clipPath>
</defs>
</svg>
