<svg width="350" height="450" viewBox="0 0 350 450" fill="none" xmlns="http://www.w3.org/2000/svg">
<rect x="0.5" y="0.5" width="349" height="449" rx="15.5" fill="white" fill-opacity="0.4"/>
<rect x="0.5" y="0.5" width="349" height="449" rx="15.5" stroke="white"/>
<path d="M26.548 50V30.89H29.668V50H26.548ZM38.196 50L32.164 41.654H35.7L41.914 50H38.196ZM28.654 43.396V40.77H33.594C34.3393 40.77 34.9807 40.6227 35.518 40.328C36.0553 40.016 36.4627 39.5913 36.74 39.054C37.0347 38.5167 37.182 37.8927 37.182 37.182C37.182 36.4887 37.0347 35.8733 36.74 35.336C36.4627 34.7987 36.0553 34.374 35.518 34.062C34.9807 33.75 34.3393 33.594 33.594 33.594H28.654V30.89H33.178C34.634 30.89 35.8993 31.1153 36.974 31.566C38.0487 31.9993 38.8807 32.658 39.47 33.542C40.0593 34.426 40.354 35.5613 40.354 36.948V37.364C40.354 38.7507 40.0507 39.886 39.444 40.77C38.8547 41.654 38.0227 42.3127 36.948 42.746C35.8907 43.1793 34.634 43.396 33.178 43.396H28.654ZM50.5511 50.468C49.3377 50.468 48.2804 50.26 47.3791 49.844C46.4777 49.428 45.7411 48.882 45.1691 48.206C44.5971 47.5127 44.1637 46.7413 43.8691 45.892C43.5917 45.0253 43.4531 44.1413 43.4531 43.24V42.746C43.4531 41.8273 43.5917 40.9433 43.8691 40.094C44.1637 39.2273 44.5971 38.456 45.1691 37.78C45.7411 37.0867 46.4604 36.5407 47.3271 36.142C48.2111 35.726 49.2337 35.518 50.3951 35.518C51.9031 35.518 53.1597 35.8473 54.1651 36.506C55.1704 37.1647 55.9244 38.0227 56.4271 39.08C56.9297 40.12 57.1811 41.2467 57.1811 42.46V43.682H44.7531V41.628H55.1271L54.2951 42.668C54.2951 41.732 54.1477 40.926 53.8531 40.25C53.5584 39.5567 53.1251 39.028 52.5531 38.664C51.9811 38.2827 51.2617 38.092 50.3951 38.092C49.4937 38.092 48.7397 38.3 48.1331 38.716C47.5264 39.132 47.0757 39.704 46.7811 40.432C46.4864 41.16 46.3391 42.018 46.3391 43.006C46.3391 43.942 46.4864 44.7827 46.7811 45.528C47.0757 46.256 47.5351 46.8367 48.1591 47.27C48.7831 47.686 49.5804 47.894 50.5511 47.894C51.5217 47.894 52.3191 47.686 52.9431 47.27C53.5671 46.8367 53.9484 46.334 54.0871 45.762H56.9211C56.7304 46.7153 56.3404 47.5473 55.7511 48.258C55.1791 48.9687 54.4511 49.5147 53.5671 49.896C52.6831 50.2773 51.6777 50.468 50.5511 50.468ZM68.9126 50V45.814H68.4186V41.082C68.4186 40.2153 68.1932 39.5567 67.7426 39.106C67.2919 38.6553 66.6246 38.43 65.7406 38.43C65.2552 38.43 64.7179 38.4387 64.1286 38.456C63.5392 38.4733 62.9586 38.4993 62.3866 38.534C61.8319 38.5513 61.3379 38.5773 60.9046 38.612V35.986C61.2859 35.9513 61.7019 35.9253 62.1526 35.908C62.6206 35.8733 63.0972 35.8473 63.5826 35.83C64.0852 35.8127 64.5619 35.804 65.0126 35.804C66.4339 35.804 67.6126 35.986 68.5486 36.35C69.4846 36.714 70.1779 37.2947 70.6286 38.092C71.0966 38.872 71.3306 39.9207 71.3306 41.238V50H68.9126ZM64.3626 50.364C63.3399 50.364 62.4472 50.1907 61.6846 49.844C60.9219 49.48 60.3326 48.96 59.9166 48.284C59.5006 47.5907 59.2926 46.7673 59.2926 45.814C59.2926 44.8087 59.5266 43.9767 59.9946 43.318C60.4799 42.6593 61.1646 42.1653 62.0486 41.836C62.9326 41.5067 63.9899 41.342 65.2206 41.342H68.7306V43.344H65.1426C64.2239 43.344 63.5219 43.5693 63.0366 44.02C62.5512 44.4533 62.3086 45.0253 62.3086 45.736C62.3086 46.4467 62.5512 47.0187 63.0366 47.452C63.5219 47.868 64.2239 48.076 65.1426 48.076C65.6799 48.076 66.1912 47.9807 66.6766 47.79C67.1619 47.582 67.5606 47.244 67.8726 46.776C68.2019 46.308 68.3839 45.6493 68.4186 44.8L69.1986 45.814C69.1119 46.802 68.8692 47.634 68.4706 48.31C68.0892 48.9687 67.5519 49.48 66.8586 49.844C66.1826 50.1907 65.3506 50.364 64.3626 50.364ZM75.726 50V31.02H78.794V50H75.726ZM73.88 33.36V31.02H78.794V33.36H73.88ZM82.5613 44.046V41.394H92.6493V44.046H82.5613ZM98.9223 50V33.256H102.042V50H98.9223ZM93.3063 33.776V31.02H107.684V33.776H93.3063ZM110.396 50V35.986H113.438V50H110.396ZM108.342 38.326V35.986H113.438V38.326H108.342ZM111.384 34.036C110.76 34.036 110.292 33.8713 109.98 33.542C109.686 33.2127 109.538 32.788 109.538 32.268C109.538 31.7653 109.686 31.3493 109.98 31.02C110.292 30.6733 110.76 30.5 111.384 30.5C112.026 30.5 112.494 30.6733 112.788 31.02C113.1 31.3493 113.256 31.7653 113.256 32.268C113.256 32.788 113.1 33.2127 112.788 33.542C112.494 33.8713 112.026 34.036 111.384 34.036ZM117.972 50V35.986H120.39V42.018H120.104C120.104 40.6313 120.278 39.4613 120.624 38.508C120.988 37.5547 121.526 36.8267 122.236 36.324C122.964 35.8213 123.866 35.57 124.94 35.57H125.07C126.162 35.57 127.064 35.8213 127.774 36.324C128.502 36.8267 129.04 37.5547 129.386 38.508C129.75 39.4613 129.932 40.6313 129.932 42.018H129.1C129.1 40.6313 129.282 39.4613 129.646 38.508C130.01 37.5547 130.556 36.8267 131.284 36.324C132.012 35.8213 132.914 35.57 133.988 35.57H134.118C135.21 35.57 136.12 35.8213 136.848 36.324C137.576 36.8267 138.122 37.5547 138.486 38.508C138.85 39.4613 139.032 40.6313 139.032 42.018V50H135.99V41.576C135.99 40.5533 135.73 39.756 135.21 39.184C134.708 38.612 134.006 38.326 133.104 38.326C132.168 38.326 131.423 38.6293 130.868 39.236C130.314 39.8253 130.036 40.6487 130.036 41.706V50H126.968V41.576C126.968 40.5533 126.717 39.756 126.214 39.184C125.712 38.612 125.01 38.326 124.108 38.326C123.172 38.326 122.418 38.6293 121.846 39.236C121.292 39.8253 121.014 40.6487 121.014 41.706V50H117.972ZM149.371 50.468C148.158 50.468 147.101 50.26 146.199 49.844C145.298 49.428 144.561 48.882 143.989 48.206C143.417 47.5127 142.984 46.7413 142.689 45.892C142.412 45.0253 142.273 44.1413 142.273 43.24V42.746C142.273 41.8273 142.412 40.9433 142.689 40.094C142.984 39.2273 143.417 38.456 143.989 37.78C144.561 37.0867 145.281 36.5407 146.147 36.142C147.031 35.726 148.054 35.518 149.215 35.518C150.723 35.518 151.98 35.8473 152.985 36.506C153.991 37.1647 154.745 38.0227 155.247 39.08C155.75 40.12 156.001 41.2467 156.001 42.46V43.682H143.573V41.628H153.947L153.115 42.668C153.115 41.732 152.968 40.926 152.673 40.25C152.379 39.5567 151.945 39.028 151.373 38.664C150.801 38.2827 150.082 38.092 149.215 38.092C148.314 38.092 147.56 38.3 146.953 38.716C146.347 39.132 145.896 39.704 145.601 40.432C145.307 41.16 145.159 42.018 145.159 43.006C145.159 43.942 145.307 44.7827 145.601 45.528C145.896 46.256 146.355 46.8367 146.979 47.27C147.603 47.686 148.401 47.894 149.371 47.894C150.342 47.894 151.139 47.686 151.763 47.27C152.387 46.8367 152.769 46.334 152.907 45.762H155.741C155.551 46.7153 155.161 47.5473 154.571 48.258C153.999 48.9687 153.271 49.5147 152.387 49.896C151.503 50.2773 150.498 50.468 149.371 50.468ZM165.411 50V31.02H168.531V50H165.411ZM173.375 50V35.986H175.793V41.992H175.507C175.507 40.6053 175.689 39.4353 176.053 38.482C176.434 37.5287 177.006 36.8093 177.769 36.324C178.531 35.8213 179.476 35.57 180.603 35.57H180.733C182.466 35.57 183.757 36.116 184.607 37.208C185.456 38.3 185.881 39.8947 185.881 41.992V50H182.839V41.576C182.839 40.6053 182.561 39.8253 182.007 39.236C181.452 38.6293 180.689 38.326 179.719 38.326C178.731 38.326 177.933 38.638 177.327 39.262C176.72 39.8687 176.417 40.6833 176.417 41.706V50H173.375ZM194.943 50.416C193.054 50.416 191.58 50.0173 190.523 49.22C189.483 48.4227 188.937 47.322 188.885 45.918H191.693C191.728 46.438 191.996 46.9147 192.499 47.348C193.002 47.7813 193.825 47.998 194.969 47.998C195.94 47.998 196.702 47.8073 197.257 47.426C197.812 47.0447 198.089 46.568 198.089 45.996C198.089 45.476 197.881 45.0687 197.465 44.774C197.066 44.462 196.382 44.254 195.411 44.15L194.033 44.02C192.594 43.864 191.45 43.4393 190.601 42.746C189.769 42.0527 189.353 41.1167 189.353 39.938C189.353 39.002 189.587 38.2133 190.055 37.572C190.523 36.9307 191.164 36.4367 191.979 36.09C192.811 35.7433 193.764 35.57 194.839 35.57C196.503 35.57 197.846 35.9427 198.869 36.688C199.892 37.416 200.42 38.4907 200.455 39.912H197.673C197.638 39.3747 197.387 38.924 196.919 38.56C196.451 38.196 195.758 38.014 194.839 38.014C193.972 38.014 193.305 38.1873 192.837 38.534C192.386 38.8807 192.161 39.3227 192.161 39.86C192.161 40.3453 192.334 40.7267 192.681 41.004C193.028 41.2813 193.591 41.4633 194.371 41.55L195.749 41.68C197.326 41.8533 198.574 42.2953 199.493 43.006C200.429 43.6993 200.897 44.67 200.897 45.918C200.897 46.8193 200.646 47.608 200.143 48.284C199.64 48.96 198.938 49.4887 198.037 49.87C197.153 50.234 196.122 50.416 194.943 50.416ZM204.9 50V35.986H207.942V50H204.9ZM202.846 38.326V35.986H207.942V38.326H202.846ZM205.888 34.036C205.264 34.036 204.796 33.8713 204.484 33.542C204.19 33.2127 204.042 32.788 204.042 32.268C204.042 31.7653 204.19 31.3493 204.484 31.02C204.796 30.6733 205.264 30.5 205.888 30.5C206.53 30.5 206.998 30.6733 207.292 31.02C207.604 31.3493 207.76 31.7653 207.76 32.268C207.76 32.788 207.604 33.2127 207.292 33.542C206.998 33.8713 206.53 34.036 205.888 34.036ZM217.832 55.486C217.174 55.486 216.506 55.46 215.83 55.408C215.154 55.356 214.522 55.2867 213.932 55.2V52.626C214.556 52.7127 215.215 52.782 215.908 52.834C216.619 52.9033 217.278 52.938 217.884 52.938C219.098 52.938 220.068 52.782 220.796 52.47C221.542 52.158 222.079 51.6727 222.408 51.014C222.755 50.3727 222.928 49.532 222.928 48.492V45.788L223.734 43.916C223.682 45.268 223.396 46.4033 222.876 47.322C222.374 48.2407 221.698 48.934 220.848 49.402C220.016 49.87 219.063 50.104 217.988 50.104C217.018 50.104 216.134 49.922 215.336 49.558C214.539 49.194 213.854 48.6827 213.282 48.024C212.71 47.3653 212.268 46.6113 211.956 45.762C211.644 44.8953 211.488 43.9767 211.488 43.006V42.512C211.488 41.524 211.644 40.6053 211.956 39.756C212.286 38.9067 212.745 38.17 213.334 37.546C213.924 36.9047 214.626 36.4107 215.44 36.064C216.272 35.7173 217.182 35.544 218.17 35.544C219.314 35.544 220.32 35.7953 221.186 36.298C222.07 36.7833 222.764 37.5027 223.266 38.456C223.769 39.4093 224.038 40.5707 224.072 41.94L223.396 42.018V35.986H225.814V48.336C225.814 50.0347 225.537 51.404 224.982 52.444C224.445 53.5013 223.587 54.2727 222.408 54.758C221.247 55.2433 219.722 55.486 217.832 55.486ZM218.742 47.4C219.505 47.4 220.198 47.2353 220.822 46.906C221.464 46.5593 221.966 46.074 222.33 45.45C222.712 44.8087 222.902 44.046 222.902 43.162V42.096C222.902 41.2293 222.703 40.5013 222.304 39.912C221.923 39.3053 221.42 38.846 220.796 38.534C220.172 38.222 219.496 38.066 218.768 38.066C217.936 38.066 217.2 38.2653 216.558 38.664C215.917 39.0453 215.414 39.5913 215.05 40.302C214.704 40.9953 214.53 41.81 214.53 42.746C214.53 43.6993 214.712 44.5313 215.076 45.242C215.44 45.9353 215.934 46.4727 216.558 46.854C217.2 47.218 217.928 47.4 218.742 47.4ZM230.123 50V31.02H233.165V42.226H232.541C232.541 40.8393 232.714 39.652 233.061 38.664C233.425 37.6587 233.971 36.896 234.699 36.376C235.444 35.8387 236.38 35.57 237.507 35.57H237.637C239.283 35.57 240.523 36.1247 241.355 37.234C242.204 38.3433 242.629 39.938 242.629 42.018V50H239.587V41.576C239.587 40.5707 239.292 39.782 238.703 39.21C238.131 38.6207 237.385 38.326 236.467 38.326C235.479 38.326 234.681 38.6553 234.075 39.314C233.468 39.9727 233.165 40.8393 233.165 41.914V50H230.123ZM252.601 50.156C251.44 50.156 250.46 50 249.663 49.688C248.866 49.376 248.259 48.8387 247.843 48.076C247.444 47.3133 247.245 46.282 247.245 44.982V31.904H250.131V45.242C250.131 45.97 250.322 46.5333 250.703 46.932C251.102 47.3133 251.656 47.504 252.367 47.504H254.707V50.156H252.601ZM244.931 38.248V35.986H254.707V38.248H244.931ZM262.736 50.416C260.847 50.416 259.373 50.0173 258.316 49.22C257.276 48.4227 256.73 47.322 256.678 45.918H259.486C259.521 46.438 259.789 46.9147 260.292 47.348C260.795 47.7813 261.618 47.998 262.762 47.998C263.733 47.998 264.495 47.8073 265.05 47.426C265.605 47.0447 265.882 46.568 265.882 45.996C265.882 45.476 265.674 45.0687 265.258 44.774C264.859 44.462 264.175 44.254 263.204 44.15L261.826 44.02C260.387 43.864 259.243 43.4393 258.394 42.746C257.562 42.0527 257.146 41.1167 257.146 39.938C257.146 39.002 257.38 38.2133 257.848 37.572C258.316 36.9307 258.957 36.4367 259.772 36.09C260.604 35.7433 261.557 35.57 262.632 35.57C264.296 35.57 265.639 35.9427 266.662 36.688C267.685 37.416 268.213 38.4907 268.248 39.912H265.466C265.431 39.3747 265.18 38.924 264.712 38.56C264.244 38.196 263.551 38.014 262.632 38.014C261.765 38.014 261.098 38.1873 260.63 38.534C260.179 38.8807 259.954 39.3227 259.954 39.86C259.954 40.3453 260.127 40.7267 260.474 41.004C260.821 41.2813 261.384 41.4633 262.164 41.55L263.542 41.68C265.119 41.8533 266.367 42.2953 267.286 43.006C268.222 43.6993 268.69 44.67 268.69 45.918C268.69 46.8193 268.439 47.608 267.936 48.284C267.433 48.96 266.731 49.4887 265.83 49.87C264.946 50.234 263.915 50.416 262.736 50.416Z" fill="#1A2339"/>
<path d="M30.848 80.848V89.088C30.848 90.0053 30.5653 90.7413 30 91.296C29.4347 91.84 28.688 92.112 27.76 92.112C26.8213 92.112 26.0693 91.8347 25.504 91.28C24.9387 90.7147 24.656 89.9467 24.656 88.976H26.112C26.1227 89.52 26.2613 89.9627 26.528 90.304C26.8053 90.6453 27.216 90.816 27.76 90.816C28.304 90.816 28.7093 90.656 28.976 90.336C29.2427 90.0053 29.376 89.5893 29.376 89.088V80.848H30.848ZM37.5404 92.144C36.719 92.144 35.9724 91.9573 35.3004 91.584C34.639 91.2107 34.1164 90.6827 33.7324 90C33.359 89.3067 33.1724 88.5067 33.1724 87.6C33.1724 86.704 33.3644 85.9147 33.7484 85.232C34.143 84.5387 34.6764 84.0107 35.3484 83.648C36.0204 83.2747 36.7724 83.088 37.6044 83.088C38.4364 83.088 39.1884 83.2747 39.8604 83.648C40.5324 84.0107 41.0604 84.5333 41.4444 85.216C41.839 85.8987 42.0364 86.6933 42.0364 87.6C42.0364 88.5067 41.8337 89.3067 41.4284 90C41.0337 90.6827 40.495 91.2107 39.8124 91.584C39.1297 91.9573 38.3724 92.144 37.5404 92.144ZM37.5404 90.864C38.063 90.864 38.5537 90.7413 39.0124 90.496C39.471 90.2507 39.839 89.8827 40.1164 89.392C40.4044 88.9013 40.5484 88.304 40.5484 87.6C40.5484 86.896 40.4097 86.2987 40.1324 85.808C39.855 85.3173 39.4924 84.9547 39.0444 84.72C38.5964 84.4747 38.111 84.352 37.5884 84.352C37.055 84.352 36.5644 84.4747 36.1164 84.72C35.679 84.9547 35.327 85.3173 35.0604 85.808C34.7937 86.2987 34.6604 86.896 34.6604 87.6C34.6604 88.3147 34.7884 88.9173 35.0444 89.408C35.311 89.8987 35.663 90.2667 36.1004 90.512C36.5377 90.7467 37.0177 90.864 37.5404 90.864ZM51.7268 83.232V92H50.2708V90.704C49.9934 91.152 49.6041 91.504 49.1028 91.76C48.6121 92.0053 48.0681 92.128 47.4708 92.128C46.7881 92.128 46.1748 91.9893 45.6308 91.712C45.0868 91.424 44.6548 90.9973 44.3348 90.432C44.0254 89.8667 43.8708 89.1787 43.8708 88.368V83.232H45.3108V88.176C45.3108 89.04 45.5294 89.7067 45.9668 90.176C46.4041 90.6347 47.0014 90.864 47.7588 90.864C48.5374 90.864 49.1508 90.624 49.5988 90.144C50.0468 89.664 50.2708 88.9653 50.2708 88.048V83.232H51.7268ZM55.6411 84.656C55.8971 84.1547 56.2598 83.7653 56.7291 83.488C57.2091 83.2107 57.7905 83.072 58.4731 83.072V84.576H58.0891C56.4571 84.576 55.6411 85.4613 55.6411 87.232V92H54.1851V83.232H55.6411V84.656ZM64.4259 83.072C65.4925 83.072 66.3565 83.3973 67.0179 84.048C67.6792 84.688 68.0099 85.616 68.0099 86.832V92H66.5699V87.04C66.5699 86.1653 66.3512 85.4987 65.9139 85.04C65.4765 84.5707 64.8792 84.336 64.1219 84.336C63.3539 84.336 62.7405 84.576 62.2819 85.056C61.8339 85.536 61.6099 86.2347 61.6099 87.152V92H60.1539V83.232H61.6099V84.48C61.8979 84.032 62.2872 83.6853 62.7779 83.44C63.2792 83.1947 63.8285 83.072 64.4259 83.072ZM78.3883 87.28C78.3883 87.5573 78.3723 87.8507 78.3403 88.16H71.3323C71.3856 89.024 71.6789 89.7013 72.2123 90.192C72.7563 90.672 73.4123 90.912 74.1803 90.912C74.8096 90.912 75.3323 90.768 75.7483 90.48C76.1749 90.1813 76.4736 89.7867 76.6443 89.296H78.2123C77.9776 90.1387 77.5083 90.8267 76.8043 91.36C76.1003 91.8827 75.2256 92.144 74.1803 92.144C73.3483 92.144 72.6016 91.9573 71.9403 91.584C71.2896 91.2107 70.7776 90.6827 70.4043 90C70.0309 89.3067 69.8443 88.5067 69.8443 87.6C69.8443 86.6933 70.0256 85.8987 70.3883 85.216C70.7509 84.5333 71.2576 84.0107 71.9083 83.648C72.5696 83.2747 73.3269 83.088 74.1803 83.088C75.0123 83.088 75.7483 83.2693 76.3883 83.632C77.0283 83.9947 77.5189 84.496 77.8603 85.136C78.2123 85.7653 78.3883 86.48 78.3883 87.28ZM76.8843 86.976C76.8843 86.4213 76.7616 85.9467 76.5163 85.552C76.2709 85.1467 75.9349 84.8427 75.5083 84.64C75.0923 84.4267 74.6283 84.32 74.1163 84.32C73.3803 84.32 72.7509 84.5547 72.2283 85.024C71.7163 85.4933 71.4229 86.144 71.3483 86.976H76.8843ZM87.8621 83.232L82.5821 96.128H81.0781L82.8061 91.904L79.2701 83.232H80.8861L83.6381 90.336L86.3581 83.232H87.8621ZM104.903 80.928V92H103.447V83.744L99.7674 92H98.7434L95.0474 83.728V92H93.5914V80.928H95.1594L99.2554 90.08L103.351 80.928H104.903ZM111.197 92.144C110.375 92.144 109.629 91.9573 108.957 91.584C108.295 91.2107 107.773 90.6827 107.389 90C107.015 89.3067 106.829 88.5067 106.829 87.6C106.829 86.704 107.021 85.9147 107.405 85.232C107.799 84.5387 108.333 84.0107 109.005 83.648C109.677 83.2747 110.429 83.088 111.261 83.088C112.093 83.088 112.845 83.2747 113.517 83.648C114.189 84.0107 114.717 84.5333 115.101 85.216C115.495 85.8987 115.693 86.6933 115.693 87.6C115.693 88.5067 115.49 89.3067 115.085 90C114.69 90.6827 114.151 91.2107 113.469 91.584C112.786 91.9573 112.029 92.144 111.197 92.144ZM111.197 90.864C111.719 90.864 112.21 90.7413 112.669 90.496C113.127 90.2507 113.495 89.8827 113.773 89.392C114.061 88.9013 114.205 88.304 114.205 87.6C114.205 86.896 114.066 86.2987 113.789 85.808C113.511 85.3173 113.149 84.9547 112.701 84.72C112.253 84.4747 111.767 84.352 111.245 84.352C110.711 84.352 110.221 84.4747 109.773 84.72C109.335 84.9547 108.983 85.3173 108.717 85.808C108.45 86.2987 108.317 86.896 108.317 87.6C108.317 88.3147 108.445 88.9173 108.701 89.408C108.967 89.8987 109.319 90.2667 109.757 90.512C110.194 90.7467 110.674 90.864 111.197 90.864ZM128.151 83.072C128.834 83.072 129.442 83.216 129.975 83.504C130.508 83.7813 130.93 84.2027 131.239 84.768C131.548 85.3333 131.703 86.0213 131.703 86.832V92H130.263V87.04C130.263 86.1653 130.044 85.4987 129.607 85.04C129.18 84.5707 128.599 84.336 127.863 84.336C127.106 84.336 126.503 84.5813 126.055 85.072C125.607 85.552 125.383 86.2507 125.383 87.168V92H123.943V87.04C123.943 86.1653 123.724 85.4987 123.287 85.04C122.86 84.5707 122.279 84.336 121.543 84.336C120.786 84.336 120.183 84.5813 119.735 85.072C119.287 85.552 119.063 86.2507 119.063 87.168V92H117.607V83.232H119.063V84.496C119.351 84.0373 119.735 83.6853 120.215 83.44C120.706 83.1947 121.244 83.072 121.831 83.072C122.567 83.072 123.218 83.2373 123.783 83.568C124.348 83.8987 124.77 84.384 125.047 85.024C125.292 84.4053 125.698 83.9253 126.263 83.584C126.828 83.2427 127.458 83.072 128.151 83.072ZM142.091 87.28C142.091 87.5573 142.075 87.8507 142.043 88.16H135.035C135.089 89.024 135.382 89.7013 135.915 90.192C136.459 90.672 137.115 90.912 137.883 90.912C138.513 90.912 139.035 90.768 139.451 90.48C139.878 90.1813 140.177 89.7867 140.347 89.296H141.915C141.681 90.1387 141.211 90.8267 140.507 91.36C139.803 91.8827 138.929 92.144 137.883 92.144C137.051 92.144 136.305 91.9573 135.643 91.584C134.993 91.2107 134.481 90.6827 134.107 90C133.734 89.3067 133.547 88.5067 133.547 87.6C133.547 86.6933 133.729 85.8987 134.091 85.216C134.454 84.5333 134.961 84.0107 135.611 83.648C136.273 83.2747 137.03 83.088 137.883 83.088C138.715 83.088 139.451 83.2693 140.091 83.632C140.731 83.9947 141.222 84.496 141.563 85.136C141.915 85.7653 142.091 86.48 142.091 87.28ZM140.587 86.976C140.587 86.4213 140.465 85.9467 140.219 85.552C139.974 85.1467 139.638 84.8427 139.211 84.64C138.795 84.4267 138.331 84.32 137.819 84.32C137.083 84.32 136.454 84.5547 135.931 85.024C135.419 85.4933 135.126 86.144 135.051 86.976H140.587ZM148.285 83.072C149.352 83.072 150.216 83.3973 150.877 84.048C151.539 84.688 151.869 85.616 151.869 86.832V92H150.429V87.04C150.429 86.1653 150.211 85.4987 149.773 85.04C149.336 84.5707 148.739 84.336 147.981 84.336C147.213 84.336 146.6 84.576 146.141 85.056C145.693 85.536 145.469 86.2347 145.469 87.152V92H144.013V83.232H145.469V84.48C145.757 84.032 146.147 83.6853 146.637 83.44C147.139 83.1947 147.688 83.072 148.285 83.072ZM156.024 84.432V89.6C156.024 90.0267 156.114 90.3307 156.296 90.512C156.477 90.6827 156.792 90.768 157.24 90.768H158.312V92H157C156.189 92 155.581 91.8133 155.176 91.44C154.77 91.0667 154.568 90.4533 154.568 89.6V84.432H153.432V83.232H154.568V81.024H156.024V83.232H158.312V84.432H156.024ZM163.18 92.144C162.508 92.144 161.905 92.032 161.372 91.808C160.838 91.5733 160.417 91.2533 160.108 90.848C159.798 90.432 159.628 89.9573 159.596 89.424H161.1C161.142 89.8613 161.345 90.2187 161.708 90.496C162.081 90.7733 162.566 90.912 163.164 90.912C163.718 90.912 164.156 90.7893 164.476 90.544C164.796 90.2987 164.956 89.9893 164.956 89.616C164.956 89.232 164.785 88.9493 164.444 88.768C164.102 88.576 163.574 88.3893 162.86 88.208C162.209 88.0373 161.676 87.8667 161.26 87.696C160.854 87.5147 160.502 87.2533 160.204 86.912C159.916 86.56 159.772 86.1013 159.772 85.536C159.772 85.088 159.905 84.6773 160.172 84.304C160.438 83.9307 160.817 83.6373 161.308 83.424C161.798 83.2 162.358 83.088 162.988 83.088C163.958 83.088 164.742 83.3333 165.34 83.824C165.937 84.3147 166.257 84.9867 166.3 85.84H164.844C164.812 85.3813 164.625 85.0133 164.284 84.736C163.953 84.4587 163.505 84.32 162.94 84.32C162.417 84.32 162.001 84.432 161.692 84.656C161.382 84.88 161.228 85.1733 161.228 85.536C161.228 85.824 161.318 86.064 161.5 86.256C161.692 86.4373 161.926 86.5867 162.204 86.704C162.492 86.8107 162.886 86.9333 163.388 87.072C164.017 87.2427 164.529 87.4133 164.924 87.584C165.318 87.744 165.654 87.9893 165.932 88.32C166.22 88.6507 166.369 89.0827 166.38 89.616C166.38 90.096 166.246 90.528 165.98 90.912C165.713 91.296 165.334 91.6 164.844 91.824C164.364 92.0373 163.809 92.144 163.18 92.144ZM180.701 87.28C180.701 87.5573 180.685 87.8507 180.653 88.16H173.645C173.698 89.024 173.991 89.7013 174.525 90.192C175.069 90.672 175.725 90.912 176.493 90.912C177.122 90.912 177.645 90.768 178.061 90.48C178.487 90.1813 178.786 89.7867 178.957 89.296H180.525C180.29 90.1387 179.821 90.8267 179.117 91.36C178.413 91.8827 177.538 92.144 176.493 92.144C175.661 92.144 174.914 91.9573 174.253 91.584C173.602 91.2107 173.09 90.6827 172.717 90C172.343 89.3067 172.157 88.5067 172.157 87.6C172.157 86.6933 172.338 85.8987 172.701 85.216C173.063 84.5333 173.57 84.0107 174.221 83.648C174.882 83.2747 175.639 83.088 176.493 83.088C177.325 83.088 178.061 83.2693 178.701 83.632C179.341 83.9947 179.831 84.496 180.173 85.136C180.525 85.7653 180.701 86.48 180.701 87.28ZM179.197 86.976C179.197 86.4213 179.074 85.9467 178.829 85.552C178.583 85.1467 178.247 84.8427 177.821 84.64C177.405 84.4267 176.941 84.32 176.429 84.32C175.693 84.32 175.063 84.5547 174.541 85.024C174.029 85.4933 173.735 86.144 173.661 86.976H179.197ZM186.191 84.432H184.351V92H182.895V84.432H181.759V83.232H182.895V82.608C182.895 81.6267 183.145 80.912 183.647 80.464C184.159 80.0053 184.975 79.776 186.095 79.776V80.992C185.455 80.992 185.001 81.12 184.735 81.376C184.479 81.6213 184.351 82.032 184.351 82.608V83.232H186.191V84.432ZM191.456 84.432H189.616V92H188.16V84.432H187.024V83.232H188.16V82.608C188.16 81.6267 188.411 80.912 188.912 80.464C189.424 80.0053 190.24 79.776 191.36 79.776V80.992C190.72 80.992 190.267 81.12 190 81.376C189.744 81.6213 189.616 82.032 189.616 82.608V83.232H191.456V84.432ZM196.978 92.144C196.157 92.144 195.41 91.9573 194.738 91.584C194.077 91.2107 193.554 90.6827 193.17 90C192.797 89.3067 192.61 88.5067 192.61 87.6C192.61 86.704 192.802 85.9147 193.186 85.232C193.581 84.5387 194.114 84.0107 194.786 83.648C195.458 83.2747 196.21 83.088 197.042 83.088C197.874 83.088 198.626 83.2747 199.298 83.648C199.97 84.0107 200.498 84.5333 200.882 85.216C201.277 85.8987 201.474 86.6933 201.474 87.6C201.474 88.5067 201.271 89.3067 200.866 90C200.471 90.6827 199.933 91.2107 199.25 91.584C198.567 91.9573 197.81 92.144 196.978 92.144ZM196.978 90.864C197.501 90.864 197.991 90.7413 198.45 90.496C198.909 90.2507 199.277 89.8827 199.554 89.392C199.842 88.9013 199.986 88.304 199.986 87.6C199.986 86.896 199.847 86.2987 199.57 85.808C199.293 85.3173 198.93 84.9547 198.482 84.72C198.034 84.4747 197.549 84.352 197.026 84.352C196.493 84.352 196.002 84.4747 195.554 84.72C195.117 84.9547 194.765 85.3173 194.498 85.808C194.231 86.2987 194.098 86.896 194.098 87.6C194.098 88.3147 194.226 88.9173 194.482 89.408C194.749 89.8987 195.101 90.2667 195.538 90.512C195.975 90.7467 196.455 90.864 196.978 90.864ZM204.844 84.656C205.1 84.1547 205.463 83.7653 205.932 83.488C206.412 83.2107 206.994 83.072 207.676 83.072V84.576H207.292C205.66 84.576 204.844 85.4613 204.844 87.232V92H203.388V83.232H204.844V84.656ZM211.133 84.432V89.6C211.133 90.0267 211.224 90.3307 211.405 90.512C211.586 90.6827 211.901 90.768 212.349 90.768H213.421V92H212.109C211.298 92 210.69 91.8133 210.285 91.44C209.88 91.0667 209.677 90.4533 209.677 89.6V84.432H208.541V83.232H209.677V81.024H211.133V83.232H213.421V84.432H211.133ZM216.641 80.16V92H215.185V80.16H216.641ZM227.123 87.28C227.123 87.5573 227.107 87.8507 227.075 88.16H220.067C220.12 89.024 220.413 89.7013 220.947 90.192C221.491 90.672 222.147 90.912 222.915 90.912C223.544 90.912 224.067 90.768 224.483 90.48C224.909 90.1813 225.208 89.7867 225.379 89.296H226.947C226.712 90.1387 226.243 90.8267 225.539 91.36C224.835 91.8827 223.96 92.144 222.915 92.144C222.083 92.144 221.336 91.9573 220.675 91.584C220.024 91.2107 219.512 90.6827 219.139 90C218.765 89.3067 218.579 88.5067 218.579 87.6C218.579 86.6933 218.76 85.8987 219.123 85.216C219.485 84.5333 219.992 84.0107 220.643 83.648C221.304 83.2747 222.061 83.088 222.915 83.088C223.747 83.088 224.483 83.2693 225.123 83.632C225.763 83.9947 226.253 84.496 226.595 85.136C226.947 85.7653 227.123 86.48 227.123 87.28ZM225.619 86.976C225.619 86.4213 225.496 85.9467 225.251 85.552C225.005 85.1467 224.669 84.8427 224.243 84.64C223.827 84.4267 223.363 84.32 222.851 84.32C222.115 84.32 221.485 84.5547 220.963 85.024C220.451 85.4933 220.157 86.144 220.083 86.976H225.619ZM232.149 92.144C231.477 92.144 230.874 92.032 230.341 91.808C229.807 91.5733 229.386 91.2533 229.077 90.848C228.767 90.432 228.597 89.9573 228.565 89.424H230.069C230.111 89.8613 230.314 90.2187 230.677 90.496C231.05 90.7733 231.535 90.912 232.133 90.912C232.687 90.912 233.125 90.7893 233.445 90.544C233.765 90.2987 233.925 89.9893 233.925 89.616C233.925 89.232 233.754 88.9493 233.413 88.768C233.071 88.576 232.543 88.3893 231.829 88.208C231.178 88.0373 230.645 87.8667 230.229 87.696C229.823 87.5147 229.471 87.2533 229.173 86.912C228.885 86.56 228.741 86.1013 228.741 85.536C228.741 85.088 228.874 84.6773 229.141 84.304C229.407 83.9307 229.786 83.6373 230.277 83.424C230.767 83.2 231.327 83.088 231.957 83.088C232.927 83.088 233.711 83.3333 234.309 83.824C234.906 84.3147 235.226 84.9867 235.269 85.84H233.813C233.781 85.3813 233.594 85.0133 233.253 84.736C232.922 84.4587 232.474 84.32 231.909 84.32C231.386 84.32 230.97 84.432 230.661 84.656C230.351 84.88 230.197 85.1733 230.197 85.536C230.197 85.824 230.287 86.064 230.469 86.256C230.661 86.4373 230.895 86.5867 231.173 86.704C231.461 86.8107 231.855 86.9333 232.357 87.072C232.986 87.2427 233.498 87.4133 233.893 87.584C234.287 87.744 234.623 87.9893 234.901 88.32C235.189 88.6507 235.338 89.0827 235.349 89.616C235.349 90.096 235.215 90.528 234.949 90.912C234.682 91.296 234.303 91.6 233.813 91.824C233.333 92.0373 232.778 92.144 232.149 92.144ZM240.508 92.144C239.836 92.144 239.233 92.032 238.7 91.808C238.167 91.5733 237.745 91.2533 237.436 90.848C237.127 90.432 236.956 89.9573 236.924 89.424H238.428C238.471 89.8613 238.673 90.2187 239.036 90.496C239.409 90.7733 239.895 90.912 240.492 90.912C241.047 90.912 241.484 90.7893 241.804 90.544C242.124 90.2987 242.284 89.9893 242.284 89.616C242.284 89.232 242.113 88.9493 241.772 88.768C241.431 88.576 240.903 88.3893 240.188 88.208C239.537 88.0373 239.004 87.8667 238.588 87.696C238.183 87.5147 237.831 87.2533 237.532 86.912C237.244 86.56 237.1 86.1013 237.1 85.536C237.1 85.088 237.233 84.6773 237.5 84.304C237.767 83.9307 238.145 83.6373 238.636 83.424C239.127 83.2 239.687 83.088 240.316 83.088C241.287 83.088 242.071 83.3333 242.668 83.824C243.265 84.3147 243.585 84.9867 243.628 85.84H242.172C242.14 85.3813 241.953 85.0133 241.612 84.736C241.281 84.4587 240.833 84.32 240.268 84.32C239.745 84.32 239.329 84.432 239.02 84.656C238.711 84.88 238.556 85.1733 238.556 85.536C238.556 85.824 238.647 86.064 238.828 86.256C239.02 86.4373 239.255 86.5867 239.532 86.704C239.82 86.8107 240.215 86.9333 240.716 87.072C241.345 87.2427 241.857 87.4133 242.252 87.584C242.647 87.744 242.983 87.9893 243.26 88.32C243.548 88.6507 243.697 89.0827 243.708 89.616C243.708 90.096 243.575 90.528 243.308 90.912C243.041 91.296 242.663 91.6 242.172 91.824C241.692 92.0373 241.137 92.144 240.508 92.144ZM247.219 80.16V92H245.763V80.16H247.219ZM257.253 83.232L251.973 96.128H250.469L252.197 91.904L248.661 83.232H250.277L253.029 90.336L255.749 83.232H257.253ZM25.984 105.808C25.7067 105.808 25.472 105.712 25.28 105.52C25.088 105.328 24.992 105.093 24.992 104.816C24.992 104.539 25.088 104.304 25.28 104.112C25.472 103.92 25.7067 103.824 25.984 103.824C26.2507 103.824 26.4747 103.92 26.656 104.112C26.848 104.304 26.944 104.539 26.944 104.816C26.944 105.093 26.848 105.328 26.656 105.52C26.4747 105.712 26.2507 105.808 25.984 105.808ZM26.688 107.232V116H25.232V107.232H26.688ZM33.4415 107.072C34.5082 107.072 35.3722 107.397 36.0335 108.048C36.6948 108.688 37.0255 109.616 37.0255 110.832V116H35.5855V111.04C35.5855 110.165 35.3668 109.499 34.9295 109.04C34.4922 108.571 33.8948 108.336 33.1375 108.336C32.3695 108.336 31.7562 108.576 31.2975 109.056C30.8495 109.536 30.6255 110.235 30.6255 111.152V116H29.1695V107.232H30.6255V108.48C30.9135 108.032 31.3028 107.685 31.7935 107.44C32.2948 107.195 32.8442 107.072 33.4415 107.072ZM41.1799 108.432V113.6C41.1799 114.027 41.2705 114.331 41.4519 114.512C41.6332 114.683 41.9479 114.768 42.3959 114.768H43.4679V116H42.1559C41.3452 116 40.7372 115.813 40.3319 115.44C39.9265 115.067 39.7239 114.453 39.7239 113.6V108.432H38.5879V107.232H39.7239V105.024H41.1799V107.232H43.4679V108.432H41.1799ZM53.232 111.28C53.232 111.557 53.216 111.851 53.184 112.16H46.176C46.2293 113.024 46.5227 113.701 47.056 114.192C47.6 114.672 48.256 114.912 49.024 114.912C49.6533 114.912 50.176 114.768 50.592 114.48C51.0187 114.181 51.3173 113.787 51.488 113.296H53.056C52.8213 114.139 52.352 114.827 51.648 115.36C50.944 115.883 50.0693 116.144 49.024 116.144C48.192 116.144 47.4453 115.957 46.784 115.584C46.1333 115.211 45.6213 114.683 45.248 114C44.8747 113.307 44.688 112.507 44.688 111.6C44.688 110.693 44.8693 109.899 45.232 109.216C45.5947 108.533 46.1013 108.011 46.752 107.648C47.4133 107.275 48.1707 107.088 49.024 107.088C49.856 107.088 50.592 107.269 51.232 107.632C51.872 107.995 52.3627 108.496 52.704 109.136C53.056 109.765 53.232 110.48 53.232 111.28ZM51.728 110.976C51.728 110.421 51.6053 109.947 51.36 109.552C51.1147 109.147 50.7787 108.843 50.352 108.64C49.936 108.427 49.472 108.32 48.96 108.32C48.224 108.32 47.5947 108.555 47.072 109.024C46.56 109.493 46.2667 110.144 46.192 110.976H51.728ZM58.7699 107.088C59.5272 107.088 60.1885 107.253 60.7539 107.584C61.3299 107.915 61.7565 108.331 62.0339 108.832V107.232H63.5059V116.192C63.5059 116.992 63.3352 117.701 62.9939 118.32C62.6525 118.949 62.1619 119.44 61.5219 119.792C60.8925 120.144 60.1565 120.32 59.3139 120.32C58.1619 120.32 57.2019 120.048 56.4339 119.504C55.6659 118.96 55.2125 118.219 55.0739 117.28H56.5139C56.6739 117.813 57.0045 118.24 57.5059 118.56C58.0072 118.891 58.6099 119.056 59.3139 119.056C60.1139 119.056 60.7645 118.805 61.2659 118.304C61.7779 117.803 62.0339 117.099 62.0339 116.192V114.352C61.7459 114.864 61.3192 115.291 60.7539 115.632C60.1885 115.973 59.5272 116.144 58.7699 116.144C57.9912 116.144 57.2819 115.952 56.6419 115.568C56.0125 115.184 55.5165 114.645 55.1539 113.952C54.7912 113.259 54.6099 112.469 54.6099 111.584C54.6099 110.688 54.7912 109.904 55.1539 109.232C55.5165 108.549 56.0125 108.021 56.6419 107.648C57.2819 107.275 57.9912 107.088 58.7699 107.088ZM62.0339 111.6C62.0339 110.939 61.9005 110.363 61.6339 109.872C61.3672 109.381 61.0045 109.008 60.5459 108.752C60.0979 108.485 59.6019 108.352 59.0579 108.352C58.5139 108.352 58.0179 108.48 57.5699 108.736C57.1219 108.992 56.7645 109.365 56.4979 109.856C56.2312 110.347 56.0979 110.923 56.0979 111.584C56.0979 112.256 56.2312 112.843 56.4979 113.344C56.7645 113.835 57.1219 114.213 57.5699 114.48C58.0179 114.736 58.5139 114.864 59.0579 114.864C59.6019 114.864 60.0979 114.736 60.5459 114.48C61.0045 114.213 61.3672 113.835 61.6339 113.344C61.9005 112.843 62.0339 112.261 62.0339 111.6ZM67.4224 108.656C67.6784 108.155 68.041 107.765 68.5104 107.488C68.9904 107.211 69.5717 107.072 70.2544 107.072V108.576H69.8704C68.2384 108.576 67.4224 109.461 67.4224 111.232V116H65.9664V107.232H67.4224V108.656ZM71.3911 111.584C71.3911 110.688 71.5725 109.904 71.9351 109.232C72.2978 108.549 72.7938 108.021 73.4231 107.648C74.0631 107.275 74.7725 107.088 75.5511 107.088C76.3191 107.088 76.9858 107.253 77.5511 107.584C78.1165 107.915 78.5378 108.331 78.8151 108.832V107.232H80.2871V116H78.8151V114.368C78.5271 114.88 78.0951 115.307 77.5191 115.648C76.9538 115.979 76.2925 116.144 75.5351 116.144C74.7565 116.144 74.0525 115.952 73.4231 115.568C72.7938 115.184 72.2978 114.645 71.9351 113.952C71.5725 113.259 71.3911 112.469 71.3911 111.584ZM78.8151 111.6C78.8151 110.939 78.6818 110.363 78.4151 109.872C78.1485 109.381 77.7858 109.008 77.3271 108.752C76.8791 108.485 76.3831 108.352 75.8391 108.352C75.2951 108.352 74.7991 108.48 74.3511 108.736C73.9031 108.992 73.5458 109.365 73.2791 109.856C73.0125 110.347 72.8791 110.923 72.8791 111.584C72.8791 112.256 73.0125 112.843 73.2791 113.344C73.5458 113.835 73.9031 114.213 74.3511 114.48C74.7991 114.736 75.2951 114.864 75.8391 114.864C76.3831 114.864 76.8791 114.736 77.3271 114.48C77.7858 114.213 78.1485 113.835 78.4151 113.344C78.6818 112.843 78.8151 112.261 78.8151 111.6ZM84.5236 108.432V113.6C84.5236 114.027 84.6143 114.331 84.7956 114.512C84.977 114.683 85.2916 114.768 85.7396 114.768H86.8116V116H85.4996C84.689 116 84.081 115.813 83.6756 115.44C83.2703 115.067 83.0676 114.453 83.0676 113.6V108.432H81.9316V107.232H83.0676V105.024H84.5236V107.232H86.8116V108.432H84.5236ZM96.5758 111.28C96.5758 111.557 96.5598 111.851 96.5278 112.16H89.5198C89.5731 113.024 89.8664 113.701 90.3998 114.192C90.9438 114.672 91.5998 114.912 92.3678 114.912C92.9971 114.912 93.5198 114.768 93.9358 114.48C94.3624 114.181 94.6611 113.787 94.8318 113.296H96.3998C96.1651 114.139 95.6958 114.827 94.9918 115.36C94.2878 115.883 93.4131 116.144 92.3678 116.144C91.5358 116.144 90.7891 115.957 90.1278 115.584C89.4771 115.211 88.9651 114.683 88.5918 114C88.2184 113.307 88.0318 112.507 88.0318 111.6C88.0318 110.693 88.2131 109.899 88.5758 109.216C88.9384 108.533 89.4451 108.011 90.0958 107.648C90.7571 107.275 91.5144 107.088 92.3678 107.088C93.1998 107.088 93.9358 107.269 94.5758 107.632C95.2158 107.995 95.7064 108.496 96.0478 109.136C96.3998 109.765 96.5758 110.48 96.5758 111.28ZM95.0718 110.976C95.0718 110.421 94.9491 109.947 94.7038 109.552C94.4584 109.147 94.1224 108.843 93.6958 108.64C93.2798 108.427 92.8158 108.32 92.3038 108.32C91.5678 108.32 90.9384 108.555 90.4158 109.024C89.9038 109.493 89.6104 110.144 89.5358 110.976H95.0718ZM101.602 116.144C100.93 116.144 100.327 116.032 99.7936 115.808C99.2603 115.573 98.839 115.253 98.5296 114.848C98.2203 114.432 98.0496 113.957 98.0176 113.424H99.5216C99.5643 113.861 99.767 114.219 100.13 114.496C100.503 114.773 100.988 114.912 101.586 114.912C102.14 114.912 102.578 114.789 102.898 114.544C103.218 114.299 103.378 113.989 103.378 113.616C103.378 113.232 103.207 112.949 102.866 112.768C102.524 112.576 101.996 112.389 101.282 112.208C100.631 112.037 100.098 111.867 99.6816 111.696C99.2763 111.515 98.9243 111.253 98.6256 110.912C98.3376 110.56 98.1936 110.101 98.1936 109.536C98.1936 109.088 98.327 108.677 98.5936 108.304C98.8603 107.931 99.239 107.637 99.7296 107.424C100.22 107.2 100.78 107.088 101.41 107.088C102.38 107.088 103.164 107.333 103.762 107.824C104.359 108.315 104.679 108.987 104.722 109.84H103.266C103.234 109.381 103.047 109.013 102.706 108.736C102.375 108.459 101.927 108.32 101.362 108.32C100.839 108.32 100.423 108.432 100.114 108.656C99.8043 108.88 99.6496 109.173 99.6496 109.536C99.6496 109.824 99.7403 110.064 99.9216 110.256C100.114 110.437 100.348 110.587 100.626 110.704C100.914 110.811 101.308 110.933 101.81 111.072C102.439 111.243 102.951 111.413 103.346 111.584C103.74 111.744 104.076 111.989 104.354 112.32C104.642 112.651 104.791 113.083 104.802 113.616C104.802 114.096 104.668 114.528 104.402 114.912C104.135 115.296 103.756 115.6 103.266 115.824C102.786 116.037 102.231 116.144 101.602 116.144ZM122.803 107.232L120.067 116H118.563L116.451 109.04L114.339 116H112.835L110.083 107.232H111.571L113.587 114.592L115.763 107.232H117.251L119.379 114.608L121.363 107.232H122.803ZM125 105.808C124.722 105.808 124.488 105.712 124.296 105.52C124.104 105.328 124.008 105.093 124.008 104.816C124.008 104.539 124.104 104.304 124.296 104.112C124.488 103.92 124.722 103.824 125 103.824C125.266 103.824 125.49 103.92 125.672 104.112C125.864 104.304 125.96 104.539 125.96 104.816C125.96 105.093 125.864 105.328 125.672 105.52C125.49 105.712 125.266 105.808 125 105.808ZM125.704 107.232V116H124.248V107.232H125.704ZM129.961 108.432V113.6C129.961 114.027 130.052 114.331 130.233 114.512C130.414 114.683 130.729 114.768 131.177 114.768H132.249V116H130.937C130.126 116 129.518 115.813 129.113 115.44C128.708 115.067 128.505 114.453 128.505 113.6V108.432H127.369V107.232H128.505V105.024H129.961V107.232H132.249V108.432H129.961ZM138.365 107.072C139.027 107.072 139.624 107.216 140.157 107.504C140.691 107.781 141.107 108.203 141.405 108.768C141.715 109.333 141.869 110.021 141.869 110.832V116H140.429V111.04C140.429 110.165 140.211 109.499 139.773 109.04C139.336 108.571 138.739 108.336 137.981 108.336C137.213 108.336 136.6 108.576 136.141 109.056C135.693 109.536 135.469 110.235 135.469 111.152V116H134.013V104.16H135.469V108.48C135.757 108.032 136.152 107.685 136.653 107.44C137.165 107.195 137.736 107.072 138.365 107.072ZM156.065 107.232L150.785 120.128H149.281L151.009 115.904L147.473 107.232H149.089L151.841 114.336L154.561 107.232H156.065ZM161.353 116.144C160.532 116.144 159.785 115.957 159.113 115.584C158.452 115.211 157.929 114.683 157.545 114C157.172 113.307 156.985 112.507 156.985 111.6C156.985 110.704 157.177 109.915 157.561 109.232C157.956 108.539 158.489 108.011 159.161 107.648C159.833 107.275 160.585 107.088 161.417 107.088C162.249 107.088 163.001 107.275 163.673 107.648C164.345 108.011 164.873 108.533 165.257 109.216C165.652 109.899 165.849 110.693 165.849 111.6C165.849 112.507 165.646 113.307 165.241 114C164.846 114.683 164.308 115.211 163.625 115.584C162.942 115.957 162.185 116.144 161.353 116.144ZM161.353 114.864C161.876 114.864 162.366 114.741 162.825 114.496C163.284 114.251 163.652 113.883 163.929 113.392C164.217 112.901 164.361 112.304 164.361 111.6C164.361 110.896 164.222 110.299 163.945 109.808C163.668 109.317 163.305 108.955 162.857 108.72C162.409 108.475 161.924 108.352 161.401 108.352C160.868 108.352 160.377 108.475 159.929 108.72C159.492 108.955 159.14 109.317 158.873 109.808C158.606 110.299 158.473 110.896 158.473 111.6C158.473 112.315 158.601 112.917 158.857 113.408C159.124 113.899 159.476 114.267 159.913 114.512C160.35 114.747 160.83 114.864 161.353 114.864ZM175.539 107.232V116H174.083V114.704C173.806 115.152 173.417 115.504 172.915 115.76C172.425 116.005 171.881 116.128 171.283 116.128C170.601 116.128 169.987 115.989 169.443 115.712C168.899 115.424 168.467 114.997 168.147 114.432C167.838 113.867 167.683 113.179 167.683 112.368V107.232H169.123V112.176C169.123 113.04 169.342 113.707 169.779 114.176C170.217 114.635 170.814 114.864 171.571 114.864C172.35 114.864 172.963 114.624 173.411 114.144C173.859 113.664 174.083 112.965 174.083 112.048V107.232H175.539ZM179.454 108.656C179.71 108.155 180.072 107.765 180.542 107.488C181.022 107.211 181.603 107.072 182.286 107.072V108.576H181.902C180.27 108.576 179.454 109.461 179.454 111.232V116H177.998V107.232H179.454V108.656ZM196.232 111.28C196.232 111.557 196.216 111.851 196.184 112.16H189.176C189.229 113.024 189.523 113.701 190.056 114.192C190.6 114.672 191.256 114.912 192.024 114.912C192.653 114.912 193.176 114.768 193.592 114.48C194.019 114.181 194.317 113.787 194.488 113.296H196.056C195.821 114.139 195.352 114.827 194.648 115.36C193.944 115.883 193.069 116.144 192.024 116.144C191.192 116.144 190.445 115.957 189.784 115.584C189.133 115.211 188.621 114.683 188.248 114C187.875 113.307 187.688 112.507 187.688 111.6C187.688 110.693 187.869 109.899 188.232 109.216C188.595 108.533 189.101 108.011 189.752 107.648C190.413 107.275 191.171 107.088 192.024 107.088C192.856 107.088 193.592 107.269 194.232 107.632C194.872 107.995 195.363 108.496 195.704 109.136C196.056 109.765 196.232 110.48 196.232 111.28ZM194.728 110.976C194.728 110.421 194.605 109.947 194.36 109.552C194.115 109.147 193.779 108.843 193.352 108.64C192.936 108.427 192.472 108.32 191.96 108.32C191.224 108.32 190.595 108.555 190.072 109.024C189.56 109.493 189.267 110.144 189.192 110.976H194.728ZM202.73 116L200.65 112.736L198.65 116H197.13L199.962 111.648L197.13 107.232H198.778L200.858 110.48L202.842 107.232H204.362L201.546 111.568L204.378 116H202.73ZM206.562 105.808C206.285 105.808 206.05 105.712 205.858 105.52C205.666 105.328 205.57 105.093 205.57 104.816C205.57 104.539 205.666 104.304 205.858 104.112C206.05 103.92 206.285 103.824 206.562 103.824C206.829 103.824 207.053 103.92 207.234 104.112C207.426 104.304 207.522 104.539 207.522 104.816C207.522 105.093 207.426 105.328 207.234 105.52C207.053 105.712 206.829 105.808 206.562 105.808ZM207.266 107.232V116H205.81V107.232H207.266ZM212.852 116.144C212.18 116.144 211.577 116.032 211.044 115.808C210.51 115.573 210.089 115.253 209.78 114.848C209.47 114.432 209.3 113.957 209.268 113.424H210.772C210.814 113.861 211.017 114.219 211.38 114.496C211.753 114.773 212.238 114.912 212.836 114.912C213.39 114.912 213.828 114.789 214.148 114.544C214.468 114.299 214.628 113.989 214.628 113.616C214.628 113.232 214.457 112.949 214.116 112.768C213.774 112.576 213.246 112.389 212.532 112.208C211.881 112.037 211.348 111.867 210.932 111.696C210.526 111.515 210.174 111.253 209.876 110.912C209.588 110.56 209.444 110.101 209.444 109.536C209.444 109.088 209.577 108.677 209.844 108.304C210.11 107.931 210.489 107.637 210.98 107.424C211.47 107.2 212.03 107.088 212.66 107.088C213.63 107.088 214.414 107.333 215.012 107.824C215.609 108.315 215.929 108.987 215.972 109.84H214.516C214.484 109.381 214.297 109.013 213.956 108.736C213.625 108.459 213.177 108.32 212.612 108.32C212.089 108.32 211.673 108.432 211.364 108.656C211.054 108.88 210.9 109.173 210.9 109.536C210.9 109.824 210.99 110.064 211.172 110.256C211.364 110.437 211.598 110.587 211.876 110.704C212.164 110.811 212.558 110.933 213.06 111.072C213.689 111.243 214.201 111.413 214.596 111.584C214.99 111.744 215.326 111.989 215.604 112.32C215.892 112.651 216.041 113.083 216.052 113.616C216.052 114.096 215.918 114.528 215.652 114.912C215.385 115.296 215.006 115.6 214.516 115.824C214.036 116.037 213.481 116.144 212.852 116.144ZM219.883 108.432V113.6C219.883 114.027 219.974 114.331 220.155 114.512C220.336 114.683 220.651 114.768 221.099 114.768H222.171V116H220.859C220.048 116 219.44 115.813 219.035 115.44C218.63 115.067 218.427 114.453 218.427 113.6V108.432H217.291V107.232H218.427V105.024H219.883V107.232H222.171V108.432H219.883ZM224.687 105.808C224.41 105.808 224.175 105.712 223.983 105.52C223.791 105.328 223.695 105.093 223.695 104.816C223.695 104.539 223.791 104.304 223.983 104.112C224.175 103.92 224.41 103.824 224.687 103.824C224.954 103.824 225.178 103.92 225.359 104.112C225.551 104.304 225.647 104.539 225.647 104.816C225.647 105.093 225.551 105.328 225.359 105.52C225.178 105.712 224.954 105.808 224.687 105.808ZM225.391 107.232V116H223.935V107.232H225.391ZM232.145 107.072C233.211 107.072 234.075 107.397 234.737 108.048C235.398 108.688 235.729 109.616 235.729 110.832V116H234.289V111.04C234.289 110.165 234.07 109.499 233.633 109.04C233.195 108.571 232.598 108.336 231.841 108.336C231.073 108.336 230.459 108.576 230.001 109.056C229.553 109.536 229.329 110.235 229.329 111.152V116H227.873V107.232H229.329V108.48C229.617 108.032 230.006 107.685 230.497 107.44C230.998 107.195 231.547 107.072 232.145 107.072ZM241.723 107.088C242.48 107.088 243.142 107.253 243.707 107.584C244.283 107.915 244.71 108.331 244.987 108.832V107.232H246.459V116.192C246.459 116.992 246.288 117.701 245.947 118.32C245.606 118.949 245.115 119.44 244.475 119.792C243.846 120.144 243.11 120.32 242.267 120.32C241.115 120.32 240.155 120.048 239.387 119.504C238.619 118.96 238.166 118.219 238.027 117.28H239.467C239.627 117.813 239.958 118.24 240.459 118.56C240.96 118.891 241.563 119.056 242.267 119.056C243.067 119.056 243.718 118.805 244.219 118.304C244.731 117.803 244.987 117.099 244.987 116.192V114.352C244.699 114.864 244.272 115.291 243.707 115.632C243.142 115.973 242.48 116.144 241.723 116.144C240.944 116.144 240.235 115.952 239.595 115.568C238.966 115.184 238.47 114.645 238.107 113.952C237.744 113.259 237.563 112.469 237.563 111.584C237.563 110.688 237.744 109.904 238.107 109.232C238.47 108.549 238.966 108.021 239.595 107.648C240.235 107.275 240.944 107.088 241.723 107.088ZM244.987 111.6C244.987 110.939 244.854 110.363 244.587 109.872C244.32 109.381 243.958 109.008 243.499 108.752C243.051 108.485 242.555 108.352 242.011 108.352C241.467 108.352 240.971 108.48 240.523 108.736C240.075 108.992 239.718 109.365 239.451 109.856C239.184 110.347 239.051 110.923 239.051 111.584C239.051 112.256 239.184 112.843 239.451 113.344C239.718 113.835 240.075 114.213 240.523 114.48C240.971 114.736 241.467 114.864 242.011 114.864C242.555 114.864 243.051 114.736 243.499 114.48C243.958 114.213 244.32 113.835 244.587 113.344C244.854 112.843 244.987 112.261 244.987 111.6ZM252.641 111.584C252.641 110.688 252.822 109.904 253.185 109.232C253.548 108.549 254.044 108.021 254.673 107.648C255.313 107.275 256.028 107.088 256.817 107.088C257.5 107.088 258.134 107.248 258.721 107.568C259.308 107.877 259.756 108.288 260.065 108.8V104.16H261.537V116H260.065V114.352C259.777 114.875 259.35 115.307 258.785 115.648C258.22 115.979 257.558 116.144 256.801 116.144C256.022 116.144 255.313 115.952 254.673 115.568C254.044 115.184 253.548 114.645 253.185 113.952C252.822 113.259 252.641 112.469 252.641 111.584ZM260.065 111.6C260.065 110.939 259.932 110.363 259.665 109.872C259.398 109.381 259.036 109.008 258.577 108.752C258.129 108.485 257.633 108.352 257.089 108.352C256.545 108.352 256.049 108.48 255.601 108.736C255.153 108.992 254.796 109.365 254.529 109.856C254.262 110.347 254.129 110.923 254.129 111.584C254.129 112.256 254.262 112.843 254.529 113.344C254.796 113.835 255.153 114.213 255.601 114.48C256.049 114.736 256.545 114.864 257.089 114.864C257.633 114.864 258.129 114.736 258.577 114.48C259.036 114.213 259.398 113.835 259.665 113.344C259.932 112.843 260.065 112.261 260.065 111.6ZM263.454 111.584C263.454 110.688 263.635 109.904 263.998 109.232C264.36 108.549 264.856 108.021 265.486 107.648C266.126 107.275 266.835 107.088 267.614 107.088C268.382 107.088 269.048 107.253 269.614 107.584C270.179 107.915 270.6 108.331 270.878 108.832V107.232H272.35V116H270.878V114.368C270.59 114.88 270.158 115.307 269.582 115.648C269.016 115.979 268.355 116.144 267.598 116.144C266.819 116.144 266.115 115.952 265.486 115.568C264.856 115.184 264.36 114.645 263.998 113.952C263.635 113.259 263.454 112.469 263.454 111.584ZM270.878 111.6C270.878 110.939 270.744 110.363 270.478 109.872C270.211 109.381 269.848 109.008 269.39 108.752C268.942 108.485 268.446 108.352 267.902 108.352C267.358 108.352 266.862 108.48 266.414 108.736C265.966 108.992 265.608 109.365 265.342 109.856C265.075 110.347 264.942 110.923 264.942 111.584C264.942 112.256 265.075 112.843 265.342 113.344C265.608 113.835 265.966 114.213 266.414 114.48C266.862 114.736 267.358 114.864 267.902 114.864C268.446 114.864 268.942 114.736 269.39 114.48C269.848 114.213 270.211 113.835 270.478 113.344C270.744 112.843 270.878 112.261 270.878 111.6ZM276.586 108.432V113.6C276.586 114.027 276.677 114.331 276.858 114.512C277.039 114.683 277.354 114.768 277.802 114.768H278.874V116H277.562C276.751 116 276.143 115.813 275.738 115.44C275.333 115.067 275.13 114.453 275.13 113.6V108.432H273.994V107.232H275.13V105.024H276.586V107.232H278.874V108.432H276.586ZM280.094 111.584C280.094 110.688 280.276 109.904 280.638 109.232C281.001 108.549 281.497 108.021 282.126 107.648C282.766 107.275 283.476 107.088 284.254 107.088C285.022 107.088 285.689 107.253 286.254 107.584C286.82 107.915 287.241 108.331 287.518 108.832V107.232H288.99V116H287.518V114.368C287.23 114.88 286.798 115.307 286.222 115.648C285.657 115.979 284.996 116.144 284.238 116.144C283.46 116.144 282.756 115.952 282.126 115.568C281.497 115.184 281.001 114.645 280.638 113.952C280.276 113.259 280.094 112.469 280.094 111.584ZM287.518 111.6C287.518 110.939 287.385 110.363 287.118 109.872C286.852 109.381 286.489 109.008 286.03 108.752C285.582 108.485 285.086 108.352 284.542 108.352C283.998 108.352 283.502 108.48 283.054 108.736C282.606 108.992 282.249 109.365 281.982 109.856C281.716 110.347 281.582 110.923 281.582 111.584C281.582 112.256 281.716 112.843 281.982 113.344C282.249 113.835 282.606 114.213 283.054 114.48C283.502 114.736 283.998 114.864 284.542 114.864C285.086 114.864 285.582 114.736 286.03 114.48C286.489 114.213 286.852 113.835 287.118 113.344C287.385 112.843 287.518 112.261 287.518 111.6ZM291.915 116.096C291.637 116.096 291.403 116 291.211 115.808C291.019 115.616 290.923 115.381 290.923 115.104C290.923 114.827 291.019 114.592 291.211 114.4C291.403 114.208 291.637 114.112 291.915 114.112C292.181 114.112 292.405 114.208 292.587 114.4C292.779 114.592 292.875 114.827 292.875 115.104C292.875 115.381 292.779 115.616 292.587 115.808C292.405 116 292.181 116.096 291.915 116.096Z" fill="#5E6678"/>
<g clip-path="url(#clip0_502_25214)">
<rect x="24" y="180" width="302" height="246" rx="8" fill="#D0E4DF" fill-opacity="0.24"/>
<path d="M45.866 207.266C44.942 207.266 44.1487 207.103 43.486 206.776C42.8233 206.449 42.282 206.025 41.862 205.502C41.4513 204.979 41.148 204.41 40.952 203.794C40.756 203.178 40.658 202.585 40.658 202.016V201.708C40.658 201.073 40.756 200.448 40.952 199.832C41.1573 199.216 41.47 198.656 41.89 198.152C42.31 197.648 42.842 197.247 43.486 196.948C44.1393 196.64 44.9093 196.486 45.796 196.486C46.72 196.486 47.5227 196.654 48.204 196.99C48.8947 197.317 49.4453 197.783 49.856 198.39C50.2667 198.987 50.514 199.687 50.598 200.49H48.596C48.5213 200.023 48.3533 199.631 48.092 199.314C47.84 198.987 47.518 198.745 47.126 198.586C46.734 198.418 46.2907 198.334 45.796 198.334C45.292 198.334 44.844 198.423 44.452 198.6C44.06 198.768 43.7333 199.011 43.472 199.328C43.2107 199.645 43.01 200.019 42.87 200.448C42.7393 200.877 42.674 201.353 42.674 201.876C42.674 202.38 42.7393 202.847 42.87 203.276C43.01 203.705 43.2153 204.083 43.486 204.41C43.7567 204.727 44.088 204.975 44.48 205.152C44.8813 205.329 45.3433 205.418 45.866 205.418C46.6313 205.418 47.2753 205.231 47.798 204.858C48.33 204.475 48.652 203.943 48.764 203.262H50.766C50.6727 203.99 50.4253 204.657 50.024 205.264C49.6227 205.871 49.072 206.356 48.372 206.72C47.672 207.084 46.8367 207.266 45.866 207.266ZM55.9436 207.266C55.2716 207.266 54.6789 207.159 54.1656 206.944C53.6523 206.729 53.2183 206.44 52.8636 206.076C52.5089 205.703 52.2383 205.283 52.0516 204.816C51.8743 204.349 51.7856 203.864 51.7856 203.36V203.066C51.7856 202.543 51.8789 202.049 52.0656 201.582C52.2616 201.106 52.5369 200.686 52.8916 200.322C53.2556 199.949 53.6943 199.659 54.2076 199.454C54.7209 199.239 55.2996 199.132 55.9436 199.132C56.5876 199.132 57.1663 199.239 57.6796 199.454C58.1929 199.659 58.6269 199.949 58.9816 200.322C59.3456 200.686 59.6209 201.106 59.8076 201.582C59.9943 202.049 60.0876 202.543 60.0876 203.066V203.36C60.0876 203.864 59.9943 204.349 59.8076 204.816C59.6303 205.283 59.3643 205.703 59.0096 206.076C58.6549 206.44 58.2209 206.729 57.7076 206.944C57.1943 207.159 56.6063 207.266 55.9436 207.266ZM55.9436 205.6C56.4196 205.6 56.8209 205.497 57.1476 205.292C57.4743 205.077 57.7216 204.793 57.8896 204.438C58.0576 204.074 58.1416 203.663 58.1416 203.206C58.1416 202.739 58.0529 202.329 57.8756 201.974C57.7076 201.61 57.4556 201.325 57.1196 201.12C56.7929 200.905 56.4009 200.798 55.9436 200.798C55.4863 200.798 55.0896 200.905 54.7536 201.12C54.4269 201.325 54.1749 201.61 53.9976 201.974C53.8203 202.329 53.7316 202.739 53.7316 203.206C53.7316 203.663 53.8156 204.074 53.9836 204.438C54.1609 204.793 54.4129 205.077 54.7396 205.292C55.0663 205.497 55.4676 205.6 55.9436 205.6ZM61.7915 207V199.398H63.3315V202.66H63.1915C63.1915 201.885 63.2942 201.241 63.4995 200.728C63.7049 200.205 64.0082 199.813 64.4095 199.552C64.8202 199.291 65.3289 199.16 65.9355 199.16H66.0195C66.9249 199.16 67.6109 199.454 68.0775 200.042C68.5442 200.621 68.7775 201.489 68.7775 202.646V207H66.8315V202.478C66.8315 202.011 66.6962 201.633 66.4255 201.344C66.1642 201.055 65.8002 200.91 65.3335 200.91C64.8575 200.91 64.4702 201.059 64.1715 201.358C63.8822 201.647 63.7375 202.039 63.7375 202.534V207H61.7915ZM72.341 207L69.961 199.398H71.963L74.245 207H72.341ZM72.915 207V205.404H74.973V207H72.915ZM73.685 207L75.645 199.398H77.521L75.463 207H73.685ZM82.2287 207.266C81.5754 207.266 81.0014 207.154 80.5067 206.93C80.0214 206.706 79.6154 206.407 79.2887 206.034C78.9714 205.651 78.7287 205.227 78.5607 204.76C78.402 204.293 78.3227 203.817 78.3227 203.332V203.066C78.3227 202.562 78.402 202.077 78.5607 201.61C78.7287 201.134 78.9714 200.714 79.2887 200.35C79.6154 199.977 80.0167 199.683 80.4927 199.468C80.9687 199.244 81.5194 199.132 82.1447 199.132C82.966 199.132 83.652 199.314 84.2027 199.678C84.7627 200.033 85.1827 200.504 85.4627 201.092C85.7427 201.671 85.8827 202.296 85.8827 202.968V203.668H79.1487V202.478H84.6647L84.0627 203.066C84.0627 202.581 83.9927 202.165 83.8527 201.82C83.7127 201.475 83.498 201.209 83.2087 201.022C82.9287 200.835 82.574 200.742 82.1447 200.742C81.7154 200.742 81.3514 200.84 81.0527 201.036C80.754 201.232 80.5254 201.517 80.3667 201.89C80.2174 202.254 80.1427 202.693 80.1427 203.206C80.1427 203.682 80.2174 204.107 80.3667 204.48C80.516 204.844 80.7447 205.133 81.0527 205.348C81.3607 205.553 81.7527 205.656 82.2287 205.656C82.7047 205.656 83.092 205.563 83.3907 205.376C83.6894 205.18 83.8807 204.942 83.9647 204.662H85.7567C85.6447 205.185 85.43 205.642 85.1127 206.034C84.7954 206.426 84.3894 206.729 83.8947 206.944C83.4094 207.159 82.854 207.266 82.2287 207.266ZM87.5083 207V199.398H89.0483V202.618H89.0063C89.0063 201.526 89.2397 200.7 89.7063 200.14C90.173 199.58 90.859 199.3 91.7643 199.3H92.0443V200.994H91.5123C90.859 200.994 90.3503 201.171 89.9863 201.526C89.6317 201.871 89.4543 202.375 89.4543 203.038V207H87.5083ZM96.1042 207.238C95.0589 207.238 94.2376 207.019 93.6402 206.58C93.0522 206.132 92.7442 205.516 92.7162 204.732H94.4662C94.4942 204.993 94.6389 205.231 94.9002 205.446C95.1616 205.661 95.5722 205.768 96.1322 205.768C96.5989 205.768 96.9676 205.684 97.2382 205.516C97.5182 205.348 97.6582 205.119 97.6582 204.83C97.6582 204.578 97.5509 204.377 97.3362 204.228C97.1309 204.079 96.7762 203.981 96.2722 203.934L95.6002 203.864C94.7509 203.771 94.0976 203.528 93.6402 203.136C93.1829 202.744 92.9542 202.221 92.9542 201.568C92.9542 201.045 93.0849 200.607 93.3462 200.252C93.6076 199.897 93.9669 199.631 94.4242 199.454C94.8909 199.267 95.4229 199.174 96.0202 199.174C96.9536 199.174 97.7096 199.379 98.2882 199.79C98.8669 200.201 99.1702 200.803 99.1982 201.596H97.4482C97.4296 201.335 97.2989 201.111 97.0562 200.924C96.8136 200.737 96.4636 200.644 96.0062 200.644C95.5956 200.644 95.2782 200.723 95.0542 200.882C94.8302 201.041 94.7182 201.246 94.7182 201.498C94.7182 201.741 94.8069 201.927 94.9842 202.058C95.1709 202.189 95.4696 202.277 95.8802 202.324L96.5522 202.394C97.4482 202.487 98.1482 202.735 98.6522 203.136C99.1656 203.537 99.4222 204.079 99.4222 204.76C99.4222 205.264 99.2822 205.703 99.0022 206.076C98.7316 206.44 98.3489 206.725 97.8542 206.93C97.3596 207.135 96.7762 207.238 96.1042 207.238ZM101.394 207V199.398H103.34V207H101.394ZM100.33 200.854V199.398H103.34V200.854H100.33ZM102.108 198.488C101.725 198.488 101.44 198.39 101.254 198.194C101.076 197.989 100.988 197.732 100.988 197.424C100.988 197.116 101.076 196.864 101.254 196.668C101.44 196.472 101.725 196.374 102.108 196.374C102.49 196.374 102.77 196.472 102.948 196.668C103.125 196.864 103.214 197.116 103.214 197.424C103.214 197.732 103.125 197.989 102.948 198.194C102.77 198.39 102.49 198.488 102.108 198.488ZM109.237 207.266C108.565 207.266 107.972 207.159 107.459 206.944C106.945 206.729 106.511 206.44 106.157 206.076C105.802 205.703 105.531 205.283 105.345 204.816C105.167 204.349 105.079 203.864 105.079 203.36V203.066C105.079 202.543 105.172 202.049 105.359 201.582C105.555 201.106 105.83 200.686 106.185 200.322C106.549 199.949 106.987 199.659 107.501 199.454C108.014 199.239 108.593 199.132 109.237 199.132C109.881 199.132 110.459 199.239 110.973 199.454C111.486 199.659 111.92 199.949 112.275 200.322C112.639 200.686 112.914 201.106 113.101 201.582C113.287 202.049 113.381 202.543 113.381 203.066V203.36C113.381 203.864 113.287 204.349 113.101 204.816C112.923 205.283 112.657 205.703 112.303 206.076C111.948 206.44 111.514 206.729 111.001 206.944C110.487 207.159 109.899 207.266 109.237 207.266ZM109.237 205.6C109.713 205.6 110.114 205.497 110.441 205.292C110.767 205.077 111.015 204.793 111.183 204.438C111.351 204.074 111.435 203.663 111.435 203.206C111.435 202.739 111.346 202.329 111.169 201.974C111.001 201.61 110.749 201.325 110.413 201.12C110.086 200.905 109.694 200.798 109.237 200.798C108.779 200.798 108.383 200.905 108.047 201.12C107.72 201.325 107.468 201.61 107.291 201.974C107.113 202.329 107.025 202.739 107.025 203.206C107.025 203.663 107.109 204.074 107.277 204.438C107.454 204.793 107.706 205.077 108.033 205.292C108.359 205.497 108.761 205.6 109.237 205.6ZM115.085 207V199.398H116.625V202.66H116.485C116.485 201.885 116.587 201.241 116.793 200.728C116.998 200.205 117.301 199.813 117.703 199.552C118.113 199.291 118.622 199.16 119.229 199.16H119.313C120.218 199.16 120.904 199.454 121.371 200.042C121.837 200.621 122.071 201.489 122.071 202.646V207H120.125V202.478C120.125 202.011 119.989 201.633 119.719 201.344C119.457 201.055 119.093 200.91 118.627 200.91C118.151 200.91 117.763 201.059 117.465 201.358C117.175 201.647 117.031 202.039 117.031 202.534V207H115.085Z" fill="#0B4738"/>
</g>
<rect x="24.5" y="180.5" width="301" height="245" rx="7.5" stroke="#D0E4DF"/>
<g clip-path="url(#clip1_502_25214)">
<rect x="41" y="225" width="268" height="87" rx="7" fill="white"/>
<rect x="41" y="225" width="268" height="87" rx="7" stroke="#12765E" stroke-width="2"/>
<path d="M58.968 251.864V250.142H60.956C61.3573 250.142 61.6933 250.063 61.964 249.904C62.244 249.745 62.454 249.526 62.594 249.246C62.7433 248.966 62.818 248.644 62.818 248.28C62.818 247.916 62.7433 247.594 62.594 247.314C62.454 247.034 62.244 246.819 61.964 246.67C61.6933 246.511 61.3573 246.432 60.956 246.432H58.968V244.71H60.788C61.6467 244.71 62.3747 244.85 62.972 245.13C63.5787 245.41 64.0407 245.811 64.358 246.334C64.6753 246.847 64.834 247.459 64.834 248.168V248.392C64.834 249.101 64.6753 249.717 64.358 250.24C64.0407 250.753 63.5787 251.155 62.972 251.444C62.3747 251.724 61.6467 251.864 60.788 251.864H58.968ZM57.26 255V244.71H59.248V255H57.26ZM68.9108 255.238C68.0335 255.238 67.3522 254.949 66.8668 254.37C66.3908 253.791 66.1528 252.933 66.1528 251.794V247.384H68.0988V251.962C68.0988 252.429 68.2295 252.802 68.4908 253.082C68.7522 253.353 69.1068 253.488 69.5548 253.488C70.0028 253.488 70.3668 253.343 70.6468 253.054C70.9362 252.765 71.0808 252.373 71.0808 251.878V247.384H73.0268V255H71.4868V251.766H71.6408C71.6408 252.531 71.5428 253.171 71.3468 253.684C71.1508 254.197 70.8568 254.585 70.4648 254.846C70.0728 255.107 69.5828 255.238 68.9948 255.238H68.9108ZM75.2623 255V247.398H76.8023V250.618H76.7603C76.7603 249.526 76.9936 248.7 77.4603 248.14C77.9269 247.58 78.6129 247.3 79.5183 247.3H79.7983V248.994H79.2663C78.6129 248.994 78.1043 249.171 77.7403 249.526C77.3856 249.871 77.2083 250.375 77.2083 251.038V255H75.2623ZM84.4195 255.266C83.7568 255.266 83.1828 255.154 82.6975 254.93C82.2215 254.706 81.8201 254.407 81.4935 254.034C81.1761 253.661 80.9381 253.241 80.7795 252.774C80.6208 252.307 80.5415 251.831 80.5415 251.346V251.08C80.5415 250.567 80.6208 250.077 80.7795 249.61C80.9475 249.134 81.1948 248.714 81.5215 248.35C81.8481 247.977 82.2495 247.683 82.7255 247.468C83.2108 247.244 83.7708 247.132 84.4055 247.132C85.0681 247.132 85.6608 247.263 86.1835 247.524C86.7061 247.776 87.1215 248.131 87.4295 248.588C87.7468 249.045 87.9241 249.577 87.9615 250.184H86.0715C86.0248 249.792 85.8568 249.465 85.5675 249.204C85.2875 248.943 84.9001 248.812 84.4055 248.812C83.9761 248.812 83.6168 248.915 83.3275 249.12C83.0475 249.325 82.8375 249.61 82.6975 249.974C82.5575 250.329 82.4875 250.739 82.4875 251.206C82.4875 251.654 82.5528 252.06 82.6835 252.424C82.8235 252.788 83.0335 253.073 83.3135 253.278C83.6028 253.483 83.9715 253.586 84.4195 253.586C84.7555 253.586 85.0448 253.525 85.2875 253.404C85.5301 253.283 85.7215 253.115 85.8615 252.9C86.0108 252.685 86.1041 252.443 86.1415 252.172H88.0315C87.9941 252.788 87.8121 253.329 87.4855 253.796C87.1681 254.253 86.7435 254.613 86.2115 254.874C85.6888 255.135 85.0915 255.266 84.4195 255.266ZM89.5904 255V244.78H91.5364V250.744H91.2004C91.2004 249.979 91.2984 249.33 91.4944 248.798C91.6904 248.266 91.9797 247.86 92.3624 247.58C92.7544 247.3 93.249 247.16 93.8464 247.16H93.9304C94.7984 247.16 95.4564 247.459 95.9044 248.056C96.3524 248.653 96.5764 249.521 96.5764 250.66V255H94.6304V250.478C94.6304 249.993 94.4904 249.61 94.2104 249.33C93.9397 249.05 93.5804 248.91 93.1324 248.91C92.6564 248.91 92.269 249.069 91.9704 249.386C91.681 249.694 91.5364 250.1 91.5364 250.604V255H89.5904ZM103.275 255V252.746H102.953V250.24C102.953 249.801 102.845 249.475 102.631 249.26C102.416 249.045 102.085 248.938 101.637 248.938C101.403 248.938 101.123 248.943 100.797 248.952C100.47 248.961 100.139 248.975 99.8025 248.994C99.4758 249.003 99.1818 249.017 98.9205 249.036V247.384C99.1352 247.365 99.3778 247.347 99.6485 247.328C99.9192 247.309 100.195 247.3 100.475 247.3C100.764 247.291 101.035 247.286 101.287 247.286C102.071 247.286 102.719 247.389 103.233 247.594C103.755 247.799 104.147 248.121 104.409 248.56C104.679 248.999 104.815 249.573 104.815 250.282V255H103.275ZM100.825 255.196C100.274 255.196 99.7885 255.098 99.3685 254.902C98.9578 254.706 98.6358 254.426 98.4025 254.062C98.1785 253.698 98.0665 253.259 98.0665 252.746C98.0665 252.186 98.2018 251.729 98.4725 251.374C98.7525 251.019 99.1398 250.753 99.6345 250.576C100.139 250.399 100.727 250.31 101.399 250.31H103.163V251.472H101.371C100.923 251.472 100.577 251.584 100.335 251.808C100.101 252.023 99.9845 252.303 99.9845 252.648C99.9845 252.993 100.101 253.273 100.335 253.488C100.577 253.703 100.923 253.81 101.371 253.81C101.641 253.81 101.889 253.763 102.113 253.67C102.346 253.567 102.537 253.399 102.687 253.166C102.845 252.923 102.934 252.597 102.953 252.186L103.429 252.732C103.382 253.264 103.251 253.712 103.037 254.076C102.831 254.44 102.542 254.72 102.169 254.916C101.805 255.103 101.357 255.196 100.825 255.196ZM109.657 255.238C108.612 255.238 107.79 255.019 107.193 254.58C106.605 254.132 106.297 253.516 106.269 252.732H108.019C108.047 252.993 108.192 253.231 108.453 253.446C108.714 253.661 109.125 253.768 109.685 253.768C110.152 253.768 110.52 253.684 110.791 253.516C111.071 253.348 111.211 253.119 111.211 252.83C111.211 252.578 111.104 252.377 110.889 252.228C110.684 252.079 110.329 251.981 109.825 251.934L109.153 251.864C108.304 251.771 107.65 251.528 107.193 251.136C106.736 250.744 106.507 250.221 106.507 249.568C106.507 249.045 106.638 248.607 106.899 248.252C107.16 247.897 107.52 247.631 107.977 247.454C108.444 247.267 108.976 247.174 109.573 247.174C110.506 247.174 111.262 247.379 111.841 247.79C112.42 248.201 112.723 248.803 112.751 249.596H111.001C110.982 249.335 110.852 249.111 110.609 248.924C110.366 248.737 110.016 248.644 109.559 248.644C109.148 248.644 108.831 248.723 108.607 248.882C108.383 249.041 108.271 249.246 108.271 249.498C108.271 249.741 108.36 249.927 108.537 250.058C108.724 250.189 109.022 250.277 109.433 250.324L110.105 250.394C111.001 250.487 111.701 250.735 112.205 251.136C112.718 251.537 112.975 252.079 112.975 252.76C112.975 253.264 112.835 253.703 112.555 254.076C112.284 254.44 111.902 254.725 111.407 254.93C110.912 255.135 110.329 255.238 109.657 255.238ZM117.985 255.266C117.331 255.266 116.757 255.154 116.263 254.93C115.777 254.706 115.371 254.407 115.045 254.034C114.727 253.651 114.485 253.227 114.317 252.76C114.158 252.293 114.079 251.817 114.079 251.332V251.066C114.079 250.562 114.158 250.077 114.317 249.61C114.485 249.134 114.727 248.714 115.045 248.35C115.371 247.977 115.773 247.683 116.249 247.468C116.725 247.244 117.275 247.132 117.901 247.132C118.722 247.132 119.408 247.314 119.959 247.678C120.519 248.033 120.939 248.504 121.219 249.092C121.499 249.671 121.639 250.296 121.639 250.968V251.668H114.905V250.478H120.421L119.819 251.066C119.819 250.581 119.749 250.165 119.609 249.82C119.469 249.475 119.254 249.209 118.965 249.022C118.685 248.835 118.33 248.742 117.901 248.742C117.471 248.742 117.107 248.84 116.809 249.036C116.51 249.232 116.281 249.517 116.123 249.89C115.973 250.254 115.899 250.693 115.899 251.206C115.899 251.682 115.973 252.107 116.123 252.48C116.272 252.844 116.501 253.133 116.809 253.348C117.117 253.553 117.509 253.656 117.985 253.656C118.461 253.656 118.848 253.563 119.147 253.376C119.445 253.18 119.637 252.942 119.721 252.662H121.513C121.401 253.185 121.186 253.642 120.869 254.034C120.551 254.426 120.145 254.729 119.651 254.944C119.165 255.159 118.61 255.266 117.985 255.266Z" fill="#0B4738"/>
<path d="M72.0418 282.625L66.8335 287.833L65.1668 286.167L60.5835 290.75M72.0418 282.625H68.5002M72.0418 282.625L72.0418 286.167" stroke="#0B4738" stroke-width="1.2" stroke-linecap="round" stroke-linejoin="round"/>
<path d="M80.452 292.252C79.724 292.252 79.0753 292.121 78.506 291.86C77.946 291.599 77.5027 291.235 77.176 290.768C76.8587 290.301 76.7 289.76 76.7 289.144C76.7 288.733 76.7793 288.365 76.938 288.038C77.0967 287.702 77.316 287.413 77.596 287.17C77.876 286.927 78.1933 286.741 78.548 286.61V286.47C78.268 286.349 78.0113 286.185 77.778 285.98C77.554 285.775 77.372 285.532 77.232 285.252C77.1013 284.972 77.036 284.655 77.036 284.3C77.036 283.712 77.19 283.213 77.498 282.802C77.8153 282.391 78.2307 282.079 78.744 281.864C79.2667 281.64 79.836 281.528 80.452 281.528C81.0773 281.528 81.6467 281.64 82.16 281.864C82.6827 282.079 83.098 282.391 83.406 282.802C83.714 283.213 83.868 283.712 83.868 284.3C83.868 284.655 83.8027 284.972 83.672 285.252C83.5413 285.532 83.3593 285.775 83.126 285.98C82.902 286.185 82.6453 286.349 82.356 286.47V286.61C82.72 286.741 83.042 286.932 83.322 287.184C83.602 287.427 83.8213 287.716 83.98 288.052C84.1387 288.379 84.218 288.743 84.218 289.144C84.218 289.76 84.0547 290.301 83.728 290.768C83.4107 291.235 82.9673 291.599 82.398 291.86C81.838 292.121 81.1893 292.252 80.452 292.252ZM80.452 291.104C80.9653 291.104 81.404 291.025 81.768 290.866C82.132 290.698 82.412 290.465 82.608 290.166C82.804 289.858 82.902 289.499 82.902 289.088C82.902 288.677 82.804 288.323 82.608 288.024C82.4213 287.725 82.146 287.497 81.782 287.338C81.418 287.17 80.9747 287.086 80.452 287.086C79.9387 287.086 79.5 287.17 79.136 287.338C78.772 287.497 78.492 287.725 78.296 288.024C78.1093 288.323 78.016 288.677 78.016 289.088C78.016 289.499 78.1093 289.858 78.296 290.166C78.492 290.465 78.772 290.698 79.136 290.866C79.5 291.025 79.9387 291.104 80.452 291.104ZM80.452 286.022C81.0867 286.022 81.5953 285.887 81.978 285.616C82.3607 285.336 82.552 284.911 82.552 284.342C82.552 283.763 82.356 283.343 81.964 283.082C81.5813 282.811 81.0773 282.676 80.452 282.676C79.8267 282.676 79.318 282.811 78.926 283.082C78.5433 283.353 78.352 283.773 78.352 284.342C78.352 284.911 78.5433 285.336 78.926 285.616C79.318 285.887 79.8267 286.022 80.452 286.022ZM90.1221 292.252C89.3567 292.252 88.7034 292.121 88.1621 291.86C87.6301 291.589 87.1961 291.225 86.8601 290.768C86.5334 290.311 86.2954 289.783 86.1461 289.186C85.9967 288.579 85.9221 287.94 85.9221 287.268V286.512C85.9221 285.569 86.0667 284.72 86.3561 283.964C86.6547 283.208 87.1121 282.611 87.7281 282.172C88.3534 281.724 89.1514 281.5 90.1221 281.5C91.0927 281.5 91.8861 281.724 92.5021 282.172C93.1181 282.611 93.5707 283.208 93.8601 283.964C94.1587 284.72 94.3081 285.569 94.3081 286.512V287.268C94.3081 287.94 94.2334 288.579 94.0841 289.186C93.9347 289.783 93.6921 290.311 93.3561 290.768C93.0294 291.225 92.6001 291.589 92.0681 291.86C91.5361 292.121 90.8874 292.252 90.1221 292.252ZM90.1221 291.02C91.0927 291.02 91.8021 290.693 92.2501 290.04C92.7074 289.377 92.9361 288.332 92.9361 286.904C92.9361 285.411 92.7027 284.342 92.2361 283.698C91.7787 283.054 91.0741 282.732 90.1221 282.732C89.1607 282.732 88.4467 283.054 87.9801 283.698C87.5227 284.342 87.2941 285.401 87.2941 286.876C87.2941 288.313 87.5227 289.363 87.9801 290.026C88.4374 290.689 89.1514 291.02 90.1221 291.02Z" fill="#0B4738"/>
<path d="M99.514 292L103.378 281.78H104.442L100.578 292H99.514ZM98.758 287.268C98.226 287.268 97.792 287.147 97.456 286.904C97.1293 286.661 96.8867 286.339 96.728 285.938C96.5787 285.537 96.504 285.103 96.504 284.636V284.272C96.504 283.768 96.5833 283.32 96.742 282.928C96.9007 282.527 97.148 282.214 97.484 281.99C97.82 281.757 98.2447 281.64 98.758 281.64C99.2807 281.64 99.7053 281.757 100.032 281.99C100.368 282.214 100.615 282.527 100.774 282.928C100.933 283.32 101.012 283.768 101.012 284.272V284.636C101.012 285.103 100.933 285.537 100.774 285.938C100.625 286.339 100.387 286.661 100.06 286.904C99.7333 287.147 99.2993 287.268 98.758 287.268ZM98.758 286.344C99.1873 286.344 99.5047 286.19 99.71 285.882C99.9247 285.565 100.032 285.093 100.032 284.468C100.032 283.805 99.9247 283.325 99.71 283.026C99.4953 282.718 99.178 282.564 98.758 282.564C98.338 282.564 98.0207 282.718 97.806 283.026C97.5913 283.325 97.484 283.801 97.484 284.454C97.484 285.079 97.5867 285.551 97.792 285.868C98.0067 286.185 98.3287 286.344 98.758 286.344ZM105.142 292.14C104.61 292.14 104.176 292.019 103.84 291.776C103.513 291.533 103.271 291.211 103.112 290.81C102.963 290.409 102.888 289.975 102.888 289.508V289.144C102.888 288.64 102.967 288.192 103.126 287.8C103.285 287.399 103.532 287.086 103.868 286.862C104.204 286.629 104.629 286.512 105.142 286.512C105.665 286.512 106.089 286.629 106.416 286.862C106.752 287.086 106.999 287.399 107.158 287.8C107.317 288.192 107.396 288.64 107.396 289.144V289.508C107.396 289.975 107.317 290.409 107.158 290.81C107.009 291.211 106.771 291.533 106.444 291.776C106.117 292.019 105.683 292.14 105.142 292.14ZM105.142 291.216C105.571 291.216 105.889 291.062 106.094 290.754C106.309 290.437 106.416 289.965 106.416 289.34C106.416 288.677 106.309 288.197 106.094 287.898C105.879 287.59 105.562 287.436 105.142 287.436C104.722 287.436 104.405 287.59 104.19 287.898C103.975 288.197 103.868 288.673 103.868 289.326C103.868 289.951 103.971 290.423 104.176 290.74C104.391 291.057 104.713 291.216 105.142 291.216Z" fill="#0B4738"/>
<rect x="276" y="277" width="16" height="16" rx="4" fill="#0B4738"/>
<path fill-rule="evenodd" clip-rule="evenodd" d="M282.607 286.498L281.138 285.176C280.878 284.941 280.456 284.941 280.195 285.176C279.935 285.41 279.935 285.79 280.195 286.024L282.195 287.824C282.478 288.079 282.944 288.054 283.191 287.771L287.858 282.971C288.085 282.71 288.035 282.333 287.745 282.128C287.456 281.924 287.037 281.969 286.809 282.229L282.607 286.498Z" fill="white"/>
<rect x="40.5" y="321.5" width="269" height="88" rx="7.5" fill="white"/>
<rect x="40.5" y="321.5" width="269" height="88" rx="7.5" stroke="#D0E4DF"/>
<path d="M57.26 352V341.71H59.248V352H57.26ZM63.504 352L60.368 347.548H62.594L65.828 352H63.504ZM58.66 348.584V346.974H61.264C61.628 346.974 61.9407 346.899 62.202 346.75C62.4727 346.601 62.6827 346.391 62.832 346.12C62.9813 345.849 63.056 345.541 63.056 345.196C63.056 344.841 62.9813 344.529 62.832 344.258C62.6827 343.987 62.4727 343.777 62.202 343.628C61.9407 343.479 61.628 343.404 61.264 343.404H58.66V341.71H61.054C61.8753 341.71 62.5847 341.831 63.182 342.074C63.7887 342.317 64.2553 342.685 64.582 343.18C64.9087 343.675 65.072 344.295 65.072 345.042V345.266C65.072 346.022 64.904 346.643 64.568 347.128C64.2413 347.613 63.7793 347.977 63.182 348.22C62.5847 348.463 61.8753 348.584 61.054 348.584H58.66ZM70.4475 352.266C69.7941 352.266 69.2201 352.154 68.7255 351.93C68.2401 351.706 67.8341 351.407 67.5075 351.034C67.1901 350.651 66.9475 350.227 66.7795 349.76C66.6208 349.293 66.5415 348.817 66.5415 348.332V348.066C66.5415 347.562 66.6208 347.077 66.7795 346.61C66.9475 346.134 67.1901 345.714 67.5075 345.35C67.8341 344.977 68.2355 344.683 68.7115 344.468C69.1875 344.244 69.7381 344.132 70.3635 344.132C71.1848 344.132 71.8708 344.314 72.4215 344.678C72.9815 345.033 73.4015 345.504 73.6815 346.092C73.9615 346.671 74.1015 347.296 74.1015 347.968V348.668H67.3675V347.478H72.8835L72.2815 348.066C72.2815 347.581 72.2115 347.165 72.0715 346.82C71.9315 346.475 71.7168 346.209 71.4275 346.022C71.1475 345.835 70.7928 345.742 70.3635 345.742C69.9341 345.742 69.5701 345.84 69.2715 346.036C68.9728 346.232 68.7441 346.517 68.5855 346.89C68.4361 347.254 68.3615 347.693 68.3615 348.206C68.3615 348.682 68.4361 349.107 68.5855 349.48C68.7348 349.844 68.9635 350.133 69.2715 350.348C69.5795 350.553 69.9715 350.656 70.4475 350.656C70.9235 350.656 71.3108 350.563 71.6095 350.376C71.9081 350.18 72.0995 349.942 72.1835 349.662H73.9755C73.8635 350.185 73.6488 350.642 73.3315 351.034C73.0141 351.426 72.6081 351.729 72.1135 351.944C71.6281 352.159 71.0728 352.266 70.4475 352.266ZM75.7271 354.8V344.398H77.2671V347.674L77.0291 347.66C77.0664 346.885 77.2251 346.237 77.5051 345.714C77.7944 345.191 78.1771 344.804 78.6531 344.552C79.1291 344.291 79.6611 344.16 80.2491 344.16C80.7904 344.16 81.2758 344.258 81.7051 344.454C82.1438 344.65 82.5171 344.925 82.8251 345.28C83.1424 345.635 83.3851 346.05 83.5531 346.526C83.7211 346.993 83.8051 347.497 83.8051 348.038V348.332C83.8051 348.883 83.7211 349.396 83.5531 349.872C83.3944 350.339 83.1564 350.754 82.8391 351.118C82.5311 351.473 82.1578 351.753 81.7191 351.958C81.2804 352.154 80.7904 352.252 80.2491 352.252C79.6798 352.252 79.1571 352.135 78.6811 351.902C78.2144 351.659 77.8364 351.291 77.5471 350.796C77.2578 350.292 77.0944 349.643 77.0571 348.85L77.6731 349.788V354.8H75.7271ZM79.7591 350.614C80.1791 350.614 80.5431 350.511 80.8511 350.306C81.1684 350.101 81.4158 349.816 81.5931 349.452C81.7704 349.079 81.8591 348.659 81.8591 348.192C81.8591 347.707 81.7704 347.287 81.5931 346.932C81.4158 346.577 81.1684 346.302 80.8511 346.106C80.5431 345.901 80.1791 345.798 79.7591 345.798C79.3764 345.798 79.0218 345.882 78.6951 346.05C78.3778 346.218 78.1164 346.465 77.9111 346.792C77.7151 347.119 77.6171 347.511 77.6171 347.968V348.528C77.6171 348.967 77.7198 349.34 77.9251 349.648C78.1304 349.956 78.3964 350.194 78.7231 350.362C79.0498 350.53 79.3951 350.614 79.7591 350.614ZM88.9182 352.266C88.2648 352.266 87.6908 352.154 87.1962 351.93C86.7108 351.706 86.3048 351.407 85.9782 351.034C85.6608 350.651 85.4182 350.227 85.2502 349.76C85.0915 349.293 85.0122 348.817 85.0122 348.332V348.066C85.0122 347.562 85.0915 347.077 85.2502 346.61C85.4182 346.134 85.6608 345.714 85.9782 345.35C86.3048 344.977 86.7062 344.683 87.1822 344.468C87.6582 344.244 88.2088 344.132 88.8342 344.132C89.6555 344.132 90.3415 344.314 90.8922 344.678C91.4522 345.033 91.8722 345.504 92.1522 346.092C92.4322 346.671 92.5722 347.296 92.5722 347.968V348.668H85.8382V347.478H91.3542L90.7522 348.066C90.7522 347.581 90.6822 347.165 90.5422 346.82C90.4022 346.475 90.1875 346.209 89.8982 346.022C89.6182 345.835 89.2635 345.742 88.8342 345.742C88.4048 345.742 88.0408 345.84 87.7422 346.036C87.4435 346.232 87.2148 346.517 87.0562 346.89C86.9068 347.254 86.8322 347.693 86.8322 348.206C86.8322 348.682 86.9068 349.107 87.0562 349.48C87.2055 349.844 87.4342 350.133 87.7422 350.348C88.0502 350.553 88.4422 350.656 88.9182 350.656C89.3942 350.656 89.7815 350.563 90.0802 350.376C90.3788 350.18 90.5702 349.942 90.6542 349.662H92.4462C92.3342 350.185 92.1195 350.642 91.8022 351.034C91.4848 351.426 91.0788 351.729 90.5842 351.944C90.0988 352.159 89.5435 352.266 88.9182 352.266ZM98.8038 352V349.746H98.4818V347.24C98.4818 346.801 98.3745 346.475 98.1598 346.26C97.9451 346.045 97.6138 345.938 97.1658 345.938C96.9325 345.938 96.6525 345.943 96.3258 345.952C95.9991 345.961 95.6678 345.975 95.3318 345.994C95.0051 346.003 94.7111 346.017 94.4498 346.036V344.384C94.6645 344.365 94.9071 344.347 95.1778 344.328C95.4485 344.309 95.7238 344.3 96.0038 344.3C96.2931 344.291 96.5638 344.286 96.8158 344.286C97.5998 344.286 98.2485 344.389 98.7618 344.594C99.2845 344.799 99.6765 345.121 99.9378 345.56C100.208 345.999 100.344 346.573 100.344 347.282V352H98.8038ZM96.3538 352.196C95.8031 352.196 95.3178 352.098 94.8978 351.902C94.4871 351.706 94.1651 351.426 93.9318 351.062C93.7078 350.698 93.5958 350.259 93.5958 349.746C93.5958 349.186 93.7311 348.729 94.0018 348.374C94.2818 348.019 94.6691 347.753 95.1638 347.576C95.6678 347.399 96.2558 347.31 96.9278 347.31H98.6918V348.472H96.8998C96.4518 348.472 96.1065 348.584 95.8638 348.808C95.6305 349.023 95.5138 349.303 95.5138 349.648C95.5138 349.993 95.6305 350.273 95.8638 350.488C96.1065 350.703 96.4518 350.81 96.8998 350.81C97.1705 350.81 97.4178 350.763 97.6418 350.67C97.8751 350.567 98.0665 350.399 98.2158 350.166C98.3745 349.923 98.4631 349.597 98.4818 349.186L98.9578 349.732C98.9111 350.264 98.7805 350.712 98.5658 351.076C98.3605 351.44 98.0711 351.72 97.6978 351.916C97.3338 352.103 96.8858 352.196 96.3538 352.196ZM105.732 352.098C105.032 352.098 104.454 352.009 103.996 351.832C103.548 351.645 103.212 351.337 102.988 350.908C102.764 350.469 102.652 349.881 102.652 349.144L102.666 342.256H104.486L104.472 349.27C104.472 349.643 104.57 349.933 104.766 350.138C104.972 350.334 105.261 350.432 105.634 350.432H106.824V352.098H105.732ZM101.448 345.826V344.398H106.824V345.826H101.448ZM113.341 348.864V347.142H115.329C115.73 347.142 116.066 347.063 116.337 346.904C116.617 346.745 116.827 346.526 116.967 346.246C117.116 345.966 117.191 345.644 117.191 345.28C117.191 344.916 117.116 344.594 116.967 344.314C116.827 344.034 116.617 343.819 116.337 343.67C116.066 343.511 115.73 343.432 115.329 343.432H113.341V341.71H115.161C116.02 341.71 116.748 341.85 117.345 342.13C117.952 342.41 118.414 342.811 118.731 343.334C119.048 343.847 119.207 344.459 119.207 345.168V345.392C119.207 346.101 119.048 346.717 118.731 347.24C118.414 347.753 117.952 348.155 117.345 348.444C116.748 348.724 116.02 348.864 115.161 348.864H113.341ZM111.633 352V341.71H113.621V352H111.633ZM123.284 352.238C122.407 352.238 121.725 351.949 121.24 351.37C120.764 350.791 120.526 349.933 120.526 348.794V344.384H122.472V348.962C122.472 349.429 122.603 349.802 122.864 350.082C123.125 350.353 123.48 350.488 123.928 350.488C124.376 350.488 124.74 350.343 125.02 350.054C125.309 349.765 125.454 349.373 125.454 348.878V344.384H127.4V352H125.86V348.766H126.014C126.014 349.531 125.916 350.171 125.72 350.684C125.524 351.197 125.23 351.585 124.838 351.846C124.446 352.107 123.956 352.238 123.368 352.238H123.284ZM129.635 352V344.398H131.175V347.618H131.133C131.133 346.526 131.367 345.7 131.833 345.14C132.3 344.58 132.986 344.3 133.891 344.3H134.171V345.994H133.639C132.986 345.994 132.477 346.171 132.113 346.526C131.759 346.871 131.581 347.375 131.581 348.038V352H129.635ZM138.793 352.266C138.13 352.266 137.556 352.154 137.071 351.93C136.595 351.706 136.193 351.407 135.867 351.034C135.549 350.661 135.311 350.241 135.153 349.774C134.994 349.307 134.915 348.831 134.915 348.346V348.08C134.915 347.567 134.994 347.077 135.153 346.61C135.321 346.134 135.568 345.714 135.895 345.35C136.221 344.977 136.623 344.683 137.099 344.468C137.584 344.244 138.144 344.132 138.779 344.132C139.441 344.132 140.034 344.263 140.557 344.524C141.079 344.776 141.495 345.131 141.803 345.588C142.12 346.045 142.297 346.577 142.335 347.184H140.445C140.398 346.792 140.23 346.465 139.941 346.204C139.661 345.943 139.273 345.812 138.779 345.812C138.349 345.812 137.99 345.915 137.701 346.12C137.421 346.325 137.211 346.61 137.071 346.974C136.931 347.329 136.861 347.739 136.861 348.206C136.861 348.654 136.926 349.06 137.057 349.424C137.197 349.788 137.407 350.073 137.687 350.278C137.976 350.483 138.345 350.586 138.793 350.586C139.129 350.586 139.418 350.525 139.661 350.404C139.903 350.283 140.095 350.115 140.235 349.9C140.384 349.685 140.477 349.443 140.515 349.172H142.405C142.367 349.788 142.185 350.329 141.859 350.796C141.541 351.253 141.117 351.613 140.585 351.874C140.062 352.135 139.465 352.266 138.793 352.266ZM143.963 352V341.78H145.909V347.744H145.573C145.573 346.979 145.671 346.33 145.867 345.798C146.063 345.266 146.353 344.86 146.735 344.58C147.127 344.3 147.622 344.16 148.219 344.16H148.303C149.171 344.16 149.829 344.459 150.277 345.056C150.725 345.653 150.949 346.521 150.949 347.66V352H149.003V347.478C149.003 346.993 148.863 346.61 148.583 346.33C148.313 346.05 147.953 345.91 147.505 345.91C147.029 345.91 146.642 346.069 146.343 346.386C146.054 346.694 145.909 347.1 145.909 347.604V352H143.963ZM157.648 352V349.746H157.326V347.24C157.326 346.801 157.218 346.475 157.004 346.26C156.789 346.045 156.458 345.938 156.01 345.938C155.776 345.938 155.496 345.943 155.17 345.952C154.843 345.961 154.512 345.975 154.176 345.994C153.849 346.003 153.555 346.017 153.294 346.036V344.384C153.508 344.365 153.751 344.347 154.022 344.328C154.292 344.309 154.568 344.3 154.848 344.3C155.137 344.291 155.408 344.286 155.66 344.286C156.444 344.286 157.092 344.389 157.606 344.594C158.128 344.799 158.52 345.121 158.782 345.56C159.052 345.999 159.188 346.573 159.188 347.282V352H157.648ZM155.198 352.196C154.647 352.196 154.162 352.098 153.742 351.902C153.331 351.706 153.009 351.426 152.776 351.062C152.552 350.698 152.44 350.259 152.44 349.746C152.44 349.186 152.575 348.729 152.846 348.374C153.126 348.019 153.513 347.753 154.008 347.576C154.512 347.399 155.1 347.31 155.772 347.31H157.536V348.472H155.744C155.296 348.472 154.95 348.584 154.708 348.808C154.474 349.023 154.358 349.303 154.358 349.648C154.358 349.993 154.474 350.273 154.708 350.488C154.95 350.703 155.296 350.81 155.744 350.81C156.014 350.81 156.262 350.763 156.486 350.67C156.719 350.567 156.91 350.399 157.06 350.166C157.218 349.923 157.307 349.597 157.326 349.186L157.802 349.732C157.755 350.264 157.624 350.712 157.41 351.076C157.204 351.44 156.915 351.72 156.542 351.916C156.178 352.103 155.73 352.196 155.198 352.196ZM164.03 352.238C162.985 352.238 162.163 352.019 161.566 351.58C160.978 351.132 160.67 350.516 160.642 349.732H162.392C162.42 349.993 162.565 350.231 162.826 350.446C163.087 350.661 163.498 350.768 164.058 350.768C164.525 350.768 164.893 350.684 165.164 350.516C165.444 350.348 165.584 350.119 165.584 349.83C165.584 349.578 165.477 349.377 165.262 349.228C165.057 349.079 164.702 348.981 164.198 348.934L163.526 348.864C162.677 348.771 162.023 348.528 161.566 348.136C161.109 347.744 160.88 347.221 160.88 346.568C160.88 346.045 161.011 345.607 161.272 345.252C161.533 344.897 161.893 344.631 162.35 344.454C162.817 344.267 163.349 344.174 163.946 344.174C164.879 344.174 165.635 344.379 166.214 344.79C166.793 345.201 167.096 345.803 167.124 346.596H165.374C165.355 346.335 165.225 346.111 164.982 345.924C164.739 345.737 164.389 345.644 163.932 345.644C163.521 345.644 163.204 345.723 162.98 345.882C162.756 346.041 162.644 346.246 162.644 346.498C162.644 346.741 162.733 346.927 162.91 347.058C163.097 347.189 163.395 347.277 163.806 347.324L164.478 347.394C165.374 347.487 166.074 347.735 166.578 348.136C167.091 348.537 167.348 349.079 167.348 349.76C167.348 350.264 167.208 350.703 166.928 351.076C166.657 351.44 166.275 351.725 165.78 351.93C165.285 352.135 164.702 352.238 164.03 352.238ZM172.358 352.266C171.704 352.266 171.13 352.154 170.636 351.93C170.15 351.706 169.744 351.407 169.418 351.034C169.1 350.651 168.858 350.227 168.69 349.76C168.531 349.293 168.452 348.817 168.452 348.332V348.066C168.452 347.562 168.531 347.077 168.69 346.61C168.858 346.134 169.1 345.714 169.418 345.35C169.744 344.977 170.146 344.683 170.622 344.468C171.098 344.244 171.648 344.132 172.274 344.132C173.095 344.132 173.781 344.314 174.332 344.678C174.892 345.033 175.312 345.504 175.592 346.092C175.872 346.671 176.012 347.296 176.012 347.968V348.668H169.278V347.478H174.794L174.192 348.066C174.192 347.581 174.122 347.165 173.982 346.82C173.842 346.475 173.627 346.209 173.338 346.022C173.058 345.835 172.703 345.742 172.274 345.742C171.844 345.742 171.48 345.84 171.182 346.036C170.883 346.232 170.654 346.517 170.496 346.89C170.346 347.254 170.272 347.693 170.272 348.206C170.272 348.682 170.346 349.107 170.496 349.48C170.645 349.844 170.874 350.133 171.182 350.348C171.49 350.553 171.882 350.656 172.358 350.656C172.834 350.656 173.221 350.563 173.52 350.376C173.818 350.18 174.01 349.942 174.094 349.662H175.886C175.774 350.185 175.559 350.642 175.242 351.034C174.924 351.426 174.518 351.729 174.024 351.944C173.538 352.159 172.983 352.266 172.358 352.266Z" fill="#0B4738"/>
<path d="M72.0418 388.375L66.8335 383.167L65.1668 384.833L60.5835 380.25M72.0418 388.375H68.5002M72.0418 388.375L72.0418 384.833" stroke="#0B4738" stroke-width="1.2" stroke-linecap="round" stroke-linejoin="round"/>
<path d="M76.672 386.578V384.926L80.914 378.528L81.852 379.27L77.89 385.262L78.016 385.514H84.624V386.578H76.672ZM82.006 389V381.762H83.266V389H82.006ZM89.4344 389.252C88.7064 389.252 88.0578 389.121 87.4884 388.86C86.9284 388.599 86.4851 388.235 86.1584 387.768C85.8411 387.301 85.6824 386.76 85.6824 386.144C85.6824 385.733 85.7618 385.365 85.9204 385.038C86.0791 384.702 86.2984 384.413 86.5784 384.17C86.8584 383.927 87.1758 383.741 87.5304 383.61V383.47C87.2504 383.349 86.9938 383.185 86.7604 382.98C86.5364 382.775 86.3544 382.532 86.2144 382.252C86.0838 381.972 86.0184 381.655 86.0184 381.3C86.0184 380.712 86.1724 380.213 86.4804 379.802C86.7978 379.391 87.2131 379.079 87.7264 378.864C88.2491 378.64 88.8184 378.528 89.4344 378.528C90.0598 378.528 90.6291 378.64 91.1424 378.864C91.6651 379.079 92.0804 379.391 92.3884 379.802C92.6964 380.213 92.8504 380.712 92.8504 381.3C92.8504 381.655 92.7851 381.972 92.6544 382.252C92.5238 382.532 92.3418 382.775 92.1084 382.98C91.8844 383.185 91.6278 383.349 91.3384 383.47V383.61C91.7024 383.741 92.0244 383.932 92.3044 384.184C92.5844 384.427 92.8038 384.716 92.9624 385.052C93.1211 385.379 93.2004 385.743 93.2004 386.144C93.2004 386.76 93.0371 387.301 92.7104 387.768C92.3931 388.235 91.9498 388.599 91.3804 388.86C90.8204 389.121 90.1718 389.252 89.4344 389.252ZM89.4344 388.104C89.9478 388.104 90.3864 388.025 90.7504 387.866C91.1144 387.698 91.3944 387.465 91.5904 387.166C91.7864 386.858 91.8844 386.499 91.8844 386.088C91.8844 385.677 91.7864 385.323 91.5904 385.024C91.4038 384.725 91.1284 384.497 90.7644 384.338C90.4004 384.17 89.9571 384.086 89.4344 384.086C88.9211 384.086 88.4824 384.17 88.1184 384.338C87.7544 384.497 87.4744 384.725 87.2784 385.024C87.0918 385.323 86.9984 385.677 86.9984 386.088C86.9984 386.499 87.0918 386.858 87.2784 387.166C87.4744 387.465 87.7544 387.698 88.1184 387.866C88.4824 388.025 88.9211 388.104 89.4344 388.104ZM89.4344 383.022C90.0691 383.022 90.5778 382.887 90.9604 382.616C91.3431 382.336 91.5344 381.911 91.5344 381.342C91.5344 380.763 91.3384 380.343 90.9464 380.082C90.5638 379.811 90.0598 379.676 89.4344 379.676C88.8091 379.676 88.3004 379.811 87.9084 380.082C87.5258 380.353 87.3344 380.773 87.3344 381.342C87.3344 381.911 87.5258 382.336 87.9084 382.616C88.3004 382.887 88.8091 383.022 89.4344 383.022Z" fill="#0B4738"/>
<path d="M97.514 389L101.378 378.78H102.442L98.578 389H97.514ZM96.758 384.268C96.226 384.268 95.792 384.147 95.456 383.904C95.1293 383.661 94.8867 383.339 94.728 382.938C94.5787 382.537 94.504 382.103 94.504 381.636V381.272C94.504 380.768 94.5833 380.32 94.742 379.928C94.9007 379.527 95.148 379.214 95.484 378.99C95.82 378.757 96.2447 378.64 96.758 378.64C97.2807 378.64 97.7053 378.757 98.032 378.99C98.368 379.214 98.6153 379.527 98.774 379.928C98.9327 380.32 99.012 380.768 99.012 381.272V381.636C99.012 382.103 98.9327 382.537 98.774 382.938C98.6247 383.339 98.3867 383.661 98.06 383.904C97.7333 384.147 97.2993 384.268 96.758 384.268ZM96.758 383.344C97.1873 383.344 97.5047 383.19 97.71 382.882C97.9247 382.565 98.032 382.093 98.032 381.468C98.032 380.805 97.9247 380.325 97.71 380.026C97.4953 379.718 97.178 379.564 96.758 379.564C96.338 379.564 96.0207 379.718 95.806 380.026C95.5913 380.325 95.484 380.801 95.484 381.454C95.484 382.079 95.5867 382.551 95.792 382.868C96.0067 383.185 96.3287 383.344 96.758 383.344ZM103.142 389.14C102.61 389.14 102.176 389.019 101.84 388.776C101.513 388.533 101.271 388.211 101.112 387.81C100.963 387.409 100.888 386.975 100.888 386.508V386.144C100.888 385.64 100.967 385.192 101.126 384.8C101.285 384.399 101.532 384.086 101.868 383.862C102.204 383.629 102.629 383.512 103.142 383.512C103.665 383.512 104.089 383.629 104.416 383.862C104.752 384.086 104.999 384.399 105.158 384.8C105.317 385.192 105.396 385.64 105.396 386.144V386.508C105.396 386.975 105.317 387.409 105.158 387.81C105.009 388.211 104.771 388.533 104.444 388.776C104.117 389.019 103.683 389.14 103.142 389.14ZM103.142 388.216C103.571 388.216 103.889 388.062 104.094 387.754C104.309 387.437 104.416 386.965 104.416 386.34C104.416 385.677 104.309 385.197 104.094 384.898C103.879 384.59 103.562 384.436 103.142 384.436C102.722 384.436 102.405 384.59 102.19 384.898C101.975 385.197 101.868 385.673 101.868 386.326C101.868 386.951 101.971 387.423 102.176 387.74C102.391 388.057 102.713 388.216 103.142 388.216Z" fill="#0B4738"/>
</g>
<defs>
<clipPath id="clip0_502_25214">
<rect x="24" y="180" width="302" height="246" rx="8" fill="white"/>
</clipPath>
<clipPath id="clip1_502_25214">
<rect width="270" height="186" fill="white" transform="translate(40 224)"/>
</clipPath>
</defs>
</svg>
