<svg width="44" height="44" viewBox="0 0 44 44" fill="none" xmlns="http://www.w3.org/2000/svg">
<rect x="0.5" y="0.5" width="43" height="43" rx="21.5" stroke="#5E6678"/>
<g clip-path="url(#clip0_359_10828)">
<path d="M15 23H26.86L23.23 27.36C23.146 27.4611 23.0826 27.5778 23.0437 27.7034C23.0047 27.829 22.9909 27.961 23.003 28.0919C23.0274 28.3564 23.1558 28.6003 23.36 28.77C23.5642 28.9397 23.8275 29.0214 24.0919 28.997C24.3563 28.9726 24.6003 28.8442 24.77 28.64L29.77 22.64C29.8036 22.5923 29.8337 22.5421 29.86 22.49C29.86 22.44 29.91 22.41 29.93 22.36C29.9753 22.2453 29.9991 22.1233 30 22C29.9991 21.8767 29.9753 21.7547 29.93 21.64C29.93 21.59 29.88 21.56 29.86 21.51C29.8337 21.4579 29.8036 21.4077 29.77 21.36L24.77 15.36C24.676 15.2471 24.5582 15.1563 24.4252 15.0941C24.2921 15.0319 24.1469 14.9998 24 15C23.7663 14.9995 23.5399 15.0809 23.36 15.23C23.2587 15.314 23.175 15.4171 23.1137 15.5334C23.0523 15.6497 23.0145 15.7771 23.0025 15.908C22.9904 16.039 23.0043 16.1711 23.0433 16.2967C23.0824 16.4223 23.1458 16.539 23.23 16.64L26.86 21H15C14.7348 21 14.4804 21.1054 14.2929 21.2929C14.1054 21.4804 14 21.7348 14 22C14 22.2652 14.1054 22.5196 14.2929 22.7071C14.4804 22.8946 14.7348 23 15 23Z" fill="#1A2339"/>
</g>
<defs>
<clipPath id="clip0_359_10828">
<rect width="24" height="24" fill="white" transform="translate(10 10)"/>
</clipPath>
</defs>
</svg>
