<svg width="503" height="200" viewBox="0 0 503 200" fill="none" xmlns="http://www.w3.org/2000/svg">
<g filter="url(#filter0_i_382_8736)">
<path d="M0 16C0 7.16344 7.16344 0 16 0H486.667C495.503 0 502.667 7.16344 502.667 16V200H0V16Z" fill="url(#paint0_linear_382_8736)" fill-opacity="0.3"/>
<g clip-path="url(#clip0_382_8736)">
<path d="M217.582 112.64L219.777 107.492C222.18 109.278 225.315 110.223 228.45 110.223C230.749 110.223 232.212 109.331 232.212 107.965C232.16 104.184 218.365 107.125 218.261 97.6169C218.208 92.7848 222.493 89.0556 228.555 89.0556C232.16 89.0556 235.766 89.9488 238.326 91.9976L236.275 97.2545C233.919 95.735 231.01 94.6757 228.241 94.6757C226.36 94.6757 225.106 95.5681 225.106 96.7245C225.158 100.454 239.058 98.4049 239.214 107.492C239.214 112.43 235.034 115.897 229.077 115.897C224.688 115.897 220.665 114.846 217.581 112.64H217.582ZM304.982 105.629C304.428 106.616 303.622 107.438 302.647 108.01C301.672 108.583 300.563 108.884 299.433 108.884C295.912 108.884 293.059 106.015 293.059 102.476C293.059 98.9372 295.912 96.0681 299.433 96.0681C300.563 96.0682 301.672 96.3697 302.647 96.9418C303.622 97.5139 304.428 98.3359 304.982 99.3236L311.085 95.9252C308.799 91.8269 304.439 89.0556 299.433 89.0556C292.06 89.0556 286.083 95.0636 286.083 102.476C286.083 109.888 292.06 115.897 299.433 115.897C304.439 115.897 308.799 113.125 311.085 109.027L304.982 105.629ZM243.174 115.371H250.803V77.8838H243.175L243.174 115.371ZM314.937 77.8838V115.371H322.566V104.14L331.606 115.371H341.357L329.862 102.029L340.521 89.5789H331.188L322.566 99.9296V77.8838H314.937ZM274.307 89.5804V92.6276C273.053 90.5262 269.97 89.0556 266.73 89.0556C260.042 89.0556 254.764 94.9914 254.764 102.45C254.764 109.908 260.042 115.897 266.73 115.897C269.97 115.897 273.053 114.426 274.307 112.325V115.371H281.935V89.5804H274.307ZM274.307 105.681C273.209 107.519 270.91 108.883 268.35 108.883C264.829 108.883 261.975 106.015 261.975 102.476C261.975 98.9372 264.829 96.0681 268.35 96.0681C270.91 96.0681 273.209 97.4861 274.307 99.3762V105.681Z" fill="#1A2339"/>
<path d="M177.293 77.0557C174.821 77.0557 172.817 79.0706 172.817 81.5555C172.816 82.1458 172.932 82.7305 173.156 83.2761C173.381 83.8218 173.711 84.3177 174.126 84.7355C174.542 85.1533 175.035 85.485 175.579 85.7114C176.122 85.9379 176.705 86.0547 177.293 86.0553H181.77V81.5555C181.771 80.3632 181.3 79.2193 180.46 78.3755C179.621 77.5316 178.482 77.0569 177.293 77.0557ZM177.293 89.0552H165.356C162.884 89.0552 160.88 91.0702 160.88 93.5558C160.88 96.0407 162.884 98.0557 165.356 98.0557H177.294C179.765 98.0557 181.77 96.0407 181.77 93.5558C181.77 91.0702 179.765 89.0552 177.293 89.0552Z" fill="#1A2339"/>
<path d="M205.645 93.5558C205.645 91.0702 203.64 89.0552 201.168 89.0552C198.695 89.0552 196.692 91.0702 196.692 93.5558V98.0557H201.168C202.356 98.0545 203.495 97.5797 204.335 96.7359C205.175 95.892 205.646 94.7481 205.645 93.5558ZM193.707 93.5558V81.5555C193.708 80.3632 193.237 79.2193 192.398 78.3755C191.558 77.5316 190.419 77.0569 189.231 77.0557C186.758 77.0557 184.754 79.0706 184.754 81.5555V93.5551C184.754 96.0414 186.758 98.0564 189.231 98.0564C190.419 98.0552 191.558 97.5805 192.398 96.7366C193.237 95.8927 193.708 94.7489 193.707 93.5566" fill="#1A2339"/>
<path d="M189.231 122.056C190.419 122.054 191.558 121.58 192.398 120.736C193.238 119.892 193.709 118.748 193.708 117.556C193.709 116.364 193.238 115.22 192.398 114.376C191.558 113.532 190.419 113.057 189.231 113.056H184.755V117.556C184.755 120.041 186.759 122.056 189.231 122.056ZM189.231 110.056H201.169C203.64 110.056 205.645 108.041 205.645 105.556C205.646 104.363 205.175 103.219 204.335 102.375C203.496 101.532 202.356 101.057 201.168 101.056H189.231C186.759 101.056 184.755 103.071 184.755 105.556C184.754 106.146 184.869 106.731 185.094 107.276C185.319 107.822 185.648 108.318 186.064 108.735C186.479 109.153 186.973 109.485 187.516 109.711C188.06 109.938 188.642 110.055 189.231 110.055" fill="#1A2339"/>
<path d="M160.88 105.556C160.879 106.146 160.994 106.731 161.219 107.276C161.444 107.822 161.773 108.318 162.189 108.735C162.604 109.153 163.098 109.485 163.641 109.711C164.185 109.938 164.767 110.055 165.356 110.055C166.544 110.054 167.683 109.579 168.523 108.736C169.363 107.892 169.834 106.748 169.833 105.556V101.056H165.356C162.884 101.056 160.88 103.071 160.88 105.556ZM172.817 105.556V117.555C172.817 120.041 174.821 122.056 177.293 122.056C178.481 122.054 179.621 121.58 180.46 120.736C181.3 119.892 181.771 118.748 181.77 117.556V105.556C181.77 104.965 181.655 104.38 181.43 103.835C181.206 103.289 180.876 102.793 180.46 102.375C180.045 101.957 179.551 101.626 179.008 101.399C178.464 101.173 177.881 101.056 177.293 101.056C174.821 101.056 172.817 103.071 172.817 105.556Z" fill="#1A2339"/>
</g>
</g>
<defs>
<filter id="filter0_i_382_8736" x="0" y="0" width="502.667" height="204" filterUnits="userSpaceOnUse" color-interpolation-filters="sRGB">
<feFlood flood-opacity="0" result="BackgroundImageFix"/>
<feBlend mode="normal" in="SourceGraphic" in2="BackgroundImageFix" result="shape"/>
<feColorMatrix in="SourceAlpha" type="matrix" values="0 0 0 0 0 0 0 0 0 0 0 0 0 0 0 0 0 0 127 0" result="hardAlpha"/>
<feOffset dy="4"/>
<feGaussianBlur stdDeviation="25"/>
<feComposite in2="hardAlpha" operator="arithmetic" k2="-1" k3="1"/>
<feColorMatrix type="matrix" values="0 0 0 0 0.890932 0 0 0 0 0.798744 0 0 0 0 1 0 0 0 0.4 0"/>
<feBlend mode="normal" in2="shape" result="effect1_innerShadow_382_8736"/>
</filter>
<linearGradient id="paint0_linear_382_8736" x1="251.333" y1="0" x2="251.333" y2="200" gradientUnits="userSpaceOnUse">
<stop stop-color="#8542C3" stop-opacity="0.17"/>
<stop offset="1" stop-color="#E6D1E0" stop-opacity="0.82985"/>
</linearGradient>
<clipPath id="clip0_382_8736">
<rect width="180.908" height="72" fill="white" transform="translate(160.88 64)"/>
</clipPath>
</defs>
</svg>
