<svg width="216" height="200" viewBox="0 0 216 200" fill="none" xmlns="http://www.w3.org/2000/svg">
<g filter="url(#filter0_i_382_8755)">
<path d="M0.333008 16C0.333008 7.16344 7.49645 0 16.333 0H487C495.836 0 503 7.16344 503 16V200H0.333008V16Z" fill="url(#paint0_linear_382_8755)" fill-opacity="0.3"/>
<g clip-path="url(#clip0_382_8755)">
<path d="M131.934 106.513C132.05 106.707 132.091 106.938 132.047 107.16C131.634 109.032 130.63 110.721 129.183 111.98C129.104 112.04 129.037 112.115 128.987 112.201C128.969 112.24 128.959 112.283 128.959 112.326C128.959 112.369 128.969 112.412 128.987 112.451C129.016 112.485 129.052 112.511 129.093 112.528C129.134 112.545 129.178 112.552 129.222 112.549C129.432 112.493 129.634 112.414 129.826 112.314C130.675 111.832 131.425 111.195 132.037 110.436C132.405 109.99 132.768 109.543 133.117 109.082C133.774 108.172 134.26 107.15 134.551 106.067C134.817 105.189 135.043 104.301 135.318 103.424C135.43 103.102 135.566 102.789 135.725 102.487C135.789 102.394 135.863 102.309 135.946 102.232H136.015C136.084 102.463 136.167 102.683 136.216 102.919C136.345 103.659 136.363 104.414 136.271 105.16C136.169 106.13 135.969 107.088 135.676 108.018C135.471 108.59 135.194 109.134 134.851 109.636C133.99 111.053 132.974 112.368 131.821 113.559C130.971 114.378 130.052 115.123 129.075 115.785C129.004 115.822 128.939 115.87 128.884 115.928C128.826 115.996 128.797 116.084 128.8 116.173C128.821 116.213 128.85 116.247 128.887 116.272C128.924 116.298 128.967 116.314 129.011 116.32C129.217 116.319 129.421 116.292 129.62 116.241C130.528 115.98 131.376 115.547 132.12 114.966C134.2 113.435 135.89 111.436 137.051 109.131C137.792 107.628 138.271 106.009 138.471 104.346C138.59 103.295 138.602 102.236 138.505 101.183C138.421 100.644 138.438 100.093 138.554 99.5599C138.585 99.4377 138.63 99.3192 138.687 99.2068C138.82 98.9518 139.011 98.9371 139.139 99.2068C139.273 99.462 139.372 99.7343 139.434 100.016C139.703 101.365 139.787 102.744 139.684 104.115C139.493 106.343 138.932 108.524 138.024 110.568C137.104 112.673 135.723 114.544 133.982 116.045C133.417 116.536 132.877 117.026 132.292 117.487C131.59 117.996 130.838 118.434 130.048 118.791C128.303 119.656 126.447 120.275 124.532 120.63C123.358 120.833 122.166 120.912 120.976 120.865C120.391 120.865 119.802 120.826 119.218 120.797C117.896 120.724 116.592 120.459 115.347 120.012C113.544 119.386 111.811 118.574 110.175 117.59C108.268 116.422 106.642 114.851 105.411 112.985C104.804 112.108 104.274 111.18 103.83 110.21C103.807 110.153 103.77 110.101 103.723 110.061C103.676 110.021 103.62 109.993 103.559 109.98C103.236 109.9 102.936 109.747 102.681 109.534C102.425 109.321 102.222 109.052 102.086 108.749C101.722 107.861 101.439 106.942 101.241 106.003C100.881 104.487 100.689 102.937 100.667 101.379C100.681 100.393 100.772 99.4094 100.937 98.437C101.123 97.1158 101.452 95.8186 101.919 94.5682C102.332 93.4739 102.911 92.45 103.638 91.533C104.06 91.0034 104.409 90.4101 104.822 89.8707C107.44 86.4157 111.189 83.9866 115.416 83.0059C116.231 82.8097 117.047 82.6038 117.872 82.4518C118.608 82.3145 119.345 82.2262 120.102 82.1576C120.976 82.0791 121.85 82.0105 122.729 82.0007C126.256 81.9516 129.712 82.9986 132.616 84.9967C132.947 85.1966 133.246 85.4463 133.5 85.7371C133.689 85.9659 133.814 86.2397 133.864 86.5315C133.883 86.6001 133.923 86.6615 133.977 86.708C134.669 87.3748 135.406 88.0074 136.045 88.7233C137.059 89.83 137.794 91.1634 138.186 92.6117C138.366 93.1967 138.428 93.8113 138.37 94.4204C138.312 95.0295 138.134 95.6213 137.847 96.1618C137.367 96.9692 136.691 97.6436 135.882 98.1232C134.983 98.7344 133.903 99.0262 132.818 98.9518C131.803 98.9055 130.839 98.4926 130.107 97.7897C129.337 96.9911 128.516 96.2426 127.651 95.5488C127.081 95.1173 126.491 94.7104 125.897 94.323C125.179 93.892 124.383 93.6055 123.554 93.4796C122.612 93.3075 121.652 93.2499 120.696 93.308C118.605 93.3478 116.583 94.0559 114.925 95.3282C113.682 96.2653 112.66 97.4618 111.929 98.8342C111.515 99.6669 111.253 100.567 111.158 101.492C111.078 102.062 111.032 102.637 111.02 103.213C111.066 104.855 111.495 106.463 112.273 107.91C112.847 109.033 113.611 110.048 114.532 110.911C115.388 111.68 116.337 112.338 117.356 112.873C118.516 113.501 119.797 113.873 121.113 113.966C122.842 114.146 124.588 113.885 126.187 113.206C126.954 112.846 127.659 112.37 128.279 111.794C129.35 110.875 130.248 109.772 130.932 108.538C131.187 108.092 131.364 107.601 131.58 107.131C131.644 106.989 131.717 106.846 131.791 106.709C131.836 106.643 131.889 106.582 131.948 106.528" fill="#1A2339"/>
<path d="M389.157 99.0401C392.694 99.0401 395.051 101.668 395.051 105.552C395.051 109.435 392.694 112.024 389.157 112.024C385.621 112.024 383.225 109.435 383.225 105.513C383.225 101.59 385.581 99.0401 389.157 99.0401ZM285.621 98.6478C288.372 98.6478 290.179 100.178 290.612 102.61H280.671C281.103 100.158 282.911 98.6478 285.621 98.6478ZM196.506 108.219C196.506 110.612 195.092 112.024 192.577 112.024C190.062 112.024 188.569 110.612 188.569 108.219V94.8036C188.569 94.6735 188.517 94.5488 188.425 94.4567C188.333 94.3648 188.208 94.3132 188.078 94.3132H182.97C182.839 94.3132 182.715 94.3648 182.622 94.4567C182.53 94.5488 182.479 94.6735 182.479 94.8036V108.455C182.479 114.417 185.976 117.399 190.376 117.399C193.52 117.399 195.642 115.476 196.545 112.574V116.3C196.552 116.428 196.606 116.549 196.697 116.639C196.788 116.73 196.908 116.783 197.036 116.791H202.184C202.314 116.791 202.439 116.739 202.531 116.647C202.623 116.555 202.675 116.43 202.675 116.3V94.8036C202.675 94.6735 202.623 94.5488 202.531 94.4567C202.439 94.3648 202.314 94.3132 202.184 94.3132H197.017C196.887 94.3132 196.762 94.3648 196.67 94.4567C196.577 94.5488 196.526 94.6735 196.526 94.8036L196.506 108.219ZM249.394 108.219C249.394 110.612 247.979 112.024 245.465 112.024C242.949 112.024 241.457 110.612 241.457 108.219V94.8036C241.457 94.6735 241.405 94.5488 241.312 94.4567C241.221 94.3648 241.096 94.3132 240.965 94.3132H235.858C235.727 94.3132 235.602 94.3648 235.51 94.4567C235.418 94.5488 235.367 94.6735 235.367 94.8036V108.455C235.367 114.417 238.864 117.399 243.265 117.399C246.407 117.399 248.53 115.476 249.432 112.574V116.3C249.44 116.428 249.494 116.549 249.585 116.639C249.675 116.73 249.796 116.783 249.924 116.791H255.071C255.202 116.791 255.327 116.739 255.419 116.647C255.51 116.555 255.563 116.43 255.563 116.3V94.8036C255.563 94.6735 255.51 94.5488 255.419 94.4567C255.327 94.3648 255.202 94.3132 255.071 94.3132H249.904C249.775 94.3132 249.65 94.3648 249.557 94.4567C249.465 94.5488 249.413 94.6735 249.413 94.8036L249.394 108.219ZM260.592 116.3C260.592 116.43 260.644 116.555 260.735 116.647C260.828 116.739 260.953 116.791 261.084 116.791H266.152C266.282 116.791 266.407 116.739 266.499 116.647C266.591 116.555 266.644 116.43 266.644 116.3V103.983C266.644 100.884 268.608 100.295 271.359 100.295H273.401C273.532 100.295 273.657 100.244 273.749 100.152C273.842 100.06 273.893 99.9351 273.893 99.805V94.8036C273.893 94.6735 273.842 94.5488 273.749 94.4567C273.657 94.3648 273.532 94.3132 273.401 94.3132H272.911C269.61 94.3132 267.567 95.8431 266.624 99.5697V94.8232C266.624 94.6931 266.572 94.5683 266.48 94.4764C266.388 94.3844 266.263 94.3328 266.133 94.3328H261.064C260.933 94.3328 260.808 94.3844 260.716 94.4764C260.624 94.5683 260.573 94.6931 260.573 94.8232L260.592 116.3ZM339.531 116.3C339.531 116.43 339.583 116.555 339.675 116.647C339.766 116.739 339.891 116.791 340.022 116.791H345.13C345.261 116.791 345.386 116.739 345.478 116.647C345.569 116.555 345.621 116.43 345.621 116.3V102.61C345.621 100.413 346.839 99.0401 349.157 99.0401C351.476 99.0401 352.773 100.413 352.773 102.61V116.3C352.773 116.43 352.824 116.555 352.916 116.647C353.008 116.739 353.133 116.791 353.263 116.791H358.41C358.542 116.791 358.667 116.739 358.759 116.647C358.851 116.555 358.902 116.43 358.902 116.3V102.61C358.902 100.413 360.159 99.0401 362.439 99.0401C364.718 99.0401 366.054 100.413 366.054 102.61V116.3C366.06 116.428 366.114 116.549 366.205 116.639C366.295 116.73 366.417 116.783 366.544 116.791H371.652C371.782 116.791 371.907 116.739 372 116.647C372.092 116.555 372.144 116.43 372.144 116.3V102.414C372.144 96.608 368.705 93.6659 364.325 93.6659C360.631 93.6659 358.745 96.0588 357.763 99.0597C357.486 97.5628 356.698 96.2076 355.535 95.2244C354.371 94.2412 352.902 93.6905 351.378 93.6659C348.156 93.6659 346.702 95.6273 345.602 98.5301V94.8036C345.602 94.6735 345.55 94.5488 345.457 94.4567C345.365 94.3648 345.241 94.3132 345.11 94.3132H340.003C339.872 94.3132 339.747 94.3648 339.655 94.4567C339.563 94.5488 339.512 94.6735 339.512 94.8036L339.531 116.3ZM401.574 105.552C401.574 98.9616 397.684 93.6659 391.436 93.6659C387.35 93.6659 384.206 95.8235 383.225 98.8832V94.8036C383.225 94.6735 383.173 94.5488 383.08 94.4567C382.988 94.3648 382.863 94.3132 382.733 94.3132H377.606C377.476 94.3132 377.351 94.3648 377.258 94.4567C377.166 94.5488 377.114 94.6735 377.114 94.8036V125.009C377.114 125.139 377.166 125.264 377.258 125.355C377.351 125.447 377.476 125.499 377.606 125.499H382.753C382.883 125.499 383.008 125.447 383.1 125.355C383.192 125.264 383.244 125.139 383.244 125.009V112.26C384.226 115.32 387.37 117.438 391.455 117.438C397.703 117.438 401.594 112.181 401.594 105.552H401.574ZM316.466 104.228L320.429 93.5482L324.403 104.228H316.466ZM296.82 105.562C296.82 98.8538 292.812 93.4011 285.583 93.4011C278.785 93.4011 274.345 98.8538 274.345 105.562C274.345 112.505 279.296 117.683 286.84 117.683C290.926 117.683 294.423 115.879 296.074 113.486C296.116 113.43 296.148 113.365 296.165 113.297C296.183 113.229 296.187 113.157 296.174 113.088C296.164 113.018 296.139 112.951 296.102 112.891C296.063 112.832 296.014 112.78 295.956 112.74L292.517 109.681C292.47 109.639 292.414 109.607 292.353 109.588C292.293 109.57 292.228 109.564 292.165 109.571C292.103 109.578 292.042 109.599 291.988 109.631C291.934 109.664 291.886 109.707 291.85 109.759C291.263 110.605 290.474 111.291 289.554 111.757C288.635 112.223 287.615 112.453 286.584 112.427C283.676 112.427 281.004 111.053 280.611 107.288H296.329C296.395 107.294 296.461 107.285 296.524 107.263C296.586 107.24 296.643 107.204 296.689 107.157C296.736 107.111 296.773 107.054 296.794 106.992C296.818 106.93 296.826 106.863 296.82 106.797V105.562ZM216.761 99.0892C216.761 99.2191 216.813 99.3439 216.905 99.4359C216.997 99.5278 217.122 99.5794 217.252 99.5794H220.553V110.112C220.553 114.349 222.714 116.82 227.233 116.82H231.438C231.567 116.82 231.692 116.768 231.785 116.676C231.877 116.584 231.928 116.46 231.928 116.33V111.917C231.934 111.851 231.925 111.784 231.903 111.722C231.88 111.66 231.845 111.603 231.798 111.556C231.751 111.51 231.695 111.474 231.632 111.451C231.57 111.429 231.503 111.42 231.438 111.426H228.584C227.169 111.426 226.698 110.936 226.698 109.739V99.5892H231.373C231.503 99.5892 231.628 99.5376 231.72 99.4457C231.812 99.3537 231.865 99.229 231.865 99.099V94.8232C231.865 94.6931 231.812 94.5683 231.72 94.4764C231.628 94.3844 231.503 94.3328 231.373 94.3328H226.698V87.8603C226.698 87.7302 226.646 87.6055 226.554 87.5135C226.461 87.4216 226.336 87.3699 226.206 87.3699H220.985C220.919 87.3639 220.853 87.3724 220.79 87.3949C220.728 87.4174 220.671 87.4534 220.625 87.5002C220.578 87.547 220.542 87.6035 220.519 87.6657C220.497 87.7279 220.488 87.7944 220.494 87.8603V94.2936H217.194C217.063 94.2936 216.938 94.3452 216.846 94.4372C216.754 94.5292 216.702 94.6538 216.702 94.7839L216.761 99.0892ZM305.013 116.349C304.991 116.402 304.983 116.459 304.989 116.516C304.994 116.573 305.013 116.627 305.043 116.675C305.074 116.723 305.116 116.763 305.165 116.792C305.214 116.82 305.27 116.837 305.327 116.84H311.339C311.489 116.844 311.636 116.798 311.757 116.709C311.878 116.621 311.966 116.494 312.006 116.349L314.404 109.837H326.505L328.961 116.349C329.002 116.494 329.09 116.621 329.211 116.709C329.332 116.798 329.479 116.844 329.63 116.84H335.758C335.816 116.837 335.871 116.82 335.921 116.792C335.97 116.763 336.012 116.723 336.042 116.675C336.073 116.627 336.092 116.573 336.097 116.516C336.103 116.459 336.095 116.402 336.073 116.349L325.071 87.8308C325.027 87.7009 324.942 87.5888 324.828 87.511C324.715 87.4333 324.58 87.3941 324.442 87.3993H316.623C316.48 87.3852 316.335 87.4201 316.214 87.4985C316.093 87.5769 316.002 87.6941 315.956 87.8308L305.013 116.349ZM168.078 111.328C162.852 111.328 159.355 107.445 159.355 102.07C159.355 96.6963 162.852 92.8127 168.078 92.8127C169.514 92.8275 170.927 93.1755 172.206 93.829C173.485 94.4825 174.593 95.4238 175.445 96.5785C175.481 96.6422 175.532 96.6964 175.594 96.7366C175.655 96.7767 175.725 96.8015 175.798 96.8093C175.871 96.8169 175.945 96.8071 176.013 96.7807C176.082 96.7542 176.143 96.7118 176.192 96.657L180.357 93.0873C180.453 92.9991 180.515 92.8789 180.529 92.749C180.543 92.6192 180.51 92.4885 180.435 92.3812C177.881 88.6546 173.559 86.7717 168.098 86.7717C158.765 86.7717 152.616 93.715 152.616 102.07C152.616 110.504 158.785 117.448 168.098 117.448C173.559 117.448 178.156 115.133 180.435 111.76C180.511 111.653 180.545 111.522 180.531 111.392C180.516 111.261 180.454 111.141 180.357 111.053L176.152 107.621C176.107 107.567 176.049 107.525 175.984 107.499C175.919 107.473 175.848 107.463 175.778 107.471C175.708 107.479 175.641 107.504 175.583 107.544C175.525 107.584 175.477 107.637 175.445 107.7C174.578 108.827 173.463 109.739 172.185 110.365C170.907 110.991 169.501 111.314 168.078 111.308V111.328ZM213.382 85.8106H208.176C208.11 85.8046 208.043 85.8131 207.981 85.8356C207.919 85.8581 207.862 85.8941 207.815 85.9409C207.768 85.9877 207.732 86.0442 207.71 86.1064C207.687 86.1686 207.679 86.2351 207.685 86.301V116.31C207.685 116.44 207.737 116.565 207.829 116.657C207.921 116.749 208.046 116.8 208.176 116.8H213.358C213.488 116.8 213.613 116.749 213.705 116.657C213.797 116.565 213.849 116.44 213.849 116.31V86.2912C213.855 86.2253 213.846 86.1588 213.824 86.0966C213.801 86.0344 213.765 85.9779 213.718 85.9311C213.671 85.8843 213.615 85.8483 213.553 85.8258C213.49 85.8033 213.424 85.7948 213.358 85.8008" fill="#1A2339"/>
</g>
</g>
<defs>
<filter id="filter0_i_382_8755" x="0.333008" y="0" width="502.667" height="204" filterUnits="userSpaceOnUse" color-interpolation-filters="sRGB">
<feFlood flood-opacity="0" result="BackgroundImageFix"/>
<feBlend mode="normal" in="SourceGraphic" in2="BackgroundImageFix" result="shape"/>
<feColorMatrix in="SourceAlpha" type="matrix" values="0 0 0 0 0 0 0 0 0 0 0 0 0 0 0 0 0 0 127 0" result="hardAlpha"/>
<feOffset dy="4"/>
<feGaussianBlur stdDeviation="25"/>
<feComposite in2="hardAlpha" operator="arithmetic" k2="-1" k3="1"/>
<feColorMatrix type="matrix" values="0 0 0 0 0.890932 0 0 0 0 0.798744 0 0 0 0 1 0 0 0 0.4 0"/>
<feBlend mode="normal" in2="shape" result="effect1_innerShadow_382_8755"/>
</filter>
<linearGradient id="paint0_linear_382_8755" x1="251.666" y1="0" x2="251.666" y2="200" gradientUnits="userSpaceOnUse">
<stop stop-color="#8542C3" stop-opacity="0.17"/>
<stop offset="1" stop-color="#E6D1E0" stop-opacity="0.82985"/>
</linearGradient>
<clipPath id="clip0_382_8755">
<rect width="302" height="72" fill="white" transform="translate(100.667 64)"/>
</clipPath>
</defs>
</svg>
