<svg width="504" height="200" viewBox="0 0 504 200" fill="none" xmlns="http://www.w3.org/2000/svg">
<g filter="url(#filter0_i_382_8750)">
<path d="M0.666504 16C0.666504 7.16344 7.82995 0 16.6665 0H487.333C496.17 0 503.333 7.16344 503.333 16V200H0.666504V16Z" fill="url(#paint0_linear_382_8750)" fill-opacity="0.3"/>
<g clip-path="url(#clip0_382_8750)">
<path d="M192.902 95.8024V110.222H196.497C197.414 110.208 198.32 110.01 199.16 109.641C200 109.271 200.757 108.737 201.386 108.069C202.679 106.701 203.386 104.882 203.357 103C203.385 102.065 203.227 101.134 202.894 100.261C202.56 99.3869 202.057 98.5877 201.414 97.9089C200.782 97.2405 200.019 96.7087 199.174 96.3461C198.328 95.9835 197.417 95.7979 196.497 95.8006H192.904L192.902 95.8024ZM196.497 91.2814C203.198 91.2814 208.267 96.4734 208.267 103C208.267 109.527 203.198 114.748 196.497 114.748H188.568C188.492 114.747 188.418 114.731 188.348 114.701C188.279 114.672 188.216 114.628 188.163 114.574C188.11 114.52 188.068 114.456 188.04 114.386C188.012 114.316 187.998 114.241 187.999 114.165V91.8883C187.999 91.5656 188.254 91.3034 188.568 91.3034L196.497 91.2814ZM225.539 110.724C228.582 110.733 231.33 108.861 232.502 105.981C233.076 104.574 233.229 103.03 232.943 101.538C232.658 100.045 231.945 98.6674 230.892 97.5716C229.858 96.4938 228.52 95.7551 227.057 95.4533C225.594 95.1515 224.074 95.3007 222.697 95.8813C219.885 97.0693 218.048 99.8798 218.042 103C218.042 107.253 221.394 110.704 225.541 110.724H225.539ZM225.541 90.7498C232.593 90.7498 237.985 96.3084 237.985 103C237.985 109.692 232.593 115.25 225.539 115.25C218.486 115.25 213.14 109.719 213.14 103C213.14 96.2809 218.532 90.7498 225.539 90.7498H225.541ZM255.118 110.724C259.267 110.713 262.623 107.259 262.62 103.006C262.614 98.7486 259.25 95.3019 255.103 95.3001C250.952 95.3001 247.586 98.7449 247.581 103C247.581 105.05 248.375 107.015 249.788 108.463C250.48 109.177 251.308 109.745 252.223 110.133C253.138 110.522 254.122 110.722 255.116 110.724H255.118ZM255.116 90.7498C262.147 90.7498 267.539 96.2809 267.539 103C267.539 109.719 262.125 115.25 255.116 115.25C248.109 115.25 242.671 109.719 242.671 103C242.671 96.2809 248.063 90.7498 255.116 90.7498ZM283.984 95.8024H278.914V102.008H283.984C284.384 102.026 284.784 101.961 285.159 101.819C285.533 101.676 285.875 101.458 286.162 101.178C286.748 100.609 287.082 99.8211 287.089 98.9924C287.104 98.572 287.034 98.153 286.883 97.7604C286.731 97.3679 286.502 97.0099 286.209 96.7081C285.922 96.411 285.575 96.1775 285.192 96.0225C284.808 95.8674 284.397 95.7943 283.984 95.8079V95.8024ZM274.01 91.8883C274.01 91.5656 274.267 91.3034 274.58 91.3034H284.125C288.675 91.3034 291.968 94.7226 291.968 99.0163C292.003 101.92 290.417 104.588 287.885 105.888L292.287 113.868C292.348 113.96 292.382 114.067 292.386 114.177C292.39 114.287 292.363 114.396 292.309 114.491C292.256 114.586 292.177 114.663 292.081 114.713C291.986 114.764 291.878 114.786 291.77 114.777H287.907C287.8 114.779 287.694 114.75 287.603 114.694C287.511 114.639 287.438 114.558 287.39 114.462L283.148 106.564H278.896V114.147C278.897 114.223 278.884 114.298 278.856 114.368C278.828 114.439 278.786 114.503 278.733 114.557C278.681 114.611 278.618 114.655 278.548 114.685C278.478 114.715 278.404 114.731 278.328 114.732H274.606C274.53 114.731 274.456 114.715 274.386 114.685C274.316 114.655 274.253 114.611 274.201 114.557C274.148 114.503 274.106 114.439 274.078 114.368C274.05 114.298 274.037 114.223 274.038 114.147L274.012 91.8901L274.01 91.8883ZM304.75 95.9124V110.333H308.343C309.26 110.321 310.166 110.125 311.006 109.756C311.846 109.388 312.604 108.855 313.234 108.188C314.528 106.822 315.236 105.004 315.209 103.123C315.238 102.187 315.082 101.254 314.75 100.379C314.417 99.5038 313.915 98.7029 313.271 98.0226C312.638 97.3531 311.874 96.8206 311.027 96.4579C310.179 96.0953 309.267 95.9103 308.345 95.9143L304.75 95.9124ZM308.343 91.3859C315.044 91.3859 320.113 96.5834 320.113 103.123C320.113 109.662 315.044 114.86 308.343 114.86H300.438C300.362 114.859 300.287 114.843 300.218 114.813C300.148 114.783 300.085 114.74 300.032 114.685C299.979 114.631 299.938 114.567 299.91 114.497C299.882 114.426 299.868 114.351 299.869 114.275V92.0001C299.869 91.6756 300.124 91.4134 300.438 91.4134L308.345 91.3859H308.343ZM335.066 97.1206L332.285 104.832H337.841L335.066 97.1206ZM330.653 109.189L328.832 114.323C328.796 114.444 328.72 114.549 328.617 114.622C328.514 114.695 328.39 114.731 328.264 114.726H324.315C324.215 114.735 324.113 114.718 324.022 114.674C323.931 114.631 323.853 114.564 323.796 114.48C323.739 114.396 323.704 114.298 323.695 114.195C323.686 114.093 323.704 113.991 323.747 113.897L332.279 91.6426C332.319 91.5252 332.396 91.4241 332.499 91.3546C332.601 91.2851 332.724 91.251 332.847 91.2576H337.266C337.39 91.2506 337.513 91.2845 337.616 91.354C337.719 91.4235 337.796 91.5249 337.836 91.6426L346.368 113.897C346.411 113.991 346.428 114.094 346.419 114.196C346.41 114.298 346.375 114.396 346.317 114.48C346.26 114.564 346.182 114.63 346.091 114.673C346 114.716 345.899 114.734 345.798 114.724H341.851C341.725 114.73 341.601 114.693 341.498 114.62C341.395 114.547 341.319 114.442 341.283 114.321L339.462 109.188H330.653V109.189ZM350.946 97.6211C350.946 93.9361 354.052 90.7498 358.956 90.7498C361.597 90.6908 364.154 91.6787 366.069 93.4979C366.128 93.5531 366.174 93.6196 366.206 93.6934C366.238 93.7671 366.254 93.8466 366.254 93.9269C366.254 94.0072 366.238 94.0867 366.206 94.1605C366.174 94.2342 366.128 94.3007 366.069 94.3559L363.882 96.5834C363.83 96.6375 363.767 96.6806 363.698 96.71C363.629 96.7393 363.554 96.7545 363.479 96.7545C363.404 96.7545 363.329 96.7393 363.26 96.71C363.19 96.6806 363.128 96.6375 363.075 96.5834C362.045 95.6178 360.692 95.0708 359.28 95.0489C357.319 95.0489 355.869 96.2168 355.869 97.5642C355.869 101.92 367.461 99.4068 367.461 107.789C367.455 112.037 364.326 115.25 358.793 115.25C357.256 115.266 355.732 114.973 354.312 114.388C352.891 113.802 351.602 112.937 350.523 111.844C350.464 111.789 350.418 111.722 350.386 111.649C350.354 111.575 350.338 111.495 350.338 111.415C350.338 111.335 350.354 111.255 350.386 111.182C350.418 111.108 350.464 111.041 350.523 110.986L352.638 108.815C352.691 108.759 352.755 108.713 352.826 108.682C352.897 108.651 352.973 108.635 353.051 108.635C353.128 108.635 353.205 108.651 353.276 108.682C353.347 108.713 353.411 108.759 353.463 108.815C354.795 110.135 356.588 110.885 358.463 110.905C360.914 110.905 362.529 109.563 362.529 107.882C362.529 103.524 350.942 106.04 350.942 97.6559L350.946 97.6211ZM388.482 91.8589V100.666H378.67V91.8589C378.671 91.7833 378.657 91.7083 378.629 91.6381C378.601 91.5678 378.559 91.5038 378.506 91.4497C378.454 91.3956 378.391 91.3523 378.321 91.3225C378.252 91.2927 378.177 91.2769 378.101 91.2759H374.38C374.304 91.2769 374.23 91.2927 374.16 91.3225C374.091 91.3523 374.028 91.3956 373.975 91.4497C373.922 91.5038 373.88 91.5678 373.852 91.6381C373.824 91.7083 373.811 91.7833 373.811 91.8589V114.11C373.811 114.433 374.068 114.695 374.38 114.695H378.101C378.413 114.695 378.67 114.433 378.67 114.11V105.163H388.474V114.11C388.474 114.433 388.731 114.695 389.043 114.695H392.764C393.078 114.695 393.333 114.433 393.333 114.11V91.8589C393.334 91.7833 393.32 91.7083 393.292 91.6381C393.264 91.5678 393.222 91.5038 393.169 91.4497C393.117 91.3956 393.054 91.3523 392.984 91.3225C392.915 91.2927 392.84 91.2769 392.764 91.2759H389.043C388.891 91.2798 388.748 91.3431 388.643 91.4522C388.538 91.5614 388.48 91.7075 388.482 91.8589ZM167.109 94.2459C164.527 89.4609 159.476 86.4818 153.984 86.5001H112.426C112.145 86.5012 111.871 86.5849 111.638 86.7408C111.404 86.8966 111.222 87.1177 111.113 87.3764C111.006 87.6335 110.978 87.9167 111.033 88.1898C111.088 88.4628 111.223 88.7133 111.421 88.9091L120.474 97.8924C121.273 98.6881 122.362 99.1336 123.495 99.1336H152.792C154.88 99.1116 156.587 100.765 156.609 102.824C156.631 104.883 154.957 106.57 152.869 106.59H132.671C132.39 106.59 132.116 106.673 131.882 106.828C131.648 106.983 131.464 107.204 131.355 107.462C131.247 107.72 131.218 108.004 131.273 108.277C131.327 108.551 131.463 108.802 131.661 108.999L140.72 117.989C141.524 118.785 142.61 119.23 143.741 119.229H152.876C164.762 119.229 173.749 106.689 167.109 94.2404" fill="#1A2339"/>
</g>
</g>
<defs>
<filter id="filter0_i_382_8750" x="0.666504" y="0" width="502.667" height="204" filterUnits="userSpaceOnUse" color-interpolation-filters="sRGB">
<feFlood flood-opacity="0" result="BackgroundImageFix"/>
<feBlend mode="normal" in="SourceGraphic" in2="BackgroundImageFix" result="shape"/>
<feColorMatrix in="SourceAlpha" type="matrix" values="0 0 0 0 0 0 0 0 0 0 0 0 0 0 0 0 0 0 127 0" result="hardAlpha"/>
<feOffset dy="4"/>
<feGaussianBlur stdDeviation="25"/>
<feComposite in2="hardAlpha" operator="arithmetic" k2="-1" k3="1"/>
<feColorMatrix type="matrix" values="0 0 0 0 0.890932 0 0 0 0 0.798744 0 0 0 0 1 0 0 0 0.4 0"/>
<feBlend mode="normal" in2="shape" result="effect1_innerShadow_382_8750"/>
</filter>
<linearGradient id="paint0_linear_382_8750" x1="252" y1="0" x2="252" y2="200" gradientUnits="userSpaceOnUse">
<stop stop-color="#8542C3" stop-opacity="0.17"/>
<stop offset="1" stop-color="#E6D1E0" stop-opacity="0.82985"/>
</linearGradient>
<clipPath id="clip0_382_8750">
<rect width="282" height="72" fill="white" transform="translate(111 64)"/>
</clipPath>
</defs>
</svg>
