<svg width="80" height="80" viewBox="0 0 80 80" fill="none" xmlns="http://www.w3.org/2000/svg">
<path d="M4.56167e-06 53.0592C7.2172e-06 67.9382 12.3122 80 27.5 80L27.5 54.4408C27.5 39.5618 15.1878 27.5 0 27.5L4.56167e-06 53.0592Z" fill="#8542C3"/>
<path d="M52.5 25.5592C52.5 40.4382 64.8122 52.5 80 52.5V26.9408C80 12.0618 67.6878 1.9333e-05 52.5 2.19345e-05L52.5 25.5592Z" fill="#8542C3"/>
<path d="M26.9408 0C12.0618 -6.63881e-07 6.50381e-07 12.3122 0 27.5L25.5592 27.5C40.4382 27.5 52.5 15.1878 52.5 2.19345e-05L26.9408 0Z" fill="#3D98CD"/>
<path d="M54.4408 52.5C39.5618 52.5 27.5 64.8122 27.5 80H53.0592C67.9382 80 80 67.6878 80 52.5H54.4408Z" fill="#3D98CD"/>
</svg>
