<svg width="81" height="80" viewBox="0 0 81 80" fill="none" xmlns="http://www.w3.org/2000/svg">
<path d="M37.2065 13.9333C37.2065 21.6284 30.8715 27.8666 23.0569 27.8666C15.2422 27.8666 8.90721 21.6284 8.90721 13.9333C8.90721 6.23815 15.2422 0 23.0569 0C30.8715 0 37.2065 6.23815 37.2065 13.9333Z" fill="#3D98CD"/>
<path d="M72.215 13.9333C72.215 21.6284 65.88 27.8666 58.0654 27.8666C50.2507 27.8666 43.9157 21.6284 43.9157 13.9333C43.9157 6.23815 50.2507 0 58.0654 0C65.88 0 72.215 6.23815 72.215 13.9333Z" fill="#ECACE5"/>
<path d="M0.833252 52.576V80H35.8333V52.576C35.8333 46.6862 37.8772 42.427 40.8333 39.3971C35.7812 34.2189 28.0647 32.6314 23.3333 32.6314C8.53053 32.6314 0.833252 45.0968 0.833252 52.576Z" fill="#F4AC07"/>
<path d="M45.8333 80V52.576C45.8333 46.6862 43.7893 42.427 40.8333 39.3971C37.8772 42.427 35.8333 46.6862 35.8333 52.576V80H45.8333Z" fill="#3D98CD"/>
<path d="M45.8333 52.576V80H80.8333V52.576C80.8333 45.6094 71.8154 32.6314 58.3333 32.6314C53.6018 32.6314 45.8853 34.2189 40.8333 39.3971C43.7893 42.427 45.8333 46.6862 45.8333 52.576Z" fill="#8542C3"/>
</svg>
